0
SECTION
2
ENTITIES
0
TEXT
8
TITULO
10
0.0
20
1200.0
40
200.0
1
DESPIECE RIOSTRAS DE CIMENTACION (0.30x0.30 m) - NSR-10 A.3.6.4.2
0
TEXT
8
TEXTO
10
0.0
20
900.0
40
120.0
1
Cotas en mm. Escala sugerida de impresion 1:25. NSR-10.
0
LINE
8
CONCRETO
10
0.0
20
0.0
11
2500.0
21
0.0
0
LINE
8
CONCRETO
10
2500.0
20
0.0
11
2500.0
21
300.0
0
LINE
8
CONCRETO
10
2500.0
20
300.0
11
0.0
21
300.0
0
LINE
8
CONCRETO
10
0.0
20
300.0
11
0.0
21
0.0
0
LINE
8
ACERO
10
40.0
20
40.0
11
2460.0
21
40.0
0
LINE
8
ACERO
10
40.0
20
260.0
11
2460.0
21
260.0
0
LINE
8
ESTRIBO
10
60.0
20
30.0
11
60.0
21
270.0
0
LINE
8
ESTRIBO
10
160.0
20
30.0
11
160.0
21
270.0
0
LINE
8
ESTRIBO
10
260.0
20
30.0
11
260.0
21
270.0
0
LINE
8
ESTRIBO
10
360.0
20
30.0
11
360.0
21
270.0
0
LINE
8
ESTRIBO
10
460.0
20
30.0
11
460.0
21
270.0
0
LINE
8
ESTRIBO
10
560.0
20
30.0
11
560.0
21
270.0
0
LINE
8
ESTRIBO
10
660.0
20
30.0
11
660.0
21
270.0
0
LINE
8
ESTRIBO
10
810.0
20
30.0
11
810.0
21
270.0
0
LINE
8
ESTRIBO
10
960.0
20
30.0
11
960.0
21
270.0
0
LINE
8
ESTRIBO
10
1110.0
20
30.0
11
1110.0
21
270.0
0
LINE
8
ESTRIBO
10
1260.0
20
30.0
11
1260.0
21
270.0
0
LINE
8
ESTRIBO
10
1410.0
20
30.0
11
1410.0
21
270.0
0
LINE
8
ESTRIBO
10
1560.0
20
30.0
11
1560.0
21
270.0
0
LINE
8
ESTRIBO
10
1710.0
20
30.0
11
1710.0
21
270.0
0
LINE
8
ESTRIBO
10
1860.0
20
30.0
11
1860.0
21
270.0
0
LINE
8
ESTRIBO
10
2010.0
20
30.0
11
2010.0
21
270.0
0
LINE
8
ESTRIBO
10
2110.0
20
30.0
11
2110.0
21
270.0
0
LINE
8
ESTRIBO
10
2210.0
20
30.0
11
2210.0
21
270.0
0
LINE
8
ESTRIBO
10
2310.0
20
30.0
11
2310.0
21
270.0
0
LINE
8
ESTRIBO
10
2410.0
20
30.0
11
2410.0
21
270.0
0
LINE
8
COTA
10
0.0
20
-120.0
11
2500.0
21
-120.0
0
TEXT
8
COTA
10
950.0
20
-230.0
40
90.0
1
L = 2.50 m
0
TEXT
8
TEXTO
10
0.0
20
500.0
40
120.0
1
R-1  |  Viga de amarre 300x300 mm  |  4 No.5 (2 sup + 2 inf)  |  Estribos No.3 @150 (@100 conf.)
0
LINE
8
CONCRETO
10
3000.0
20
0.0
11
3300.0
21
0.0
0
LINE
8
CONCRETO
10
3300.0
20
0.0
11
3300.0
21
300.0
0
LINE
8
CONCRETO
10
3300.0
20
300.0
11
3000.0
21
300.0
0
LINE
8
CONCRETO
10
3000.0
20
300.0
11
3000.0
21
0.0
0
CIRCLE
8
ACERO
10
3050.0
20
50.0
40
12.0
0
CIRCLE
8
ACERO
10
3050.0
20
250.0
40
12.0
0
CIRCLE
8
ACERO
10
3250.0
20
50.0
40
12.0
0
CIRCLE
8
ACERO
10
3250.0
20
250.0
40
12.0
0
LINE
8
ESTRIBO
10
3030.0
20
30.0
11
3270.0
21
30.0
0
LINE
8
ESTRIBO
10
3270.0
20
30.0
11
3270.0
21
270.0
0
LINE
8
ESTRIBO
10
3270.0
20
270.0
11
3030.0
21
270.0
0
LINE
8
ESTRIBO
10
3030.0
20
270.0
11
3030.0
21
30.0
0
TEXT
8
TEXTO
10
3000.0
20
390.0
40
90.0
1
Sec. 300x300
0
LINE
8
CONCRETO
10
0.0
20
-1100.0
11
2600.0
21
-1100.0
0
LINE
8
CONCRETO
10
2600.0
20
-1100.0
11
2600.0
21
-800.0
0
LINE
8
CONCRETO
10
2600.0
20
-800.0
11
0.0
21
-800.0
0
LINE
8
CONCRETO
10
0.0
20
-800.0
11
0.0
21
-1100.0
0
LINE
8
ACERO
10
40.0
20
-1060.0
11
2560.0
21
-1060.0
0
LINE
8
ACERO
10
40.0
20
-840.0
11
2560.0
21
-840.0
0
LINE
8
ESTRIBO
10
60.0
20
-1070.0
11
60.0
21
-830.0
0
LINE
8
ESTRIBO
10
160.0
20
-1070.0
11
160.0
21
-830.0
0
LINE
8
ESTRIBO
10
260.0
20
-1070.0
11
260.0
21
-830.0
0
LINE
8
ESTRIBO
10
360.0
20
-1070.0
11
360.0
21
-830.0
0
LINE
8
ESTRIBO
10
460.0
20
-1070.0
11
460.0
21
-830.0
0
LINE
8
ESTRIBO
10
560.0
20
-1070.0
11
560.0
21
-830.0
0
LINE
8
ESTRIBO
10
660.0
20
-1070.0
11
660.0
21
-830.0
0
LINE
8
ESTRIBO
10
810.0
20
-1070.0
11
810.0
21
-830.0
0
LINE
8
ESTRIBO
10
960.0
20
-1070.0
11
960.0
21
-830.0
0
LINE
8
ESTRIBO
10
1110.0
20
-1070.0
11
1110.0
21
-830.0
0
LINE
8
ESTRIBO
10
1260.0
20
-1070.0
11
1260.0
21
-830.0
0
LINE
8
ESTRIBO
10
1410.0
20
-1070.0
11
1410.0
21
-830.0
0
LINE
8
ESTRIBO
10
1560.0
20
-1070.0
11
1560.0
21
-830.0
0
LINE
8
ESTRIBO
10
1710.0
20
-1070.0
11
1710.0
21
-830.0
0
LINE
8
ESTRIBO
10
1860.0
20
-1070.0
11
1860.0
21
-830.0
0
LINE
8
ESTRIBO
10
2010.0
20
-1070.0
11
2010.0
21
-830.0
0
LINE
8
ESTRIBO
10
2110.0
20
-1070.0
11
2110.0
21
-830.0
0
LINE
8
ESTRIBO
10
2210.0
20
-1070.0
11
2210.0
21
-830.0
0
LINE
8
ESTRIBO
10
2310.0
20
-1070.0
11
2310.0
21
-830.0
0
LINE
8
ESTRIBO
10
2410.0
20
-1070.0
11
2410.0
21
-830.0
0
LINE
8
ESTRIBO
10
2510.0
20
-1070.0
11
2510.0
21
-830.0
0
LINE
8
COTA
10
0.0
20
-1220.0
11
2600.0
21
-1220.0
0
TEXT
8
COTA
10
1000.0
20
-1330.0
40
90.0
1
L = 2.60 m
0
TEXT
8
TEXTO
10
0.0
20
-600.0
40
120.0
1
R-2  |  Viga de amarre 300x300 mm  |  4 No.5 (2 sup + 2 inf)  |  Estribos No.3 @150 (@100 conf.)
0
LINE
8
CONCRETO
10
3100.0
20
-1100.0
11
3400.0
21
-1100.0
0
LINE
8
CONCRETO
10
3400.0
20
-1100.0
11
3400.0
21
-800.0
0
LINE
8
CONCRETO
10
3400.0
20
-800.0
11
3100.0
21
-800.0
0
LINE
8
CONCRETO
10
3100.0
20
-800.0
11
3100.0
21
-1100.0
0
CIRCLE
8
ACERO
10
3150.0
20
-1050.0
40
12.0
0
CIRCLE
8
ACERO
10
3150.0
20
-850.0
40
12.0
0
CIRCLE
8
ACERO
10
3350.0
20
-1050.0
40
12.0
0
CIRCLE
8
ACERO
10
3350.0
20
-850.0
40
12.0
0
LINE
8
ESTRIBO
10
3130.0
20
-1070.0
11
3370.0
21
-1070.0
0
LINE
8
ESTRIBO
10
3370.0
20
-1070.0
11
3370.0
21
-830.0
0
LINE
8
ESTRIBO
10
3370.0
20
-830.0
11
3130.0
21
-830.0
0
LINE
8
ESTRIBO
10
3130.0
20
-830.0
11
3130.0
21
-1070.0
0
TEXT
8
TEXTO
10
3100.0
20
-710.0
40
90.0
1
Sec. 300x300
0
LINE
8
CONCRETO
10
0.0
20
-2200.0
11
2700.0
21
-2200.0
0
LINE
8
CONCRETO
10
2700.0
20
-2200.0
11
2700.0
21
-1900.0
0
LINE
8
CONCRETO
10
2700.0
20
-1900.0
11
0.0
21
-1900.0
0
LINE
8
CONCRETO
10
0.0
20
-1900.0
11
0.0
21
-2200.0
0
LINE
8
ACERO
10
40.0
20
-2160.0
11
2660.0
21
-2160.0
0
LINE
8
ACERO
10
40.0
20
-1940.0
11
2660.0
21
-1940.0
0
LINE
8
ESTRIBO
10
60.0
20
-2170.0
11
60.0
21
-1930.0
0
LINE
8
ESTRIBO
10
160.0
20
-2170.0
11
160.0
21
-1930.0
0
LINE
8
ESTRIBO
10
260.0
20
-2170.0
11
260.0
21
-1930.0
0
LINE
8
ESTRIBO
10
360.0
20
-2170.0
11
360.0
21
-1930.0
0
LINE
8
ESTRIBO
10
460.0
20
-2170.0
11
460.0
21
-1930.0
0
LINE
8
ESTRIBO
10
560.0
20
-2170.0
11
560.0
21
-1930.0
0
LINE
8
ESTRIBO
10
660.0
20
-2170.0
11
660.0
21
-1930.0
0
LINE
8
ESTRIBO
10
810.0
20
-2170.0
11
810.0
21
-1930.0
0
LINE
8
ESTRIBO
10
960.0
20
-2170.0
11
960.0
21
-1930.0
0
LINE
8
ESTRIBO
10
1110.0
20
-2170.0
11
1110.0
21
-1930.0
0
LINE
8
ESTRIBO
10
1260.0
20
-2170.0
11
1260.0
21
-1930.0
0
LINE
8
ESTRIBO
10
1410.0
20
-2170.0
11
1410.0
21
-1930.0
0
LINE
8
ESTRIBO
10
1560.0
20
-2170.0
11
1560.0
21
-1930.0
0
LINE
8
ESTRIBO
10
1710.0
20
-2170.0
11
1710.0
21
-1930.0
0
LINE
8
ESTRIBO
10
1860.0
20
-2170.0
11
1860.0
21
-1930.0
0
LINE
8
ESTRIBO
10
2010.0
20
-2170.0
11
2010.0
21
-1930.0
0
LINE
8
ESTRIBO
10
2160.0
20
-2170.0
11
2160.0
21
-1930.0
0
LINE
8
ESTRIBO
10
2260.0
20
-2170.0
11
2260.0
21
-1930.0
0
LINE
8
ESTRIBO
10
2360.0
20
-2170.0
11
2360.0
21
-1930.0
0
LINE
8
ESTRIBO
10
2460.0
20
-2170.0
11
2460.0
21
-1930.0
0
LINE
8
ESTRIBO
10
2560.0
20
-2170.0
11
2560.0
21
-1930.0
0
LINE
8
COTA
10
0.0
20
-2320.0
11
2700.0
21
-2320.0
0
TEXT
8
COTA
10
1050.0
20
-2430.0
40
90.0
1
L = 2.70 m
0
TEXT
8
TEXTO
10
0.0
20
-1700.0
40
120.0
1
R-3  |  Viga de amarre 300x300 mm  |  4 No.5 (2 sup + 2 inf)  |  Estribos No.3 @150 (@100 conf.)
0
LINE
8
CONCRETO
10
3200.0
20
-2200.0
11
3500.0
21
-2200.0
0
LINE
8
CONCRETO
10
3500.0
20
-2200.0
11
3500.0
21
-1900.0
0
LINE
8
CONCRETO
10
3500.0
20
-1900.0
11
3200.0
21
-1900.0
0
LINE
8
CONCRETO
10
3200.0
20
-1900.0
11
3200.0
21
-2200.0
0
CIRCLE
8
ACERO
10
3250.0
20
-2150.0
40
12.0
0
CIRCLE
8
ACERO
10
3250.0
20
-1950.0
40
12.0
0
CIRCLE
8
ACERO
10
3450.0
20
-2150.0
40
12.0
0
CIRCLE
8
ACERO
10
3450.0
20
-1950.0
40
12.0
0
LINE
8
ESTRIBO
10
3230.0
20
-2170.0
11
3470.0
21
-2170.0
0
LINE
8
ESTRIBO
10
3470.0
20
-2170.0
11
3470.0
21
-1930.0
0
LINE
8
ESTRIBO
10
3470.0
20
-1930.0
11
3230.0
21
-1930.0
0
LINE
8
ESTRIBO
10
3230.0
20
-1930.0
11
3230.0
21
-2170.0
0
TEXT
8
TEXTO
10
3200.0
20
-1810.0
40
90.0
1
Sec. 300x300
0
LINE
8
CONCRETO
10
0.0
20
-3300.0
11
2800.0
21
-3300.0
0
LINE
8
CONCRETO
10
2800.0
20
-3300.0
11
2800.0
21
-3000.0
0
LINE
8
CONCRETO
10
2800.0
20
-3000.0
11
0.0
21
-3000.0
0
LINE
8
CONCRETO
10
0.0
20
-3000.0
11
0.0
21
-3300.0
0
LINE
8
ACERO
10
40.0
20
-3260.0
11
2760.0
21
-3260.0
0
LINE
8
ACERO
10
40.0
20
-3040.0
11
2760.0
21
-3040.0
0
LINE
8
ESTRIBO
10
60.0
20
-3270.0
11
60.0
21
-3030.0
0
LINE
8
ESTRIBO
10
160.0
20
-3270.0
11
160.0
21
-3030.0
0
LINE
8
ESTRIBO
10
260.0
20
-3270.0
11
260.0
21
-3030.0
0
LINE
8
ESTRIBO
10
360.0
20
-3270.0
11
360.0
21
-3030.0
0
LINE
8
ESTRIBO
10
460.0
20
-3270.0
11
460.0
21
-3030.0
0
LINE
8
ESTRIBO
10
560.0
20
-3270.0
11
560.0
21
-3030.0
0
LINE
8
ESTRIBO
10
660.0
20
-3270.0
11
660.0
21
-3030.0
0
LINE
8
ESTRIBO
10
810.0
20
-3270.0
11
810.0
21
-3030.0
0
LINE
8
ESTRIBO
10
960.0
20
-3270.0
11
960.0
21
-3030.0
0
LINE
8
ESTRIBO
10
1110.0
20
-3270.0
11
1110.0
21
-3030.0
0
LINE
8
ESTRIBO
10
1260.0
20
-3270.0
11
1260.0
21
-3030.0
0
LINE
8
ESTRIBO
10
1410.0
20
-3270.0
11
1410.0
21
-3030.0
0
LINE
8
ESTRIBO
10
1560.0
20
-3270.0
11
1560.0
21
-3030.0
0
LINE
8
ESTRIBO
10
1710.0
20
-3270.0
11
1710.0
21
-3030.0
0
LINE
8
ESTRIBO
10
1860.0
20
-3270.0
11
1860.0
21
-3030.0
0
LINE
8
ESTRIBO
10
2010.0
20
-3270.0
11
2010.0
21
-3030.0
0
LINE
8
ESTRIBO
10
2160.0
20
-3270.0
11
2160.0
21
-3030.0
0
LINE
8
ESTRIBO
10
2310.0
20
-3270.0
11
2310.0
21
-3030.0
0
LINE
8
ESTRIBO
10
2410.0
20
-3270.0
11
2410.0
21
-3030.0
0
LINE
8
ESTRIBO
10
2510.0
20
-3270.0
11
2510.0
21
-3030.0
0
LINE
8
ESTRIBO
10
2610.0
20
-3270.0
11
2610.0
21
-3030.0
0
LINE
8
ESTRIBO
10
2710.0
20
-3270.0
11
2710.0
21
-3030.0
0
LINE
8
COTA
10
0.0
20
-3420.0
11
2800.0
21
-3420.0
0
TEXT
8
COTA
10
1100.0
20
-3530.0
40
90.0
1
L = 2.80 m
0
TEXT
8
TEXTO
10
0.0
20
-2800.0
40
120.0
1
R-4  |  Viga de amarre 300x300 mm  |  4 No.5 (2 sup + 2 inf)  |  Estribos No.3 @150 (@100 conf.)
0
LINE
8
CONCRETO
10
3300.0
20
-3300.0
11
3600.0
21
-3300.0
0
LINE
8
CONCRETO
10
3600.0
20
-3300.0
11
3600.0
21
-3000.0
0
LINE
8
CONCRETO
10
3600.0
20
-3000.0
11
3300.0
21
-3000.0
0
LINE
8
CONCRETO
10
3300.0
20
-3000.0
11
3300.0
21
-3300.0
0
CIRCLE
8
ACERO
10
3350.0
20
-3250.0
40
12.0
0
CIRCLE
8
ACERO
10
3350.0
20
-3050.0
40
12.0
0
CIRCLE
8
ACERO
10
3550.0
20
-3250.0
40
12.0
0
CIRCLE
8
ACERO
10
3550.0
20
-3050.0
40
12.0
0
LINE
8
ESTRIBO
10
3330.0
20
-3270.0
11
3570.0
21
-3270.0
0
LINE
8
ESTRIBO
10
3570.0
20
-3270.0
11
3570.0
21
-3030.0
0
LINE
8
ESTRIBO
10
3570.0
20
-3030.0
11
3330.0
21
-3030.0
0
LINE
8
ESTRIBO
10
3330.0
20
-3030.0
11
3330.0
21
-3270.0
0
TEXT
8
TEXTO
10
3300.0
20
-2910.0
40
90.0
1
Sec. 300x300
0
LINE
8
CONCRETO
10
0.0
20
-4400.0
11
3650.0
21
-4400.0
0
LINE
8
CONCRETO
10
3650.0
20
-4400.0
11
3650.0
21
-4100.0
0
LINE
8
CONCRETO
10
3650.0
20
-4100.0
11
0.0
21
-4100.0
0
LINE
8
CONCRETO
10
0.0
20
-4100.0
11
0.0
21
-4400.0
0
LINE
8
ACERO
10
40.0
20
-4360.0
11
3610.0
21
-4360.0
0
LINE
8
ACERO
10
40.0
20
-4140.0
11
3610.0
21
-4140.0
0
LINE
8
ESTRIBO
10
60.0
20
-4370.0
11
60.0
21
-4130.0
0
LINE
8
ESTRIBO
10
160.0
20
-4370.0
11
160.0
21
-4130.0
0
LINE
8
ESTRIBO
10
260.0
20
-4370.0
11
260.0
21
-4130.0
0
LINE
8
ESTRIBO
10
360.0
20
-4370.0
11
360.0
21
-4130.0
0
LINE
8
ESTRIBO
10
460.0
20
-4370.0
11
460.0
21
-4130.0
0
LINE
8
ESTRIBO
10
560.0
20
-4370.0
11
560.0
21
-4130.0
0
LINE
8
ESTRIBO
10
660.0
20
-4370.0
11
660.0
21
-4130.0
0
LINE
8
ESTRIBO
10
810.0
20
-4370.0
11
810.0
21
-4130.0
0
LINE
8
ESTRIBO
10
960.0
20
-4370.0
11
960.0
21
-4130.0
0
LINE
8
ESTRIBO
10
1110.0
20
-4370.0
11
1110.0
21
-4130.0
0
LINE
8
ESTRIBO
10
1260.0
20
-4370.0
11
1260.0
21
-4130.0
0
LINE
8
ESTRIBO
10
1410.0
20
-4370.0
11
1410.0
21
-4130.0
0
LINE
8
ESTRIBO
10
1560.0
20
-4370.0
11
1560.0
21
-4130.0
0
LINE
8
ESTRIBO
10
1710.0
20
-4370.0
11
1710.0
21
-4130.0
0
LINE
8
ESTRIBO
10
1860.0
20
-4370.0
11
1860.0
21
-4130.0
0
LINE
8
ESTRIBO
10
2010.0
20
-4370.0
11
2010.0
21
-4130.0
0
LINE
8
ESTRIBO
10
2160.0
20
-4370.0
11
2160.0
21
-4130.0
0
LINE
8
ESTRIBO
10
2310.0
20
-4370.0
11
2310.0
21
-4130.0
0
LINE
8
ESTRIBO
10
2460.0
20
-4370.0
11
2460.0
21
-4130.0
0
LINE
8
ESTRIBO
10
2610.0
20
-4370.0
11
2610.0
21
-4130.0
0
LINE
8
ESTRIBO
10
2760.0
20
-4370.0
11
2760.0
21
-4130.0
0
LINE
8
ESTRIBO
10
2910.0
20
-4370.0
11
2910.0
21
-4130.0
0
LINE
8
ESTRIBO
10
3060.0
20
-4370.0
11
3060.0
21
-4130.0
0
LINE
8
ESTRIBO
10
3160.0
20
-4370.0
11
3160.0
21
-4130.0
0
LINE
8
ESTRIBO
10
3260.0
20
-4370.0
11
3260.0
21
-4130.0
0
LINE
8
ESTRIBO
10
3360.0
20
-4370.0
11
3360.0
21
-4130.0
0
LINE
8
ESTRIBO
10
3460.0
20
-4370.0
11
3460.0
21
-4130.0
0
LINE
8
ESTRIBO
10
3560.0
20
-4370.0
11
3560.0
21
-4130.0
0
LINE
8
COTA
10
0.0
20
-4520.0
11
3650.0
21
-4520.0
0
TEXT
8
COTA
10
1525.0
20
-4630.0
40
90.0
1
L = 3.65 m
0
TEXT
8
TEXTO
10
0.0
20
-3900.0
40
120.0
1
R-5  |  Viga de amarre 300x300 mm  |  4 No.5 (2 sup + 2 inf)  |  Estribos No.3 @150 (@100 conf.)
0
LINE
8
CONCRETO
10
4150.0
20
-4400.0
11
4450.0
21
-4400.0
0
LINE
8
CONCRETO
10
4450.0
20
-4400.0
11
4450.0
21
-4100.0
0
LINE
8
CONCRETO
10
4450.0
20
-4100.0
11
4150.0
21
-4100.0
0
LINE
8
CONCRETO
10
4150.0
20
-4100.0
11
4150.0
21
-4400.0
0
CIRCLE
8
ACERO
10
4200.0
20
-4350.0
40
12.0
0
CIRCLE
8
ACERO
10
4200.0
20
-4150.0
40
12.0
0
CIRCLE
8
ACERO
10
4400.0
20
-4350.0
40
12.0
0
CIRCLE
8
ACERO
10
4400.0
20
-4150.0
40
12.0
0
LINE
8
ESTRIBO
10
4180.0
20
-4370.0
11
4420.0
21
-4370.0
0
LINE
8
ESTRIBO
10
4420.0
20
-4370.0
11
4420.0
21
-4130.0
0
LINE
8
ESTRIBO
10
4420.0
20
-4130.0
11
4180.0
21
-4130.0
0
LINE
8
ESTRIBO
10
4180.0
20
-4130.0
11
4180.0
21
-4370.0
0
TEXT
8
TEXTO
10
4150.0
20
-4010.0
40
90.0
1
Sec. 300x300
0
LINE
8
CONCRETO
10
0.0
20
-5500.0
11
3850.0
21
-5500.0
0
LINE
8
CONCRETO
10
3850.0
20
-5500.0
11
3850.0
21
-5200.0
0
LINE
8
CONCRETO
10
3850.0
20
-5200.0
11
0.0
21
-5200.0
0
LINE
8
CONCRETO
10
0.0
20
-5200.0
11
0.0
21
-5500.0
0
LINE
8
ACERO
10
40.0
20
-5460.0
11
3810.0
21
-5460.0
0
LINE
8
ACERO
10
40.0
20
-5240.0
11
3810.0
21
-5240.0
0
LINE
8
ESTRIBO
10
60.0
20
-5470.0
11
60.0
21
-5230.0
0
LINE
8
ESTRIBO
10
160.0
20
-5470.0
11
160.0
21
-5230.0
0
LINE
8
ESTRIBO
10
260.0
20
-5470.0
11
260.0
21
-5230.0
0
LINE
8
ESTRIBO
10
360.0
20
-5470.0
11
360.0
21
-5230.0
0
LINE
8
ESTRIBO
10
460.0
20
-5470.0
11
460.0
21
-5230.0
0
LINE
8
ESTRIBO
10
560.0
20
-5470.0
11
560.0
21
-5230.0
0
LINE
8
ESTRIBO
10
660.0
20
-5470.0
11
660.0
21
-5230.0
0
LINE
8
ESTRIBO
10
810.0
20
-5470.0
11
810.0
21
-5230.0
0
LINE
8
ESTRIBO
10
960.0
20
-5470.0
11
960.0
21
-5230.0
0
LINE
8
ESTRIBO
10
1110.0
20
-5470.0
11
1110.0
21
-5230.0
0
LINE
8
ESTRIBO
10
1260.0
20
-5470.0
11
1260.0
21
-5230.0
0
LINE
8
ESTRIBO
10
1410.0
20
-5470.0
11
1410.0
21
-5230.0
0
LINE
8
ESTRIBO
10
1560.0
20
-5470.0
11
1560.0
21
-5230.0
0
LINE
8
ESTRIBO
10
1710.0
20
-5470.0
11
1710.0
21
-5230.0
0
LINE
8
ESTRIBO
10
1860.0
20
-5470.0
11
1860.0
21
-5230.0
0
LINE
8
ESTRIBO
10
2010.0
20
-5470.0
11
2010.0
21
-5230.0
0
LINE
8
ESTRIBO
10
2160.0
20
-5470.0
11
2160.0
21
-5230.0
0
LINE
8
ESTRIBO
10
2310.0
20
-5470.0
11
2310.0
21
-5230.0
0
LINE
8
ESTRIBO
10
2460.0
20
-5470.0
11
2460.0
21
-5230.0
0
LINE
8
ESTRIBO
10
2610.0
20
-5470.0
11
2610.0
21
-5230.0
0
LINE
8
ESTRIBO
10
2760.0
20
-5470.0
11
2760.0
21
-5230.0
0
LINE
8
ESTRIBO
10
2910.0
20
-5470.0
11
2910.0
21
-5230.0
0
LINE
8
ESTRIBO
10
3060.0
20
-5470.0
11
3060.0
21
-5230.0
0
LINE
8
ESTRIBO
10
3210.0
20
-5470.0
11
3210.0
21
-5230.0
0
LINE
8
ESTRIBO
10
3360.0
20
-5470.0
11
3360.0
21
-5230.0
0
LINE
8
ESTRIBO
10
3460.0
20
-5470.0
11
3460.0
21
-5230.0
0
LINE
8
ESTRIBO
10
3560.0
20
-5470.0
11
3560.0
21
-5230.0
0
LINE
8
ESTRIBO
10
3660.0
20
-5470.0
11
3660.0
21
-5230.0
0
LINE
8
ESTRIBO
10
3760.0
20
-5470.0
11
3760.0
21
-5230.0
0
LINE
8
COTA
10
0.0
20
-5620.0
11
3850.0
21
-5620.0
0
TEXT
8
COTA
10
1625.0
20
-5730.0
40
90.0
1
L = 3.85 m
0
TEXT
8
TEXTO
10
0.0
20
-5000.0
40
120.0
1
R-6  |  Viga de amarre 300x300 mm  |  4 No.5 (2 sup + 2 inf)  |  Estribos No.3 @150 (@100 conf.)
0
LINE
8
CONCRETO
10
4350.0
20
-5500.0
11
4650.0
21
-5500.0
0
LINE
8
CONCRETO
10
4650.0
20
-5500.0
11
4650.0
21
-5200.0
0
LINE
8
CONCRETO
10
4650.0
20
-5200.0
11
4350.0
21
-5200.0
0
LINE
8
CONCRETO
10
4350.0
20
-5200.0
11
4350.0
21
-5500.0
0
CIRCLE
8
ACERO
10
4400.0
20
-5450.0
40
12.0
0
CIRCLE
8
ACERO
10
4400.0
20
-5250.0
40
12.0
0
CIRCLE
8
ACERO
10
4600.0
20
-5450.0
40
12.0
0
CIRCLE
8
ACERO
10
4600.0
20
-5250.0
40
12.0
0
LINE
8
ESTRIBO
10
4380.0
20
-5470.0
11
4620.0
21
-5470.0
0
LINE
8
ESTRIBO
10
4620.0
20
-5470.0
11
4620.0
21
-5230.0
0
LINE
8
ESTRIBO
10
4620.0
20
-5230.0
11
4380.0
21
-5230.0
0
LINE
8
ESTRIBO
10
4380.0
20
-5230.0
11
4380.0
21
-5470.0
0
TEXT
8
TEXTO
10
4350.0
20
-5110.0
40
90.0
1
Sec. 300x300
0
LINE
8
CONCRETO
10
0.0
20
-6600.0
11
3900.0
21
-6600.0
0
LINE
8
CONCRETO
10
3900.0
20
-6600.0
11
3900.0
21
-6300.0
0
LINE
8
CONCRETO
10
3900.0
20
-6300.0
11
0.0
21
-6300.0
0
LINE
8
CONCRETO
10
0.0
20
-6300.0
11
0.0
21
-6600.0
0
LINE
8
ACERO
10
40.0
20
-6560.0
11
3860.0
21
-6560.0
0
LINE
8
ACERO
10
40.0
20
-6340.0
11
3860.0
21
-6340.0
0
LINE
8
ESTRIBO
10
60.0
20
-6570.0
11
60.0
21
-6330.0
0
LINE
8
ESTRIBO
10
160.0
20
-6570.0
11
160.0
21
-6330.0
0
LINE
8
ESTRIBO
10
260.0
20
-6570.0
11
260.0
21
-6330.0
0
LINE
8
ESTRIBO
10
360.0
20
-6570.0
11
360.0
21
-6330.0
0
LINE
8
ESTRIBO
10
460.0
20
-6570.0
11
460.0
21
-6330.0
0
LINE
8
ESTRIBO
10
560.0
20
-6570.0
11
560.0
21
-6330.0
0
LINE
8
ESTRIBO
10
660.0
20
-6570.0
11
660.0
21
-6330.0
0
LINE
8
ESTRIBO
10
810.0
20
-6570.0
11
810.0
21
-6330.0
0
LINE
8
ESTRIBO
10
960.0
20
-6570.0
11
960.0
21
-6330.0
0
LINE
8
ESTRIBO
10
1110.0
20
-6570.0
11
1110.0
21
-6330.0
0
LINE
8
ESTRIBO
10
1260.0
20
-6570.0
11
1260.0
21
-6330.0
0
LINE
8
ESTRIBO
10
1410.0
20
-6570.0
11
1410.0
21
-6330.0
0
LINE
8
ESTRIBO
10
1560.0
20
-6570.0
11
1560.0
21
-6330.0
0
LINE
8
ESTRIBO
10
1710.0
20
-6570.0
11
1710.0
21
-6330.0
0
LINE
8
ESTRIBO
10
1860.0
20
-6570.0
11
1860.0
21
-6330.0
0
LINE
8
ESTRIBO
10
2010.0
20
-6570.0
11
2010.0
21
-6330.0
0
LINE
8
ESTRIBO
10
2160.0
20
-6570.0
11
2160.0
21
-6330.0
0
LINE
8
ESTRIBO
10
2310.0
20
-6570.0
11
2310.0
21
-6330.0
0
LINE
8
ESTRIBO
10
2460.0
20
-6570.0
11
2460.0
21
-6330.0
0
LINE
8
ESTRIBO
10
2610.0
20
-6570.0
11
2610.0
21
-6330.0
0
LINE
8
ESTRIBO
10
2760.0
20
-6570.0
11
2760.0
21
-6330.0
0
LINE
8
ESTRIBO
10
2910.0
20
-6570.0
11
2910.0
21
-6330.0
0
LINE
8
ESTRIBO
10
3060.0
20
-6570.0
11
3060.0
21
-6330.0
0
LINE
8
ESTRIBO
10
3210.0
20
-6570.0
11
3210.0
21
-6330.0
0
LINE
8
ESTRIBO
10
3360.0
20
-6570.0
11
3360.0
21
-6330.0
0
LINE
8
ESTRIBO
10
3460.0
20
-6570.0
11
3460.0
21
-6330.0
0
LINE
8
ESTRIBO
10
3560.0
20
-6570.0
11
3560.0
21
-6330.0
0
LINE
8
ESTRIBO
10
3660.0
20
-6570.0
11
3660.0
21
-6330.0
0
LINE
8
ESTRIBO
10
3760.0
20
-6570.0
11
3760.0
21
-6330.0
0
LINE
8
COTA
10
0.0
20
-6720.0
11
3900.0
21
-6720.0
0
TEXT
8
COTA
10
1650.0
20
-6830.0
40
90.0
1
L = 3.90 m
0
TEXT
8
TEXTO
10
0.0
20
-6100.0
40
120.0
1
R-7  |  Viga de amarre 300x300 mm  |  4 No.5 (2 sup + 2 inf)  |  Estribos No.3 @150 (@100 conf.)
0
LINE
8
CONCRETO
10
4400.0
20
-6600.0
11
4700.0
21
-6600.0
0
LINE
8
CONCRETO
10
4700.0
20
-6600.0
11
4700.0
21
-6300.0
0
LINE
8
CONCRETO
10
4700.0
20
-6300.0
11
4400.0
21
-6300.0
0
LINE
8
CONCRETO
10
4400.0
20
-6300.0
11
4400.0
21
-6600.0
0
CIRCLE
8
ACERO
10
4450.0
20
-6550.0
40
12.0
0
CIRCLE
8
ACERO
10
4450.0
20
-6350.0
40
12.0
0
CIRCLE
8
ACERO
10
4650.0
20
-6550.0
40
12.0
0
CIRCLE
8
ACERO
10
4650.0
20
-6350.0
40
12.0
0
LINE
8
ESTRIBO
10
4430.0
20
-6570.0
11
4670.0
21
-6570.0
0
LINE
8
ESTRIBO
10
4670.0
20
-6570.0
11
4670.0
21
-6330.0
0
LINE
8
ESTRIBO
10
4670.0
20
-6330.0
11
4430.0
21
-6330.0
0
LINE
8
ESTRIBO
10
4430.0
20
-6330.0
11
4430.0
21
-6570.0
0
TEXT
8
TEXTO
10
4400.0
20
-6210.0
40
90.0
1
Sec. 300x300
0
LINE
8
CONCRETO
10
0.0
20
-7700.0
11
4000.0
21
-7700.0
0
LINE
8
CONCRETO
10
4000.0
20
-7700.0
11
4000.0
21
-7400.0
0
LINE
8
CONCRETO
10
4000.0
20
-7400.0
11
0.0
21
-7400.0
0
LINE
8
CONCRETO
10
0.0
20
-7400.0
11
0.0
21
-7700.0
0
LINE
8
ACERO
10
40.0
20
-7660.0
11
3960.0
21
-7660.0
0
LINE
8
ACERO
10
40.0
20
-7440.0
11
3960.0
21
-7440.0
0
LINE
8
ESTRIBO
10
60.0
20
-7670.0
11
60.0
21
-7430.0
0
LINE
8
ESTRIBO
10
160.0
20
-7670.0
11
160.0
21
-7430.0
0
LINE
8
ESTRIBO
10
260.0
20
-7670.0
11
260.0
21
-7430.0
0
LINE
8
ESTRIBO
10
360.0
20
-7670.0
11
360.0
21
-7430.0
0
LINE
8
ESTRIBO
10
460.0
20
-7670.0
11
460.0
21
-7430.0
0
LINE
8
ESTRIBO
10
560.0
20
-7670.0
11
560.0
21
-7430.0
0
LINE
8
ESTRIBO
10
660.0
20
-7670.0
11
660.0
21
-7430.0
0
LINE
8
ESTRIBO
10
810.0
20
-7670.0
11
810.0
21
-7430.0
0
LINE
8
ESTRIBO
10
960.0
20
-7670.0
11
960.0
21
-7430.0
0
LINE
8
ESTRIBO
10
1110.0
20
-7670.0
11
1110.0
21
-7430.0
0
LINE
8
ESTRIBO
10
1260.0
20
-7670.0
11
1260.0
21
-7430.0
0
LINE
8
ESTRIBO
10
1410.0
20
-7670.0
11
1410.0
21
-7430.0
0
LINE
8
ESTRIBO
10
1560.0
20
-7670.0
11
1560.0
21
-7430.0
0
LINE
8
ESTRIBO
10
1710.0
20
-7670.0
11
1710.0
21
-7430.0
0
LINE
8
ESTRIBO
10
1860.0
20
-7670.0
11
1860.0
21
-7430.0
0
LINE
8
ESTRIBO
10
2010.0
20
-7670.0
11
2010.0
21
-7430.0
0
LINE
8
ESTRIBO
10
2160.0
20
-7670.0
11
2160.0
21
-7430.0
0
LINE
8
ESTRIBO
10
2310.0
20
-7670.0
11
2310.0
21
-7430.0
0
LINE
8
ESTRIBO
10
2460.0
20
-7670.0
11
2460.0
21
-7430.0
0
LINE
8
ESTRIBO
10
2610.0
20
-7670.0
11
2610.0
21
-7430.0
0
LINE
8
ESTRIBO
10
2760.0
20
-7670.0
11
2760.0
21
-7430.0
0
LINE
8
ESTRIBO
10
2910.0
20
-7670.0
11
2910.0
21
-7430.0
0
LINE
8
ESTRIBO
10
3060.0
20
-7670.0
11
3060.0
21
-7430.0
0
LINE
8
ESTRIBO
10
3210.0
20
-7670.0
11
3210.0
21
-7430.0
0
LINE
8
ESTRIBO
10
3360.0
20
-7670.0
11
3360.0
21
-7430.0
0
LINE
8
ESTRIBO
10
3510.0
20
-7670.0
11
3510.0
21
-7430.0
0
LINE
8
ESTRIBO
10
3610.0
20
-7670.0
11
3610.0
21
-7430.0
0
LINE
8
ESTRIBO
10
3710.0
20
-7670.0
11
3710.0
21
-7430.0
0
LINE
8
ESTRIBO
10
3810.0
20
-7670.0
11
3810.0
21
-7430.0
0
LINE
8
ESTRIBO
10
3910.0
20
-7670.0
11
3910.0
21
-7430.0
0
LINE
8
COTA
10
0.0
20
-7820.0
11
4000.0
21
-7820.0
0
TEXT
8
COTA
10
1700.0
20
-7930.0
40
90.0
1
L = 4.00 m
0
TEXT
8
TEXTO
10
0.0
20
-7200.0
40
120.0
1
R-8  |  Viga de amarre 300x300 mm  |  4 No.5 (2 sup + 2 inf)  |  Estribos No.3 @150 (@100 conf.)
0
LINE
8
CONCRETO
10
4500.0
20
-7700.0
11
4800.0
21
-7700.0
0
LINE
8
CONCRETO
10
4800.0
20
-7700.0
11
4800.0
21
-7400.0
0
LINE
8
CONCRETO
10
4800.0
20
-7400.0
11
4500.0
21
-7400.0
0
LINE
8
CONCRETO
10
4500.0
20
-7400.0
11
4500.0
21
-7700.0
0
CIRCLE
8
ACERO
10
4550.0
20
-7650.0
40
12.0
0
CIRCLE
8
ACERO
10
4550.0
20
-7450.0
40
12.0
0
CIRCLE
8
ACERO
10
4750.0
20
-7650.0
40
12.0
0
CIRCLE
8
ACERO
10
4750.0
20
-7450.0
40
12.0
0
LINE
8
ESTRIBO
10
4530.0
20
-7670.0
11
4770.0
21
-7670.0
0
LINE
8
ESTRIBO
10
4770.0
20
-7670.0
11
4770.0
21
-7430.0
0
LINE
8
ESTRIBO
10
4770.0
20
-7430.0
11
4530.0
21
-7430.0
0
LINE
8
ESTRIBO
10
4530.0
20
-7430.0
11
4530.0
21
-7670.0
0
TEXT
8
TEXTO
10
4500.0
20
-7310.0
40
90.0
1
Sec. 300x300
0
ENDSEC
0
EOF
