0
SECTION
2
ENTITIES
0
TEXT
8
TITULO
10
0.0
20
1200.0
40
200.0
1
DESPIECE VIGAS DE RIGIDEZ VR (0.35x0.40 m)
0
TEXT
8
TEXTO
10
0.0
20
900.0
40
120.0
1
Cotas en mm. Escala sugerida 1:25. NSR-10. Agrupacion por longitud + condicion de apoyo.
0
LINE
8
CONCRETO
10
0.0
20
0.0
11
1500.0
21
0.0
0
LINE
8
CONCRETO
10
1500.0
20
0.0
11
1500.0
21
400.0
0
LINE
8
CONCRETO
10
1500.0
20
400.0
11
0.0
21
400.0
0
LINE
8
CONCRETO
10
0.0
20
400.0
11
0.0
21
0.0
0
LINE
8
ACERO
10
40.0
20
40.0
11
1460.0
21
40.0
0
LINE
8
ACERO
10
40.0
20
360.0
11
375.0
21
360.0
0
LINE
8
ACERO
10
1125.0
20
360.0
11
1460.0
21
360.0
0
LINE
8
ESTRIBO
10
60.0
20
30.0
11
60.0
21
370.0
0
LINE
8
ESTRIBO
10
145.0
20
30.0
11
145.0
21
370.0
0
LINE
8
ESTRIBO
10
230.0
20
30.0
11
230.0
21
370.0
0
LINE
8
ESTRIBO
10
315.0
20
30.0
11
315.0
21
370.0
0
LINE
8
ESTRIBO
10
400.0
20
30.0
11
400.0
21
370.0
0
LINE
8
ESTRIBO
10
485.0
20
30.0
11
485.0
21
370.0
0
LINE
8
ESTRIBO
10
570.0
20
30.0
11
570.0
21
370.0
0
LINE
8
ESTRIBO
10
655.0
20
30.0
11
655.0
21
370.0
0
LINE
8
ESTRIBO
10
740.0
20
30.0
11
740.0
21
370.0
0
LINE
8
ESTRIBO
10
825.0
20
30.0
11
825.0
21
370.0
0
LINE
8
ESTRIBO
10
910.0
20
30.0
11
910.0
21
370.0
0
LINE
8
ESTRIBO
10
995.0
20
30.0
11
995.0
21
370.0
0
LINE
8
ESTRIBO
10
1080.0
20
30.0
11
1080.0
21
370.0
0
LINE
8
ESTRIBO
10
1165.0
20
30.0
11
1165.0
21
370.0
0
LINE
8
ESTRIBO
10
1250.0
20
30.0
11
1250.0
21
370.0
0
LINE
8
ESTRIBO
10
1335.0
20
30.0
11
1335.0
21
370.0
0
LINE
8
ESTRIBO
10
1420.0
20
30.0
11
1420.0
21
370.0
0
LINE
8
COTA
10
0.0
20
-120.0
11
1500.0
21
-120.0
0
TEXT
8
COTA
10
450.0
20
-230.0
40
90.0
1
L = 1.50 m
0
TEXT
8
TEXTO
10
0.0
20
660.0
40
130.0
1
VR-1 (1.50 m, Extremo)  |  Mu(-)=58 kN.m  |  sec 350x400 mm
0
TEXT
8
TEXTO
10
435.0
20
490.0
40
90.0
1
3 bastones sup. (L/4 + ld)
0
TEXT
8
TEXTO
10
450.0
20
-60.0
40
90.0
1
3 barras inf. corridas
0
TEXT
8
TEXTO
10
60.0
20
-60.0
40
80.0
1
Estribos No.3 @85(conf)/@150
0
LINE
8
CONCRETO
10
2000.0
20
0.0
11
2350.0
21
0.0
0
LINE
8
CONCRETO
10
2350.0
20
0.0
11
2350.0
21
400.0
0
LINE
8
CONCRETO
10
2350.0
20
400.0
11
2000.0
21
400.0
0
LINE
8
CONCRETO
10
2000.0
20
400.0
11
2000.0
21
0.0
0
CIRCLE
8
ACERO
10
2045.0
20
45.0
40
12.0
0
CIRCLE
8
ACERO
10
2175.0
20
45.0
40
12.0
0
CIRCLE
8
ACERO
10
2305.0
20
45.0
40
12.0
0
CIRCLE
8
ACERO
10
2045.0
20
355.0
40
12.0
0
CIRCLE
8
ACERO
10
2175.0
20
355.0
40
12.0
0
CIRCLE
8
ACERO
10
2305.0
20
355.0
40
12.0
0
LINE
8
ESTRIBO
10
2030.0
20
30.0
11
2320.0
21
30.0
0
LINE
8
ESTRIBO
10
2320.0
20
30.0
11
2320.0
21
370.0
0
LINE
8
ESTRIBO
10
2320.0
20
370.0
11
2030.0
21
370.0
0
LINE
8
ESTRIBO
10
2030.0
20
370.0
11
2030.0
21
30.0
0
TEXT
8
TEXTO
10
2000.0
20
490.0
40
90.0
1
Sec 350x400
0
LINE
8
CONCRETO
10
0.0
20
-1500.0
11
2500.0
21
-1500.0
0
LINE
8
CONCRETO
10
2500.0
20
-1500.0
11
2500.0
21
-1100.0
0
LINE
8
CONCRETO
10
2500.0
20
-1100.0
11
0.0
21
-1100.0
0
LINE
8
CONCRETO
10
0.0
20
-1100.0
11
0.0
21
-1500.0
0
LINE
8
ACERO
10
40.0
20
-1460.0
11
2460.0
21
-1460.0
0
LINE
8
ACERO
10
40.0
20
-1140.0
11
625.0
21
-1140.0
0
LINE
8
ACERO
10
1875.0
20
-1140.0
11
2460.0
21
-1140.0
0
LINE
8
ESTRIBO
10
60.0
20
-1470.0
11
60.0
21
-1130.0
0
LINE
8
ESTRIBO
10
145.0
20
-1470.0
11
145.0
21
-1130.0
0
LINE
8
ESTRIBO
10
230.0
20
-1470.0
11
230.0
21
-1130.0
0
LINE
8
ESTRIBO
10
315.0
20
-1470.0
11
315.0
21
-1130.0
0
LINE
8
ESTRIBO
10
400.0
20
-1470.0
11
400.0
21
-1130.0
0
LINE
8
ESTRIBO
10
485.0
20
-1470.0
11
485.0
21
-1130.0
0
LINE
8
ESTRIBO
10
570.0
20
-1470.0
11
570.0
21
-1130.0
0
LINE
8
ESTRIBO
10
655.0
20
-1470.0
11
655.0
21
-1130.0
0
LINE
8
ESTRIBO
10
740.0
20
-1470.0
11
740.0
21
-1130.0
0
LINE
8
ESTRIBO
10
825.0
20
-1470.0
11
825.0
21
-1130.0
0
LINE
8
ESTRIBO
10
975.0
20
-1470.0
11
975.0
21
-1130.0
0
LINE
8
ESTRIBO
10
1125.0
20
-1470.0
11
1125.0
21
-1130.0
0
LINE
8
ESTRIBO
10
1275.0
20
-1470.0
11
1275.0
21
-1130.0
0
LINE
8
ESTRIBO
10
1425.0
20
-1470.0
11
1425.0
21
-1130.0
0
LINE
8
ESTRIBO
10
1575.0
20
-1470.0
11
1575.0
21
-1130.0
0
LINE
8
ESTRIBO
10
1725.0
20
-1470.0
11
1725.0
21
-1130.0
0
LINE
8
ESTRIBO
10
1810.0
20
-1470.0
11
1810.0
21
-1130.0
0
LINE
8
ESTRIBO
10
1895.0
20
-1470.0
11
1895.0
21
-1130.0
0
LINE
8
ESTRIBO
10
1980.0
20
-1470.0
11
1980.0
21
-1130.0
0
LINE
8
ESTRIBO
10
2065.0
20
-1470.0
11
2065.0
21
-1130.0
0
LINE
8
ESTRIBO
10
2150.0
20
-1470.0
11
2150.0
21
-1130.0
0
LINE
8
ESTRIBO
10
2235.0
20
-1470.0
11
2235.0
21
-1130.0
0
LINE
8
ESTRIBO
10
2320.0
20
-1470.0
11
2320.0
21
-1130.0
0
LINE
8
ESTRIBO
10
2405.0
20
-1470.0
11
2405.0
21
-1130.0
0
LINE
8
COTA
10
0.0
20
-1620.0
11
2500.0
21
-1620.0
0
TEXT
8
COTA
10
950.0
20
-1730.0
40
90.0
1
L = 2.50 m
0
TEXT
8
TEXTO
10
0.0
20
-840.0
40
130.0
1
VR-2 (2.50 m, Extremo)  |  Mu(-)=32 kN.m  |  sec 350x400 mm
0
TEXT
8
TEXTO
10
685.0
20
-1010.0
40
90.0
1
3 bastones sup. (L/4 + ld)
0
TEXT
8
TEXTO
10
950.0
20
-1560.0
40
90.0
1
3 barras inf. corridas
0
TEXT
8
TEXTO
10
60.0
20
-1560.0
40
80.0
1
Estribos No.3 @85(conf)/@150
0
LINE
8
CONCRETO
10
3000.0
20
-1500.0
11
3350.0
21
-1500.0
0
LINE
8
CONCRETO
10
3350.0
20
-1500.0
11
3350.0
21
-1100.0
0
LINE
8
CONCRETO
10
3350.0
20
-1100.0
11
3000.0
21
-1100.0
0
LINE
8
CONCRETO
10
3000.0
20
-1100.0
11
3000.0
21
-1500.0
0
CIRCLE
8
ACERO
10
3045.0
20
-1455.0
40
12.0
0
CIRCLE
8
ACERO
10
3175.0
20
-1455.0
40
12.0
0
CIRCLE
8
ACERO
10
3305.0
20
-1455.0
40
12.0
0
CIRCLE
8
ACERO
10
3045.0
20
-1145.0
40
12.0
0
CIRCLE
8
ACERO
10
3175.0
20
-1145.0
40
12.0
0
CIRCLE
8
ACERO
10
3305.0
20
-1145.0
40
12.0
0
LINE
8
ESTRIBO
10
3030.0
20
-1470.0
11
3320.0
21
-1470.0
0
LINE
8
ESTRIBO
10
3320.0
20
-1470.0
11
3320.0
21
-1130.0
0
LINE
8
ESTRIBO
10
3320.0
20
-1130.0
11
3030.0
21
-1130.0
0
LINE
8
ESTRIBO
10
3030.0
20
-1130.0
11
3030.0
21
-1470.0
0
TEXT
8
TEXTO
10
3000.0
20
-1010.0
40
90.0
1
Sec 350x400
0
LINE
8
CONCRETO
10
0.0
20
-3000.0
11
2500.0
21
-3000.0
0
LINE
8
CONCRETO
10
2500.0
20
-3000.0
11
2500.0
21
-2600.0
0
LINE
8
CONCRETO
10
2500.0
20
-2600.0
11
0.0
21
-2600.0
0
LINE
8
CONCRETO
10
0.0
20
-2600.0
11
0.0
21
-3000.0
0
LINE
8
ACERO
10
40.0
20
-2960.0
11
2460.0
21
-2960.0
0
LINE
8
ACERO
10
40.0
20
-2640.0
11
625.0
21
-2640.0
0
LINE
8
ACERO
10
1875.0
20
-2640.0
11
2460.0
21
-2640.0
0
LINE
8
ESTRIBO
10
60.0
20
-2970.0
11
60.0
21
-2630.0
0
LINE
8
ESTRIBO
10
145.0
20
-2970.0
11
145.0
21
-2630.0
0
LINE
8
ESTRIBO
10
230.0
20
-2970.0
11
230.0
21
-2630.0
0
LINE
8
ESTRIBO
10
315.0
20
-2970.0
11
315.0
21
-2630.0
0
LINE
8
ESTRIBO
10
400.0
20
-2970.0
11
400.0
21
-2630.0
0
LINE
8
ESTRIBO
10
485.0
20
-2970.0
11
485.0
21
-2630.0
0
LINE
8
ESTRIBO
10
570.0
20
-2970.0
11
570.0
21
-2630.0
0
LINE
8
ESTRIBO
10
655.0
20
-2970.0
11
655.0
21
-2630.0
0
LINE
8
ESTRIBO
10
740.0
20
-2970.0
11
740.0
21
-2630.0
0
LINE
8
ESTRIBO
10
825.0
20
-2970.0
11
825.0
21
-2630.0
0
LINE
8
ESTRIBO
10
975.0
20
-2970.0
11
975.0
21
-2630.0
0
LINE
8
ESTRIBO
10
1125.0
20
-2970.0
11
1125.0
21
-2630.0
0
LINE
8
ESTRIBO
10
1275.0
20
-2970.0
11
1275.0
21
-2630.0
0
LINE
8
ESTRIBO
10
1425.0
20
-2970.0
11
1425.0
21
-2630.0
0
LINE
8
ESTRIBO
10
1575.0
20
-2970.0
11
1575.0
21
-2630.0
0
LINE
8
ESTRIBO
10
1725.0
20
-2970.0
11
1725.0
21
-2630.0
0
LINE
8
ESTRIBO
10
1810.0
20
-2970.0
11
1810.0
21
-2630.0
0
LINE
8
ESTRIBO
10
1895.0
20
-2970.0
11
1895.0
21
-2630.0
0
LINE
8
ESTRIBO
10
1980.0
20
-2970.0
11
1980.0
21
-2630.0
0
LINE
8
ESTRIBO
10
2065.0
20
-2970.0
11
2065.0
21
-2630.0
0
LINE
8
ESTRIBO
10
2150.0
20
-2970.0
11
2150.0
21
-2630.0
0
LINE
8
ESTRIBO
10
2235.0
20
-2970.0
11
2235.0
21
-2630.0
0
LINE
8
ESTRIBO
10
2320.0
20
-2970.0
11
2320.0
21
-2630.0
0
LINE
8
ESTRIBO
10
2405.0
20
-2970.0
11
2405.0
21
-2630.0
0
LINE
8
COTA
10
0.0
20
-3120.0
11
2500.0
21
-3120.0
0
TEXT
8
COTA
10
950.0
20
-3230.0
40
90.0
1
L = 2.50 m
0
TEXT
8
TEXTO
10
0.0
20
-2340.0
40
130.0
1
VR-3 (2.50 m, Interior)  |  Mu(-)=27 kN.m  |  sec 350x400 mm
0
TEXT
8
TEXTO
10
685.0
20
-2510.0
40
90.0
1
3 bastones sup. (L/4 + ld)
0
TEXT
8
TEXTO
10
950.0
20
-3060.0
40
90.0
1
3 barras inf. corridas
0
TEXT
8
TEXTO
10
60.0
20
-3060.0
40
80.0
1
Estribos No.3 @85(conf)/@150
0
LINE
8
CONCRETO
10
3000.0
20
-3000.0
11
3350.0
21
-3000.0
0
LINE
8
CONCRETO
10
3350.0
20
-3000.0
11
3350.0
21
-2600.0
0
LINE
8
CONCRETO
10
3350.0
20
-2600.0
11
3000.0
21
-2600.0
0
LINE
8
CONCRETO
10
3000.0
20
-2600.0
11
3000.0
21
-3000.0
0
CIRCLE
8
ACERO
10
3045.0
20
-2955.0
40
12.0
0
CIRCLE
8
ACERO
10
3175.0
20
-2955.0
40
12.0
0
CIRCLE
8
ACERO
10
3305.0
20
-2955.0
40
12.0
0
CIRCLE
8
ACERO
10
3045.0
20
-2645.0
40
12.0
0
CIRCLE
8
ACERO
10
3175.0
20
-2645.0
40
12.0
0
CIRCLE
8
ACERO
10
3305.0
20
-2645.0
40
12.0
0
LINE
8
ESTRIBO
10
3030.0
20
-2970.0
11
3320.0
21
-2970.0
0
LINE
8
ESTRIBO
10
3320.0
20
-2970.0
11
3320.0
21
-2630.0
0
LINE
8
ESTRIBO
10
3320.0
20
-2630.0
11
3030.0
21
-2630.0
0
LINE
8
ESTRIBO
10
3030.0
20
-2630.0
11
3030.0
21
-2970.0
0
TEXT
8
TEXTO
10
3000.0
20
-2510.0
40
90.0
1
Sec 350x400
0
LINE
8
CONCRETO
10
0.0
20
-4500.0
11
2600.0
21
-4500.0
0
LINE
8
CONCRETO
10
2600.0
20
-4500.0
11
2600.0
21
-4100.0
0
LINE
8
CONCRETO
10
2600.0
20
-4100.0
11
0.0
21
-4100.0
0
LINE
8
CONCRETO
10
0.0
20
-4100.0
11
0.0
21
-4500.0
0
LINE
8
ACERO
10
40.0
20
-4460.0
11
2560.0
21
-4460.0
0
LINE
8
ACERO
10
40.0
20
-4140.0
11
650.0
21
-4140.0
0
LINE
8
ACERO
10
1950.0
20
-4140.0
11
2560.0
21
-4140.0
0
LINE
8
ESTRIBO
10
60.0
20
-4470.0
11
60.0
21
-4130.0
0
LINE
8
ESTRIBO
10
145.0
20
-4470.0
11
145.0
21
-4130.0
0
LINE
8
ESTRIBO
10
230.0
20
-4470.0
11
230.0
21
-4130.0
0
LINE
8
ESTRIBO
10
315.0
20
-4470.0
11
315.0
21
-4130.0
0
LINE
8
ESTRIBO
10
400.0
20
-4470.0
11
400.0
21
-4130.0
0
LINE
8
ESTRIBO
10
485.0
20
-4470.0
11
485.0
21
-4130.0
0
LINE
8
ESTRIBO
10
570.0
20
-4470.0
11
570.0
21
-4130.0
0
LINE
8
ESTRIBO
10
655.0
20
-4470.0
11
655.0
21
-4130.0
0
LINE
8
ESTRIBO
10
740.0
20
-4470.0
11
740.0
21
-4130.0
0
LINE
8
ESTRIBO
10
825.0
20
-4470.0
11
825.0
21
-4130.0
0
LINE
8
ESTRIBO
10
975.0
20
-4470.0
11
975.0
21
-4130.0
0
LINE
8
ESTRIBO
10
1125.0
20
-4470.0
11
1125.0
21
-4130.0
0
LINE
8
ESTRIBO
10
1275.0
20
-4470.0
11
1275.0
21
-4130.0
0
LINE
8
ESTRIBO
10
1425.0
20
-4470.0
11
1425.0
21
-4130.0
0
LINE
8
ESTRIBO
10
1575.0
20
-4470.0
11
1575.0
21
-4130.0
0
LINE
8
ESTRIBO
10
1725.0
20
-4470.0
11
1725.0
21
-4130.0
0
LINE
8
ESTRIBO
10
1875.0
20
-4470.0
11
1875.0
21
-4130.0
0
LINE
8
ESTRIBO
10
1960.0
20
-4470.0
11
1960.0
21
-4130.0
0
LINE
8
ESTRIBO
10
2045.0
20
-4470.0
11
2045.0
21
-4130.0
0
LINE
8
ESTRIBO
10
2130.0
20
-4470.0
11
2130.0
21
-4130.0
0
LINE
8
ESTRIBO
10
2215.0
20
-4470.0
11
2215.0
21
-4130.0
0
LINE
8
ESTRIBO
10
2300.0
20
-4470.0
11
2300.0
21
-4130.0
0
LINE
8
ESTRIBO
10
2385.0
20
-4470.0
11
2385.0
21
-4130.0
0
LINE
8
ESTRIBO
10
2470.0
20
-4470.0
11
2470.0
21
-4130.0
0
LINE
8
COTA
10
0.0
20
-4620.0
11
2600.0
21
-4620.0
0
TEXT
8
COTA
10
1000.0
20
-4730.0
40
90.0
1
L = 2.60 m
0
TEXT
8
TEXTO
10
0.0
20
-3840.0
40
130.0
1
VR-4 (2.60 m, Extremo)  |  Mu(-)=97 kN.m  |  sec 350x400 mm
0
TEXT
8
TEXTO
10
710.0
20
-4010.0
40
90.0
1
5 bastones sup. (L/4 + ld)
0
TEXT
8
TEXTO
10
1000.0
20
-4560.0
40
90.0
1
4 barras inf. corridas
0
TEXT
8
TEXTO
10
60.0
20
-4560.0
40
80.0
1
Estribos No.3 @85(conf)/@150
0
LINE
8
CONCRETO
10
3100.0
20
-4500.0
11
3450.0
21
-4500.0
0
LINE
8
CONCRETO
10
3450.0
20
-4500.0
11
3450.0
21
-4100.0
0
LINE
8
CONCRETO
10
3450.0
20
-4100.0
11
3100.0
21
-4100.0
0
LINE
8
CONCRETO
10
3100.0
20
-4100.0
11
3100.0
21
-4500.0
0
CIRCLE
8
ACERO
10
3145.0
20
-4455.0
40
12.0
0
CIRCLE
8
ACERO
10
3231.7
20
-4455.0
40
12.0
0
CIRCLE
8
ACERO
10
3318.3
20
-4455.0
40
12.0
0
CIRCLE
8
ACERO
10
3405.0
20
-4455.0
40
12.0
0
CIRCLE
8
ACERO
10
3145.0
20
-4145.0
40
12.0
0
CIRCLE
8
ACERO
10
3210.0
20
-4145.0
40
12.0
0
CIRCLE
8
ACERO
10
3275.0
20
-4145.0
40
12.0
0
CIRCLE
8
ACERO
10
3340.0
20
-4145.0
40
12.0
0
CIRCLE
8
ACERO
10
3405.0
20
-4145.0
40
12.0
0
LINE
8
ESTRIBO
10
3130.0
20
-4470.0
11
3420.0
21
-4470.0
0
LINE
8
ESTRIBO
10
3420.0
20
-4470.0
11
3420.0
21
-4130.0
0
LINE
8
ESTRIBO
10
3420.0
20
-4130.0
11
3130.0
21
-4130.0
0
LINE
8
ESTRIBO
10
3130.0
20
-4130.0
11
3130.0
21
-4470.0
0
TEXT
8
TEXTO
10
3100.0
20
-4010.0
40
90.0
1
Sec 350x400
0
LINE
8
CONCRETO
10
0.0
20
-6000.0
11
2600.0
21
-6000.0
0
LINE
8
CONCRETO
10
2600.0
20
-6000.0
11
2600.0
21
-5600.0
0
LINE
8
CONCRETO
10
2600.0
20
-5600.0
11
0.0
21
-5600.0
0
LINE
8
CONCRETO
10
0.0
20
-5600.0
11
0.0
21
-6000.0
0
LINE
8
ACERO
10
40.0
20
-5960.0
11
2560.0
21
-5960.0
0
LINE
8
ACERO
10
40.0
20
-5640.0
11
650.0
21
-5640.0
0
LINE
8
ACERO
10
1950.0
20
-5640.0
11
2560.0
21
-5640.0
0
LINE
8
ESTRIBO
10
60.0
20
-5970.0
11
60.0
21
-5630.0
0
LINE
8
ESTRIBO
10
145.0
20
-5970.0
11
145.0
21
-5630.0
0
LINE
8
ESTRIBO
10
230.0
20
-5970.0
11
230.0
21
-5630.0
0
LINE
8
ESTRIBO
10
315.0
20
-5970.0
11
315.0
21
-5630.0
0
LINE
8
ESTRIBO
10
400.0
20
-5970.0
11
400.0
21
-5630.0
0
LINE
8
ESTRIBO
10
485.0
20
-5970.0
11
485.0
21
-5630.0
0
LINE
8
ESTRIBO
10
570.0
20
-5970.0
11
570.0
21
-5630.0
0
LINE
8
ESTRIBO
10
655.0
20
-5970.0
11
655.0
21
-5630.0
0
LINE
8
ESTRIBO
10
740.0
20
-5970.0
11
740.0
21
-5630.0
0
LINE
8
ESTRIBO
10
825.0
20
-5970.0
11
825.0
21
-5630.0
0
LINE
8
ESTRIBO
10
975.0
20
-5970.0
11
975.0
21
-5630.0
0
LINE
8
ESTRIBO
10
1125.0
20
-5970.0
11
1125.0
21
-5630.0
0
LINE
8
ESTRIBO
10
1275.0
20
-5970.0
11
1275.0
21
-5630.0
0
LINE
8
ESTRIBO
10
1425.0
20
-5970.0
11
1425.0
21
-5630.0
0
LINE
8
ESTRIBO
10
1575.0
20
-5970.0
11
1575.0
21
-5630.0
0
LINE
8
ESTRIBO
10
1725.0
20
-5970.0
11
1725.0
21
-5630.0
0
LINE
8
ESTRIBO
10
1875.0
20
-5970.0
11
1875.0
21
-5630.0
0
LINE
8
ESTRIBO
10
1960.0
20
-5970.0
11
1960.0
21
-5630.0
0
LINE
8
ESTRIBO
10
2045.0
20
-5970.0
11
2045.0
21
-5630.0
0
LINE
8
ESTRIBO
10
2130.0
20
-5970.0
11
2130.0
21
-5630.0
0
LINE
8
ESTRIBO
10
2215.0
20
-5970.0
11
2215.0
21
-5630.0
0
LINE
8
ESTRIBO
10
2300.0
20
-5970.0
11
2300.0
21
-5630.0
0
LINE
8
ESTRIBO
10
2385.0
20
-5970.0
11
2385.0
21
-5630.0
0
LINE
8
ESTRIBO
10
2470.0
20
-5970.0
11
2470.0
21
-5630.0
0
LINE
8
COTA
10
0.0
20
-6120.0
11
2600.0
21
-6120.0
0
TEXT
8
COTA
10
1000.0
20
-6230.0
40
90.0
1
L = 2.60 m
0
TEXT
8
TEXTO
10
0.0
20
-5340.0
40
130.0
1
VR-5 (2.60 m, Interior)  |  Mu(-)=29 kN.m  |  sec 350x400 mm
0
TEXT
8
TEXTO
10
710.0
20
-5510.0
40
90.0
1
3 bastones sup. (L/4 + ld)
0
TEXT
8
TEXTO
10
1000.0
20
-6060.0
40
90.0
1
3 barras inf. corridas
0
TEXT
8
TEXTO
10
60.0
20
-6060.0
40
80.0
1
Estribos No.3 @85(conf)/@150
0
LINE
8
CONCRETO
10
3100.0
20
-6000.0
11
3450.0
21
-6000.0
0
LINE
8
CONCRETO
10
3450.0
20
-6000.0
11
3450.0
21
-5600.0
0
LINE
8
CONCRETO
10
3450.0
20
-5600.0
11
3100.0
21
-5600.0
0
LINE
8
CONCRETO
10
3100.0
20
-5600.0
11
3100.0
21
-6000.0
0
CIRCLE
8
ACERO
10
3145.0
20
-5955.0
40
12.0
0
CIRCLE
8
ACERO
10
3275.0
20
-5955.0
40
12.0
0
CIRCLE
8
ACERO
10
3405.0
20
-5955.0
40
12.0
0
CIRCLE
8
ACERO
10
3145.0
20
-5645.0
40
12.0
0
CIRCLE
8
ACERO
10
3275.0
20
-5645.0
40
12.0
0
CIRCLE
8
ACERO
10
3405.0
20
-5645.0
40
12.0
0
LINE
8
ESTRIBO
10
3130.0
20
-5970.0
11
3420.0
21
-5970.0
0
LINE
8
ESTRIBO
10
3420.0
20
-5970.0
11
3420.0
21
-5630.0
0
LINE
8
ESTRIBO
10
3420.0
20
-5630.0
11
3130.0
21
-5630.0
0
LINE
8
ESTRIBO
10
3130.0
20
-5630.0
11
3130.0
21
-5970.0
0
TEXT
8
TEXTO
10
3100.0
20
-5510.0
40
90.0
1
Sec 350x400
0
LINE
8
CONCRETO
10
0.0
20
-7500.0
11
2700.0
21
-7500.0
0
LINE
8
CONCRETO
10
2700.0
20
-7500.0
11
2700.0
21
-7100.0
0
LINE
8
CONCRETO
10
2700.0
20
-7100.0
11
0.0
21
-7100.0
0
LINE
8
CONCRETO
10
0.0
20
-7100.0
11
0.0
21
-7500.0
0
LINE
8
ACERO
10
40.0
20
-7460.0
11
2660.0
21
-7460.0
0
LINE
8
ACERO
10
40.0
20
-7140.0
11
675.0
21
-7140.0
0
LINE
8
ACERO
10
2025.0
20
-7140.0
11
2660.0
21
-7140.0
0
LINE
8
ESTRIBO
10
60.0
20
-7470.0
11
60.0
21
-7130.0
0
LINE
8
ESTRIBO
10
145.0
20
-7470.0
11
145.0
21
-7130.0
0
LINE
8
ESTRIBO
10
230.0
20
-7470.0
11
230.0
21
-7130.0
0
LINE
8
ESTRIBO
10
315.0
20
-7470.0
11
315.0
21
-7130.0
0
LINE
8
ESTRIBO
10
400.0
20
-7470.0
11
400.0
21
-7130.0
0
LINE
8
ESTRIBO
10
485.0
20
-7470.0
11
485.0
21
-7130.0
0
LINE
8
ESTRIBO
10
570.0
20
-7470.0
11
570.0
21
-7130.0
0
LINE
8
ESTRIBO
10
655.0
20
-7470.0
11
655.0
21
-7130.0
0
LINE
8
ESTRIBO
10
740.0
20
-7470.0
11
740.0
21
-7130.0
0
LINE
8
ESTRIBO
10
825.0
20
-7470.0
11
825.0
21
-7130.0
0
LINE
8
ESTRIBO
10
975.0
20
-7470.0
11
975.0
21
-7130.0
0
LINE
8
ESTRIBO
10
1125.0
20
-7470.0
11
1125.0
21
-7130.0
0
LINE
8
ESTRIBO
10
1275.0
20
-7470.0
11
1275.0
21
-7130.0
0
LINE
8
ESTRIBO
10
1425.0
20
-7470.0
11
1425.0
21
-7130.0
0
LINE
8
ESTRIBO
10
1575.0
20
-7470.0
11
1575.0
21
-7130.0
0
LINE
8
ESTRIBO
10
1725.0
20
-7470.0
11
1725.0
21
-7130.0
0
LINE
8
ESTRIBO
10
1875.0
20
-7470.0
11
1875.0
21
-7130.0
0
LINE
8
ESTRIBO
10
2025.0
20
-7470.0
11
2025.0
21
-7130.0
0
LINE
8
ESTRIBO
10
2110.0
20
-7470.0
11
2110.0
21
-7130.0
0
LINE
8
ESTRIBO
10
2195.0
20
-7470.0
11
2195.0
21
-7130.0
0
LINE
8
ESTRIBO
10
2280.0
20
-7470.0
11
2280.0
21
-7130.0
0
LINE
8
ESTRIBO
10
2365.0
20
-7470.0
11
2365.0
21
-7130.0
0
LINE
8
ESTRIBO
10
2450.0
20
-7470.0
11
2450.0
21
-7130.0
0
LINE
8
ESTRIBO
10
2535.0
20
-7470.0
11
2535.0
21
-7130.0
0
LINE
8
ESTRIBO
10
2620.0
20
-7470.0
11
2620.0
21
-7130.0
0
LINE
8
COTA
10
0.0
20
-7620.0
11
2700.0
21
-7620.0
0
TEXT
8
COTA
10
1050.0
20
-7730.0
40
90.0
1
L = 2.70 m
0
TEXT
8
TEXTO
10
0.0
20
-6840.0
40
130.0
1
VR-6 (2.70 m, Extremo)  |  Mu(-)=81 kN.m  |  sec 350x400 mm
0
TEXT
8
TEXTO
10
735.0
20
-7010.0
40
90.0
1
4 bastones sup. (L/4 + ld)
0
TEXT
8
TEXTO
10
1050.0
20
-7560.0
40
90.0
1
3 barras inf. corridas
0
TEXT
8
TEXTO
10
60.0
20
-7560.0
40
80.0
1
Estribos No.3 @85(conf)/@150
0
LINE
8
CONCRETO
10
3200.0
20
-7500.0
11
3550.0
21
-7500.0
0
LINE
8
CONCRETO
10
3550.0
20
-7500.0
11
3550.0
21
-7100.0
0
LINE
8
CONCRETO
10
3550.0
20
-7100.0
11
3200.0
21
-7100.0
0
LINE
8
CONCRETO
10
3200.0
20
-7100.0
11
3200.0
21
-7500.0
0
CIRCLE
8
ACERO
10
3245.0
20
-7455.0
40
12.0
0
CIRCLE
8
ACERO
10
3375.0
20
-7455.0
40
12.0
0
CIRCLE
8
ACERO
10
3505.0
20
-7455.0
40
12.0
0
CIRCLE
8
ACERO
10
3245.0
20
-7145.0
40
12.0
0
CIRCLE
8
ACERO
10
3331.7
20
-7145.0
40
12.0
0
CIRCLE
8
ACERO
10
3418.3
20
-7145.0
40
12.0
0
CIRCLE
8
ACERO
10
3505.0
20
-7145.0
40
12.0
0
LINE
8
ESTRIBO
10
3230.0
20
-7470.0
11
3520.0
21
-7470.0
0
LINE
8
ESTRIBO
10
3520.0
20
-7470.0
11
3520.0
21
-7130.0
0
LINE
8
ESTRIBO
10
3520.0
20
-7130.0
11
3230.0
21
-7130.0
0
LINE
8
ESTRIBO
10
3230.0
20
-7130.0
11
3230.0
21
-7470.0
0
TEXT
8
TEXTO
10
3200.0
20
-7010.0
40
90.0
1
Sec 350x400
0
LINE
8
CONCRETO
10
0.0
20
-9000.0
11
2800.0
21
-9000.0
0
LINE
8
CONCRETO
10
2800.0
20
-9000.0
11
2800.0
21
-8600.0
0
LINE
8
CONCRETO
10
2800.0
20
-8600.0
11
0.0
21
-8600.0
0
LINE
8
CONCRETO
10
0.0
20
-8600.0
11
0.0
21
-9000.0
0
LINE
8
ACERO
10
40.0
20
-8960.0
11
2760.0
21
-8960.0
0
LINE
8
ACERO
10
40.0
20
-8640.0
11
700.0
21
-8640.0
0
LINE
8
ACERO
10
2100.0
20
-8640.0
11
2760.0
21
-8640.0
0
LINE
8
ESTRIBO
10
60.0
20
-8970.0
11
60.0
21
-8630.0
0
LINE
8
ESTRIBO
10
145.0
20
-8970.0
11
145.0
21
-8630.0
0
LINE
8
ESTRIBO
10
230.0
20
-8970.0
11
230.0
21
-8630.0
0
LINE
8
ESTRIBO
10
315.0
20
-8970.0
11
315.0
21
-8630.0
0
LINE
8
ESTRIBO
10
400.0
20
-8970.0
11
400.0
21
-8630.0
0
LINE
8
ESTRIBO
10
485.0
20
-8970.0
11
485.0
21
-8630.0
0
LINE
8
ESTRIBO
10
570.0
20
-8970.0
11
570.0
21
-8630.0
0
LINE
8
ESTRIBO
10
655.0
20
-8970.0
11
655.0
21
-8630.0
0
LINE
8
ESTRIBO
10
740.0
20
-8970.0
11
740.0
21
-8630.0
0
LINE
8
ESTRIBO
10
825.0
20
-8970.0
11
825.0
21
-8630.0
0
LINE
8
ESTRIBO
10
975.0
20
-8970.0
11
975.0
21
-8630.0
0
LINE
8
ESTRIBO
10
1125.0
20
-8970.0
11
1125.0
21
-8630.0
0
LINE
8
ESTRIBO
10
1275.0
20
-8970.0
11
1275.0
21
-8630.0
0
LINE
8
ESTRIBO
10
1425.0
20
-8970.0
11
1425.0
21
-8630.0
0
LINE
8
ESTRIBO
10
1575.0
20
-8970.0
11
1575.0
21
-8630.0
0
LINE
8
ESTRIBO
10
1725.0
20
-8970.0
11
1725.0
21
-8630.0
0
LINE
8
ESTRIBO
10
1875.0
20
-8970.0
11
1875.0
21
-8630.0
0
LINE
8
ESTRIBO
10
2025.0
20
-8970.0
11
2025.0
21
-8630.0
0
LINE
8
ESTRIBO
10
2110.0
20
-8970.0
11
2110.0
21
-8630.0
0
LINE
8
ESTRIBO
10
2195.0
20
-8970.0
11
2195.0
21
-8630.0
0
LINE
8
ESTRIBO
10
2280.0
20
-8970.0
11
2280.0
21
-8630.0
0
LINE
8
ESTRIBO
10
2365.0
20
-8970.0
11
2365.0
21
-8630.0
0
LINE
8
ESTRIBO
10
2450.0
20
-8970.0
11
2450.0
21
-8630.0
0
LINE
8
ESTRIBO
10
2535.0
20
-8970.0
11
2535.0
21
-8630.0
0
LINE
8
ESTRIBO
10
2620.0
20
-8970.0
11
2620.0
21
-8630.0
0
LINE
8
ESTRIBO
10
2705.0
20
-8970.0
11
2705.0
21
-8630.0
0
LINE
8
COTA
10
0.0
20
-9120.0
11
2800.0
21
-9120.0
0
TEXT
8
COTA
10
1100.0
20
-9230.0
40
90.0
1
L = 2.80 m
0
TEXT
8
TEXTO
10
0.0
20
-8340.0
40
130.0
1
VR-7 (2.80 m, Extremo)  |  Mu(-)=79 kN.m  |  sec 350x400 mm
0
TEXT
8
TEXTO
10
760.0
20
-8510.0
40
90.0
1
4 bastones sup. (L/4 + ld)
0
TEXT
8
TEXTO
10
1100.0
20
-9060.0
40
90.0
1
3 barras inf. corridas
0
TEXT
8
TEXTO
10
60.0
20
-9060.0
40
80.0
1
Estribos No.3 @85(conf)/@150
0
LINE
8
CONCRETO
10
3300.0
20
-9000.0
11
3650.0
21
-9000.0
0
LINE
8
CONCRETO
10
3650.0
20
-9000.0
11
3650.0
21
-8600.0
0
LINE
8
CONCRETO
10
3650.0
20
-8600.0
11
3300.0
21
-8600.0
0
LINE
8
CONCRETO
10
3300.0
20
-8600.0
11
3300.0
21
-9000.0
0
CIRCLE
8
ACERO
10
3345.0
20
-8955.0
40
12.0
0
CIRCLE
8
ACERO
10
3475.0
20
-8955.0
40
12.0
0
CIRCLE
8
ACERO
10
3605.0
20
-8955.0
40
12.0
0
CIRCLE
8
ACERO
10
3345.0
20
-8645.0
40
12.0
0
CIRCLE
8
ACERO
10
3431.7
20
-8645.0
40
12.0
0
CIRCLE
8
ACERO
10
3518.3
20
-8645.0
40
12.0
0
CIRCLE
8
ACERO
10
3605.0
20
-8645.0
40
12.0
0
LINE
8
ESTRIBO
10
3330.0
20
-8970.0
11
3620.0
21
-8970.0
0
LINE
8
ESTRIBO
10
3620.0
20
-8970.0
11
3620.0
21
-8630.0
0
LINE
8
ESTRIBO
10
3620.0
20
-8630.0
11
3330.0
21
-8630.0
0
LINE
8
ESTRIBO
10
3330.0
20
-8630.0
11
3330.0
21
-8970.0
0
TEXT
8
TEXTO
10
3300.0
20
-8510.0
40
90.0
1
Sec 350x400
0
LINE
8
CONCRETO
10
0.0
20
-10500.0
11
2950.0
21
-10500.0
0
LINE
8
CONCRETO
10
2950.0
20
-10500.0
11
2950.0
21
-10100.0
0
LINE
8
CONCRETO
10
2950.0
20
-10100.0
11
0.0
21
-10100.0
0
LINE
8
CONCRETO
10
0.0
20
-10100.0
11
0.0
21
-10500.0
0
LINE
8
ACERO
10
40.0
20
-10460.0
11
2910.0
21
-10460.0
0
LINE
8
ACERO
10
40.0
20
-10140.0
11
737.5
21
-10140.0
0
LINE
8
ACERO
10
2212.5
20
-10140.0
11
2910.0
21
-10140.0
0
LINE
8
ESTRIBO
10
60.0
20
-10470.0
11
60.0
21
-10130.0
0
LINE
8
ESTRIBO
10
145.0
20
-10470.0
11
145.0
21
-10130.0
0
LINE
8
ESTRIBO
10
230.0
20
-10470.0
11
230.0
21
-10130.0
0
LINE
8
ESTRIBO
10
315.0
20
-10470.0
11
315.0
21
-10130.0
0
LINE
8
ESTRIBO
10
400.0
20
-10470.0
11
400.0
21
-10130.0
0
LINE
8
ESTRIBO
10
485.0
20
-10470.0
11
485.0
21
-10130.0
0
LINE
8
ESTRIBO
10
570.0
20
-10470.0
11
570.0
21
-10130.0
0
LINE
8
ESTRIBO
10
655.0
20
-10470.0
11
655.0
21
-10130.0
0
LINE
8
ESTRIBO
10
740.0
20
-10470.0
11
740.0
21
-10130.0
0
LINE
8
ESTRIBO
10
825.0
20
-10470.0
11
825.0
21
-10130.0
0
LINE
8
ESTRIBO
10
975.0
20
-10470.0
11
975.0
21
-10130.0
0
LINE
8
ESTRIBO
10
1125.0
20
-10470.0
11
1125.0
21
-10130.0
0
LINE
8
ESTRIBO
10
1275.0
20
-10470.0
11
1275.0
21
-10130.0
0
LINE
8
ESTRIBO
10
1425.0
20
-10470.0
11
1425.0
21
-10130.0
0
LINE
8
ESTRIBO
10
1575.0
20
-10470.0
11
1575.0
21
-10130.0
0
LINE
8
ESTRIBO
10
1725.0
20
-10470.0
11
1725.0
21
-10130.0
0
LINE
8
ESTRIBO
10
1875.0
20
-10470.0
11
1875.0
21
-10130.0
0
LINE
8
ESTRIBO
10
2025.0
20
-10470.0
11
2025.0
21
-10130.0
0
LINE
8
ESTRIBO
10
2175.0
20
-10470.0
11
2175.0
21
-10130.0
0
LINE
8
ESTRIBO
10
2260.0
20
-10470.0
11
2260.0
21
-10130.0
0
LINE
8
ESTRIBO
10
2345.0
20
-10470.0
11
2345.0
21
-10130.0
0
LINE
8
ESTRIBO
10
2430.0
20
-10470.0
11
2430.0
21
-10130.0
0
LINE
8
ESTRIBO
10
2515.0
20
-10470.0
11
2515.0
21
-10130.0
0
LINE
8
ESTRIBO
10
2600.0
20
-10470.0
11
2600.0
21
-10130.0
0
LINE
8
ESTRIBO
10
2685.0
20
-10470.0
11
2685.0
21
-10130.0
0
LINE
8
ESTRIBO
10
2770.0
20
-10470.0
11
2770.0
21
-10130.0
0
LINE
8
ESTRIBO
10
2855.0
20
-10470.0
11
2855.0
21
-10130.0
0
LINE
8
COTA
10
0.0
20
-10620.0
11
2950.0
21
-10620.0
0
TEXT
8
COTA
10
1175.0
20
-10730.0
40
90.0
1
L = 2.95 m
0
TEXT
8
TEXTO
10
0.0
20
-9840.0
40
130.0
1
VR-8 (2.95 m, Extremo)  |  Mu(-)=56 kN.m  |  sec 350x400 mm
0
TEXT
8
TEXTO
10
797.5
20
-10010.0
40
90.0
1
3 bastones sup. (L/4 + ld)
0
TEXT
8
TEXTO
10
1175.0
20
-10560.0
40
90.0
1
3 barras inf. corridas
0
TEXT
8
TEXTO
10
60.0
20
-10560.0
40
80.0
1
Estribos No.3 @85(conf)/@150
0
LINE
8
CONCRETO
10
3450.0
20
-10500.0
11
3800.0
21
-10500.0
0
LINE
8
CONCRETO
10
3800.0
20
-10500.0
11
3800.0
21
-10100.0
0
LINE
8
CONCRETO
10
3800.0
20
-10100.0
11
3450.0
21
-10100.0
0
LINE
8
CONCRETO
10
3450.0
20
-10100.0
11
3450.0
21
-10500.0
0
CIRCLE
8
ACERO
10
3495.0
20
-10455.0
40
12.0
0
CIRCLE
8
ACERO
10
3625.0
20
-10455.0
40
12.0
0
CIRCLE
8
ACERO
10
3755.0
20
-10455.0
40
12.0
0
CIRCLE
8
ACERO
10
3495.0
20
-10145.0
40
12.0
0
CIRCLE
8
ACERO
10
3625.0
20
-10145.0
40
12.0
0
CIRCLE
8
ACERO
10
3755.0
20
-10145.0
40
12.0
0
LINE
8
ESTRIBO
10
3480.0
20
-10470.0
11
3770.0
21
-10470.0
0
LINE
8
ESTRIBO
10
3770.0
20
-10470.0
11
3770.0
21
-10130.0
0
LINE
8
ESTRIBO
10
3770.0
20
-10130.0
11
3480.0
21
-10130.0
0
LINE
8
ESTRIBO
10
3480.0
20
-10130.0
11
3480.0
21
-10470.0
0
TEXT
8
TEXTO
10
3450.0
20
-10010.0
40
90.0
1
Sec 350x400
0
LINE
8
CONCRETO
10
0.0
20
-12000.0
11
3300.0
21
-12000.0
0
LINE
8
CONCRETO
10
3300.0
20
-12000.0
11
3300.0
21
-11600.0
0
LINE
8
CONCRETO
10
3300.0
20
-11600.0
11
0.0
21
-11600.0
0
LINE
8
CONCRETO
10
0.0
20
-11600.0
11
0.0
21
-12000.0
0
LINE
8
ACERO
10
40.0
20
-11960.0
11
3260.0
21
-11960.0
0
LINE
8
ACERO
10
40.0
20
-11640.0
11
825.0
21
-11640.0
0
LINE
8
ACERO
10
2475.0
20
-11640.0
11
3260.0
21
-11640.0
0
LINE
8
ESTRIBO
10
60.0
20
-11970.0
11
60.0
21
-11630.0
0
LINE
8
ESTRIBO
10
145.0
20
-11970.0
11
145.0
21
-11630.0
0
LINE
8
ESTRIBO
10
230.0
20
-11970.0
11
230.0
21
-11630.0
0
LINE
8
ESTRIBO
10
315.0
20
-11970.0
11
315.0
21
-11630.0
0
LINE
8
ESTRIBO
10
400.0
20
-11970.0
11
400.0
21
-11630.0
0
LINE
8
ESTRIBO
10
485.0
20
-11970.0
11
485.0
21
-11630.0
0
LINE
8
ESTRIBO
10
570.0
20
-11970.0
11
570.0
21
-11630.0
0
LINE
8
ESTRIBO
10
655.0
20
-11970.0
11
655.0
21
-11630.0
0
LINE
8
ESTRIBO
10
740.0
20
-11970.0
11
740.0
21
-11630.0
0
LINE
8
ESTRIBO
10
825.0
20
-11970.0
11
825.0
21
-11630.0
0
LINE
8
ESTRIBO
10
975.0
20
-11970.0
11
975.0
21
-11630.0
0
LINE
8
ESTRIBO
10
1125.0
20
-11970.0
11
1125.0
21
-11630.0
0
LINE
8
ESTRIBO
10
1275.0
20
-11970.0
11
1275.0
21
-11630.0
0
LINE
8
ESTRIBO
10
1425.0
20
-11970.0
11
1425.0
21
-11630.0
0
LINE
8
ESTRIBO
10
1575.0
20
-11970.0
11
1575.0
21
-11630.0
0
LINE
8
ESTRIBO
10
1725.0
20
-11970.0
11
1725.0
21
-11630.0
0
LINE
8
ESTRIBO
10
1875.0
20
-11970.0
11
1875.0
21
-11630.0
0
LINE
8
ESTRIBO
10
2025.0
20
-11970.0
11
2025.0
21
-11630.0
0
LINE
8
ESTRIBO
10
2175.0
20
-11970.0
11
2175.0
21
-11630.0
0
LINE
8
ESTRIBO
10
2325.0
20
-11970.0
11
2325.0
21
-11630.0
0
LINE
8
ESTRIBO
10
2475.0
20
-11970.0
11
2475.0
21
-11630.0
0
LINE
8
ESTRIBO
10
2625.0
20
-11970.0
11
2625.0
21
-11630.0
0
LINE
8
ESTRIBO
10
2710.0
20
-11970.0
11
2710.0
21
-11630.0
0
LINE
8
ESTRIBO
10
2795.0
20
-11970.0
11
2795.0
21
-11630.0
0
LINE
8
ESTRIBO
10
2880.0
20
-11970.0
11
2880.0
21
-11630.0
0
LINE
8
ESTRIBO
10
2965.0
20
-11970.0
11
2965.0
21
-11630.0
0
LINE
8
ESTRIBO
10
3050.0
20
-11970.0
11
3050.0
21
-11630.0
0
LINE
8
ESTRIBO
10
3135.0
20
-11970.0
11
3135.0
21
-11630.0
0
LINE
8
ESTRIBO
10
3220.0
20
-11970.0
11
3220.0
21
-11630.0
0
LINE
8
COTA
10
0.0
20
-12120.0
11
3300.0
21
-12120.0
0
TEXT
8
COTA
10
1350.0
20
-12230.0
40
90.0
1
L = 3.30 m
0
TEXT
8
TEXTO
10
0.0
20
-11340.0
40
130.0
1
VR-9 (3.30 m, Extremo)  |  Mu(-)=39 kN.m  |  sec 350x400 mm
0
TEXT
8
TEXTO
10
885.0
20
-11510.0
40
90.0
1
3 bastones sup. (L/4 + ld)
0
TEXT
8
TEXTO
10
1350.0
20
-12060.0
40
90.0
1
3 barras inf. corridas
0
TEXT
8
TEXTO
10
60.0
20
-12060.0
40
80.0
1
Estribos No.3 @85(conf)/@150
0
LINE
8
CONCRETO
10
3800.0
20
-12000.0
11
4150.0
21
-12000.0
0
LINE
8
CONCRETO
10
4150.0
20
-12000.0
11
4150.0
21
-11600.0
0
LINE
8
CONCRETO
10
4150.0
20
-11600.0
11
3800.0
21
-11600.0
0
LINE
8
CONCRETO
10
3800.0
20
-11600.0
11
3800.0
21
-12000.0
0
CIRCLE
8
ACERO
10
3845.0
20
-11955.0
40
12.0
0
CIRCLE
8
ACERO
10
3975.0
20
-11955.0
40
12.0
0
CIRCLE
8
ACERO
10
4105.0
20
-11955.0
40
12.0
0
CIRCLE
8
ACERO
10
3845.0
20
-11645.0
40
12.0
0
CIRCLE
8
ACERO
10
3975.0
20
-11645.0
40
12.0
0
CIRCLE
8
ACERO
10
4105.0
20
-11645.0
40
12.0
0
LINE
8
ESTRIBO
10
3830.0
20
-11970.0
11
4120.0
21
-11970.0
0
LINE
8
ESTRIBO
10
4120.0
20
-11970.0
11
4120.0
21
-11630.0
0
LINE
8
ESTRIBO
10
4120.0
20
-11630.0
11
3830.0
21
-11630.0
0
LINE
8
ESTRIBO
10
3830.0
20
-11630.0
11
3830.0
21
-11970.0
0
TEXT
8
TEXTO
10
3800.0
20
-11510.0
40
90.0
1
Sec 350x400
0
LINE
8
CONCRETO
10
0.0
20
-13500.0
11
3300.0
21
-13500.0
0
LINE
8
CONCRETO
10
3300.0
20
-13500.0
11
3300.0
21
-13100.0
0
LINE
8
CONCRETO
10
3300.0
20
-13100.0
11
0.0
21
-13100.0
0
LINE
8
CONCRETO
10
0.0
20
-13100.0
11
0.0
21
-13500.0
0
LINE
8
ACERO
10
40.0
20
-13460.0
11
3260.0
21
-13460.0
0
LINE
8
ACERO
10
40.0
20
-13140.0
11
825.0
21
-13140.0
0
LINE
8
ACERO
10
2475.0
20
-13140.0
11
3260.0
21
-13140.0
0
LINE
8
ESTRIBO
10
60.0
20
-13470.0
11
60.0
21
-13130.0
0
LINE
8
ESTRIBO
10
145.0
20
-13470.0
11
145.0
21
-13130.0
0
LINE
8
ESTRIBO
10
230.0
20
-13470.0
11
230.0
21
-13130.0
0
LINE
8
ESTRIBO
10
315.0
20
-13470.0
11
315.0
21
-13130.0
0
LINE
8
ESTRIBO
10
400.0
20
-13470.0
11
400.0
21
-13130.0
0
LINE
8
ESTRIBO
10
485.0
20
-13470.0
11
485.0
21
-13130.0
0
LINE
8
ESTRIBO
10
570.0
20
-13470.0
11
570.0
21
-13130.0
0
LINE
8
ESTRIBO
10
655.0
20
-13470.0
11
655.0
21
-13130.0
0
LINE
8
ESTRIBO
10
740.0
20
-13470.0
11
740.0
21
-13130.0
0
LINE
8
ESTRIBO
10
825.0
20
-13470.0
11
825.0
21
-13130.0
0
LINE
8
ESTRIBO
10
975.0
20
-13470.0
11
975.0
21
-13130.0
0
LINE
8
ESTRIBO
10
1125.0
20
-13470.0
11
1125.0
21
-13130.0
0
LINE
8
ESTRIBO
10
1275.0
20
-13470.0
11
1275.0
21
-13130.0
0
LINE
8
ESTRIBO
10
1425.0
20
-13470.0
11
1425.0
21
-13130.0
0
LINE
8
ESTRIBO
10
1575.0
20
-13470.0
11
1575.0
21
-13130.0
0
LINE
8
ESTRIBO
10
1725.0
20
-13470.0
11
1725.0
21
-13130.0
0
LINE
8
ESTRIBO
10
1875.0
20
-13470.0
11
1875.0
21
-13130.0
0
LINE
8
ESTRIBO
10
2025.0
20
-13470.0
11
2025.0
21
-13130.0
0
LINE
8
ESTRIBO
10
2175.0
20
-13470.0
11
2175.0
21
-13130.0
0
LINE
8
ESTRIBO
10
2325.0
20
-13470.0
11
2325.0
21
-13130.0
0
LINE
8
ESTRIBO
10
2475.0
20
-13470.0
11
2475.0
21
-13130.0
0
LINE
8
ESTRIBO
10
2625.0
20
-13470.0
11
2625.0
21
-13130.0
0
LINE
8
ESTRIBO
10
2710.0
20
-13470.0
11
2710.0
21
-13130.0
0
LINE
8
ESTRIBO
10
2795.0
20
-13470.0
11
2795.0
21
-13130.0
0
LINE
8
ESTRIBO
10
2880.0
20
-13470.0
11
2880.0
21
-13130.0
0
LINE
8
ESTRIBO
10
2965.0
20
-13470.0
11
2965.0
21
-13130.0
0
LINE
8
ESTRIBO
10
3050.0
20
-13470.0
11
3050.0
21
-13130.0
0
LINE
8
ESTRIBO
10
3135.0
20
-13470.0
11
3135.0
21
-13130.0
0
LINE
8
ESTRIBO
10
3220.0
20
-13470.0
11
3220.0
21
-13130.0
0
LINE
8
COTA
10
0.0
20
-13620.0
11
3300.0
21
-13620.0
0
TEXT
8
COTA
10
1350.0
20
-13730.0
40
90.0
1
L = 3.30 m
0
TEXT
8
TEXTO
10
0.0
20
-12840.0
40
130.0
1
VR-10 (3.30 m, Interior)  |  Mu(-)=37 kN.m  |  sec 350x400 mm
0
TEXT
8
TEXTO
10
885.0
20
-13010.0
40
90.0
1
3 bastones sup. (L/4 + ld)
0
TEXT
8
TEXTO
10
1350.0
20
-13560.0
40
90.0
1
3 barras inf. corridas
0
TEXT
8
TEXTO
10
60.0
20
-13560.0
40
80.0
1
Estribos No.3 @85(conf)/@150
0
LINE
8
CONCRETO
10
3800.0
20
-13500.0
11
4150.0
21
-13500.0
0
LINE
8
CONCRETO
10
4150.0
20
-13500.0
11
4150.0
21
-13100.0
0
LINE
8
CONCRETO
10
4150.0
20
-13100.0
11
3800.0
21
-13100.0
0
LINE
8
CONCRETO
10
3800.0
20
-13100.0
11
3800.0
21
-13500.0
0
CIRCLE
8
ACERO
10
3845.0
20
-13455.0
40
12.0
0
CIRCLE
8
ACERO
10
3975.0
20
-13455.0
40
12.0
0
CIRCLE
8
ACERO
10
4105.0
20
-13455.0
40
12.0
0
CIRCLE
8
ACERO
10
3845.0
20
-13145.0
40
12.0
0
CIRCLE
8
ACERO
10
3975.0
20
-13145.0
40
12.0
0
CIRCLE
8
ACERO
10
4105.0
20
-13145.0
40
12.0
0
LINE
8
ESTRIBO
10
3830.0
20
-13470.0
11
4120.0
21
-13470.0
0
LINE
8
ESTRIBO
10
4120.0
20
-13470.0
11
4120.0
21
-13130.0
0
LINE
8
ESTRIBO
10
4120.0
20
-13130.0
11
3830.0
21
-13130.0
0
LINE
8
ESTRIBO
10
3830.0
20
-13130.0
11
3830.0
21
-13470.0
0
TEXT
8
TEXTO
10
3800.0
20
-13010.0
40
90.0
1
Sec 350x400
0
LINE
8
CONCRETO
10
0.0
20
-15000.0
11
3650.0
21
-15000.0
0
LINE
8
CONCRETO
10
3650.0
20
-15000.0
11
3650.0
21
-14600.0
0
LINE
8
CONCRETO
10
3650.0
20
-14600.0
11
0.0
21
-14600.0
0
LINE
8
CONCRETO
10
0.0
20
-14600.0
11
0.0
21
-15000.0
0
LINE
8
ACERO
10
40.0
20
-14960.0
11
3610.0
21
-14960.0
0
LINE
8
ACERO
10
40.0
20
-14640.0
11
912.5
21
-14640.0
0
LINE
8
ACERO
10
2737.5
20
-14640.0
11
3610.0
21
-14640.0
0
LINE
8
ESTRIBO
10
60.0
20
-14970.0
11
60.0
21
-14630.0
0
LINE
8
ESTRIBO
10
145.0
20
-14970.0
11
145.0
21
-14630.0
0
LINE
8
ESTRIBO
10
230.0
20
-14970.0
11
230.0
21
-14630.0
0
LINE
8
ESTRIBO
10
315.0
20
-14970.0
11
315.0
21
-14630.0
0
LINE
8
ESTRIBO
10
400.0
20
-14970.0
11
400.0
21
-14630.0
0
LINE
8
ESTRIBO
10
485.0
20
-14970.0
11
485.0
21
-14630.0
0
LINE
8
ESTRIBO
10
570.0
20
-14970.0
11
570.0
21
-14630.0
0
LINE
8
ESTRIBO
10
655.0
20
-14970.0
11
655.0
21
-14630.0
0
LINE
8
ESTRIBO
10
740.0
20
-14970.0
11
740.0
21
-14630.0
0
LINE
8
ESTRIBO
10
825.0
20
-14970.0
11
825.0
21
-14630.0
0
LINE
8
ESTRIBO
10
975.0
20
-14970.0
11
975.0
21
-14630.0
0
LINE
8
ESTRIBO
10
1125.0
20
-14970.0
11
1125.0
21
-14630.0
0
LINE
8
ESTRIBO
10
1275.0
20
-14970.0
11
1275.0
21
-14630.0
0
LINE
8
ESTRIBO
10
1425.0
20
-14970.0
11
1425.0
21
-14630.0
0
LINE
8
ESTRIBO
10
1575.0
20
-14970.0
11
1575.0
21
-14630.0
0
LINE
8
ESTRIBO
10
1725.0
20
-14970.0
11
1725.0
21
-14630.0
0
LINE
8
ESTRIBO
10
1875.0
20
-14970.0
11
1875.0
21
-14630.0
0
LINE
8
ESTRIBO
10
2025.0
20
-14970.0
11
2025.0
21
-14630.0
0
LINE
8
ESTRIBO
10
2175.0
20
-14970.0
11
2175.0
21
-14630.0
0
LINE
8
ESTRIBO
10
2325.0
20
-14970.0
11
2325.0
21
-14630.0
0
LINE
8
ESTRIBO
10
2475.0
20
-14970.0
11
2475.0
21
-14630.0
0
LINE
8
ESTRIBO
10
2625.0
20
-14970.0
11
2625.0
21
-14630.0
0
LINE
8
ESTRIBO
10
2775.0
20
-14970.0
11
2775.0
21
-14630.0
0
LINE
8
ESTRIBO
10
2925.0
20
-14970.0
11
2925.0
21
-14630.0
0
LINE
8
ESTRIBO
10
3010.0
20
-14970.0
11
3010.0
21
-14630.0
0
LINE
8
ESTRIBO
10
3095.0
20
-14970.0
11
3095.0
21
-14630.0
0
LINE
8
ESTRIBO
10
3180.0
20
-14970.0
11
3180.0
21
-14630.0
0
LINE
8
ESTRIBO
10
3265.0
20
-14970.0
11
3265.0
21
-14630.0
0
LINE
8
ESTRIBO
10
3350.0
20
-14970.0
11
3350.0
21
-14630.0
0
LINE
8
ESTRIBO
10
3435.0
20
-14970.0
11
3435.0
21
-14630.0
0
LINE
8
ESTRIBO
10
3520.0
20
-14970.0
11
3520.0
21
-14630.0
0
LINE
8
COTA
10
0.0
20
-15120.0
11
3650.0
21
-15120.0
0
TEXT
8
COTA
10
1525.0
20
-15230.0
40
90.0
1
L = 3.65 m
0
TEXT
8
TEXTO
10
0.0
20
-14340.0
40
130.0
1
VR-11 (3.65 m, Extremo)  |  Mu(-)=38 kN.m  |  sec 350x400 mm
0
TEXT
8
TEXTO
10
972.5
20
-14510.0
40
90.0
1
3 bastones sup. (L/4 + ld)
0
TEXT
8
TEXTO
10
1525.0
20
-15060.0
40
90.0
1
3 barras inf. corridas
0
TEXT
8
TEXTO
10
60.0
20
-15060.0
40
80.0
1
Estribos No.3 @85(conf)/@150
0
LINE
8
CONCRETO
10
4150.0
20
-15000.0
11
4500.0
21
-15000.0
0
LINE
8
CONCRETO
10
4500.0
20
-15000.0
11
4500.0
21
-14600.0
0
LINE
8
CONCRETO
10
4500.0
20
-14600.0
11
4150.0
21
-14600.0
0
LINE
8
CONCRETO
10
4150.0
20
-14600.0
11
4150.0
21
-15000.0
0
CIRCLE
8
ACERO
10
4195.0
20
-14955.0
40
12.0
0
CIRCLE
8
ACERO
10
4325.0
20
-14955.0
40
12.0
0
CIRCLE
8
ACERO
10
4455.0
20
-14955.0
40
12.0
0
CIRCLE
8
ACERO
10
4195.0
20
-14645.0
40
12.0
0
CIRCLE
8
ACERO
10
4325.0
20
-14645.0
40
12.0
0
CIRCLE
8
ACERO
10
4455.0
20
-14645.0
40
12.0
0
LINE
8
ESTRIBO
10
4180.0
20
-14970.0
11
4470.0
21
-14970.0
0
LINE
8
ESTRIBO
10
4470.0
20
-14970.0
11
4470.0
21
-14630.0
0
LINE
8
ESTRIBO
10
4470.0
20
-14630.0
11
4180.0
21
-14630.0
0
LINE
8
ESTRIBO
10
4180.0
20
-14630.0
11
4180.0
21
-14970.0
0
TEXT
8
TEXTO
10
4150.0
20
-14510.0
40
90.0
1
Sec 350x400
0
LINE
8
CONCRETO
10
0.0
20
-16500.0
11
3650.0
21
-16500.0
0
LINE
8
CONCRETO
10
3650.0
20
-16500.0
11
3650.0
21
-16100.0
0
LINE
8
CONCRETO
10
3650.0
20
-16100.0
11
0.0
21
-16100.0
0
LINE
8
CONCRETO
10
0.0
20
-16100.0
11
0.0
21
-16500.0
0
LINE
8
ACERO
10
40.0
20
-16460.0
11
3610.0
21
-16460.0
0
LINE
8
ACERO
10
40.0
20
-16140.0
11
912.5
21
-16140.0
0
LINE
8
ACERO
10
2737.5
20
-16140.0
11
3610.0
21
-16140.0
0
LINE
8
ESTRIBO
10
60.0
20
-16470.0
11
60.0
21
-16130.0
0
LINE
8
ESTRIBO
10
145.0
20
-16470.0
11
145.0
21
-16130.0
0
LINE
8
ESTRIBO
10
230.0
20
-16470.0
11
230.0
21
-16130.0
0
LINE
8
ESTRIBO
10
315.0
20
-16470.0
11
315.0
21
-16130.0
0
LINE
8
ESTRIBO
10
400.0
20
-16470.0
11
400.0
21
-16130.0
0
LINE
8
ESTRIBO
10
485.0
20
-16470.0
11
485.0
21
-16130.0
0
LINE
8
ESTRIBO
10
570.0
20
-16470.0
11
570.0
21
-16130.0
0
LINE
8
ESTRIBO
10
655.0
20
-16470.0
11
655.0
21
-16130.0
0
LINE
8
ESTRIBO
10
740.0
20
-16470.0
11
740.0
21
-16130.0
0
LINE
8
ESTRIBO
10
825.0
20
-16470.0
11
825.0
21
-16130.0
0
LINE
8
ESTRIBO
10
975.0
20
-16470.0
11
975.0
21
-16130.0
0
LINE
8
ESTRIBO
10
1125.0
20
-16470.0
11
1125.0
21
-16130.0
0
LINE
8
ESTRIBO
10
1275.0
20
-16470.0
11
1275.0
21
-16130.0
0
LINE
8
ESTRIBO
10
1425.0
20
-16470.0
11
1425.0
21
-16130.0
0
LINE
8
ESTRIBO
10
1575.0
20
-16470.0
11
1575.0
21
-16130.0
0
LINE
8
ESTRIBO
10
1725.0
20
-16470.0
11
1725.0
21
-16130.0
0
LINE
8
ESTRIBO
10
1875.0
20
-16470.0
11
1875.0
21
-16130.0
0
LINE
8
ESTRIBO
10
2025.0
20
-16470.0
11
2025.0
21
-16130.0
0
LINE
8
ESTRIBO
10
2175.0
20
-16470.0
11
2175.0
21
-16130.0
0
LINE
8
ESTRIBO
10
2325.0
20
-16470.0
11
2325.0
21
-16130.0
0
LINE
8
ESTRIBO
10
2475.0
20
-16470.0
11
2475.0
21
-16130.0
0
LINE
8
ESTRIBO
10
2625.0
20
-16470.0
11
2625.0
21
-16130.0
0
LINE
8
ESTRIBO
10
2775.0
20
-16470.0
11
2775.0
21
-16130.0
0
LINE
8
ESTRIBO
10
2925.0
20
-16470.0
11
2925.0
21
-16130.0
0
LINE
8
ESTRIBO
10
3010.0
20
-16470.0
11
3010.0
21
-16130.0
0
LINE
8
ESTRIBO
10
3095.0
20
-16470.0
11
3095.0
21
-16130.0
0
LINE
8
ESTRIBO
10
3180.0
20
-16470.0
11
3180.0
21
-16130.0
0
LINE
8
ESTRIBO
10
3265.0
20
-16470.0
11
3265.0
21
-16130.0
0
LINE
8
ESTRIBO
10
3350.0
20
-16470.0
11
3350.0
21
-16130.0
0
LINE
8
ESTRIBO
10
3435.0
20
-16470.0
11
3435.0
21
-16130.0
0
LINE
8
ESTRIBO
10
3520.0
20
-16470.0
11
3520.0
21
-16130.0
0
LINE
8
COTA
10
0.0
20
-16620.0
11
3650.0
21
-16620.0
0
TEXT
8
COTA
10
1525.0
20
-16730.0
40
90.0
1
L = 3.65 m
0
TEXT
8
TEXTO
10
0.0
20
-15840.0
40
130.0
1
VR-12 (3.65 m, Interior)  |  Mu(-)=47 kN.m  |  sec 350x400 mm
0
TEXT
8
TEXTO
10
972.5
20
-16010.0
40
90.0
1
3 bastones sup. (L/4 + ld)
0
TEXT
8
TEXTO
10
1525.0
20
-16560.0
40
90.0
1
3 barras inf. corridas
0
TEXT
8
TEXTO
10
60.0
20
-16560.0
40
80.0
1
Estribos No.3 @85(conf)/@150
0
LINE
8
CONCRETO
10
4150.0
20
-16500.0
11
4500.0
21
-16500.0
0
LINE
8
CONCRETO
10
4500.0
20
-16500.0
11
4500.0
21
-16100.0
0
LINE
8
CONCRETO
10
4500.0
20
-16100.0
11
4150.0
21
-16100.0
0
LINE
8
CONCRETO
10
4150.0
20
-16100.0
11
4150.0
21
-16500.0
0
CIRCLE
8
ACERO
10
4195.0
20
-16455.0
40
12.0
0
CIRCLE
8
ACERO
10
4325.0
20
-16455.0
40
12.0
0
CIRCLE
8
ACERO
10
4455.0
20
-16455.0
40
12.0
0
CIRCLE
8
ACERO
10
4195.0
20
-16145.0
40
12.0
0
CIRCLE
8
ACERO
10
4325.0
20
-16145.0
40
12.0
0
CIRCLE
8
ACERO
10
4455.0
20
-16145.0
40
12.0
0
LINE
8
ESTRIBO
10
4180.0
20
-16470.0
11
4470.0
21
-16470.0
0
LINE
8
ESTRIBO
10
4470.0
20
-16470.0
11
4470.0
21
-16130.0
0
LINE
8
ESTRIBO
10
4470.0
20
-16130.0
11
4180.0
21
-16130.0
0
LINE
8
ESTRIBO
10
4180.0
20
-16130.0
11
4180.0
21
-16470.0
0
TEXT
8
TEXTO
10
4150.0
20
-16010.0
40
90.0
1
Sec 350x400
0
LINE
8
CONCRETO
10
0.0
20
-18000.0
11
4000.0
21
-18000.0
0
LINE
8
CONCRETO
10
4000.0
20
-18000.0
11
4000.0
21
-17600.0
0
LINE
8
CONCRETO
10
4000.0
20
-17600.0
11
0.0
21
-17600.0
0
LINE
8
CONCRETO
10
0.0
20
-17600.0
11
0.0
21
-18000.0
0
LINE
8
ACERO
10
40.0
20
-17960.0
11
3960.0
21
-17960.0
0
LINE
8
ACERO
10
40.0
20
-17640.0
11
1000.0
21
-17640.0
0
LINE
8
ACERO
10
3000.0
20
-17640.0
11
3960.0
21
-17640.0
0
LINE
8
ESTRIBO
10
60.0
20
-17970.0
11
60.0
21
-17630.0
0
LINE
8
ESTRIBO
10
145.0
20
-17970.0
11
145.0
21
-17630.0
0
LINE
8
ESTRIBO
10
230.0
20
-17970.0
11
230.0
21
-17630.0
0
LINE
8
ESTRIBO
10
315.0
20
-17970.0
11
315.0
21
-17630.0
0
LINE
8
ESTRIBO
10
400.0
20
-17970.0
11
400.0
21
-17630.0
0
LINE
8
ESTRIBO
10
485.0
20
-17970.0
11
485.0
21
-17630.0
0
LINE
8
ESTRIBO
10
570.0
20
-17970.0
11
570.0
21
-17630.0
0
LINE
8
ESTRIBO
10
655.0
20
-17970.0
11
655.0
21
-17630.0
0
LINE
8
ESTRIBO
10
740.0
20
-17970.0
11
740.0
21
-17630.0
0
LINE
8
ESTRIBO
10
825.0
20
-17970.0
11
825.0
21
-17630.0
0
LINE
8
ESTRIBO
10
975.0
20
-17970.0
11
975.0
21
-17630.0
0
LINE
8
ESTRIBO
10
1125.0
20
-17970.0
11
1125.0
21
-17630.0
0
LINE
8
ESTRIBO
10
1275.0
20
-17970.0
11
1275.0
21
-17630.0
0
LINE
8
ESTRIBO
10
1425.0
20
-17970.0
11
1425.0
21
-17630.0
0
LINE
8
ESTRIBO
10
1575.0
20
-17970.0
11
1575.0
21
-17630.0
0
LINE
8
ESTRIBO
10
1725.0
20
-17970.0
11
1725.0
21
-17630.0
0
LINE
8
ESTRIBO
10
1875.0
20
-17970.0
11
1875.0
21
-17630.0
0
LINE
8
ESTRIBO
10
2025.0
20
-17970.0
11
2025.0
21
-17630.0
0
LINE
8
ESTRIBO
10
2175.0
20
-17970.0
11
2175.0
21
-17630.0
0
LINE
8
ESTRIBO
10
2325.0
20
-17970.0
11
2325.0
21
-17630.0
0
LINE
8
ESTRIBO
10
2475.0
20
-17970.0
11
2475.0
21
-17630.0
0
LINE
8
ESTRIBO
10
2625.0
20
-17970.0
11
2625.0
21
-17630.0
0
LINE
8
ESTRIBO
10
2775.0
20
-17970.0
11
2775.0
21
-17630.0
0
LINE
8
ESTRIBO
10
2925.0
20
-17970.0
11
2925.0
21
-17630.0
0
LINE
8
ESTRIBO
10
3075.0
20
-17970.0
11
3075.0
21
-17630.0
0
LINE
8
ESTRIBO
10
3225.0
20
-17970.0
11
3225.0
21
-17630.0
0
LINE
8
ESTRIBO
10
3310.0
20
-17970.0
11
3310.0
21
-17630.0
0
LINE
8
ESTRIBO
10
3395.0
20
-17970.0
11
3395.0
21
-17630.0
0
LINE
8
ESTRIBO
10
3480.0
20
-17970.0
11
3480.0
21
-17630.0
0
LINE
8
ESTRIBO
10
3565.0
20
-17970.0
11
3565.0
21
-17630.0
0
LINE
8
ESTRIBO
10
3650.0
20
-17970.0
11
3650.0
21
-17630.0
0
LINE
8
ESTRIBO
10
3735.0
20
-17970.0
11
3735.0
21
-17630.0
0
LINE
8
ESTRIBO
10
3820.0
20
-17970.0
11
3820.0
21
-17630.0
0
LINE
8
ESTRIBO
10
3905.0
20
-17970.0
11
3905.0
21
-17630.0
0
LINE
8
COTA
10
0.0
20
-18120.0
11
4000.0
21
-18120.0
0
TEXT
8
COTA
10
1700.0
20
-18230.0
40
90.0
1
L = 4.00 m
0
TEXT
8
TEXTO
10
0.0
20
-17340.0
40
130.0
1
VR-13 (4.00 m, Extremo)  |  Mu(-)=65 kN.m  |  sec 350x400 mm
0
TEXT
8
TEXTO
10
1060.0
20
-17510.0
40
90.0
1
3 bastones sup. (L/4 + ld)
0
TEXT
8
TEXTO
10
1700.0
20
-18060.0
40
90.0
1
3 barras inf. corridas
0
TEXT
8
TEXTO
10
60.0
20
-18060.0
40
80.0
1
Estribos No.3 @85(conf)/@150
0
LINE
8
CONCRETO
10
4500.0
20
-18000.0
11
4850.0
21
-18000.0
0
LINE
8
CONCRETO
10
4850.0
20
-18000.0
11
4850.0
21
-17600.0
0
LINE
8
CONCRETO
10
4850.0
20
-17600.0
11
4500.0
21
-17600.0
0
LINE
8
CONCRETO
10
4500.0
20
-17600.0
11
4500.0
21
-18000.0
0
CIRCLE
8
ACERO
10
4545.0
20
-17955.0
40
12.0
0
CIRCLE
8
ACERO
10
4675.0
20
-17955.0
40
12.0
0
CIRCLE
8
ACERO
10
4805.0
20
-17955.0
40
12.0
0
CIRCLE
8
ACERO
10
4545.0
20
-17645.0
40
12.0
0
CIRCLE
8
ACERO
10
4675.0
20
-17645.0
40
12.0
0
CIRCLE
8
ACERO
10
4805.0
20
-17645.0
40
12.0
0
LINE
8
ESTRIBO
10
4530.0
20
-17970.0
11
4820.0
21
-17970.0
0
LINE
8
ESTRIBO
10
4820.0
20
-17970.0
11
4820.0
21
-17630.0
0
LINE
8
ESTRIBO
10
4820.0
20
-17630.0
11
4530.0
21
-17630.0
0
LINE
8
ESTRIBO
10
4530.0
20
-17630.0
11
4530.0
21
-17970.0
0
TEXT
8
TEXTO
10
4500.0
20
-17510.0
40
90.0
1
Sec 350x400
0
LINE
8
CONCRETO
10
0.0
20
-19500.0
11
4000.0
21
-19500.0
0
LINE
8
CONCRETO
10
4000.0
20
-19500.0
11
4000.0
21
-19100.0
0
LINE
8
CONCRETO
10
4000.0
20
-19100.0
11
0.0
21
-19100.0
0
LINE
8
CONCRETO
10
0.0
20
-19100.0
11
0.0
21
-19500.0
0
LINE
8
ACERO
10
40.0
20
-19460.0
11
3960.0
21
-19460.0
0
LINE
8
ACERO
10
40.0
20
-19140.0
11
1000.0
21
-19140.0
0
LINE
8
ACERO
10
3000.0
20
-19140.0
11
3960.0
21
-19140.0
0
LINE
8
ESTRIBO
10
60.0
20
-19470.0
11
60.0
21
-19130.0
0
LINE
8
ESTRIBO
10
145.0
20
-19470.0
11
145.0
21
-19130.0
0
LINE
8
ESTRIBO
10
230.0
20
-19470.0
11
230.0
21
-19130.0
0
LINE
8
ESTRIBO
10
315.0
20
-19470.0
11
315.0
21
-19130.0
0
LINE
8
ESTRIBO
10
400.0
20
-19470.0
11
400.0
21
-19130.0
0
LINE
8
ESTRIBO
10
485.0
20
-19470.0
11
485.0
21
-19130.0
0
LINE
8
ESTRIBO
10
570.0
20
-19470.0
11
570.0
21
-19130.0
0
LINE
8
ESTRIBO
10
655.0
20
-19470.0
11
655.0
21
-19130.0
0
LINE
8
ESTRIBO
10
740.0
20
-19470.0
11
740.0
21
-19130.0
0
LINE
8
ESTRIBO
10
825.0
20
-19470.0
11
825.0
21
-19130.0
0
LINE
8
ESTRIBO
10
975.0
20
-19470.0
11
975.0
21
-19130.0
0
LINE
8
ESTRIBO
10
1125.0
20
-19470.0
11
1125.0
21
-19130.0
0
LINE
8
ESTRIBO
10
1275.0
20
-19470.0
11
1275.0
21
-19130.0
0
LINE
8
ESTRIBO
10
1425.0
20
-19470.0
11
1425.0
21
-19130.0
0
LINE
8
ESTRIBO
10
1575.0
20
-19470.0
11
1575.0
21
-19130.0
0
LINE
8
ESTRIBO
10
1725.0
20
-19470.0
11
1725.0
21
-19130.0
0
LINE
8
ESTRIBO
10
1875.0
20
-19470.0
11
1875.0
21
-19130.0
0
LINE
8
ESTRIBO
10
2025.0
20
-19470.0
11
2025.0
21
-19130.0
0
LINE
8
ESTRIBO
10
2175.0
20
-19470.0
11
2175.0
21
-19130.0
0
LINE
8
ESTRIBO
10
2325.0
20
-19470.0
11
2325.0
21
-19130.0
0
LINE
8
ESTRIBO
10
2475.0
20
-19470.0
11
2475.0
21
-19130.0
0
LINE
8
ESTRIBO
10
2625.0
20
-19470.0
11
2625.0
21
-19130.0
0
LINE
8
ESTRIBO
10
2775.0
20
-19470.0
11
2775.0
21
-19130.0
0
LINE
8
ESTRIBO
10
2925.0
20
-19470.0
11
2925.0
21
-19130.0
0
LINE
8
ESTRIBO
10
3075.0
20
-19470.0
11
3075.0
21
-19130.0
0
LINE
8
ESTRIBO
10
3225.0
20
-19470.0
11
3225.0
21
-19130.0
0
LINE
8
ESTRIBO
10
3310.0
20
-19470.0
11
3310.0
21
-19130.0
0
LINE
8
ESTRIBO
10
3395.0
20
-19470.0
11
3395.0
21
-19130.0
0
LINE
8
ESTRIBO
10
3480.0
20
-19470.0
11
3480.0
21
-19130.0
0
LINE
8
ESTRIBO
10
3565.0
20
-19470.0
11
3565.0
21
-19130.0
0
LINE
8
ESTRIBO
10
3650.0
20
-19470.0
11
3650.0
21
-19130.0
0
LINE
8
ESTRIBO
10
3735.0
20
-19470.0
11
3735.0
21
-19130.0
0
LINE
8
ESTRIBO
10
3820.0
20
-19470.0
11
3820.0
21
-19130.0
0
LINE
8
ESTRIBO
10
3905.0
20
-19470.0
11
3905.0
21
-19130.0
0
LINE
8
COTA
10
0.0
20
-19620.0
11
4000.0
21
-19620.0
0
TEXT
8
COTA
10
1700.0
20
-19730.0
40
90.0
1
L = 4.00 m
0
TEXT
8
TEXTO
10
0.0
20
-18840.0
40
130.0
1
VR-14 (4.00 m, Interior)  |  Mu(-)=61 kN.m  |  sec 350x400 mm
0
TEXT
8
TEXTO
10
1060.0
20
-19010.0
40
90.0
1
3 bastones sup. (L/4 + ld)
0
TEXT
8
TEXTO
10
1700.0
20
-19560.0
40
90.0
1
3 barras inf. corridas
0
TEXT
8
TEXTO
10
60.0
20
-19560.0
40
80.0
1
Estribos No.3 @85(conf)/@150
0
LINE
8
CONCRETO
10
4500.0
20
-19500.0
11
4850.0
21
-19500.0
0
LINE
8
CONCRETO
10
4850.0
20
-19500.0
11
4850.0
21
-19100.0
0
LINE
8
CONCRETO
10
4850.0
20
-19100.0
11
4500.0
21
-19100.0
0
LINE
8
CONCRETO
10
4500.0
20
-19100.0
11
4500.0
21
-19500.0
0
CIRCLE
8
ACERO
10
4545.0
20
-19455.0
40
12.0
0
CIRCLE
8
ACERO
10
4675.0
20
-19455.0
40
12.0
0
CIRCLE
8
ACERO
10
4805.0
20
-19455.0
40
12.0
0
CIRCLE
8
ACERO
10
4545.0
20
-19145.0
40
12.0
0
CIRCLE
8
ACERO
10
4675.0
20
-19145.0
40
12.0
0
CIRCLE
8
ACERO
10
4805.0
20
-19145.0
40
12.0
0
LINE
8
ESTRIBO
10
4530.0
20
-19470.0
11
4820.0
21
-19470.0
0
LINE
8
ESTRIBO
10
4820.0
20
-19470.0
11
4820.0
21
-19130.0
0
LINE
8
ESTRIBO
10
4820.0
20
-19130.0
11
4530.0
21
-19130.0
0
LINE
8
ESTRIBO
10
4530.0
20
-19130.0
11
4530.0
21
-19470.0
0
TEXT
8
TEXTO
10
4500.0
20
-19010.0
40
90.0
1
Sec 350x400
0
LINE
8
CONCRETO
10
0.0
20
-21000.0
11
4180.0
21
-21000.0
0
LINE
8
CONCRETO
10
4180.0
20
-21000.0
11
4180.0
21
-20600.0
0
LINE
8
CONCRETO
10
4180.0
20
-20600.0
11
0.0
21
-20600.0
0
LINE
8
CONCRETO
10
0.0
20
-20600.0
11
0.0
21
-21000.0
0
LINE
8
ACERO
10
40.0
20
-20960.0
11
4140.0
21
-20960.0
0
LINE
8
ACERO
10
40.0
20
-20640.0
11
1045.0
21
-20640.0
0
LINE
8
ACERO
10
3135.0
20
-20640.0
11
4140.0
21
-20640.0
0
LINE
8
ESTRIBO
10
60.0
20
-20970.0
11
60.0
21
-20630.0
0
LINE
8
ESTRIBO
10
145.0
20
-20970.0
11
145.0
21
-20630.0
0
LINE
8
ESTRIBO
10
230.0
20
-20970.0
11
230.0
21
-20630.0
0
LINE
8
ESTRIBO
10
315.0
20
-20970.0
11
315.0
21
-20630.0
0
LINE
8
ESTRIBO
10
400.0
20
-20970.0
11
400.0
21
-20630.0
0
LINE
8
ESTRIBO
10
485.0
20
-20970.0
11
485.0
21
-20630.0
0
LINE
8
ESTRIBO
10
570.0
20
-20970.0
11
570.0
21
-20630.0
0
LINE
8
ESTRIBO
10
655.0
20
-20970.0
11
655.0
21
-20630.0
0
LINE
8
ESTRIBO
10
740.0
20
-20970.0
11
740.0
21
-20630.0
0
LINE
8
ESTRIBO
10
825.0
20
-20970.0
11
825.0
21
-20630.0
0
LINE
8
ESTRIBO
10
975.0
20
-20970.0
11
975.0
21
-20630.0
0
LINE
8
ESTRIBO
10
1125.0
20
-20970.0
11
1125.0
21
-20630.0
0
LINE
8
ESTRIBO
10
1275.0
20
-20970.0
11
1275.0
21
-20630.0
0
LINE
8
ESTRIBO
10
1425.0
20
-20970.0
11
1425.0
21
-20630.0
0
LINE
8
ESTRIBO
10
1575.0
20
-20970.0
11
1575.0
21
-20630.0
0
LINE
8
ESTRIBO
10
1725.0
20
-20970.0
11
1725.0
21
-20630.0
0
LINE
8
ESTRIBO
10
1875.0
20
-20970.0
11
1875.0
21
-20630.0
0
LINE
8
ESTRIBO
10
2025.0
20
-20970.0
11
2025.0
21
-20630.0
0
LINE
8
ESTRIBO
10
2175.0
20
-20970.0
11
2175.0
21
-20630.0
0
LINE
8
ESTRIBO
10
2325.0
20
-20970.0
11
2325.0
21
-20630.0
0
LINE
8
ESTRIBO
10
2475.0
20
-20970.0
11
2475.0
21
-20630.0
0
LINE
8
ESTRIBO
10
2625.0
20
-20970.0
11
2625.0
21
-20630.0
0
LINE
8
ESTRIBO
10
2775.0
20
-20970.0
11
2775.0
21
-20630.0
0
LINE
8
ESTRIBO
10
2925.0
20
-20970.0
11
2925.0
21
-20630.0
0
LINE
8
ESTRIBO
10
3075.0
20
-20970.0
11
3075.0
21
-20630.0
0
LINE
8
ESTRIBO
10
3225.0
20
-20970.0
11
3225.0
21
-20630.0
0
LINE
8
ESTRIBO
10
3375.0
20
-20970.0
11
3375.0
21
-20630.0
0
LINE
8
ESTRIBO
10
3525.0
20
-20970.0
11
3525.0
21
-20630.0
0
LINE
8
ESTRIBO
10
3610.0
20
-20970.0
11
3610.0
21
-20630.0
0
LINE
8
ESTRIBO
10
3695.0
20
-20970.0
11
3695.0
21
-20630.0
0
LINE
8
ESTRIBO
10
3780.0
20
-20970.0
11
3780.0
21
-20630.0
0
LINE
8
ESTRIBO
10
3865.0
20
-20970.0
11
3865.0
21
-20630.0
0
LINE
8
ESTRIBO
10
3950.0
20
-20970.0
11
3950.0
21
-20630.0
0
LINE
8
ESTRIBO
10
4035.0
20
-20970.0
11
4035.0
21
-20630.0
0
LINE
8
COTA
10
0.0
20
-21120.0
11
4180.0
21
-21120.0
0
TEXT
8
COTA
10
1790.0
20
-21230.0
40
90.0
1
L = 4.18 m
0
TEXT
8
TEXTO
10
0.0
20
-20340.0
40
130.0
1
VR-15 (4.18 m, Interior)  |  Mu(-)=78 kN.m  |  sec 350x400 mm
0
TEXT
8
TEXTO
10
1105.0
20
-20510.0
40
90.0
1
4 bastones sup. (L/4 + ld)
0
TEXT
8
TEXTO
10
1790.0
20
-21060.0
40
90.0
1
3 barras inf. corridas
0
TEXT
8
TEXTO
10
60.0
20
-21060.0
40
80.0
1
Estribos No.3 @85(conf)/@150
0
LINE
8
CONCRETO
10
4680.0
20
-21000.0
11
5030.0
21
-21000.0
0
LINE
8
CONCRETO
10
5030.0
20
-21000.0
11
5030.0
21
-20600.0
0
LINE
8
CONCRETO
10
5030.0
20
-20600.0
11
4680.0
21
-20600.0
0
LINE
8
CONCRETO
10
4680.0
20
-20600.0
11
4680.0
21
-21000.0
0
CIRCLE
8
ACERO
10
4725.0
20
-20955.0
40
12.0
0
CIRCLE
8
ACERO
10
4855.0
20
-20955.0
40
12.0
0
CIRCLE
8
ACERO
10
4985.0
20
-20955.0
40
12.0
0
CIRCLE
8
ACERO
10
4725.0
20
-20645.0
40
12.0
0
CIRCLE
8
ACERO
10
4811.7
20
-20645.0
40
12.0
0
CIRCLE
8
ACERO
10
4898.3
20
-20645.0
40
12.0
0
CIRCLE
8
ACERO
10
4985.0
20
-20645.0
40
12.0
0
LINE
8
ESTRIBO
10
4710.0
20
-20970.0
11
5000.0
21
-20970.0
0
LINE
8
ESTRIBO
10
5000.0
20
-20970.0
11
5000.0
21
-20630.0
0
LINE
8
ESTRIBO
10
5000.0
20
-20630.0
11
4710.0
21
-20630.0
0
LINE
8
ESTRIBO
10
4710.0
20
-20630.0
11
4710.0
21
-20970.0
0
TEXT
8
TEXTO
10
4680.0
20
-20510.0
40
90.0
1
Sec 350x400
0
LINE
8
CONCRETO
10
0.0
20
-22500.0
11
5500.0
21
-22500.0
0
LINE
8
CONCRETO
10
5500.0
20
-22500.0
11
5500.0
21
-22100.0
0
LINE
8
CONCRETO
10
5500.0
20
-22100.0
11
0.0
21
-22100.0
0
LINE
8
CONCRETO
10
0.0
20
-22100.0
11
0.0
21
-22500.0
0
LINE
8
ACERO
10
40.0
20
-22460.0
11
5460.0
21
-22460.0
0
LINE
8
ACERO
10
40.0
20
-22140.0
11
1375.0
21
-22140.0
0
LINE
8
ACERO
10
4125.0
20
-22140.0
11
5460.0
21
-22140.0
0
LINE
8
ESTRIBO
10
60.0
20
-22470.0
11
60.0
21
-22130.0
0
LINE
8
ESTRIBO
10
145.0
20
-22470.0
11
145.0
21
-22130.0
0
LINE
8
ESTRIBO
10
230.0
20
-22470.0
11
230.0
21
-22130.0
0
LINE
8
ESTRIBO
10
315.0
20
-22470.0
11
315.0
21
-22130.0
0
LINE
8
ESTRIBO
10
400.0
20
-22470.0
11
400.0
21
-22130.0
0
LINE
8
ESTRIBO
10
485.0
20
-22470.0
11
485.0
21
-22130.0
0
LINE
8
ESTRIBO
10
570.0
20
-22470.0
11
570.0
21
-22130.0
0
LINE
8
ESTRIBO
10
655.0
20
-22470.0
11
655.0
21
-22130.0
0
LINE
8
ESTRIBO
10
740.0
20
-22470.0
11
740.0
21
-22130.0
0
LINE
8
ESTRIBO
10
825.0
20
-22470.0
11
825.0
21
-22130.0
0
LINE
8
ESTRIBO
10
975.0
20
-22470.0
11
975.0
21
-22130.0
0
LINE
8
ESTRIBO
10
1125.0
20
-22470.0
11
1125.0
21
-22130.0
0
LINE
8
ESTRIBO
10
1275.0
20
-22470.0
11
1275.0
21
-22130.0
0
LINE
8
ESTRIBO
10
1425.0
20
-22470.0
11
1425.0
21
-22130.0
0
LINE
8
ESTRIBO
10
1575.0
20
-22470.0
11
1575.0
21
-22130.0
0
LINE
8
ESTRIBO
10
1725.0
20
-22470.0
11
1725.0
21
-22130.0
0
LINE
8
ESTRIBO
10
1875.0
20
-22470.0
11
1875.0
21
-22130.0
0
LINE
8
ESTRIBO
10
2025.0
20
-22470.0
11
2025.0
21
-22130.0
0
LINE
8
ESTRIBO
10
2175.0
20
-22470.0
11
2175.0
21
-22130.0
0
LINE
8
ESTRIBO
10
2325.0
20
-22470.0
11
2325.0
21
-22130.0
0
LINE
8
ESTRIBO
10
2475.0
20
-22470.0
11
2475.0
21
-22130.0
0
LINE
8
ESTRIBO
10
2625.0
20
-22470.0
11
2625.0
21
-22130.0
0
LINE
8
ESTRIBO
10
2775.0
20
-22470.0
11
2775.0
21
-22130.0
0
LINE
8
ESTRIBO
10
2925.0
20
-22470.0
11
2925.0
21
-22130.0
0
LINE
8
ESTRIBO
10
3075.0
20
-22470.0
11
3075.0
21
-22130.0
0
LINE
8
ESTRIBO
10
3225.0
20
-22470.0
11
3225.0
21
-22130.0
0
LINE
8
ESTRIBO
10
3375.0
20
-22470.0
11
3375.0
21
-22130.0
0
LINE
8
ESTRIBO
10
3525.0
20
-22470.0
11
3525.0
21
-22130.0
0
LINE
8
ESTRIBO
10
3675.0
20
-22470.0
11
3675.0
21
-22130.0
0
LINE
8
ESTRIBO
10
3825.0
20
-22470.0
11
3825.0
21
-22130.0
0
LINE
8
ESTRIBO
10
3975.0
20
-22470.0
11
3975.0
21
-22130.0
0
LINE
8
ESTRIBO
10
4125.0
20
-22470.0
11
4125.0
21
-22130.0
0
LINE
8
ESTRIBO
10
4275.0
20
-22470.0
11
4275.0
21
-22130.0
0
LINE
8
ESTRIBO
10
4425.0
20
-22470.0
11
4425.0
21
-22130.0
0
LINE
8
ESTRIBO
10
4575.0
20
-22470.0
11
4575.0
21
-22130.0
0
LINE
8
ESTRIBO
10
4725.0
20
-22470.0
11
4725.0
21
-22130.0
0
LINE
8
ESTRIBO
10
4810.0
20
-22470.0
11
4810.0
21
-22130.0
0
LINE
8
ESTRIBO
10
4895.0
20
-22470.0
11
4895.0
21
-22130.0
0
LINE
8
ESTRIBO
10
4980.0
20
-22470.0
11
4980.0
21
-22130.0
0
LINE
8
ESTRIBO
10
5065.0
20
-22470.0
11
5065.0
21
-22130.0
0
LINE
8
ESTRIBO
10
5150.0
20
-22470.0
11
5150.0
21
-22130.0
0
LINE
8
ESTRIBO
10
5235.0
20
-22470.0
11
5235.0
21
-22130.0
0
LINE
8
ESTRIBO
10
5320.0
20
-22470.0
11
5320.0
21
-22130.0
0
LINE
8
ESTRIBO
10
5405.0
20
-22470.0
11
5405.0
21
-22130.0
0
LINE
8
COTA
10
0.0
20
-22620.0
11
5500.0
21
-22620.0
0
TEXT
8
COTA
10
2450.0
20
-22730.0
40
90.0
1
L = 5.50 m
0
TEXT
8
TEXTO
10
0.0
20
-21840.0
40
130.0
1
VR-16 (5.50 m, Interior)  |  Mu(-)=104 kN.m  |  sec 350x400 mm
0
TEXT
8
TEXTO
10
1435.0
20
-22010.0
40
90.0
1
5 bastones sup. (L/4 + ld)
0
TEXT
8
TEXTO
10
2450.0
20
-22560.0
40
90.0
1
3 barras inf. corridas
0
TEXT
8
TEXTO
10
60.0
20
-22560.0
40
80.0
1
Estribos No.3 @85(conf)/@150
0
LINE
8
CONCRETO
10
6000.0
20
-22500.0
11
6350.0
21
-22500.0
0
LINE
8
CONCRETO
10
6350.0
20
-22500.0
11
6350.0
21
-22100.0
0
LINE
8
CONCRETO
10
6350.0
20
-22100.0
11
6000.0
21
-22100.0
0
LINE
8
CONCRETO
10
6000.0
20
-22100.0
11
6000.0
21
-22500.0
0
CIRCLE
8
ACERO
10
6045.0
20
-22455.0
40
12.0
0
CIRCLE
8
ACERO
10
6175.0
20
-22455.0
40
12.0
0
CIRCLE
8
ACERO
10
6305.0
20
-22455.0
40
12.0
0
CIRCLE
8
ACERO
10
6045.0
20
-22145.0
40
12.0
0
CIRCLE
8
ACERO
10
6110.0
20
-22145.0
40
12.0
0
CIRCLE
8
ACERO
10
6175.0
20
-22145.0
40
12.0
0
CIRCLE
8
ACERO
10
6240.0
20
-22145.0
40
12.0
0
CIRCLE
8
ACERO
10
6305.0
20
-22145.0
40
12.0
0
LINE
8
ESTRIBO
10
6030.0
20
-22470.0
11
6320.0
21
-22470.0
0
LINE
8
ESTRIBO
10
6320.0
20
-22470.0
11
6320.0
21
-22130.0
0
LINE
8
ESTRIBO
10
6320.0
20
-22130.0
11
6030.0
21
-22130.0
0
LINE
8
ESTRIBO
10
6030.0
20
-22130.0
11
6030.0
21
-22470.0
0
TEXT
8
TEXTO
10
6000.0
20
-22010.0
40
90.0
1
Sec 350x400
0
ENDSEC
0
EOF
