0
SECTION
2
ENTITIES
0
TEXT
8
TITULO
10
0.0
20
1200.0
40
200.0
1
DESPIECE VIGAS DE CARGA VC (0.30x0.40 m)
0
TEXT
8
TEXTO
10
0.0
20
900.0
40
120.0
1
Cotas en mm. Escala sugerida 1:25. NSR-10. Agrupacion por longitud + condicion de apoyo.
0
LINE
8
CONCRETO
10
0.0
20
0.0
11
2500.0
21
0.0
0
LINE
8
CONCRETO
10
2500.0
20
0.0
11
2500.0
21
400.0
0
LINE
8
CONCRETO
10
2500.0
20
400.0
11
0.0
21
400.0
0
LINE
8
CONCRETO
10
0.0
20
400.0
11
0.0
21
0.0
0
LINE
8
ACERO
10
40.0
20
40.0
11
2460.0
21
40.0
0
LINE
8
ACERO
10
40.0
20
360.0
11
625.0
21
360.0
0
LINE
8
ACERO
10
1875.0
20
360.0
11
2460.0
21
360.0
0
LINE
8
ESTRIBO
10
60.0
20
30.0
11
60.0
21
370.0
0
LINE
8
ESTRIBO
10
145.0
20
30.0
11
145.0
21
370.0
0
LINE
8
ESTRIBO
10
230.0
20
30.0
11
230.0
21
370.0
0
LINE
8
ESTRIBO
10
315.0
20
30.0
11
315.0
21
370.0
0
LINE
8
ESTRIBO
10
400.0
20
30.0
11
400.0
21
370.0
0
LINE
8
ESTRIBO
10
485.0
20
30.0
11
485.0
21
370.0
0
LINE
8
ESTRIBO
10
570.0
20
30.0
11
570.0
21
370.0
0
LINE
8
ESTRIBO
10
655.0
20
30.0
11
655.0
21
370.0
0
LINE
8
ESTRIBO
10
740.0
20
30.0
11
740.0
21
370.0
0
LINE
8
ESTRIBO
10
825.0
20
30.0
11
825.0
21
370.0
0
LINE
8
ESTRIBO
10
975.0
20
30.0
11
975.0
21
370.0
0
LINE
8
ESTRIBO
10
1125.0
20
30.0
11
1125.0
21
370.0
0
LINE
8
ESTRIBO
10
1275.0
20
30.0
11
1275.0
21
370.0
0
LINE
8
ESTRIBO
10
1425.0
20
30.0
11
1425.0
21
370.0
0
LINE
8
ESTRIBO
10
1575.0
20
30.0
11
1575.0
21
370.0
0
LINE
8
ESTRIBO
10
1725.0
20
30.0
11
1725.0
21
370.0
0
LINE
8
ESTRIBO
10
1810.0
20
30.0
11
1810.0
21
370.0
0
LINE
8
ESTRIBO
10
1895.0
20
30.0
11
1895.0
21
370.0
0
LINE
8
ESTRIBO
10
1980.0
20
30.0
11
1980.0
21
370.0
0
LINE
8
ESTRIBO
10
2065.0
20
30.0
11
2065.0
21
370.0
0
LINE
8
ESTRIBO
10
2150.0
20
30.0
11
2150.0
21
370.0
0
LINE
8
ESTRIBO
10
2235.0
20
30.0
11
2235.0
21
370.0
0
LINE
8
ESTRIBO
10
2320.0
20
30.0
11
2320.0
21
370.0
0
LINE
8
ESTRIBO
10
2405.0
20
30.0
11
2405.0
21
370.0
0
LINE
8
COTA
10
0.0
20
-120.0
11
2500.0
21
-120.0
0
TEXT
8
COTA
10
950.0
20
-230.0
40
90.0
1
L = 2.50 m
0
TEXT
8
TEXTO
10
0.0
20
660.0
40
130.0
1
VC-1 (2.50 m, Extremo)  |  Mu(-)=10 kN.m  |  sec 300x400 mm
0
TEXT
8
TEXTO
10
685.0
20
490.0
40
90.0
1
2 bastones sup. (L/4 + ld)
0
TEXT
8
TEXTO
10
950.0
20
-60.0
40
90.0
1
2 barras inf. corridas
0
TEXT
8
TEXTO
10
60.0
20
-60.0
40
80.0
1
Estribos No.3 @86(conf)/@150
0
LINE
8
CONCRETO
10
3000.0
20
0.0
11
3300.0
21
0.0
0
LINE
8
CONCRETO
10
3300.0
20
0.0
11
3300.0
21
400.0
0
LINE
8
CONCRETO
10
3300.0
20
400.0
11
3000.0
21
400.0
0
LINE
8
CONCRETO
10
3000.0
20
400.0
11
3000.0
21
0.0
0
CIRCLE
8
ACERO
10
3045.0
20
45.0
40
12.0
0
CIRCLE
8
ACERO
10
3255.0
20
45.0
40
12.0
0
CIRCLE
8
ACERO
10
3045.0
20
355.0
40
12.0
0
CIRCLE
8
ACERO
10
3255.0
20
355.0
40
12.0
0
LINE
8
ESTRIBO
10
3030.0
20
30.0
11
3270.0
21
30.0
0
LINE
8
ESTRIBO
10
3270.0
20
30.0
11
3270.0
21
370.0
0
LINE
8
ESTRIBO
10
3270.0
20
370.0
11
3030.0
21
370.0
0
LINE
8
ESTRIBO
10
3030.0
20
370.0
11
3030.0
21
30.0
0
TEXT
8
TEXTO
10
3000.0
20
490.0
40
90.0
1
Sec 300x400
0
LINE
8
CONCRETO
10
0.0
20
-1500.0
11
2600.0
21
-1500.0
0
LINE
8
CONCRETO
10
2600.0
20
-1500.0
11
2600.0
21
-1100.0
0
LINE
8
CONCRETO
10
2600.0
20
-1100.0
11
0.0
21
-1100.0
0
LINE
8
CONCRETO
10
0.0
20
-1100.0
11
0.0
21
-1500.0
0
LINE
8
ACERO
10
40.0
20
-1460.0
11
2560.0
21
-1460.0
0
LINE
8
ACERO
10
40.0
20
-1140.0
11
650.0
21
-1140.0
0
LINE
8
ACERO
10
1950.0
20
-1140.0
11
2560.0
21
-1140.0
0
LINE
8
ESTRIBO
10
60.0
20
-1470.0
11
60.0
21
-1130.0
0
LINE
8
ESTRIBO
10
145.0
20
-1470.0
11
145.0
21
-1130.0
0
LINE
8
ESTRIBO
10
230.0
20
-1470.0
11
230.0
21
-1130.0
0
LINE
8
ESTRIBO
10
315.0
20
-1470.0
11
315.0
21
-1130.0
0
LINE
8
ESTRIBO
10
400.0
20
-1470.0
11
400.0
21
-1130.0
0
LINE
8
ESTRIBO
10
485.0
20
-1470.0
11
485.0
21
-1130.0
0
LINE
8
ESTRIBO
10
570.0
20
-1470.0
11
570.0
21
-1130.0
0
LINE
8
ESTRIBO
10
655.0
20
-1470.0
11
655.0
21
-1130.0
0
LINE
8
ESTRIBO
10
740.0
20
-1470.0
11
740.0
21
-1130.0
0
LINE
8
ESTRIBO
10
825.0
20
-1470.0
11
825.0
21
-1130.0
0
LINE
8
ESTRIBO
10
975.0
20
-1470.0
11
975.0
21
-1130.0
0
LINE
8
ESTRIBO
10
1125.0
20
-1470.0
11
1125.0
21
-1130.0
0
LINE
8
ESTRIBO
10
1275.0
20
-1470.0
11
1275.0
21
-1130.0
0
LINE
8
ESTRIBO
10
1425.0
20
-1470.0
11
1425.0
21
-1130.0
0
LINE
8
ESTRIBO
10
1575.0
20
-1470.0
11
1575.0
21
-1130.0
0
LINE
8
ESTRIBO
10
1725.0
20
-1470.0
11
1725.0
21
-1130.0
0
LINE
8
ESTRIBO
10
1875.0
20
-1470.0
11
1875.0
21
-1130.0
0
LINE
8
ESTRIBO
10
1960.0
20
-1470.0
11
1960.0
21
-1130.0
0
LINE
8
ESTRIBO
10
2045.0
20
-1470.0
11
2045.0
21
-1130.0
0
LINE
8
ESTRIBO
10
2130.0
20
-1470.0
11
2130.0
21
-1130.0
0
LINE
8
ESTRIBO
10
2215.0
20
-1470.0
11
2215.0
21
-1130.0
0
LINE
8
ESTRIBO
10
2300.0
20
-1470.0
11
2300.0
21
-1130.0
0
LINE
8
ESTRIBO
10
2385.0
20
-1470.0
11
2385.0
21
-1130.0
0
LINE
8
ESTRIBO
10
2470.0
20
-1470.0
11
2470.0
21
-1130.0
0
LINE
8
COTA
10
0.0
20
-1620.0
11
2600.0
21
-1620.0
0
TEXT
8
COTA
10
1000.0
20
-1730.0
40
90.0
1
L = 2.60 m
0
TEXT
8
TEXTO
10
0.0
20
-840.0
40
130.0
1
VC-2 (2.60 m, Extremo)  |  Mu(-)=7 kN.m  |  sec 300x400 mm
0
TEXT
8
TEXTO
10
710.0
20
-1010.0
40
90.0
1
2 bastones sup. (L/4 + ld)
0
TEXT
8
TEXTO
10
1000.0
20
-1560.0
40
90.0
1
2 barras inf. corridas
0
TEXT
8
TEXTO
10
60.0
20
-1560.0
40
80.0
1
Estribos No.3 @86(conf)/@150
0
LINE
8
CONCRETO
10
3100.0
20
-1500.0
11
3400.0
21
-1500.0
0
LINE
8
CONCRETO
10
3400.0
20
-1500.0
11
3400.0
21
-1100.0
0
LINE
8
CONCRETO
10
3400.0
20
-1100.0
11
3100.0
21
-1100.0
0
LINE
8
CONCRETO
10
3100.0
20
-1100.0
11
3100.0
21
-1500.0
0
CIRCLE
8
ACERO
10
3145.0
20
-1455.0
40
12.0
0
CIRCLE
8
ACERO
10
3355.0
20
-1455.0
40
12.0
0
CIRCLE
8
ACERO
10
3145.0
20
-1145.0
40
12.0
0
CIRCLE
8
ACERO
10
3355.0
20
-1145.0
40
12.0
0
LINE
8
ESTRIBO
10
3130.0
20
-1470.0
11
3370.0
21
-1470.0
0
LINE
8
ESTRIBO
10
3370.0
20
-1470.0
11
3370.0
21
-1130.0
0
LINE
8
ESTRIBO
10
3370.0
20
-1130.0
11
3130.0
21
-1130.0
0
LINE
8
ESTRIBO
10
3130.0
20
-1130.0
11
3130.0
21
-1470.0
0
TEXT
8
TEXTO
10
3100.0
20
-1010.0
40
90.0
1
Sec 300x400
0
LINE
8
CONCRETO
10
0.0
20
-3000.0
11
2650.0
21
-3000.0
0
LINE
8
CONCRETO
10
2650.0
20
-3000.0
11
2650.0
21
-2600.0
0
LINE
8
CONCRETO
10
2650.0
20
-2600.0
11
0.0
21
-2600.0
0
LINE
8
CONCRETO
10
0.0
20
-2600.0
11
0.0
21
-3000.0
0
LINE
8
ACERO
10
40.0
20
-2960.0
11
2610.0
21
-2960.0
0
LINE
8
ACERO
10
40.0
20
-2640.0
11
662.5
21
-2640.0
0
LINE
8
ACERO
10
1987.5
20
-2640.0
11
2610.0
21
-2640.0
0
LINE
8
ESTRIBO
10
60.0
20
-2970.0
11
60.0
21
-2630.0
0
LINE
8
ESTRIBO
10
145.0
20
-2970.0
11
145.0
21
-2630.0
0
LINE
8
ESTRIBO
10
230.0
20
-2970.0
11
230.0
21
-2630.0
0
LINE
8
ESTRIBO
10
315.0
20
-2970.0
11
315.0
21
-2630.0
0
LINE
8
ESTRIBO
10
400.0
20
-2970.0
11
400.0
21
-2630.0
0
LINE
8
ESTRIBO
10
485.0
20
-2970.0
11
485.0
21
-2630.0
0
LINE
8
ESTRIBO
10
570.0
20
-2970.0
11
570.0
21
-2630.0
0
LINE
8
ESTRIBO
10
655.0
20
-2970.0
11
655.0
21
-2630.0
0
LINE
8
ESTRIBO
10
740.0
20
-2970.0
11
740.0
21
-2630.0
0
LINE
8
ESTRIBO
10
825.0
20
-2970.0
11
825.0
21
-2630.0
0
LINE
8
ESTRIBO
10
975.0
20
-2970.0
11
975.0
21
-2630.0
0
LINE
8
ESTRIBO
10
1125.0
20
-2970.0
11
1125.0
21
-2630.0
0
LINE
8
ESTRIBO
10
1275.0
20
-2970.0
11
1275.0
21
-2630.0
0
LINE
8
ESTRIBO
10
1425.0
20
-2970.0
11
1425.0
21
-2630.0
0
LINE
8
ESTRIBO
10
1575.0
20
-2970.0
11
1575.0
21
-2630.0
0
LINE
8
ESTRIBO
10
1725.0
20
-2970.0
11
1725.0
21
-2630.0
0
LINE
8
ESTRIBO
10
1875.0
20
-2970.0
11
1875.0
21
-2630.0
0
LINE
8
ESTRIBO
10
1960.0
20
-2970.0
11
1960.0
21
-2630.0
0
LINE
8
ESTRIBO
10
2045.0
20
-2970.0
11
2045.0
21
-2630.0
0
LINE
8
ESTRIBO
10
2130.0
20
-2970.0
11
2130.0
21
-2630.0
0
LINE
8
ESTRIBO
10
2215.0
20
-2970.0
11
2215.0
21
-2630.0
0
LINE
8
ESTRIBO
10
2300.0
20
-2970.0
11
2300.0
21
-2630.0
0
LINE
8
ESTRIBO
10
2385.0
20
-2970.0
11
2385.0
21
-2630.0
0
LINE
8
ESTRIBO
10
2470.0
20
-2970.0
11
2470.0
21
-2630.0
0
LINE
8
ESTRIBO
10
2555.0
20
-2970.0
11
2555.0
21
-2630.0
0
LINE
8
COTA
10
0.0
20
-3120.0
11
2650.0
21
-3120.0
0
TEXT
8
COTA
10
1025.0
20
-3230.0
40
90.0
1
L = 2.65 m
0
TEXT
8
TEXTO
10
0.0
20
-2340.0
40
130.0
1
VC-3 (2.65 m, Extremo)  |  Mu(-)=119 kN.m  |  sec 300x400 mm
0
TEXT
8
TEXTO
10
722.5
20
-2510.0
40
90.0
1
6 bastones sup. (L/4 + ld)
0
TEXT
8
TEXTO
10
1025.0
20
-3060.0
40
90.0
1
5 barras inf. corridas
0
TEXT
8
TEXTO
10
60.0
20
-3060.0
40
80.0
1
Estribos No.3 @86(conf)/@150
0
LINE
8
CONCRETO
10
3150.0
20
-3000.0
11
3450.0
21
-3000.0
0
LINE
8
CONCRETO
10
3450.0
20
-3000.0
11
3450.0
21
-2600.0
0
LINE
8
CONCRETO
10
3450.0
20
-2600.0
11
3150.0
21
-2600.0
0
LINE
8
CONCRETO
10
3150.0
20
-2600.0
11
3150.0
21
-3000.0
0
CIRCLE
8
ACERO
10
3195.0
20
-2955.0
40
12.0
0
CIRCLE
8
ACERO
10
3247.5
20
-2955.0
40
12.0
0
CIRCLE
8
ACERO
10
3300.0
20
-2955.0
40
12.0
0
CIRCLE
8
ACERO
10
3352.5
20
-2955.0
40
12.0
0
CIRCLE
8
ACERO
10
3405.0
20
-2955.0
40
12.0
0
CIRCLE
8
ACERO
10
3195.0
20
-2645.0
40
12.0
0
CIRCLE
8
ACERO
10
3237.0
20
-2645.0
40
12.0
0
CIRCLE
8
ACERO
10
3279.0
20
-2645.0
40
12.0
0
CIRCLE
8
ACERO
10
3321.0
20
-2645.0
40
12.0
0
CIRCLE
8
ACERO
10
3363.0
20
-2645.0
40
12.0
0
CIRCLE
8
ACERO
10
3405.0
20
-2645.0
40
12.0
0
LINE
8
ESTRIBO
10
3180.0
20
-2970.0
11
3420.0
21
-2970.0
0
LINE
8
ESTRIBO
10
3420.0
20
-2970.0
11
3420.0
21
-2630.0
0
LINE
8
ESTRIBO
10
3420.0
20
-2630.0
11
3180.0
21
-2630.0
0
LINE
8
ESTRIBO
10
3180.0
20
-2630.0
11
3180.0
21
-2970.0
0
TEXT
8
TEXTO
10
3150.0
20
-2510.0
40
90.0
1
Sec 300x400
0
LINE
8
CONCRETO
10
0.0
20
-4500.0
11
3750.0
21
-4500.0
0
LINE
8
CONCRETO
10
3750.0
20
-4500.0
11
3750.0
21
-4100.0
0
LINE
8
CONCRETO
10
3750.0
20
-4100.0
11
0.0
21
-4100.0
0
LINE
8
CONCRETO
10
0.0
20
-4100.0
11
0.0
21
-4500.0
0
LINE
8
ACERO
10
40.0
20
-4460.0
11
3710.0
21
-4460.0
0
LINE
8
ACERO
10
40.0
20
-4140.0
11
937.5
21
-4140.0
0
LINE
8
ACERO
10
2812.5
20
-4140.0
11
3710.0
21
-4140.0
0
LINE
8
ESTRIBO
10
60.0
20
-4470.0
11
60.0
21
-4130.0
0
LINE
8
ESTRIBO
10
145.0
20
-4470.0
11
145.0
21
-4130.0
0
LINE
8
ESTRIBO
10
230.0
20
-4470.0
11
230.0
21
-4130.0
0
LINE
8
ESTRIBO
10
315.0
20
-4470.0
11
315.0
21
-4130.0
0
LINE
8
ESTRIBO
10
400.0
20
-4470.0
11
400.0
21
-4130.0
0
LINE
8
ESTRIBO
10
485.0
20
-4470.0
11
485.0
21
-4130.0
0
LINE
8
ESTRIBO
10
570.0
20
-4470.0
11
570.0
21
-4130.0
0
LINE
8
ESTRIBO
10
655.0
20
-4470.0
11
655.0
21
-4130.0
0
LINE
8
ESTRIBO
10
740.0
20
-4470.0
11
740.0
21
-4130.0
0
LINE
8
ESTRIBO
10
825.0
20
-4470.0
11
825.0
21
-4130.0
0
LINE
8
ESTRIBO
10
975.0
20
-4470.0
11
975.0
21
-4130.0
0
LINE
8
ESTRIBO
10
1125.0
20
-4470.0
11
1125.0
21
-4130.0
0
LINE
8
ESTRIBO
10
1275.0
20
-4470.0
11
1275.0
21
-4130.0
0
LINE
8
ESTRIBO
10
1425.0
20
-4470.0
11
1425.0
21
-4130.0
0
LINE
8
ESTRIBO
10
1575.0
20
-4470.0
11
1575.0
21
-4130.0
0
LINE
8
ESTRIBO
10
1725.0
20
-4470.0
11
1725.0
21
-4130.0
0
LINE
8
ESTRIBO
10
1875.0
20
-4470.0
11
1875.0
21
-4130.0
0
LINE
8
ESTRIBO
10
2025.0
20
-4470.0
11
2025.0
21
-4130.0
0
LINE
8
ESTRIBO
10
2175.0
20
-4470.0
11
2175.0
21
-4130.0
0
LINE
8
ESTRIBO
10
2325.0
20
-4470.0
11
2325.0
21
-4130.0
0
LINE
8
ESTRIBO
10
2475.0
20
-4470.0
11
2475.0
21
-4130.0
0
LINE
8
ESTRIBO
10
2625.0
20
-4470.0
11
2625.0
21
-4130.0
0
LINE
8
ESTRIBO
10
2775.0
20
-4470.0
11
2775.0
21
-4130.0
0
LINE
8
ESTRIBO
10
2925.0
20
-4470.0
11
2925.0
21
-4130.0
0
LINE
8
ESTRIBO
10
3075.0
20
-4470.0
11
3075.0
21
-4130.0
0
LINE
8
ESTRIBO
10
3160.0
20
-4470.0
11
3160.0
21
-4130.0
0
LINE
8
ESTRIBO
10
3245.0
20
-4470.0
11
3245.0
21
-4130.0
0
LINE
8
ESTRIBO
10
3330.0
20
-4470.0
11
3330.0
21
-4130.0
0
LINE
8
ESTRIBO
10
3415.0
20
-4470.0
11
3415.0
21
-4130.0
0
LINE
8
ESTRIBO
10
3500.0
20
-4470.0
11
3500.0
21
-4130.0
0
LINE
8
ESTRIBO
10
3585.0
20
-4470.0
11
3585.0
21
-4130.0
0
LINE
8
ESTRIBO
10
3670.0
20
-4470.0
11
3670.0
21
-4130.0
0
LINE
8
COTA
10
0.0
20
-4620.0
11
3750.0
21
-4620.0
0
TEXT
8
COTA
10
1575.0
20
-4730.0
40
90.0
1
L = 3.75 m
0
TEXT
8
TEXTO
10
0.0
20
-3840.0
40
130.0
1
VC-4 (3.75 m, Extremo)  |  Mu(-)=106 kN.m  |  sec 300x400 mm
0
TEXT
8
TEXTO
10
997.5
20
-4010.0
40
90.0
1
5 bastones sup. (L/4 + ld)
0
TEXT
8
TEXTO
10
1575.0
20
-4560.0
40
90.0
1
4 barras inf. corridas
0
TEXT
8
TEXTO
10
60.0
20
-4560.0
40
80.0
1
Estribos No.3 @86(conf)/@150
0
LINE
8
CONCRETO
10
4250.0
20
-4500.0
11
4550.0
21
-4500.0
0
LINE
8
CONCRETO
10
4550.0
20
-4500.0
11
4550.0
21
-4100.0
0
LINE
8
CONCRETO
10
4550.0
20
-4100.0
11
4250.0
21
-4100.0
0
LINE
8
CONCRETO
10
4250.0
20
-4100.0
11
4250.0
21
-4500.0
0
CIRCLE
8
ACERO
10
4295.0
20
-4455.0
40
12.0
0
CIRCLE
8
ACERO
10
4365.0
20
-4455.0
40
12.0
0
CIRCLE
8
ACERO
10
4435.0
20
-4455.0
40
12.0
0
CIRCLE
8
ACERO
10
4505.0
20
-4455.0
40
12.0
0
CIRCLE
8
ACERO
10
4295.0
20
-4145.0
40
12.0
0
CIRCLE
8
ACERO
10
4347.5
20
-4145.0
40
12.0
0
CIRCLE
8
ACERO
10
4400.0
20
-4145.0
40
12.0
0
CIRCLE
8
ACERO
10
4452.5
20
-4145.0
40
12.0
0
CIRCLE
8
ACERO
10
4505.0
20
-4145.0
40
12.0
0
LINE
8
ESTRIBO
10
4280.0
20
-4470.0
11
4520.0
21
-4470.0
0
LINE
8
ESTRIBO
10
4520.0
20
-4470.0
11
4520.0
21
-4130.0
0
LINE
8
ESTRIBO
10
4520.0
20
-4130.0
11
4280.0
21
-4130.0
0
LINE
8
ESTRIBO
10
4280.0
20
-4130.0
11
4280.0
21
-4470.0
0
TEXT
8
TEXTO
10
4250.0
20
-4010.0
40
90.0
1
Sec 300x400
0
LINE
8
CONCRETO
10
0.0
20
-6000.0
11
3750.0
21
-6000.0
0
LINE
8
CONCRETO
10
3750.0
20
-6000.0
11
3750.0
21
-5600.0
0
LINE
8
CONCRETO
10
3750.0
20
-5600.0
11
0.0
21
-5600.0
0
LINE
8
CONCRETO
10
0.0
20
-5600.0
11
0.0
21
-6000.0
0
LINE
8
ACERO
10
40.0
20
-5960.0
11
3710.0
21
-5960.0
0
LINE
8
ACERO
10
40.0
20
-5640.0
11
937.5
21
-5640.0
0
LINE
8
ACERO
10
2812.5
20
-5640.0
11
3710.0
21
-5640.0
0
LINE
8
ESTRIBO
10
60.0
20
-5970.0
11
60.0
21
-5630.0
0
LINE
8
ESTRIBO
10
145.0
20
-5970.0
11
145.0
21
-5630.0
0
LINE
8
ESTRIBO
10
230.0
20
-5970.0
11
230.0
21
-5630.0
0
LINE
8
ESTRIBO
10
315.0
20
-5970.0
11
315.0
21
-5630.0
0
LINE
8
ESTRIBO
10
400.0
20
-5970.0
11
400.0
21
-5630.0
0
LINE
8
ESTRIBO
10
485.0
20
-5970.0
11
485.0
21
-5630.0
0
LINE
8
ESTRIBO
10
570.0
20
-5970.0
11
570.0
21
-5630.0
0
LINE
8
ESTRIBO
10
655.0
20
-5970.0
11
655.0
21
-5630.0
0
LINE
8
ESTRIBO
10
740.0
20
-5970.0
11
740.0
21
-5630.0
0
LINE
8
ESTRIBO
10
825.0
20
-5970.0
11
825.0
21
-5630.0
0
LINE
8
ESTRIBO
10
975.0
20
-5970.0
11
975.0
21
-5630.0
0
LINE
8
ESTRIBO
10
1125.0
20
-5970.0
11
1125.0
21
-5630.0
0
LINE
8
ESTRIBO
10
1275.0
20
-5970.0
11
1275.0
21
-5630.0
0
LINE
8
ESTRIBO
10
1425.0
20
-5970.0
11
1425.0
21
-5630.0
0
LINE
8
ESTRIBO
10
1575.0
20
-5970.0
11
1575.0
21
-5630.0
0
LINE
8
ESTRIBO
10
1725.0
20
-5970.0
11
1725.0
21
-5630.0
0
LINE
8
ESTRIBO
10
1875.0
20
-5970.0
11
1875.0
21
-5630.0
0
LINE
8
ESTRIBO
10
2025.0
20
-5970.0
11
2025.0
21
-5630.0
0
LINE
8
ESTRIBO
10
2175.0
20
-5970.0
11
2175.0
21
-5630.0
0
LINE
8
ESTRIBO
10
2325.0
20
-5970.0
11
2325.0
21
-5630.0
0
LINE
8
ESTRIBO
10
2475.0
20
-5970.0
11
2475.0
21
-5630.0
0
LINE
8
ESTRIBO
10
2625.0
20
-5970.0
11
2625.0
21
-5630.0
0
LINE
8
ESTRIBO
10
2775.0
20
-5970.0
11
2775.0
21
-5630.0
0
LINE
8
ESTRIBO
10
2925.0
20
-5970.0
11
2925.0
21
-5630.0
0
LINE
8
ESTRIBO
10
3075.0
20
-5970.0
11
3075.0
21
-5630.0
0
LINE
8
ESTRIBO
10
3160.0
20
-5970.0
11
3160.0
21
-5630.0
0
LINE
8
ESTRIBO
10
3245.0
20
-5970.0
11
3245.0
21
-5630.0
0
LINE
8
ESTRIBO
10
3330.0
20
-5970.0
11
3330.0
21
-5630.0
0
LINE
8
ESTRIBO
10
3415.0
20
-5970.0
11
3415.0
21
-5630.0
0
LINE
8
ESTRIBO
10
3500.0
20
-5970.0
11
3500.0
21
-5630.0
0
LINE
8
ESTRIBO
10
3585.0
20
-5970.0
11
3585.0
21
-5630.0
0
LINE
8
ESTRIBO
10
3670.0
20
-5970.0
11
3670.0
21
-5630.0
0
LINE
8
COTA
10
0.0
20
-6120.0
11
3750.0
21
-6120.0
0
TEXT
8
COTA
10
1575.0
20
-6230.0
40
90.0
1
L = 3.75 m
0
TEXT
8
TEXTO
10
0.0
20
-5340.0
40
130.0
1
VC-5 (3.75 m, Interior)  |  Mu(-)=25 kN.m  |  sec 300x400 mm
0
TEXT
8
TEXTO
10
997.5
20
-5510.0
40
90.0
1
2 bastones sup. (L/4 + ld)
0
TEXT
8
TEXTO
10
1575.0
20
-6060.0
40
90.0
1
2 barras inf. corridas
0
TEXT
8
TEXTO
10
60.0
20
-6060.0
40
80.0
1
Estribos No.3 @86(conf)/@150
0
LINE
8
CONCRETO
10
4250.0
20
-6000.0
11
4550.0
21
-6000.0
0
LINE
8
CONCRETO
10
4550.0
20
-6000.0
11
4550.0
21
-5600.0
0
LINE
8
CONCRETO
10
4550.0
20
-5600.0
11
4250.0
21
-5600.0
0
LINE
8
CONCRETO
10
4250.0
20
-5600.0
11
4250.0
21
-6000.0
0
CIRCLE
8
ACERO
10
4295.0
20
-5955.0
40
12.0
0
CIRCLE
8
ACERO
10
4505.0
20
-5955.0
40
12.0
0
CIRCLE
8
ACERO
10
4295.0
20
-5645.0
40
12.0
0
CIRCLE
8
ACERO
10
4505.0
20
-5645.0
40
12.0
0
LINE
8
ESTRIBO
10
4280.0
20
-5970.0
11
4520.0
21
-5970.0
0
LINE
8
ESTRIBO
10
4520.0
20
-5970.0
11
4520.0
21
-5630.0
0
LINE
8
ESTRIBO
10
4520.0
20
-5630.0
11
4280.0
21
-5630.0
0
LINE
8
ESTRIBO
10
4280.0
20
-5630.0
11
4280.0
21
-5970.0
0
TEXT
8
TEXTO
10
4250.0
20
-5510.0
40
90.0
1
Sec 300x400
0
LINE
8
CONCRETO
10
0.0
20
-7500.0
11
3810.0
21
-7500.0
0
LINE
8
CONCRETO
10
3810.0
20
-7500.0
11
3810.0
21
-7100.0
0
LINE
8
CONCRETO
10
3810.0
20
-7100.0
11
0.0
21
-7100.0
0
LINE
8
CONCRETO
10
0.0
20
-7100.0
11
0.0
21
-7500.0
0
LINE
8
ACERO
10
40.0
20
-7460.0
11
3770.0
21
-7460.0
0
LINE
8
ACERO
10
40.0
20
-7140.0
11
952.5
21
-7140.0
0
LINE
8
ACERO
10
2857.5
20
-7140.0
11
3770.0
21
-7140.0
0
LINE
8
ESTRIBO
10
60.0
20
-7470.0
11
60.0
21
-7130.0
0
LINE
8
ESTRIBO
10
145.0
20
-7470.0
11
145.0
21
-7130.0
0
LINE
8
ESTRIBO
10
230.0
20
-7470.0
11
230.0
21
-7130.0
0
LINE
8
ESTRIBO
10
315.0
20
-7470.0
11
315.0
21
-7130.0
0
LINE
8
ESTRIBO
10
400.0
20
-7470.0
11
400.0
21
-7130.0
0
LINE
8
ESTRIBO
10
485.0
20
-7470.0
11
485.0
21
-7130.0
0
LINE
8
ESTRIBO
10
570.0
20
-7470.0
11
570.0
21
-7130.0
0
LINE
8
ESTRIBO
10
655.0
20
-7470.0
11
655.0
21
-7130.0
0
LINE
8
ESTRIBO
10
740.0
20
-7470.0
11
740.0
21
-7130.0
0
LINE
8
ESTRIBO
10
825.0
20
-7470.0
11
825.0
21
-7130.0
0
LINE
8
ESTRIBO
10
975.0
20
-7470.0
11
975.0
21
-7130.0
0
LINE
8
ESTRIBO
10
1125.0
20
-7470.0
11
1125.0
21
-7130.0
0
LINE
8
ESTRIBO
10
1275.0
20
-7470.0
11
1275.0
21
-7130.0
0
LINE
8
ESTRIBO
10
1425.0
20
-7470.0
11
1425.0
21
-7130.0
0
LINE
8
ESTRIBO
10
1575.0
20
-7470.0
11
1575.0
21
-7130.0
0
LINE
8
ESTRIBO
10
1725.0
20
-7470.0
11
1725.0
21
-7130.0
0
LINE
8
ESTRIBO
10
1875.0
20
-7470.0
11
1875.0
21
-7130.0
0
LINE
8
ESTRIBO
10
2025.0
20
-7470.0
11
2025.0
21
-7130.0
0
LINE
8
ESTRIBO
10
2175.0
20
-7470.0
11
2175.0
21
-7130.0
0
LINE
8
ESTRIBO
10
2325.0
20
-7470.0
11
2325.0
21
-7130.0
0
LINE
8
ESTRIBO
10
2475.0
20
-7470.0
11
2475.0
21
-7130.0
0
LINE
8
ESTRIBO
10
2625.0
20
-7470.0
11
2625.0
21
-7130.0
0
LINE
8
ESTRIBO
10
2775.0
20
-7470.0
11
2775.0
21
-7130.0
0
LINE
8
ESTRIBO
10
2925.0
20
-7470.0
11
2925.0
21
-7130.0
0
LINE
8
ESTRIBO
10
3075.0
20
-7470.0
11
3075.0
21
-7130.0
0
LINE
8
ESTRIBO
10
3160.0
20
-7470.0
11
3160.0
21
-7130.0
0
LINE
8
ESTRIBO
10
3245.0
20
-7470.0
11
3245.0
21
-7130.0
0
LINE
8
ESTRIBO
10
3330.0
20
-7470.0
11
3330.0
21
-7130.0
0
LINE
8
ESTRIBO
10
3415.0
20
-7470.0
11
3415.0
21
-7130.0
0
LINE
8
ESTRIBO
10
3500.0
20
-7470.0
11
3500.0
21
-7130.0
0
LINE
8
ESTRIBO
10
3585.0
20
-7470.0
11
3585.0
21
-7130.0
0
LINE
8
ESTRIBO
10
3670.0
20
-7470.0
11
3670.0
21
-7130.0
0
LINE
8
COTA
10
0.0
20
-7620.0
11
3810.0
21
-7620.0
0
TEXT
8
COTA
10
1605.0
20
-7730.0
40
90.0
1
L = 3.81 m
0
TEXT
8
TEXTO
10
0.0
20
-6840.0
40
130.0
1
VC-6 (3.81 m, Extremo)  |  Mu(-)=114 kN.m  |  sec 300x400 mm
0
TEXT
8
TEXTO
10
1012.5
20
-7010.0
40
90.0
1
5 bastones sup. (L/4 + ld)
0
TEXT
8
TEXTO
10
1605.0
20
-7560.0
40
90.0
1
4 barras inf. corridas
0
TEXT
8
TEXTO
10
60.0
20
-7560.0
40
80.0
1
Estribos No.3 @86(conf)/@150
0
LINE
8
CONCRETO
10
4310.0
20
-7500.0
11
4610.0
21
-7500.0
0
LINE
8
CONCRETO
10
4610.0
20
-7500.0
11
4610.0
21
-7100.0
0
LINE
8
CONCRETO
10
4610.0
20
-7100.0
11
4310.0
21
-7100.0
0
LINE
8
CONCRETO
10
4310.0
20
-7100.0
11
4310.0
21
-7500.0
0
CIRCLE
8
ACERO
10
4355.0
20
-7455.0
40
12.0
0
CIRCLE
8
ACERO
10
4425.0
20
-7455.0
40
12.0
0
CIRCLE
8
ACERO
10
4495.0
20
-7455.0
40
12.0
0
CIRCLE
8
ACERO
10
4565.0
20
-7455.0
40
12.0
0
CIRCLE
8
ACERO
10
4355.0
20
-7145.0
40
12.0
0
CIRCLE
8
ACERO
10
4407.5
20
-7145.0
40
12.0
0
CIRCLE
8
ACERO
10
4460.0
20
-7145.0
40
12.0
0
CIRCLE
8
ACERO
10
4512.5
20
-7145.0
40
12.0
0
CIRCLE
8
ACERO
10
4565.0
20
-7145.0
40
12.0
0
LINE
8
ESTRIBO
10
4340.0
20
-7470.0
11
4580.0
21
-7470.0
0
LINE
8
ESTRIBO
10
4580.0
20
-7470.0
11
4580.0
21
-7130.0
0
LINE
8
ESTRIBO
10
4580.0
20
-7130.0
11
4340.0
21
-7130.0
0
LINE
8
ESTRIBO
10
4340.0
20
-7130.0
11
4340.0
21
-7470.0
0
TEXT
8
TEXTO
10
4310.0
20
-7010.0
40
90.0
1
Sec 300x400
0
LINE
8
CONCRETO
10
0.0
20
-9000.0
11
3810.0
21
-9000.0
0
LINE
8
CONCRETO
10
3810.0
20
-9000.0
11
3810.0
21
-8600.0
0
LINE
8
CONCRETO
10
3810.0
20
-8600.0
11
0.0
21
-8600.0
0
LINE
8
CONCRETO
10
0.0
20
-8600.0
11
0.0
21
-9000.0
0
LINE
8
ACERO
10
40.0
20
-8960.0
11
3770.0
21
-8960.0
0
LINE
8
ACERO
10
40.0
20
-8640.0
11
952.5
21
-8640.0
0
LINE
8
ACERO
10
2857.5
20
-8640.0
11
3770.0
21
-8640.0
0
LINE
8
ESTRIBO
10
60.0
20
-8970.0
11
60.0
21
-8630.0
0
LINE
8
ESTRIBO
10
145.0
20
-8970.0
11
145.0
21
-8630.0
0
LINE
8
ESTRIBO
10
230.0
20
-8970.0
11
230.0
21
-8630.0
0
LINE
8
ESTRIBO
10
315.0
20
-8970.0
11
315.0
21
-8630.0
0
LINE
8
ESTRIBO
10
400.0
20
-8970.0
11
400.0
21
-8630.0
0
LINE
8
ESTRIBO
10
485.0
20
-8970.0
11
485.0
21
-8630.0
0
LINE
8
ESTRIBO
10
570.0
20
-8970.0
11
570.0
21
-8630.0
0
LINE
8
ESTRIBO
10
655.0
20
-8970.0
11
655.0
21
-8630.0
0
LINE
8
ESTRIBO
10
740.0
20
-8970.0
11
740.0
21
-8630.0
0
LINE
8
ESTRIBO
10
825.0
20
-8970.0
11
825.0
21
-8630.0
0
LINE
8
ESTRIBO
10
975.0
20
-8970.0
11
975.0
21
-8630.0
0
LINE
8
ESTRIBO
10
1125.0
20
-8970.0
11
1125.0
21
-8630.0
0
LINE
8
ESTRIBO
10
1275.0
20
-8970.0
11
1275.0
21
-8630.0
0
LINE
8
ESTRIBO
10
1425.0
20
-8970.0
11
1425.0
21
-8630.0
0
LINE
8
ESTRIBO
10
1575.0
20
-8970.0
11
1575.0
21
-8630.0
0
LINE
8
ESTRIBO
10
1725.0
20
-8970.0
11
1725.0
21
-8630.0
0
LINE
8
ESTRIBO
10
1875.0
20
-8970.0
11
1875.0
21
-8630.0
0
LINE
8
ESTRIBO
10
2025.0
20
-8970.0
11
2025.0
21
-8630.0
0
LINE
8
ESTRIBO
10
2175.0
20
-8970.0
11
2175.0
21
-8630.0
0
LINE
8
ESTRIBO
10
2325.0
20
-8970.0
11
2325.0
21
-8630.0
0
LINE
8
ESTRIBO
10
2475.0
20
-8970.0
11
2475.0
21
-8630.0
0
LINE
8
ESTRIBO
10
2625.0
20
-8970.0
11
2625.0
21
-8630.0
0
LINE
8
ESTRIBO
10
2775.0
20
-8970.0
11
2775.0
21
-8630.0
0
LINE
8
ESTRIBO
10
2925.0
20
-8970.0
11
2925.0
21
-8630.0
0
LINE
8
ESTRIBO
10
3075.0
20
-8970.0
11
3075.0
21
-8630.0
0
LINE
8
ESTRIBO
10
3160.0
20
-8970.0
11
3160.0
21
-8630.0
0
LINE
8
ESTRIBO
10
3245.0
20
-8970.0
11
3245.0
21
-8630.0
0
LINE
8
ESTRIBO
10
3330.0
20
-8970.0
11
3330.0
21
-8630.0
0
LINE
8
ESTRIBO
10
3415.0
20
-8970.0
11
3415.0
21
-8630.0
0
LINE
8
ESTRIBO
10
3500.0
20
-8970.0
11
3500.0
21
-8630.0
0
LINE
8
ESTRIBO
10
3585.0
20
-8970.0
11
3585.0
21
-8630.0
0
LINE
8
ESTRIBO
10
3670.0
20
-8970.0
11
3670.0
21
-8630.0
0
LINE
8
COTA
10
0.0
20
-9120.0
11
3810.0
21
-9120.0
0
TEXT
8
COTA
10
1605.0
20
-9230.0
40
90.0
1
L = 3.81 m
0
TEXT
8
TEXTO
10
0.0
20
-8340.0
40
130.0
1
VC-7 (3.81 m, Interior)  |  Mu(-)=106 kN.m  |  sec 300x400 mm
0
TEXT
8
TEXTO
10
1012.5
20
-8510.0
40
90.0
1
5 bastones sup. (L/4 + ld)
0
TEXT
8
TEXTO
10
1605.0
20
-9060.0
40
90.0
1
4 barras inf. corridas
0
TEXT
8
TEXTO
10
60.0
20
-9060.0
40
80.0
1
Estribos No.3 @86(conf)/@150
0
LINE
8
CONCRETO
10
4310.0
20
-9000.0
11
4610.0
21
-9000.0
0
LINE
8
CONCRETO
10
4610.0
20
-9000.0
11
4610.0
21
-8600.0
0
LINE
8
CONCRETO
10
4610.0
20
-8600.0
11
4310.0
21
-8600.0
0
LINE
8
CONCRETO
10
4310.0
20
-8600.0
11
4310.0
21
-9000.0
0
CIRCLE
8
ACERO
10
4355.0
20
-8955.0
40
12.0
0
CIRCLE
8
ACERO
10
4425.0
20
-8955.0
40
12.0
0
CIRCLE
8
ACERO
10
4495.0
20
-8955.0
40
12.0
0
CIRCLE
8
ACERO
10
4565.0
20
-8955.0
40
12.0
0
CIRCLE
8
ACERO
10
4355.0
20
-8645.0
40
12.0
0
CIRCLE
8
ACERO
10
4407.5
20
-8645.0
40
12.0
0
CIRCLE
8
ACERO
10
4460.0
20
-8645.0
40
12.0
0
CIRCLE
8
ACERO
10
4512.5
20
-8645.0
40
12.0
0
CIRCLE
8
ACERO
10
4565.0
20
-8645.0
40
12.0
0
LINE
8
ESTRIBO
10
4340.0
20
-8970.0
11
4580.0
21
-8970.0
0
LINE
8
ESTRIBO
10
4580.0
20
-8970.0
11
4580.0
21
-8630.0
0
LINE
8
ESTRIBO
10
4580.0
20
-8630.0
11
4340.0
21
-8630.0
0
LINE
8
ESTRIBO
10
4340.0
20
-8630.0
11
4340.0
21
-8970.0
0
TEXT
8
TEXTO
10
4310.0
20
-8510.0
40
90.0
1
Sec 300x400
0
LINE
8
CONCRETO
10
0.0
20
-10500.0
11
3850.0
21
-10500.0
0
LINE
8
CONCRETO
10
3850.0
20
-10500.0
11
3850.0
21
-10100.0
0
LINE
8
CONCRETO
10
3850.0
20
-10100.0
11
0.0
21
-10100.0
0
LINE
8
CONCRETO
10
0.0
20
-10100.0
11
0.0
21
-10500.0
0
LINE
8
ACERO
10
40.0
20
-10460.0
11
3810.0
21
-10460.0
0
LINE
8
ACERO
10
40.0
20
-10140.0
11
962.5
21
-10140.0
0
LINE
8
ACERO
10
2887.5
20
-10140.0
11
3810.0
21
-10140.0
0
LINE
8
ESTRIBO
10
60.0
20
-10470.0
11
60.0
21
-10130.0
0
LINE
8
ESTRIBO
10
145.0
20
-10470.0
11
145.0
21
-10130.0
0
LINE
8
ESTRIBO
10
230.0
20
-10470.0
11
230.0
21
-10130.0
0
LINE
8
ESTRIBO
10
315.0
20
-10470.0
11
315.0
21
-10130.0
0
LINE
8
ESTRIBO
10
400.0
20
-10470.0
11
400.0
21
-10130.0
0
LINE
8
ESTRIBO
10
485.0
20
-10470.0
11
485.0
21
-10130.0
0
LINE
8
ESTRIBO
10
570.0
20
-10470.0
11
570.0
21
-10130.0
0
LINE
8
ESTRIBO
10
655.0
20
-10470.0
11
655.0
21
-10130.0
0
LINE
8
ESTRIBO
10
740.0
20
-10470.0
11
740.0
21
-10130.0
0
LINE
8
ESTRIBO
10
825.0
20
-10470.0
11
825.0
21
-10130.0
0
LINE
8
ESTRIBO
10
975.0
20
-10470.0
11
975.0
21
-10130.0
0
LINE
8
ESTRIBO
10
1125.0
20
-10470.0
11
1125.0
21
-10130.0
0
LINE
8
ESTRIBO
10
1275.0
20
-10470.0
11
1275.0
21
-10130.0
0
LINE
8
ESTRIBO
10
1425.0
20
-10470.0
11
1425.0
21
-10130.0
0
LINE
8
ESTRIBO
10
1575.0
20
-10470.0
11
1575.0
21
-10130.0
0
LINE
8
ESTRIBO
10
1725.0
20
-10470.0
11
1725.0
21
-10130.0
0
LINE
8
ESTRIBO
10
1875.0
20
-10470.0
11
1875.0
21
-10130.0
0
LINE
8
ESTRIBO
10
2025.0
20
-10470.0
11
2025.0
21
-10130.0
0
LINE
8
ESTRIBO
10
2175.0
20
-10470.0
11
2175.0
21
-10130.0
0
LINE
8
ESTRIBO
10
2325.0
20
-10470.0
11
2325.0
21
-10130.0
0
LINE
8
ESTRIBO
10
2475.0
20
-10470.0
11
2475.0
21
-10130.0
0
LINE
8
ESTRIBO
10
2625.0
20
-10470.0
11
2625.0
21
-10130.0
0
LINE
8
ESTRIBO
10
2775.0
20
-10470.0
11
2775.0
21
-10130.0
0
LINE
8
ESTRIBO
10
2925.0
20
-10470.0
11
2925.0
21
-10130.0
0
LINE
8
ESTRIBO
10
3075.0
20
-10470.0
11
3075.0
21
-10130.0
0
LINE
8
ESTRIBO
10
3160.0
20
-10470.0
11
3160.0
21
-10130.0
0
LINE
8
ESTRIBO
10
3245.0
20
-10470.0
11
3245.0
21
-10130.0
0
LINE
8
ESTRIBO
10
3330.0
20
-10470.0
11
3330.0
21
-10130.0
0
LINE
8
ESTRIBO
10
3415.0
20
-10470.0
11
3415.0
21
-10130.0
0
LINE
8
ESTRIBO
10
3500.0
20
-10470.0
11
3500.0
21
-10130.0
0
LINE
8
ESTRIBO
10
3585.0
20
-10470.0
11
3585.0
21
-10130.0
0
LINE
8
ESTRIBO
10
3670.0
20
-10470.0
11
3670.0
21
-10130.0
0
LINE
8
ESTRIBO
10
3755.0
20
-10470.0
11
3755.0
21
-10130.0
0
LINE
8
COTA
10
0.0
20
-10620.0
11
3850.0
21
-10620.0
0
TEXT
8
COTA
10
1625.0
20
-10730.0
40
90.0
1
L = 3.85 m
0
TEXT
8
TEXTO
10
0.0
20
-9840.0
40
130.0
1
VC-8 (3.85 m, Interior)  |  Mu(-)=122 kN.m  |  sec 300x400 mm
0
TEXT
8
TEXTO
10
1022.5
20
-10010.0
40
90.0
1
6 bastones sup. (L/4 + ld)
0
TEXT
8
TEXTO
10
1625.0
20
-10560.0
40
90.0
1
4 barras inf. corridas
0
TEXT
8
TEXTO
10
60.0
20
-10560.0
40
80.0
1
Estribos No.3 @86(conf)/@150
0
LINE
8
CONCRETO
10
4350.0
20
-10500.0
11
4650.0
21
-10500.0
0
LINE
8
CONCRETO
10
4650.0
20
-10500.0
11
4650.0
21
-10100.0
0
LINE
8
CONCRETO
10
4650.0
20
-10100.0
11
4350.0
21
-10100.0
0
LINE
8
CONCRETO
10
4350.0
20
-10100.0
11
4350.0
21
-10500.0
0
CIRCLE
8
ACERO
10
4395.0
20
-10455.0
40
12.0
0
CIRCLE
8
ACERO
10
4465.0
20
-10455.0
40
12.0
0
CIRCLE
8
ACERO
10
4535.0
20
-10455.0
40
12.0
0
CIRCLE
8
ACERO
10
4605.0
20
-10455.0
40
12.0
0
CIRCLE
8
ACERO
10
4395.0
20
-10145.0
40
12.0
0
CIRCLE
8
ACERO
10
4437.0
20
-10145.0
40
12.0
0
CIRCLE
8
ACERO
10
4479.0
20
-10145.0
40
12.0
0
CIRCLE
8
ACERO
10
4521.0
20
-10145.0
40
12.0
0
CIRCLE
8
ACERO
10
4563.0
20
-10145.0
40
12.0
0
CIRCLE
8
ACERO
10
4605.0
20
-10145.0
40
12.0
0
LINE
8
ESTRIBO
10
4380.0
20
-10470.0
11
4620.0
21
-10470.0
0
LINE
8
ESTRIBO
10
4620.0
20
-10470.0
11
4620.0
21
-10130.0
0
LINE
8
ESTRIBO
10
4620.0
20
-10130.0
11
4380.0
21
-10130.0
0
LINE
8
ESTRIBO
10
4380.0
20
-10130.0
11
4380.0
21
-10470.0
0
TEXT
8
TEXTO
10
4350.0
20
-10010.0
40
90.0
1
Sec 300x400
0
LINE
8
CONCRETO
10
0.0
20
-12000.0
11
3900.0
21
-12000.0
0
LINE
8
CONCRETO
10
3900.0
20
-12000.0
11
3900.0
21
-11600.0
0
LINE
8
CONCRETO
10
3900.0
20
-11600.0
11
0.0
21
-11600.0
0
LINE
8
CONCRETO
10
0.0
20
-11600.0
11
0.0
21
-12000.0
0
LINE
8
ACERO
10
40.0
20
-11960.0
11
3860.0
21
-11960.0
0
LINE
8
ACERO
10
40.0
20
-11640.0
11
975.0
21
-11640.0
0
LINE
8
ACERO
10
2925.0
20
-11640.0
11
3860.0
21
-11640.0
0
LINE
8
ESTRIBO
10
60.0
20
-11970.0
11
60.0
21
-11630.0
0
LINE
8
ESTRIBO
10
145.0
20
-11970.0
11
145.0
21
-11630.0
0
LINE
8
ESTRIBO
10
230.0
20
-11970.0
11
230.0
21
-11630.0
0
LINE
8
ESTRIBO
10
315.0
20
-11970.0
11
315.0
21
-11630.0
0
LINE
8
ESTRIBO
10
400.0
20
-11970.0
11
400.0
21
-11630.0
0
LINE
8
ESTRIBO
10
485.0
20
-11970.0
11
485.0
21
-11630.0
0
LINE
8
ESTRIBO
10
570.0
20
-11970.0
11
570.0
21
-11630.0
0
LINE
8
ESTRIBO
10
655.0
20
-11970.0
11
655.0
21
-11630.0
0
LINE
8
ESTRIBO
10
740.0
20
-11970.0
11
740.0
21
-11630.0
0
LINE
8
ESTRIBO
10
825.0
20
-11970.0
11
825.0
21
-11630.0
0
LINE
8
ESTRIBO
10
975.0
20
-11970.0
11
975.0
21
-11630.0
0
LINE
8
ESTRIBO
10
1125.0
20
-11970.0
11
1125.0
21
-11630.0
0
LINE
8
ESTRIBO
10
1275.0
20
-11970.0
11
1275.0
21
-11630.0
0
LINE
8
ESTRIBO
10
1425.0
20
-11970.0
11
1425.0
21
-11630.0
0
LINE
8
ESTRIBO
10
1575.0
20
-11970.0
11
1575.0
21
-11630.0
0
LINE
8
ESTRIBO
10
1725.0
20
-11970.0
11
1725.0
21
-11630.0
0
LINE
8
ESTRIBO
10
1875.0
20
-11970.0
11
1875.0
21
-11630.0
0
LINE
8
ESTRIBO
10
2025.0
20
-11970.0
11
2025.0
21
-11630.0
0
LINE
8
ESTRIBO
10
2175.0
20
-11970.0
11
2175.0
21
-11630.0
0
LINE
8
ESTRIBO
10
2325.0
20
-11970.0
11
2325.0
21
-11630.0
0
LINE
8
ESTRIBO
10
2475.0
20
-11970.0
11
2475.0
21
-11630.0
0
LINE
8
ESTRIBO
10
2625.0
20
-11970.0
11
2625.0
21
-11630.0
0
LINE
8
ESTRIBO
10
2775.0
20
-11970.0
11
2775.0
21
-11630.0
0
LINE
8
ESTRIBO
10
2925.0
20
-11970.0
11
2925.0
21
-11630.0
0
LINE
8
ESTRIBO
10
3075.0
20
-11970.0
11
3075.0
21
-11630.0
0
LINE
8
ESTRIBO
10
3225.0
20
-11970.0
11
3225.0
21
-11630.0
0
LINE
8
ESTRIBO
10
3310.0
20
-11970.0
11
3310.0
21
-11630.0
0
LINE
8
ESTRIBO
10
3395.0
20
-11970.0
11
3395.0
21
-11630.0
0
LINE
8
ESTRIBO
10
3480.0
20
-11970.0
11
3480.0
21
-11630.0
0
LINE
8
ESTRIBO
10
3565.0
20
-11970.0
11
3565.0
21
-11630.0
0
LINE
8
ESTRIBO
10
3650.0
20
-11970.0
11
3650.0
21
-11630.0
0
LINE
8
ESTRIBO
10
3735.0
20
-11970.0
11
3735.0
21
-11630.0
0
LINE
8
ESTRIBO
10
3820.0
20
-11970.0
11
3820.0
21
-11630.0
0
LINE
8
COTA
10
0.0
20
-12120.0
11
3900.0
21
-12120.0
0
TEXT
8
COTA
10
1650.0
20
-12230.0
40
90.0
1
L = 3.90 m
0
TEXT
8
TEXTO
10
0.0
20
-11340.0
40
130.0
1
VC-9 (3.90 m, Interior)  |  Mu(-)=129 kN.m  |  sec 300x400 mm
0
TEXT
8
TEXTO
10
1035.0
20
-11510.0
40
90.0
1
6 bastones sup. (L/4 + ld)
0
TEXT
8
TEXTO
10
1650.0
20
-12060.0
40
90.0
1
4 barras inf. corridas
0
TEXT
8
TEXTO
10
60.0
20
-12060.0
40
80.0
1
Estribos No.3 @86(conf)/@150
0
LINE
8
CONCRETO
10
4400.0
20
-12000.0
11
4700.0
21
-12000.0
0
LINE
8
CONCRETO
10
4700.0
20
-12000.0
11
4700.0
21
-11600.0
0
LINE
8
CONCRETO
10
4700.0
20
-11600.0
11
4400.0
21
-11600.0
0
LINE
8
CONCRETO
10
4400.0
20
-11600.0
11
4400.0
21
-12000.0
0
CIRCLE
8
ACERO
10
4445.0
20
-11955.0
40
12.0
0
CIRCLE
8
ACERO
10
4515.0
20
-11955.0
40
12.0
0
CIRCLE
8
ACERO
10
4585.0
20
-11955.0
40
12.0
0
CIRCLE
8
ACERO
10
4655.0
20
-11955.0
40
12.0
0
CIRCLE
8
ACERO
10
4445.0
20
-11645.0
40
12.0
0
CIRCLE
8
ACERO
10
4487.0
20
-11645.0
40
12.0
0
CIRCLE
8
ACERO
10
4529.0
20
-11645.0
40
12.0
0
CIRCLE
8
ACERO
10
4571.0
20
-11645.0
40
12.0
0
CIRCLE
8
ACERO
10
4613.0
20
-11645.0
40
12.0
0
CIRCLE
8
ACERO
10
4655.0
20
-11645.0
40
12.0
0
LINE
8
ESTRIBO
10
4430.0
20
-11970.0
11
4670.0
21
-11970.0
0
LINE
8
ESTRIBO
10
4670.0
20
-11970.0
11
4670.0
21
-11630.0
0
LINE
8
ESTRIBO
10
4670.0
20
-11630.0
11
4430.0
21
-11630.0
0
LINE
8
ESTRIBO
10
4430.0
20
-11630.0
11
4430.0
21
-11970.0
0
TEXT
8
TEXTO
10
4400.0
20
-11510.0
40
90.0
1
Sec 300x400
0
LINE
8
CONCRETO
10
0.0
20
-13500.0
11
4000.0
21
-13500.0
0
LINE
8
CONCRETO
10
4000.0
20
-13500.0
11
4000.0
21
-13100.0
0
LINE
8
CONCRETO
10
4000.0
20
-13100.0
11
0.0
21
-13100.0
0
LINE
8
CONCRETO
10
0.0
20
-13100.0
11
0.0
21
-13500.0
0
LINE
8
ACERO
10
40.0
20
-13460.0
11
3960.0
21
-13460.0
0
LINE
8
ACERO
10
40.0
20
-13140.0
11
1000.0
21
-13140.0
0
LINE
8
ACERO
10
3000.0
20
-13140.0
11
3960.0
21
-13140.0
0
LINE
8
ESTRIBO
10
60.0
20
-13470.0
11
60.0
21
-13130.0
0
LINE
8
ESTRIBO
10
145.0
20
-13470.0
11
145.0
21
-13130.0
0
LINE
8
ESTRIBO
10
230.0
20
-13470.0
11
230.0
21
-13130.0
0
LINE
8
ESTRIBO
10
315.0
20
-13470.0
11
315.0
21
-13130.0
0
LINE
8
ESTRIBO
10
400.0
20
-13470.0
11
400.0
21
-13130.0
0
LINE
8
ESTRIBO
10
485.0
20
-13470.0
11
485.0
21
-13130.0
0
LINE
8
ESTRIBO
10
570.0
20
-13470.0
11
570.0
21
-13130.0
0
LINE
8
ESTRIBO
10
655.0
20
-13470.0
11
655.0
21
-13130.0
0
LINE
8
ESTRIBO
10
740.0
20
-13470.0
11
740.0
21
-13130.0
0
LINE
8
ESTRIBO
10
825.0
20
-13470.0
11
825.0
21
-13130.0
0
LINE
8
ESTRIBO
10
975.0
20
-13470.0
11
975.0
21
-13130.0
0
LINE
8
ESTRIBO
10
1125.0
20
-13470.0
11
1125.0
21
-13130.0
0
LINE
8
ESTRIBO
10
1275.0
20
-13470.0
11
1275.0
21
-13130.0
0
LINE
8
ESTRIBO
10
1425.0
20
-13470.0
11
1425.0
21
-13130.0
0
LINE
8
ESTRIBO
10
1575.0
20
-13470.0
11
1575.0
21
-13130.0
0
LINE
8
ESTRIBO
10
1725.0
20
-13470.0
11
1725.0
21
-13130.0
0
LINE
8
ESTRIBO
10
1875.0
20
-13470.0
11
1875.0
21
-13130.0
0
LINE
8
ESTRIBO
10
2025.0
20
-13470.0
11
2025.0
21
-13130.0
0
LINE
8
ESTRIBO
10
2175.0
20
-13470.0
11
2175.0
21
-13130.0
0
LINE
8
ESTRIBO
10
2325.0
20
-13470.0
11
2325.0
21
-13130.0
0
LINE
8
ESTRIBO
10
2475.0
20
-13470.0
11
2475.0
21
-13130.0
0
LINE
8
ESTRIBO
10
2625.0
20
-13470.0
11
2625.0
21
-13130.0
0
LINE
8
ESTRIBO
10
2775.0
20
-13470.0
11
2775.0
21
-13130.0
0
LINE
8
ESTRIBO
10
2925.0
20
-13470.0
11
2925.0
21
-13130.0
0
LINE
8
ESTRIBO
10
3075.0
20
-13470.0
11
3075.0
21
-13130.0
0
LINE
8
ESTRIBO
10
3225.0
20
-13470.0
11
3225.0
21
-13130.0
0
LINE
8
ESTRIBO
10
3310.0
20
-13470.0
11
3310.0
21
-13130.0
0
LINE
8
ESTRIBO
10
3395.0
20
-13470.0
11
3395.0
21
-13130.0
0
LINE
8
ESTRIBO
10
3480.0
20
-13470.0
11
3480.0
21
-13130.0
0
LINE
8
ESTRIBO
10
3565.0
20
-13470.0
11
3565.0
21
-13130.0
0
LINE
8
ESTRIBO
10
3650.0
20
-13470.0
11
3650.0
21
-13130.0
0
LINE
8
ESTRIBO
10
3735.0
20
-13470.0
11
3735.0
21
-13130.0
0
LINE
8
ESTRIBO
10
3820.0
20
-13470.0
11
3820.0
21
-13130.0
0
LINE
8
ESTRIBO
10
3905.0
20
-13470.0
11
3905.0
21
-13130.0
0
LINE
8
COTA
10
0.0
20
-13620.0
11
4000.0
21
-13620.0
0
TEXT
8
COTA
10
1700.0
20
-13730.0
40
90.0
1
L = 4.00 m
0
TEXT
8
TEXTO
10
0.0
20
-12840.0
40
130.0
1
VC-10 (4.00 m, Interior)  |  Mu(-)=104 kN.m  |  sec 300x400 mm
0
TEXT
8
TEXTO
10
1060.0
20
-13010.0
40
90.0
1
5 bastones sup. (L/4 + ld)
0
TEXT
8
TEXTO
10
1700.0
20
-13560.0
40
90.0
1
4 barras inf. corridas
0
TEXT
8
TEXTO
10
60.0
20
-13560.0
40
80.0
1
Estribos No.3 @86(conf)/@150
0
LINE
8
CONCRETO
10
4500.0
20
-13500.0
11
4800.0
21
-13500.0
0
LINE
8
CONCRETO
10
4800.0
20
-13500.0
11
4800.0
21
-13100.0
0
LINE
8
CONCRETO
10
4800.0
20
-13100.0
11
4500.0
21
-13100.0
0
LINE
8
CONCRETO
10
4500.0
20
-13100.0
11
4500.0
21
-13500.0
0
CIRCLE
8
ACERO
10
4545.0
20
-13455.0
40
12.0
0
CIRCLE
8
ACERO
10
4615.0
20
-13455.0
40
12.0
0
CIRCLE
8
ACERO
10
4685.0
20
-13455.0
40
12.0
0
CIRCLE
8
ACERO
10
4755.0
20
-13455.0
40
12.0
0
CIRCLE
8
ACERO
10
4545.0
20
-13145.0
40
12.0
0
CIRCLE
8
ACERO
10
4597.5
20
-13145.0
40
12.0
0
CIRCLE
8
ACERO
10
4650.0
20
-13145.0
40
12.0
0
CIRCLE
8
ACERO
10
4702.5
20
-13145.0
40
12.0
0
CIRCLE
8
ACERO
10
4755.0
20
-13145.0
40
12.0
0
LINE
8
ESTRIBO
10
4530.0
20
-13470.0
11
4770.0
21
-13470.0
0
LINE
8
ESTRIBO
10
4770.0
20
-13470.0
11
4770.0
21
-13130.0
0
LINE
8
ESTRIBO
10
4770.0
20
-13130.0
11
4530.0
21
-13130.0
0
LINE
8
ESTRIBO
10
4530.0
20
-13130.0
11
4530.0
21
-13470.0
0
TEXT
8
TEXTO
10
4500.0
20
-13010.0
40
90.0
1
Sec 300x400
0
LINE
8
CONCRETO
10
0.0
20
-15000.0
11
5100.0
21
-15000.0
0
LINE
8
CONCRETO
10
5100.0
20
-15000.0
11
5100.0
21
-14600.0
0
LINE
8
CONCRETO
10
5100.0
20
-14600.0
11
0.0
21
-14600.0
0
LINE
8
CONCRETO
10
0.0
20
-14600.0
11
0.0
21
-15000.0
0
LINE
8
ACERO
10
40.0
20
-14960.0
11
5060.0
21
-14960.0
0
LINE
8
ACERO
10
40.0
20
-14640.0
11
1275.0
21
-14640.0
0
LINE
8
ACERO
10
3825.0
20
-14640.0
11
5060.0
21
-14640.0
0
LINE
8
ESTRIBO
10
60.0
20
-14970.0
11
60.0
21
-14630.0
0
LINE
8
ESTRIBO
10
145.0
20
-14970.0
11
145.0
21
-14630.0
0
LINE
8
ESTRIBO
10
230.0
20
-14970.0
11
230.0
21
-14630.0
0
LINE
8
ESTRIBO
10
315.0
20
-14970.0
11
315.0
21
-14630.0
0
LINE
8
ESTRIBO
10
400.0
20
-14970.0
11
400.0
21
-14630.0
0
LINE
8
ESTRIBO
10
485.0
20
-14970.0
11
485.0
21
-14630.0
0
LINE
8
ESTRIBO
10
570.0
20
-14970.0
11
570.0
21
-14630.0
0
LINE
8
ESTRIBO
10
655.0
20
-14970.0
11
655.0
21
-14630.0
0
LINE
8
ESTRIBO
10
740.0
20
-14970.0
11
740.0
21
-14630.0
0
LINE
8
ESTRIBO
10
825.0
20
-14970.0
11
825.0
21
-14630.0
0
LINE
8
ESTRIBO
10
975.0
20
-14970.0
11
975.0
21
-14630.0
0
LINE
8
ESTRIBO
10
1125.0
20
-14970.0
11
1125.0
21
-14630.0
0
LINE
8
ESTRIBO
10
1275.0
20
-14970.0
11
1275.0
21
-14630.0
0
LINE
8
ESTRIBO
10
1425.0
20
-14970.0
11
1425.0
21
-14630.0
0
LINE
8
ESTRIBO
10
1575.0
20
-14970.0
11
1575.0
21
-14630.0
0
LINE
8
ESTRIBO
10
1725.0
20
-14970.0
11
1725.0
21
-14630.0
0
LINE
8
ESTRIBO
10
1875.0
20
-14970.0
11
1875.0
21
-14630.0
0
LINE
8
ESTRIBO
10
2025.0
20
-14970.0
11
2025.0
21
-14630.0
0
LINE
8
ESTRIBO
10
2175.0
20
-14970.0
11
2175.0
21
-14630.0
0
LINE
8
ESTRIBO
10
2325.0
20
-14970.0
11
2325.0
21
-14630.0
0
LINE
8
ESTRIBO
10
2475.0
20
-14970.0
11
2475.0
21
-14630.0
0
LINE
8
ESTRIBO
10
2625.0
20
-14970.0
11
2625.0
21
-14630.0
0
LINE
8
ESTRIBO
10
2775.0
20
-14970.0
11
2775.0
21
-14630.0
0
LINE
8
ESTRIBO
10
2925.0
20
-14970.0
11
2925.0
21
-14630.0
0
LINE
8
ESTRIBO
10
3075.0
20
-14970.0
11
3075.0
21
-14630.0
0
LINE
8
ESTRIBO
10
3225.0
20
-14970.0
11
3225.0
21
-14630.0
0
LINE
8
ESTRIBO
10
3375.0
20
-14970.0
11
3375.0
21
-14630.0
0
LINE
8
ESTRIBO
10
3525.0
20
-14970.0
11
3525.0
21
-14630.0
0
LINE
8
ESTRIBO
10
3675.0
20
-14970.0
11
3675.0
21
-14630.0
0
LINE
8
ESTRIBO
10
3825.0
20
-14970.0
11
3825.0
21
-14630.0
0
LINE
8
ESTRIBO
10
3975.0
20
-14970.0
11
3975.0
21
-14630.0
0
LINE
8
ESTRIBO
10
4125.0
20
-14970.0
11
4125.0
21
-14630.0
0
LINE
8
ESTRIBO
10
4275.0
20
-14970.0
11
4275.0
21
-14630.0
0
LINE
8
ESTRIBO
10
4425.0
20
-14970.0
11
4425.0
21
-14630.0
0
LINE
8
ESTRIBO
10
4510.0
20
-14970.0
11
4510.0
21
-14630.0
0
LINE
8
ESTRIBO
10
4595.0
20
-14970.0
11
4595.0
21
-14630.0
0
LINE
8
ESTRIBO
10
4680.0
20
-14970.0
11
4680.0
21
-14630.0
0
LINE
8
ESTRIBO
10
4765.0
20
-14970.0
11
4765.0
21
-14630.0
0
LINE
8
ESTRIBO
10
4850.0
20
-14970.0
11
4850.0
21
-14630.0
0
LINE
8
ESTRIBO
10
4935.0
20
-14970.0
11
4935.0
21
-14630.0
0
LINE
8
ESTRIBO
10
5020.0
20
-14970.0
11
5020.0
21
-14630.0
0
LINE
8
COTA
10
0.0
20
-15120.0
11
5100.0
21
-15120.0
0
TEXT
8
COTA
10
2250.0
20
-15230.0
40
90.0
1
L = 5.10 m
0
TEXT
8
TEXTO
10
0.0
20
-14340.0
40
130.0
1
VC-11 (5.10 m, Extremo)  |  Mu(-)=97 kN.m  |  sec 300x400 mm
0
TEXT
8
TEXTO
10
1335.0
20
-14510.0
40
90.0
1
5 bastones sup. (L/4 + ld)
0
TEXT
8
TEXTO
10
2250.0
20
-15060.0
40
90.0
1
3 barras inf. corridas
0
TEXT
8
TEXTO
10
60.0
20
-15060.0
40
80.0
1
Estribos No.3 @86(conf)/@150
0
LINE
8
CONCRETO
10
5600.0
20
-15000.0
11
5900.0
21
-15000.0
0
LINE
8
CONCRETO
10
5900.0
20
-15000.0
11
5900.0
21
-14600.0
0
LINE
8
CONCRETO
10
5900.0
20
-14600.0
11
5600.0
21
-14600.0
0
LINE
8
CONCRETO
10
5600.0
20
-14600.0
11
5600.0
21
-15000.0
0
CIRCLE
8
ACERO
10
5645.0
20
-14955.0
40
12.0
0
CIRCLE
8
ACERO
10
5750.0
20
-14955.0
40
12.0
0
CIRCLE
8
ACERO
10
5855.0
20
-14955.0
40
12.0
0
CIRCLE
8
ACERO
10
5645.0
20
-14645.0
40
12.0
0
CIRCLE
8
ACERO
10
5697.5
20
-14645.0
40
12.0
0
CIRCLE
8
ACERO
10
5750.0
20
-14645.0
40
12.0
0
CIRCLE
8
ACERO
10
5802.5
20
-14645.0
40
12.0
0
CIRCLE
8
ACERO
10
5855.0
20
-14645.0
40
12.0
0
LINE
8
ESTRIBO
10
5630.0
20
-14970.0
11
5870.0
21
-14970.0
0
LINE
8
ESTRIBO
10
5870.0
20
-14970.0
11
5870.0
21
-14630.0
0
LINE
8
ESTRIBO
10
5870.0
20
-14630.0
11
5630.0
21
-14630.0
0
LINE
8
ESTRIBO
10
5630.0
20
-14630.0
11
5630.0
21
-14970.0
0
TEXT
8
TEXTO
10
5600.0
20
-14510.0
40
90.0
1
Sec 300x400
0
LINE
8
CONCRETO
10
0.0
20
-16500.0
11
5100.0
21
-16500.0
0
LINE
8
CONCRETO
10
5100.0
20
-16500.0
11
5100.0
21
-16100.0
0
LINE
8
CONCRETO
10
5100.0
20
-16100.0
11
0.0
21
-16100.0
0
LINE
8
CONCRETO
10
0.0
20
-16100.0
11
0.0
21
-16500.0
0
LINE
8
ACERO
10
40.0
20
-16460.0
11
5060.0
21
-16460.0
0
LINE
8
ACERO
10
40.0
20
-16140.0
11
1275.0
21
-16140.0
0
LINE
8
ACERO
10
3825.0
20
-16140.0
11
5060.0
21
-16140.0
0
LINE
8
ESTRIBO
10
60.0
20
-16470.0
11
60.0
21
-16130.0
0
LINE
8
ESTRIBO
10
145.0
20
-16470.0
11
145.0
21
-16130.0
0
LINE
8
ESTRIBO
10
230.0
20
-16470.0
11
230.0
21
-16130.0
0
LINE
8
ESTRIBO
10
315.0
20
-16470.0
11
315.0
21
-16130.0
0
LINE
8
ESTRIBO
10
400.0
20
-16470.0
11
400.0
21
-16130.0
0
LINE
8
ESTRIBO
10
485.0
20
-16470.0
11
485.0
21
-16130.0
0
LINE
8
ESTRIBO
10
570.0
20
-16470.0
11
570.0
21
-16130.0
0
LINE
8
ESTRIBO
10
655.0
20
-16470.0
11
655.0
21
-16130.0
0
LINE
8
ESTRIBO
10
740.0
20
-16470.0
11
740.0
21
-16130.0
0
LINE
8
ESTRIBO
10
825.0
20
-16470.0
11
825.0
21
-16130.0
0
LINE
8
ESTRIBO
10
975.0
20
-16470.0
11
975.0
21
-16130.0
0
LINE
8
ESTRIBO
10
1125.0
20
-16470.0
11
1125.0
21
-16130.0
0
LINE
8
ESTRIBO
10
1275.0
20
-16470.0
11
1275.0
21
-16130.0
0
LINE
8
ESTRIBO
10
1425.0
20
-16470.0
11
1425.0
21
-16130.0
0
LINE
8
ESTRIBO
10
1575.0
20
-16470.0
11
1575.0
21
-16130.0
0
LINE
8
ESTRIBO
10
1725.0
20
-16470.0
11
1725.0
21
-16130.0
0
LINE
8
ESTRIBO
10
1875.0
20
-16470.0
11
1875.0
21
-16130.0
0
LINE
8
ESTRIBO
10
2025.0
20
-16470.0
11
2025.0
21
-16130.0
0
LINE
8
ESTRIBO
10
2175.0
20
-16470.0
11
2175.0
21
-16130.0
0
LINE
8
ESTRIBO
10
2325.0
20
-16470.0
11
2325.0
21
-16130.0
0
LINE
8
ESTRIBO
10
2475.0
20
-16470.0
11
2475.0
21
-16130.0
0
LINE
8
ESTRIBO
10
2625.0
20
-16470.0
11
2625.0
21
-16130.0
0
LINE
8
ESTRIBO
10
2775.0
20
-16470.0
11
2775.0
21
-16130.0
0
LINE
8
ESTRIBO
10
2925.0
20
-16470.0
11
2925.0
21
-16130.0
0
LINE
8
ESTRIBO
10
3075.0
20
-16470.0
11
3075.0
21
-16130.0
0
LINE
8
ESTRIBO
10
3225.0
20
-16470.0
11
3225.0
21
-16130.0
0
LINE
8
ESTRIBO
10
3375.0
20
-16470.0
11
3375.0
21
-16130.0
0
LINE
8
ESTRIBO
10
3525.0
20
-16470.0
11
3525.0
21
-16130.0
0
LINE
8
ESTRIBO
10
3675.0
20
-16470.0
11
3675.0
21
-16130.0
0
LINE
8
ESTRIBO
10
3825.0
20
-16470.0
11
3825.0
21
-16130.0
0
LINE
8
ESTRIBO
10
3975.0
20
-16470.0
11
3975.0
21
-16130.0
0
LINE
8
ESTRIBO
10
4125.0
20
-16470.0
11
4125.0
21
-16130.0
0
LINE
8
ESTRIBO
10
4275.0
20
-16470.0
11
4275.0
21
-16130.0
0
LINE
8
ESTRIBO
10
4425.0
20
-16470.0
11
4425.0
21
-16130.0
0
LINE
8
ESTRIBO
10
4510.0
20
-16470.0
11
4510.0
21
-16130.0
0
LINE
8
ESTRIBO
10
4595.0
20
-16470.0
11
4595.0
21
-16130.0
0
LINE
8
ESTRIBO
10
4680.0
20
-16470.0
11
4680.0
21
-16130.0
0
LINE
8
ESTRIBO
10
4765.0
20
-16470.0
11
4765.0
21
-16130.0
0
LINE
8
ESTRIBO
10
4850.0
20
-16470.0
11
4850.0
21
-16130.0
0
LINE
8
ESTRIBO
10
4935.0
20
-16470.0
11
4935.0
21
-16130.0
0
LINE
8
ESTRIBO
10
5020.0
20
-16470.0
11
5020.0
21
-16130.0
0
LINE
8
COTA
10
0.0
20
-16620.0
11
5100.0
21
-16620.0
0
TEXT
8
COTA
10
2250.0
20
-16730.0
40
90.0
1
L = 5.10 m
0
TEXT
8
TEXTO
10
0.0
20
-15840.0
40
130.0
1
VC-12 (5.10 m, Interior)  |  Mu(-)=93 kN.m  |  sec 300x400 mm
0
TEXT
8
TEXTO
10
1335.0
20
-16010.0
40
90.0
1
4 bastones sup. (L/4 + ld)
0
TEXT
8
TEXTO
10
2250.0
20
-16560.0
40
90.0
1
3 barras inf. corridas
0
TEXT
8
TEXTO
10
60.0
20
-16560.0
40
80.0
1
Estribos No.3 @86(conf)/@150
0
LINE
8
CONCRETO
10
5600.0
20
-16500.0
11
5900.0
21
-16500.0
0
LINE
8
CONCRETO
10
5900.0
20
-16500.0
11
5900.0
21
-16100.0
0
LINE
8
CONCRETO
10
5900.0
20
-16100.0
11
5600.0
21
-16100.0
0
LINE
8
CONCRETO
10
5600.0
20
-16100.0
11
5600.0
21
-16500.0
0
CIRCLE
8
ACERO
10
5645.0
20
-16455.0
40
12.0
0
CIRCLE
8
ACERO
10
5750.0
20
-16455.0
40
12.0
0
CIRCLE
8
ACERO
10
5855.0
20
-16455.0
40
12.0
0
CIRCLE
8
ACERO
10
5645.0
20
-16145.0
40
12.0
0
CIRCLE
8
ACERO
10
5715.0
20
-16145.0
40
12.0
0
CIRCLE
8
ACERO
10
5785.0
20
-16145.0
40
12.0
0
CIRCLE
8
ACERO
10
5855.0
20
-16145.0
40
12.0
0
LINE
8
ESTRIBO
10
5630.0
20
-16470.0
11
5870.0
21
-16470.0
0
LINE
8
ESTRIBO
10
5870.0
20
-16470.0
11
5870.0
21
-16130.0
0
LINE
8
ESTRIBO
10
5870.0
20
-16130.0
11
5630.0
21
-16130.0
0
LINE
8
ESTRIBO
10
5630.0
20
-16130.0
11
5630.0
21
-16470.0
0
TEXT
8
TEXTO
10
5600.0
20
-16010.0
40
90.0
1
Sec 300x400
0
ENDSEC
0
EOF
