  0
SECTION
  2
HEADER
  9
$ACADVER
  1
AC1032
  9
$ACADMAINTVER
 90
4
  9
$DWGCODEPAGE
  3
ANSI_1252
  9
$LASTSAVEDBY
  1
ezdxf
  9
$REQUIREDVERSIONS
160
0
  9
$INSBASE
 10
0.0
 20
0.0
 30
0.0
  9
$EXTMIN
 10
1e+20
 20
1e+20
 30
1e+20
  9
$EXTMAX
 10
-1e+20
 20
-1e+20
 30
-1e+20
  9
$LIMMIN
 10
0.0
 20
0.0
  9
$LIMMAX
 10
420.0
 20
297.0
  9
$ORTHOMODE
 70
0
  9
$REGENMODE
 70
1
  9
$FILLMODE
 70
1
  9
$QTEXTMODE
 70
0
  9
$MIRRTEXT
 70
1
  9
$LTSCALE
 40
1.0
  9
$ATTMODE
 70
1
  9
$TEXTSIZE
 40
2.5
  9
$TRACEWID
 40
1.0
  9
$TEXTSTYLE
  7
OpenSans
  9
$CLAYER
  8
0
  9
$CELTYPE
  6
ByLayer
  9
$CECOLOR
 62
256
  9
$CELTSCALE
 40
1.0
  9
$DISPSILH
 70
0
  9
$DIMSCALE
 40
1.0
  9
$DIMASZ
 40
0.175
  9
$DIMEXO
 40
0.125
  9
$DIMDLI
 40
3.75
  9
$DIMRND
 40
0.0
  9
$DIMDLE
 40
0.0
  9
$DIMEXE
 40
0.375
  9
$DIMTP
 40
0.0
  9
$DIMTM
 40
0.0
  9
$DIMTXT
 40
0.25
  9
$DIMCEN
 40
2.5
  9
$DIMTSZ
 40
0.0
  9
$DIMTOL
 70
0
  9
$DIMLIM
 70
0
  9
$DIMTIH
 70
0
  9
$DIMTOH
 70
0
  9
$DIMSE1
 70
0
  9
$DIMSE2
 70
0
  9
$DIMTAD
 70
1
  9
$DIMZIN
 70
12
  9
$DIMBLK
  1
ARCHTICK
  9
$DIMASO
 70
1
  9
$DIMSHO
 70
1
  9
$DIMPOST
  1

  9
$DIMAPOST
  1

  9
$DIMALT
 70
0
  9
$DIMALTD
 70
3
  9
$DIMALTF
 40
0.03937007874
  9
$DIMLFAC
 40
100.0
  9
$DIMTOFL
 70
1
  9
$DIMTVP
 40
0.0
  9
$DIMTIX
 70
0
  9
$DIMSOXD
 70
0
  9
$DIMSAH
 70
0
  9
$DIMBLK1
  1

  9
$DIMBLK2
  1

  9
$DIMSTYLE
  2
EZDXF
  9
$DIMCLRD
 70
0
  9
$DIMCLRE
 70
0
  9
$DIMCLRT
 70
0
  9
$DIMTFAC
 40
0.5
  9
$DIMGAP
 40
0.1
  9
$DIMJUST
 70
0
  9
$DIMSD1
 70
0
  9
$DIMSD2
 70
0
  9
$DIMTOLJ
 70
0
  9
$DIMTZIN
 70
8
  9
$DIMALTZ
 70
0
  9
$DIMALTTZ
 70
0
  9
$DIMUPT
 70
1
  9
$DIMDEC
 70
2
  9
$DIMTDEC
 70
2
  9
$DIMALTU
 70
2
  9
$DIMALTTD
 70
3
  9
$DIMTXSTY
  7
OpenSansCondensed-Light
  9
$DIMAUNIT
 70
0
  9
$DIMADEC
 70
2
  9
$DIMALTRND
 40
0.0
  9
$DIMAZIN
 70
3
  9
$DIMDSEP
 70
46
  9
$DIMATFIT
 70
3
  9
$DIMFRAC
 70
0
  9
$DIMLDRBLK
  1

  9
$DIMLUNIT
 70
2
  9
$DIMLWD
 70
-2
  9
$DIMLWE
 70
-2
  9
$DIMTMOVE
 70
2
  9
$DIMFXL
 40
1.0
  9
$DIMFXLON
 70
0
  9
$DIMJOGANG
 40
0.785398163397
  9
$DIMTFILL
 70
0
  9
$DIMTFILLCLR
 70
0
  9
$DIMARCSYM
 70
0
  9
$DIMLTYPE
  6

  9
$DIMLTEX1
  6

  9
$DIMLTEX2
  6

  9
$DIMTXTDIRECTION
 70
0
  9
$LUNITS
 70
2
  9
$LUPREC
 70
3
  9
$SKETCHINC
 40
1.0
  9
$FILLETRAD
 40
10.0
  9
$AUNITS
 70
0
  9
$AUPREC
 70
2
  9
$MENU
  1
.
  9
$ELEVATION
 40
0.0
  9
$PELEVATION
 40
0.0
  9
$THICKNESS
 40
0.0
  9
$LIMCHECK
 70
0
  9
$CHAMFERA
 40
0.0
  9
$CHAMFERB
 40
0.0
  9
$CHAMFERC
 40
0.0
  9
$CHAMFERD
 40
0.0
  9
$SKPOLY
 70
0
  9
$TDCREATE
 40
2461240.165474537
  9
$TDUCREATE
 40
2458532.153996898
  9
$TDUPDATE
 40
2461240.165474537
  9
$TDUUPDATE
 40
2458532.1544311
  9
$TDINDWG
 40
0.0
  9
$TDUSRTIMER
 40
0.0
  9
$USRTIMER
 70
1
  9
$ANGBASE
 50
0.0
  9
$ANGDIR
 70
0
  9
$PDMODE
 70
0
  9
$PDSIZE
 40
0.0
  9
$PLINEWID
 40
0.0
  9
$SPLFRAME
 70
0
  9
$SPLINETYPE
 70
6
  9
$SPLINESEGS
 70
8
  9
$HANDSEED
  5
2FC
  9
$SURFTAB1
 70
6
  9
$SURFTAB2
 70
6
  9
$SURFTYPE
 70
6
  9
$SURFU
 70
6
  9
$SURFV
 70
6
  9
$UCSBASE
  2

  9
$UCSNAME
  2

  9
$UCSORG
 10
0.0
 20
0.0
 30
0.0
  9
$UCSXDIR
 10
1.0
 20
0.0
 30
0.0
  9
$UCSYDIR
 10
0.0
 20
1.0
 30
0.0
  9
$UCSORTHOREF
  2

  9
$UCSORTHOVIEW
 70
0
  9
$UCSORGTOP
 10
0.0
 20
0.0
 30
0.0
  9
$UCSORGBOTTOM
 10
0.0
 20
0.0
 30
0.0
  9
$UCSORGLEFT
 10
0.0
 20
0.0
 30
0.0
  9
$UCSORGRIGHT
 10
0.0
 20
0.0
 30
0.0
  9
$UCSORGFRONT
 10
0.0
 20
0.0
 30
0.0
  9
$UCSORGBACK
 10
0.0
 20
0.0
 30
0.0
  9
$PUCSBASE
  2

  9
$PUCSNAME
  2

  9
$PUCSORG
 10
0.0
 20
0.0
 30
0.0
  9
$PUCSXDIR
 10
1.0
 20
0.0
 30
0.0
  9
$PUCSYDIR
 10
0.0
 20
1.0
 30
0.0
  9
$PUCSORTHOREF
  2

  9
$PUCSORTHOVIEW
 70
0
  9
$PUCSORGTOP
 10
0.0
 20
0.0
 30
0.0
  9
$PUCSORGBOTTOM
 10
0.0
 20
0.0
 30
0.0
  9
$PUCSORGLEFT
 10
0.0
 20
0.0
 30
0.0
  9
$PUCSORGRIGHT
 10
0.0
 20
0.0
 30
0.0
  9
$PUCSORGFRONT
 10
0.0
 20
0.0
 30
0.0
  9
$PUCSORGBACK
 10
0.0
 20
0.0
 30
0.0
  9
$USERI1
 70
0
  9
$USERI2
 70
0
  9
$USERI3
 70
0
  9
$USERI4
 70
0
  9
$USERI5
 70
0
  9
$USERR1
 40
0.0
  9
$USERR2
 40
0.0
  9
$USERR3
 40
0.0
  9
$USERR4
 40
0.0
  9
$USERR5
 40
0.0
  9
$WORLDVIEW
 70
1
  9
$SHADEDGE
 70
3
  9
$SHADEDIF
 70
70
  9
$TILEMODE
 70
1
  9
$MAXACTVP
 70
64
  9
$PINSBASE
 10
0.0
 20
0.0
 30
0.0
  9
$PLIMCHECK
 70
0
  9
$PEXTMIN
 10
1e+20
 20
1e+20
 30
1e+20
  9
$PEXTMAX
 10
-1e+20
 20
-1e+20
 30
-1e+20
  9
$PLIMMIN
 10
-0.0
 20
-0.0
  9
$PLIMMAX
 10
707.0
 20
500.0
  9
$UNITMODE
 70
0
  9
$VISRETAIN
 70
1
  9
$PLINEGEN
 70
0
  9
$PSLTSCALE
 70
1
  9
$TREEDEPTH
 70
3020
  9
$CMLSTYLE
  2
Standard
  9
$CMLJUST
 70
0
  9
$CMLSCALE
 40
20.0
  9
$PROXYGRAPHICS
 70
1
  9
$MEASUREMENT
 70
1
  9
$CELWEIGHT
370
-1
  9
$ENDCAPS
280
0
  9
$JOINSTYLE
280
0
  9
$LWDISPLAY
290
0
  9
$INSUNITS
 70
4
  9
$HYPERLINKBASE
  1

  9
$STYLESHEET
  1

  9
$XEDIT
290
1
  9
$CEPSNTYPE
380
0
  9
$PSTYLEMODE
290
1
  9
$FINGERPRINTGUID
  2
{19B5E749-45BE-4E07-A127-A740A124F8DB}
  9
$VERSIONGUID
  2
{D54E9434-C12F-48CC-B7BF-9D47D5ED69A0}
  9
$EXTNAMES
290
1
  9
$PSVPSCALE
 40
0.0
  9
$OLESTARTUP
290
0
  9
$SORTENTS
280
127
  9
$INDEXCTL
280
0
  9
$HIDETEXT
280
1
  9
$XCLIPFRAME
280
1
  9
$HALOGAP
280
0
  9
$OBSCOLOR
 70
257
  9
$OBSLTYPE
280
0
  9
$INTERSECTIONDISPLAY
280
0
  9
$INTERSECTIONCOLOR
 70
257
  9
$DIMASSOC
280
2
  9
$PROJECTNAME
  1

  9
$CAMERADISPLAY
290
0
  9
$LENSLENGTH
 40
50.0
  9
$CAMERAHEIGHT
 40
0.0
  9
$STEPSPERSEC
 40
24.0
  9
$STEPSIZE
 40
100.0
  9
$3DDWFPREC
 40
2.0
  9
$PSOLWIDTH
 40
0.005
  9
$PSOLHEIGHT
 40
0.08
  9
$LOFTANG1
 40
1.570796326795
  9
$LOFTANG2
 40
1.570796326795
  9
$LOFTMAG1
 40
0.0
  9
$LOFTMAG2
 40
0.0
  9
$LOFTPARAM
 70
7
  9
$LOFTNORMALS
280
1
  9
$LATITUDE
 40
37.795
  9
$LONGITUDE
 40
-122.394
  9
$NORTHDIRECTION
 40
0.0
  9
$TIMEZONE
 70
-8000
  9
$LIGHTGLYPHDISPLAY
280
1
  9
$TILEMODELIGHTSYNCH
280
1
  9
$CMATERIAL
347
20
  9
$SOLIDHIST
280
0
  9
$SHOWHIST
280
1
  9
$DWFFRAME
280
2
  9
$DGNFRAME
280
2
  9
$REALWORLDSCALE
290
1
  9
$INTERFERECOLOR
 62
256
  9
$CSHADOW
280
0
  9
$SHADOWPLANELOCATION
 40
0.0
  0
ENDSEC
  0
SECTION
  2
CLASSES
  0
CLASS
  1
ACDBDICTIONARYWDFLT
  2
AcDbDictionaryWithDefault
  3
ObjectDBX Classes
 90
0
 91
0
280
0
281
0
  0
CLASS
  1
SUN
  2
AcDbSun
  3
SCENEOE
 90
1153
 91
0
280
0
281
0
  0
CLASS
  1
VISUALSTYLE
  2
AcDbVisualStyle
  3
ObjectDBX Classes
 90
4095
 91
0
280
0
281
0
  0
CLASS
  1
MATERIAL
  2
AcDbMaterial
  3
ObjectDBX Classes
 90
1153
 91
0
280
0
281
0
  0
CLASS
  1
SCALE
  2
AcDbScale
  3
ObjectDBX Classes
 90
1153
 91
0
280
0
281
0
  0
CLASS
  1
TABLESTYLE
  2
AcDbTableStyle
  3
ObjectDBX Classes
 90
4095
 91
0
280
0
281
0
  0
CLASS
  1
MLEADERSTYLE
  2
AcDbMLeaderStyle
  3
ACDB_MLEADERSTYLE_CLASS
 90
4095
 91
0
280
0
281
0
  0
CLASS
  1
DICTIONARYVAR
  2
AcDbDictionaryVar
  3
ObjectDBX Classes
 90
0
 91
0
280
0
281
0
  0
CLASS
  1
CELLSTYLEMAP
  2
AcDbCellStyleMap
  3
ObjectDBX Classes
 90
1152
 91
0
280
0
281
0
  0
CLASS
  1
MENTALRAYRENDERSETTINGS
  2
AcDbMentalRayRenderSettings
  3
SCENEOE
 90
1024
 91
0
280
0
281
0
  0
CLASS
  1
ACDBDETAILVIEWSTYLE
  2
AcDbDetailViewStyle
  3
ObjectDBX Classes
 90
1025
 91
0
280
0
281
0
  0
CLASS
  1
ACDBSECTIONVIEWSTYLE
  2
AcDbSectionViewStyle
  3
ObjectDBX Classes
 90
1025
 91
0
280
0
281
0
  0
CLASS
  1
RASTERVARIABLES
  2
AcDbRasterVariables
  3
ISM
 90
0
 91
0
280
0
281
0
  0
CLASS
  1
ACDBPLACEHOLDER
  2
AcDbPlaceHolder
  3
ObjectDBX Classes
 90
0
 91
0
280
0
281
0
  0
CLASS
  1
LAYOUT
  2
AcDbLayout
  3
ObjectDBX Classes
 90
0
 91
0
280
0
281
0
  0
ENDSEC
  0
SECTION
  2
TABLES
  0
TABLE
  2
VPORT
  5
8
330
0
100
AcDbSymbolTable
 70
1
  0
VPORT
  5
23
330
8
100
AcDbSymbolTableRecord
100
AcDbViewportTableRecord
  2
*Active
 70
0
 10
0.0
 20
0.0
 11
1.0
 21
1.0
 12
0.0
 22
0.0
 13
0.0
 23
0.0
 14
0.5
 24
0.5
 15
0.5
 25
0.5
 16
0.0
 26
0.0
 36
1.0
 17
0.0
 27
0.0
 37
0.0
 40
1000.0
 41
1.34
 42
50.0
 43
0.0
 44
0.0
 50
0.0
 51
0.0
 71
0
 72
1000
 73
1
 74
3
 75
0
 76
0
 77
0
 78
0
281
0
 65
0
146
0.0
  0
ENDTAB
  0
TABLE
  2
LTYPE
  5
2
330
0
100
AcDbSymbolTable
 70
21
  0
LTYPE
  5
24
330
2
100
AcDbSymbolTableRecord
100
AcDbLinetypeTableRecord
  2
ByBlock
 70
0
  3

 72
65
 73
0
 40
0.0
  0
LTYPE
  5
25
330
2
100
AcDbSymbolTableRecord
100
AcDbLinetypeTableRecord
  2
ByLayer
 70
0
  3

 72
65
 73
0
 40
0.0
  0
LTYPE
  5
26
330
2
100
AcDbSymbolTableRecord
100
AcDbLinetypeTableRecord
  2
Continuous
 70
0
  3

 72
65
 73
0
 40
0.0
  0
LTYPE
  5
2F
330
2
100
AcDbSymbolTableRecord
100
AcDbLinetypeTableRecord
  2
CENTER
 70
0
  3
Center ____ _ ____ _ ____ _ ____ _ ____ _ ____
 72
65
 73
4
 40
5.08
 49
3.175
 74
0
 49
-0.635
 74
0
 49
0.635
 74
0
 49
-0.635
 74
0
  0
LTYPE
  5
30
330
2
100
AcDbSymbolTableRecord
100
AcDbLinetypeTableRecord
  2
CENTERX2
 70
0
  3
Center (2x) ________  __  ________  __  ________
 72
65
 73
4
 40
8.89
 49
6.35
 74
0
 49
-0.635
 74
0
 49
1.27
 74
0
 49
-0.635
 74
0
  0
LTYPE
  5
31
330
2
100
AcDbSymbolTableRecord
100
AcDbLinetypeTableRecord
  2
CENTER2
 70
0
  3
Center (.5x) ____ _ ____ _ ____ _ ____ _ ____
 72
65
 73
4
 40
2.54
 49
1.587
 74
0
 49
-0.318
 74
0
 49
0.318
 74
0
 49
-0.318
 74
0
  0
LTYPE
  5
32
330
2
100
AcDbSymbolTableRecord
100
AcDbLinetypeTableRecord
  2
DASHED
 70
0
  3
Dashed __ __ __ __ __ __ __ __ __ __ __ __ __ _
 72
65
 73
2
 40
1.524
 49
1.27
 74
0
 49
-0.254
 74
0
  0
LTYPE
  5
33
330
2
100
AcDbSymbolTableRecord
100
AcDbLinetypeTableRecord
  2
DASHEDX2
 70
0
  3
Dashed (2x) ____  ____  ____  ____  ____  ____
 72
65
 73
2
 40
3.048
 49
2.54
 74
0
 49
-0.508
 74
0
  0
LTYPE
  5
34
330
2
100
AcDbSymbolTableRecord
100
AcDbLinetypeTableRecord
  2
DASHED2
 70
0
  3
Dashed (.5x) _ _ _ _ _ _ _ _ _ _ _ _ _ _
 72
65
 73
2
 40
0.762
 49
0.635
 74
0
 49
-0.127
 74
0
  0
LTYPE
  5
35
330
2
100
AcDbSymbolTableRecord
100
AcDbLinetypeTableRecord
  2
PHANTOM
 70
0
  3
Phantom ______  __  __  ______  __  __  ______
 72
65
 73
6
 40
6.35
 49
3.175
 74
0
 49
-0.635
 74
0
 49
0.635
 74
0
 49
-0.635
 74
0
 49
0.635
 74
0
 49
-0.635
 74
0
  0
LTYPE
  5
36
330
2
100
AcDbSymbolTableRecord
100
AcDbLinetypeTableRecord
  2
PHANTOMX2
 70
0
  3
Phantom (2x)____________    ____    ____    ____________
 72
65
 73
6
 40
10.795
 49
6.35
 74
0
 49
-0.635
 74
0
 49
1.27
 74
0
 49
-0.635
 74
0
 49
1.27
 74
0
 49
-0.635
 74
0
  0
LTYPE
  5
37
330
2
100
AcDbSymbolTableRecord
100
AcDbLinetypeTableRecord
  2
PHANTOM2
 70
0
  3
Phantom (.5x) ___ _ _ ___ _ _ ___ _ _ ___ _ _ ___
 72
65
 73
6
 40
3.175
 49
1.587
 74
0
 49
-0.318
 74
0
 49
0.318
 74
0
 49
-0.318
 74
0
 49
0.318
 74
0
 49
-0.318
 74
0
  0
LTYPE
  5
38
330
2
100
AcDbSymbolTableRecord
100
AcDbLinetypeTableRecord
  2
DASHDOT
 70
0
  3
Dash dot __ . __ . __ . __ . __ . __ . __ . __
 72
65
 73
4
 40
3.556
 49
2.54
 74
0
 49
-0.508
 74
0
 49
0.0
 74
0
 49
-0.508
 74
0
  0
LTYPE
  5
39
330
2
100
AcDbSymbolTableRecord
100
AcDbLinetypeTableRecord
  2
DASHDOTX2
 70
0
  3
Dash dot (2x) ____  .  ____  .  ____  .  ____
 72
65
 73
4
 40
6.096
 49
5.08
 74
0
 49
-0.508
 74
0
 49
0.0
 74
0
 49
-0.508
 74
0
  0
LTYPE
  5
3A
330
2
100
AcDbSymbolTableRecord
100
AcDbLinetypeTableRecord
  2
DASHDOT2
 70
0
  3
Dash dot (.5x) _ . _ . _ . _ . _ . _ . _ . _
 72
65
 73
4
 40
1.778
 49
1.27
 74
0
 49
-0.254
 74
0
 49
0.0
 74
0
 49
-0.254
 74
0
  0
LTYPE
  5
3B
330
2
100
AcDbSymbolTableRecord
100
AcDbLinetypeTableRecord
  2
DOT
 70
0
  3
Dot .  .  .  .  .  .  .  .  .  .  .  .  .  .  .  .
 72
65
 73
2
 40
0.508
 49
0.0
 74
0
 49
-0.508
 74
0
  0
LTYPE
  5
3C
330
2
100
AcDbSymbolTableRecord
100
AcDbLinetypeTableRecord
  2
DOTX2
 70
0
  3
Dot (2x) .    .    .    .    .    .    .    . 
 72
65
 73
2
 40
1.016
 49
0.0
 74
0
 49
-1.016
 74
0
  0
LTYPE
  5
3D
330
2
100
AcDbSymbolTableRecord
100
AcDbLinetypeTableRecord
  2
DOT2
 70
0
  3
Dot (.5) . . . . . . . . . . . . . . . . . . . 
 72
65
 73
2
 40
0.254
 49
0.0
 74
0
 49
-0.254
 74
0
  0
LTYPE
  5
3E
330
2
100
AcDbSymbolTableRecord
100
AcDbLinetypeTableRecord
  2
DIVIDE
 70
0
  3
Divide __ . . __ . . __ . . __ . . __ . . __
 72
65
 73
6
 40
4.064
 49
2.54
 74
0
 49
-0.508
 74
0
 49
0.0
 74
0
 49
-0.508
 74
0
 49
0.0
 74
0
 49
-0.508
 74
0
  0
LTYPE
  5
3F
330
2
100
AcDbSymbolTableRecord
100
AcDbLinetypeTableRecord
  2
DIVIDEX2
 70
0
  3
Divide (2x) ____  . .  ____  . .  ____  . .  ____
 72
65
 73
6
 40
6.604
 49
5.08
 74
0
 49
-0.508
 74
0
 49
0.0
 74
0
 49
-0.508
 74
0
 49
0.0
 74
0
 49
-0.508
 74
0
  0
LTYPE
  5
40
330
2
100
AcDbSymbolTableRecord
100
AcDbLinetypeTableRecord
  2
DIVIDE2
 70
0
  3
Divide(.5x) _ . _ . _ . _ . _ . _ . _ . _
 72
65
 73
6
 40
2.032
 49
1.27
 74
0
 49
-0.254
 74
0
 49
0.0
 74
0
 49
-0.254
 74
0
 49
0.0
 74
0
 49
-0.254
 74
0
  0
ENDTAB
  0
TABLE
  2
LAYER
  5
1
330
0
100
AcDbSymbolTable
 70
19
  0
LAYER
  5
27
330
1
100
AcDbSymbolTableRecord
100
AcDbLayerTableRecord
  2
0
 70
0
 62
7
  6
Continuous
370
-3
390
13
347
21
  0
LAYER
  5
28
330
1
100
AcDbSymbolTableRecord
100
AcDbLayerTableRecord
  2
Defpoints
 70
0
 62
7
  6
Continuous
290
0
370
-3
390
13
347
21
  0
LAYER
  5
8A
330
1
100
AcDbSymbolTableRecord
100
AcDbLayerTableRecord
  2
MARCO
 70
0
 62
7
  6
Continuous
370
-3
390
13
347
21
  0
LAYER
  5
8B
330
1
100
AcDbSymbolTableRecord
100
AcDbLayerTableRecord
  2
GUIA
 70
0
 62
9
  6
Continuous
370
-3
390
13
347
21
  0
LAYER
  5
8C
330
1
100
AcDbSymbolTableRecord
100
AcDbLayerTableRecord
  2
ROTULO
 70
0
 62
7
  6
Continuous
370
-3
390
13
347
21
  0
LAYER
  5
8D
330
1
100
AcDbSymbolTableRecord
100
AcDbLayerTableRecord
  2
TITULO
 70
0
 62
6
  6
Continuous
370
-3
390
13
347
21
  0
LAYER
  5
8E
330
1
100
AcDbSymbolTableRecord
100
AcDbLayerTableRecord
  2
TEXTO
 70
0
 62
7
  6
Continuous
370
-3
390
13
347
21
  0
LAYER
  5
8F
330
1
100
AcDbSymbolTableRecord
100
AcDbLayerTableRecord
  2
CONTORNO
 70
0
 62
7
  6
Continuous
370
-3
390
13
347
21
  0
LAYER
  5
90
330
1
100
AcDbSymbolTableRecord
100
AcDbLayerTableRecord
  2
APOYOS
 70
0
 62
4
  6
Continuous
370
-3
390
13
347
21
  0
LAYER
  5
91
330
1
100
AcDbSymbolTableRecord
100
AcDbLayerTableRecord
  2
EJES
 70
0
 62
8
  6
Continuous
370
-3
390
13
347
21
  0
LAYER
  5
92
330
1
100
AcDbSymbolTableRecord
100
AcDbLayerTableRecord
  2
M1_SUP_CONT
 70
0
 62
5
  6
Continuous
370
-3
390
13
347
21
  0
LAYER
  5
93
330
1
100
AcDbSymbolTableRecord
100
AcDbLayerTableRecord
  2
M2_SUP_IZQ
 70
0
 62
2
  6
Continuous
370
-3
390
13
347
21
  0
LAYER
  5
94
330
1
100
AcDbSymbolTableRecord
100
AcDbLayerTableRecord
  2
M3_SUP_DER
 70
0
 62
2
  6
Continuous
370
-3
390
13
347
21
  0
LAYER
  5
95
330
1
100
AcDbSymbolTableRecord
100
AcDbLayerTableRecord
  2
M4_INF_CONT
 70
0
 62
1
  6
Continuous
370
-3
390
13
347
21
  0
LAYER
  5
96
330
1
100
AcDbSymbolTableRecord
100
AcDbLayerTableRecord
  2
M5_TORSION
 70
0
 62
30
  6
Continuous
370
-3
390
13
347
21
  0
LAYER
  5
97
330
1
100
AcDbSymbolTableRecord
100
AcDbLayerTableRecord
  2
ESTRIBOS
 70
0
 62
7
  6
Continuous
370
-3
390
13
347
21
  0
LAYER
  5
98
330
1
100
AcDbSymbolTableRecord
100
AcDbLayerTableRecord
  2
CORTE
 70
0
 62
7
  6
Continuous
370
-3
390
13
347
21
  0
LAYER
  5
99
330
1
100
AcDbSymbolTableRecord
100
AcDbLayerTableRecord
  2
COTAS
 70
0
 62
3
  6
Continuous
370
-3
390
13
347
21
  0
LAYER
  5
9A
330
1
100
AcDbSymbolTableRecord
100
AcDbLayerTableRecord
  2
ALERTA
 70
0
 62
1
  6
Continuous
370
-3
390
13
347
21
  0
ENDTAB
  0
TABLE
  2
STYLE
  5
5
330
0
100
AcDbSymbolTable
 70
26
  0
STYLE
  5
29
330
5
100
AcDbSymbolTableRecord
100
AcDbTextStyleTableRecord
  2
Standard
 70
0
 40
0.0
 41
1.0
 50
0.0
 71
0
 42
2.5
  3
txt
  4

  0
STYLE
  5
41
330
5
100
AcDbSymbolTableRecord
100
AcDbTextStyleTableRecord
  2
OpenSans-Light
 70
0
 40
0.0
 41
1.0
 50
0.0
 71
0
 42
2.5
  3
OpenSans-Light.ttf
  4

  0
STYLE
  5
42
330
5
100
AcDbSymbolTableRecord
100
AcDbTextStyleTableRecord
  2
OpenSans-Light-Italic
 70
0
 40
0.0
 41
1.0
 50
0.0
 71
0
 42
2.5
  3
OpenSans-LightItalic.ttf
  4

  0
STYLE
  5
43
330
5
100
AcDbSymbolTableRecord
100
AcDbTextStyleTableRecord
  2
OpenSans
 70
0
 40
0.0
 41
1.0
 50
0.0
 71
0
 42
2.5
  3
OpenSans-Regular.ttf
  4

  0
STYLE
  5
44
330
5
100
AcDbSymbolTableRecord
100
AcDbTextStyleTableRecord
  2
OpenSans-Italic
 70
0
 40
0.0
 41
1.0
 50
0.0
 71
0
 42
2.5
  3
OpenSans-Italic.ttf
  4

  0
STYLE
  5
45
330
5
100
AcDbSymbolTableRecord
100
AcDbTextStyleTableRecord
  2
OpenSans-SemiBold
 70
0
 40
0.0
 41
1.0
 50
0.0
 71
0
 42
2.5
  3
OpenSans-SemiBold.ttf
  4

  0
STYLE
  5
46
330
5
100
AcDbSymbolTableRecord
100
AcDbTextStyleTableRecord
  2
OpenSans-SemiBoldItalic
 70
0
 40
0.0
 41
1.0
 50
0.0
 71
0
 42
2.5
  3
OpenSans-SemiBoldItalic.ttf
  4

  0
STYLE
  5
47
330
5
100
AcDbSymbolTableRecord
100
AcDbTextStyleTableRecord
  2
OpenSans-Bold
 70
0
 40
0.0
 41
1.0
 50
0.0
 71
0
 42
2.5
  3
OpenSans-Bold.ttf
  4

  0
STYLE
  5
48
330
5
100
AcDbSymbolTableRecord
100
AcDbTextStyleTableRecord
  2
OpenSans-BoldItalic
 70
0
 40
0.0
 41
1.0
 50
0.0
 71
0
 42
2.5
  3
OpenSans-BoldItalic.ttf
  4

  0
STYLE
  5
49
330
5
100
AcDbSymbolTableRecord
100
AcDbTextStyleTableRecord
  2
OpenSans-ExtraBold
 70
0
 40
0.0
 41
1.0
 50
0.0
 71
0
 42
2.5
  3
OpenSans-ExtraBold.ttf
  4

  0
STYLE
  5
4A
330
5
100
AcDbSymbolTableRecord
100
AcDbTextStyleTableRecord
  2
OpenSans-ExtraBoldItalic
 70
0
 40
0.0
 41
1.0
 50
0.0
 71
0
 42
2.5
  3
OpenSans-ExtraBoldItalic.ttf
  4

  0
STYLE
  5
4B
330
5
100
AcDbSymbolTableRecord
100
AcDbTextStyleTableRecord
  2
OpenSansCondensed-Bold
 70
0
 40
0.0
 41
1.0
 50
0.0
 71
0
 42
2.5
  3
OpenSansCondensed-Bold.ttf
  4

  0
STYLE
  5
4C
330
5
100
AcDbSymbolTableRecord
100
AcDbTextStyleTableRecord
  2
OpenSansCondensed-Light
 70
0
 40
0.0
 41
1.0
 50
0.0
 71
0
 42
2.5
  3
OpenSansCondensed-Light.ttf
  4

  0
STYLE
  5
4D
330
5
100
AcDbSymbolTableRecord
100
AcDbTextStyleTableRecord
  2
OpenSansCondensed-Italic
 70
0
 40
0.0
 41
1.0
 50
0.0
 71
0
 42
2.5
  3
OpenSansCondensed-LightItalic.ttf
  4

  0
STYLE
  5
4E
330
5
100
AcDbSymbolTableRecord
100
AcDbTextStyleTableRecord
  2
LiberationSans
 70
0
 40
0.0
 41
1.0
 50
0.0
 71
0
 42
2.5
  3
LiberationSans-Regular.ttf
  4

  0
STYLE
  5
4F
330
5
100
AcDbSymbolTableRecord
100
AcDbTextStyleTableRecord
  2
LiberationSans-Bold
 70
0
 40
0.0
 41
1.0
 50
0.0
 71
0
 42
2.5
  3
LiberationSans-Bold.ttf
  4

  0
STYLE
  5
50
330
5
100
AcDbSymbolTableRecord
100
AcDbTextStyleTableRecord
  2
LiberationSans-BoldItalic
 70
0
 40
0.0
 41
1.0
 50
0.0
 71
0
 42
2.5
  3
LiberationSans-BoldItalic.ttf
  4

  0
STYLE
  5
51
330
5
100
AcDbSymbolTableRecord
100
AcDbTextStyleTableRecord
  2
LiberationSans-Italic
 70
0
 40
0.0
 41
1.0
 50
0.0
 71
0
 42
2.5
  3
LiberationSans-Italic.ttf
  4

  0
STYLE
  5
52
330
5
100
AcDbSymbolTableRecord
100
AcDbTextStyleTableRecord
  2
LiberationSerif
 70
0
 40
0.0
 41
1.0
 50
0.0
 71
0
 42
2.5
  3
LiberationSerif-Regular.ttf
  4

  0
STYLE
  5
53
330
5
100
AcDbSymbolTableRecord
100
AcDbTextStyleTableRecord
  2
LiberationSerif-Bold
 70
0
 40
0.0
 41
1.0
 50
0.0
 71
0
 42
2.5
  3
LiberationSerif-Bold.ttf
  4

  0
STYLE
  5
54
330
5
100
AcDbSymbolTableRecord
100
AcDbTextStyleTableRecord
  2
LiberationSerif-BoldItalic
 70
0
 40
0.0
 41
1.0
 50
0.0
 71
0
 42
2.5
  3
LiberationSerif-BoldItalic.ttf
  4

  0
STYLE
  5
55
330
5
100
AcDbSymbolTableRecord
100
AcDbTextStyleTableRecord
  2
LiberationSerif-Italic
 70
0
 40
0.0
 41
1.0
 50
0.0
 71
0
 42
2.5
  3
LiberationSerif-Italic.ttf
  4

  0
STYLE
  5
56
330
5
100
AcDbSymbolTableRecord
100
AcDbTextStyleTableRecord
  2
LiberationMono
 70
0
 40
0.0
 41
1.0
 50
0.0
 71
0
 42
2.5
  3
LiberationMono-Regular.ttf
  4

  0
STYLE
  5
57
330
5
100
AcDbSymbolTableRecord
100
AcDbTextStyleTableRecord
  2
LiberationMono-Bold
 70
0
 40
0.0
 41
1.0
 50
0.0
 71
0
 42
2.5
  3
LiberationMono-Bold.ttf
  4

  0
STYLE
  5
58
330
5
100
AcDbSymbolTableRecord
100
AcDbTextStyleTableRecord
  2
LiberationMono-BoldItalic
 70
0
 40
0.0
 41
1.0
 50
0.0
 71
0
 42
2.5
  3
LiberationMono-BoldItalic.ttf
  4

  0
STYLE
  5
59
330
5
100
AcDbSymbolTableRecord
100
AcDbTextStyleTableRecord
  2
LiberationMono-Italic
 70
0
 40
0.0
 41
1.0
 50
0.0
 71
0
 42
2.5
  3
LiberationMono-Italic.ttf
  4

  0
ENDTAB
  0
TABLE
  2
VIEW
  5
7
330
0
100
AcDbSymbolTable
 70
0
  0
ENDTAB
  0
TABLE
  2
UCS
  5
6
330
0
100
AcDbSymbolTable
 70
0
  0
ENDTAB
  0
TABLE
  2
APPID
  5
3
330
0
100
AcDbSymbolTable
 70
3
  0
APPID
  5
2A
330
3
100
AcDbSymbolTableRecord
100
AcDbRegAppTableRecord
  2
ACAD
 70
0
  0
APPID
  5
2F9
330
3
100
AcDbSymbolTableRecord
100
AcDbRegAppTableRecord
  2
HATCHBACKGROUNDCOLOR
 70
0
  0
APPID
  5
2FA
330
3
100
AcDbSymbolTableRecord
100
AcDbRegAppTableRecord
  2
EZDXF
 70
0
  0
ENDTAB
  0
TABLE
  2
DIMSTYLE
  5
4
330
0
100
AcDbSymbolTable
 70
12
100
AcDbDimStyleTable
  0
DIMSTYLE
105
2B
330
4
100
AcDbSymbolTableRecord
100
AcDbDimStyleTableRecord
  2
Standard
 70
0
 40
1.0
 41
2.5
 42
0.625
 43
3.75
 44
1.25
 45
0.0
 46
0.0
 47
0.0
 48
0.0
 49
2.5
140
2.5
141
2.5
142
0.0
143
0.03937007874
144
1.0
145
0.0
146
1.0
147
0.625
148
0.0
 69
0
 70
0
 71
0
 72
0
 73
0
 74
0
 75
0
 76
0
 77
1
 78
8
 79
3
170
0
171
3
172
1
173
0
174
0
175
0
176
0
177
0
178
0
179
2
271
2
272
2
273
2
274
3
275
0
276
0
277
2
278
44
279
0
280
0
281
0
282
0
283
0
284
8
285
0
286
0
288
0
289
3
290
0
371
-2
372
-2
  0
DIMSTYLE
105
73
330
4
100
AcDbSymbolTableRecord
100
AcDbDimStyleTableRecord
  2
EZDXF
 70
0
 40
1.0
 41
0.175
 42
0.125
 43
3.75
 44
0.375
 45
0.0
 46
0.0
 47
0.0
 48
0.0
 49
2.5
140
0.25
141
2.5
142
0.0
143
0.03937007874
144
100.0
145
0.0
146
0.5
147
0.1
148
0.0
 69
0
 70
0
 71
0
 72
0
 73
0
 74
0
 75
0
 76
0
 77
1
 78
12
 79
3
170
0
171
3
172
1
173
0
174
0
175
0
176
0
177
0
178
0
179
2
271
2
272
2
273
2
274
3
275
0
276
0
277
2
278
46
279
2
280
0
281
0
282
0
283
0
284
8
285
0
286
0
288
1
289
3
290
0
340
4C
342
74
371
-2
372
-2
  0
DIMSTYLE
105
7C
330
4
100
AcDbSymbolTableRecord
100
AcDbDimStyleTableRecord
  2
EZ_M_100_H25_CM
 70
0
 40
1.0
 41
0.25
 42
0.125
 43
3.75
 44
0.375
 45
0.0
 46
0.0
 47
0.0
 48
0.0
 49
2.5
140
0.25
141
2.5
142
0.125
143
0.03937007874
144
100.0
145
0.0
146
0.5
147
0.1
148
0.0
 69
0
 70
0
 71
0
 72
0
 73
0
 74
0
 75
0
 76
0
 77
1
 78
12
 79
3
170
0
171
3
172
1
173
0
174
0
175
0
176
0
177
0
178
0
179
2
271
2
272
2
273
2
274
3
275
0
276
0
277
2
278
46
279
2
280
0
281
0
282
0
283
0
284
8
285
0
286
0
288
1
289
3
290
0
340
4C
371
-2
372
-2
  0
DIMSTYLE
105
7D
330
4
100
AcDbSymbolTableRecord
100
AcDbDimStyleTableRecord
  2
EZ_M_50_H25_CM
 70
0
 40
1.0
 41
0.125
 42
0.0625
 43
3.75
 44
0.1875
 45
0.0
 46
0.0
 47
0.0
 48
0.0
 49
2.5
140
0.125
141
2.5
142
0.0625
143
0.03937007874
144
100.0
145
0.0
146
0.5
147
0.05
148
0.0
 69
0
 70
0
 71
0
 72
0
 73
0
 74
0
 75
0
 76
0
 77
1
 78
12
 79
3
170
0
171
3
172
1
173
0
174
0
175
0
176
0
177
0
178
0
179
2
271
2
272
2
273
2
274
3
275
0
276
0
277
2
278
46
279
2
280
0
281
0
282
0
283
0
284
8
285
0
286
0
288
1
289
3
290
0
340
4C
371
-2
372
-2
  0
DIMSTYLE
105
7E
330
4
100
AcDbSymbolTableRecord
100
AcDbDimStyleTableRecord
  2
EZ_M_25_H25_CM
 70
0
 40
1.0
 41
0.0625
 42
0.03125
 43
3.75
 44
0.09375
 45
0.0
 46
0.0
 47
0.0
 48
0.0
 49
2.5
140
0.0625
141
2.5
142
0.03125
143
0.03937007874
144
100.0
145
0.0
146
0.5
147
0.025
148
0.0
 69
0
 70
0
 71
0
 72
0
 73
0
 74
0
 75
0
 76
0
 77
1
 78
12
 79
3
170
0
171
3
172
1
173
0
174
0
175
0
176
0
177
0
178
0
179
2
271
2
272
2
273
2
274
3
275
0
276
0
277
2
278
46
279
2
280
0
281
0
282
0
283
0
284
8
285
0
286
0
288
1
289
3
290
0
340
4C
371
-2
372
-2
  0
DIMSTYLE
105
7F
330
4
100
AcDbSymbolTableRecord
100
AcDbDimStyleTableRecord
  2
EZ_M_20_H25_CM
 70
0
 40
1.0
 41
0.05
 42
0.025
 43
3.75
 44
0.07500000000000001
 45
0.0
 46
0.0
 47
0.0
 48
0.0
 49
2.5
140
0.05
141
2.5
142
0.025
143
0.03937007874
144
100.0
145
0.0
146
0.5
147
0.020000000000000004
148
0.0
 69
0
 70
0
 71
0
 72
0
 73
0
 74
0
 75
0
 76
0
 77
1
 78
12
 79
3
170
0
171
3
172
1
173
0
174
0
175
0
176
0
177
0
178
0
179
2
271
2
272
2
273
2
274
3
275
0
276
0
277
2
278
46
279
2
280
0
281
0
282
0
283
0
284
8
285
0
286
0
288
1
289
3
290
0
340
4C
371
-2
372
-2
  0
DIMSTYLE
105
80
330
4
100
AcDbSymbolTableRecord
100
AcDbDimStyleTableRecord
  2
EZ_M_10_H25_CM
 70
0
 40
1.0
 41
0.025
 42
0.0125
 43
3.75
 44
0.037500000000000006
 45
0.0
 46
0.0
 47
0.0
 48
0.0
 49
2.5
140
0.025
141
2.5
142
0.0125
143
0.03937007874
144
100.0
145
0.0
146
0.5
147
0.010000000000000002
148
0.0
 69
0
 70
0
 71
0
 72
0
 73
0
 74
0
 75
0
 76
0
 77
1
 78
12
 79
3
170
0
171
3
172
1
173
0
174
0
175
0
176
0
177
0
178
0
179
2
271
2
272
2
273
2
274
3
275
0
276
0
277
2
278
46
279
2
280
0
281
0
282
0
283
0
284
8
285
0
286
0
288
1
289
3
290
0
340
4C
371
-2
372
-2
  0
DIMSTYLE
105
81
330
4
100
AcDbSymbolTableRecord
100
AcDbDimStyleTableRecord
  2
EZ_M_5_H25_CM
 70
0
 40
1.0
 41
0.0125
 42
0.00625
 43
3.75
 44
0.018750000000000003
 45
0.0
 46
0.0
 47
0.0
 48
0.0
 49
2.5
140
0.0125
141
2.5
142
0.00625
143
0.03937007874
144
100.0
145
0.0
146
0.5
147
0.005000000000000001
148
0.0
 69
0
 70
0
 71
0
 72
0
 73
0
 74
0
 75
0
 76
0
 77
1
 78
12
 79
3
170
0
171
3
172
1
173
0
174
0
175
0
176
0
177
0
178
0
179
2
271
2
272
2
273
2
274
3
275
0
276
0
277
2
278
46
279
2
280
0
281
0
282
0
283
0
284
8
285
0
286
0
288
1
289
3
290
0
340
4C
371
-2
372
-2
  0
DIMSTYLE
105
82
330
4
100
AcDbSymbolTableRecord
100
AcDbDimStyleTableRecord
  2
EZ_M_1_H25_CM
 70
0
 40
1.0
 41
0.0025
 42
0.00125
 43
3.75
 44
0.00375
 45
0.0
 46
0.0
 47
0.0
 48
0.0
 49
2.5
140
0.0025
141
2.5
142
0.00125
143
0.03937007874
144
100.0
145
0.0
146
0.5
147
0.001
148
0.0
 69
0
 70
0
 71
0
 72
0
 73
0
 74
0
 75
0
 76
0
 77
1
 78
12
 79
3
170
0
171
3
172
1
173
0
174
0
175
0
176
0
177
0
178
0
179
2
271
2
272
2
273
2
274
3
275
0
276
0
277
2
278
46
279
2
280
0
281
0
282
0
283
0
284
8
285
0
286
0
288
1
289
3
290
0
340
4C
371
-2
372
-2
  0
DIMSTYLE
105
83
330
4
100
AcDbSymbolTableRecord
100
AcDbDimStyleTableRecord
  2
EZ_RADIUS
 70
0
 40
1.0
 41
0.25
 42
0.125
 43
3.75
 44
0.375
 45
0.0
 46
0.0
 47
0.0
 48
0.0
 49
2.5
140
0.25
141
0.0
142
0.0
143
0.03937007874
144
100.0
145
0.0
146
0.5
147
0.1
148
0.0
 69
0
 70
0
 71
0
 72
0
 73
0
 74
0
 75
0
 76
0
 77
1
 78
12
 79
3
170
0
171
3
172
0
173
0
174
0
175
0
176
0
177
0
178
0
179
2
271
2
272
2
273
2
274
3
275
0
276
0
277
2
278
46
279
1
280
0
281
0
282
0
283
0
284
8
285
0
286
0
288
1
289
3
290
0
340
4C
342
84
371
-2
372
-2
  0
DIMSTYLE
105
88
330
4
100
AcDbSymbolTableRecord
100
AcDbDimStyleTableRecord
  2
EZ_RADIUS_INSIDE
 70
0
 40
1.0
 41
0.25
 42
0.125
 43
3.75
 44
0.375
 45
0.0
 46
0.0
 47
0.0
 48
0.0
 49
2.5
140
0.25
141
0.0
142
0.0
143
0.03937007874
144
100.0
145
0.0
146
0.5
147
0.1
148
0.0
 69
0
 70
0
 71
0
 72
0
 73
0
 74
0
 75
0
 76
0
 77
0
 78
12
 79
3
170
0
171
3
172
0
173
0
174
1
175
0
176
0
177
0
178
0
179
2
271
2
272
2
273
2
274
3
275
0
276
0
277
2
278
46
279
0
280
0
281
0
282
0
283
0
284
8
285
0
286
0
288
1
289
0
290
0
340
4C
342
84
371
-2
372
-2
  0
DIMSTYLE
105
89
330
4
100
AcDbSymbolTableRecord
100
AcDbDimStyleTableRecord
  2
EZ_CURVED
 70
0
 40
1.0
 41
0.25
 42
0.125
 43
3.75
 44
0.375
 45
0.0
 46
0.0
 47
0.0
 48
0.0
 49
2.5
140
0.25
141
2.5
142
0.0
143
0.03937007874
144
100.0
145
0.0
146
0.5
147
0.1
148
0.0
 69
0
 70
0
 71
0
 72
0
 73
0
 74
0
 75
0
 76
0
 77
1
 78
12
 79
2
 90
2
170
0
171
3
172
1
173
0
174
0
175
0
176
0
177
0
178
0
179
2
271
2
272
2
273
2
274
3
275
0
276
0
277
2
278
46
279
2
280
0
281
0
282
0
283
0
284
8
285
0
286
0
288
1
289
3
290
0
340
4C
371
-2
372
-2
  0
ENDTAB
  0
TABLE
  2
BLOCK_RECORD
  5
9
330
0
100
AcDbSymbolTable
 70
5
  0
BLOCK_RECORD
  5
17
330
9
100
AcDbSymbolTableRecord
100
AcDbBlockTableRecord
  2
*Model_Space
340
1A
 70
0
280
1
281
0
  0
BLOCK_RECORD
  5
74
330
9
100
AcDbSymbolTableRecord
100
AcDbBlockTableRecord
  2
_ARCHTICK
340
0
 70
0
280
1
281
0
  0
BLOCK_RECORD
  5
78
330
9
100
AcDbSymbolTableRecord
100
AcDbBlockTableRecord
  2
_CLOSEDFILLED
340
0
 70
0
280
1
281
0
  0
BLOCK_RECORD
  5
84
330
9
100
AcDbSymbolTableRecord
100
AcDbBlockTableRecord
  2
_CLOSEDBLANK
340
0
 70
0
280
1
281
0
  0
BLOCK_RECORD
  5
2F3
330
9
100
AcDbSymbolTableRecord
100
AcDbBlockTableRecord
  2
*Paper_Space
340
2F6
 70
0
280
1
281
0
  0
ENDTAB
  0
ENDSEC
  0
SECTION
  2
BLOCKS
  0
BLOCK
  5
18
330
17
100
AcDbEntity
  8
0
100
AcDbBlockBegin
  2
*Model_Space
 70
0
 10
0.0
 20
0.0
 30
0.0
  3
*Model_Space
  1

  0
ENDBLK
  5
19
330
17
100
AcDbEntity
  8
0
100
AcDbBlockEnd
  0
BLOCK
  5
75
330
74
100
AcDbEntity
  8
0
100
AcDbBlockBegin
  2
_ARCHTICK
 70
0
 10
0.0
 20
0.0
 30
0.0
  3
_ARCHTICK
  1

  0
LWPOLYLINE
  5
77
330
74
100
AcDbEntity
  8
0
  6
BYBLOCK
 62
0
100
AcDbPolyline
 90
2
 70
0
 43
0.15
 10
-0.5
 20
-0.5
 10
0.5
 20
0.5
  0
ENDBLK
  5
76
330
74
100
AcDbEntity
  8
0
100
AcDbBlockEnd
  0
BLOCK
  5
79
330
78
100
AcDbEntity
  8
0
100
AcDbBlockBegin
  2
_CLOSEDFILLED
 70
0
 10
0.0
 20
0.0
 30
0.0
  3
_CLOSEDFILLED
  1

  0
SOLID
  5
7B
330
78
100
AcDbEntity
  8
0
  6
BYBLOCK
 62
0
100
AcDbTrace
 10
-1.0
 20
0.16439898372402537
 30
0.0
 11
0.0
 21
0.0
 31
0.0
 12
-1.0
 22
-0.16439898372402537
 32
0.0
 13
-1.0
 23
-0.16439898372402537
 33
0.0
  0
ENDBLK
  5
7A
330
78
100
AcDbEntity
  8
0
100
AcDbBlockEnd
  0
BLOCK
  5
85
330
84
100
AcDbEntity
  8
0
100
AcDbBlockBegin
  2
_CLOSEDBLANK
 70
0
 10
0.0
 20
0.0
 30
0.0
  3
_CLOSEDBLANK
  1

  0
LWPOLYLINE
  5
87
330
84
100
AcDbEntity
  8
0
  6
BYBLOCK
 62
0
100
AcDbPolyline
 90
3
 70
1
 10
-1.0
 20
0.16439898372402537
 10
0.0
 20
0.0
 10
-1.0
 20
-0.16439898372402537
  0
ENDBLK
  5
86
330
84
100
AcDbEntity
  8
0
100
AcDbBlockEnd
  0
BLOCK
  5
2F4
330
2F3
100
AcDbEntity
  8
0
100
AcDbBlockBegin
  2
*Paper_Space
 70
0
 10
0.0
 20
0.0
 30
0.0
  3
*Paper_Space
  1

  0
ENDBLK
  5
2F5
330
2F3
100
AcDbEntity
  8
0
100
AcDbBlockEnd
  0
ENDSEC
  0
SECTION
  2
ENTITIES
  0
LWPOLYLINE
  5
9B
330
17
100
AcDbEntity
  8
MARCO
 62
7
370
35
100
AcDbPolyline
 90
4
 70
1
 10
7.0
 20
7.0
 10
700.0
 20
7.0
 10
700.0
 20
493.0
 10
7.0
 20
493.0
  0
LINE
  5
9C
330
17
100
AcDbEntity
  8
MARCO
 62
7
370
35
100
AcDbLine
 10
597.0
 20
7.0
 30
0.0
 11
597.0
 21
493.0
 31
0.0
  0
LWPOLYLINE
  5
9D
330
17
100
AcDbEntity
  8
MARCO
 62
7
370
35
100
AcDbPolyline
 90
4
 70
1
 10
597.0
 20
7.0
 10
700.0
 20
7.0
 10
700.0
 20
493.0
 10
597.0
 20
493.0
  0
LINE
  5
9E
330
17
100
AcDbEntity
  8
ROTULO
 62
7
370
18
100
AcDbLine
 10
597.0
 20
433.0
 30
0.0
 11
700.0
 21
433.0
 31
0.0
  0
LINE
  5
9F
330
17
100
AcDbEntity
  8
ROTULO
 62
7
370
18
100
AcDbLine
 10
597.0
 20
381.0
 30
0.0
 11
700.0
 21
381.0
 31
0.0
  0
LINE
  5
A0
330
17
100
AcDbEntity
  8
ROTULO
 62
7
370
18
100
AcDbLine
 10
597.0
 20
309.0
 30
0.0
 11
700.0
 21
309.0
 31
0.0
  0
LINE
  5
A1
330
17
100
AcDbEntity
  8
ROTULO
 62
7
370
18
100
AcDbLine
 10
597.0
 20
193.0
 30
0.0
 11
700.0
 21
193.0
 31
0.0
  0
LINE
  5
A2
330
17
100
AcDbEntity
  8
ROTULO
 62
7
370
18
100
AcDbLine
 10
597.0
 20
85.0
 30
0.0
 11
700.0
 21
85.0
 31
0.0
  0
LWPOLYLINE
  5
A3
330
17
100
AcDbEntity
  8
ROTULO
 62
7
370
25
100
AcDbPolyline
 90
5
 70
1
 10
635.0
 20
488.0
 10
662.0
 20
488.0
 10
659.0
 20
467.0
 10
648.5
 20
460.0
 10
638.0
 20
467.0
  0
LINE
  5
A4
330
17
100
AcDbEntity
  8
ROTULO
 62
7
370
18
100
AcDbLine
 10
638.0
 20
481.0
 30
0.0
 11
659.0
 21
481.0
 31
0.0
  0
LINE
  5
A5
330
17
100
AcDbEntity
  8
ROTULO
 62
7
370
18
100
AcDbLine
 10
648.5
 20
486.0
 30
0.0
 11
648.5
 21
463.0
 31
0.0
  0
TEXT
  5
A6
330
17
100
AcDbEntity
  8
ROTULO
 62
7
100
AcDbText
 10
648.5
 20
469.0
 30
0.0
 40
4.5
  1
UN
 72
1
 11
648.5
 21
469.0
 31
0.0
100
AcDbText
 73
2
  0
TEXT
  5
A7
330
17
100
AcDbEntity
  8
ROTULO
 62
7
100
AcDbText
 10
648.5
 20
445.0
 30
0.0
 40
2.5
  1
UNIVERSIDAD NACIONAL DE COLOMBIA
 72
1
 11
648.5
 21
445.0
 31
0.0
100
AcDbText
 73
2
  0
TEXT
  5
A8
330
17
100
AcDbEntity
  8
ROTULO
 62
7
100
AcDbText
 10
648.5
 20
419.0
 30
0.0
 40
2.7
  1
FACULTAD DE INGENIERIA
 72
1
 11
648.5
 21
419.0
 31
0.0
100
AcDbText
 73
2
  0
TEXT
  5
A9
330
17
100
AcDbEntity
  8
ROTULO
 62
7
100
AcDbText
 10
648.5
 20
405.0
 30
0.0
 40
2.7
  1
DISEÑO ESTRUCTURAL - GRUPO 6
 72
1
 11
648.5
 21
405.0
 31
0.0
100
AcDbText
 73
2
  0
TEXT
  5
AA
330
17
100
AcDbEntity
  8
ROTULO
 62
7
100
AcDbText
 10
648.5
 20
365.0
 30
0.0
 40
3.2
  1
EDIFICIO RESIDENCIAL
 72
1
 11
648.5
 21
365.0
 31
0.0
100
AcDbText
 73
2
  0
TEXT
  5
AB
330
17
100
AcDbEntity
  8
ROTULO
 62
7
100
AcDbText
 10
648.5
 20
350.0
 30
0.0
 40
3.0
  1
SANTA MARTA
 72
1
 11
648.5
 21
350.0
 31
0.0
100
AcDbText
 73
2
  0
TEXT
  5
AC
330
17
100
AcDbEntity
  8
ROTULO
 62
7
100
AcDbText
 10
648.5
 20
278.0
 30
0.0
 40
4.0
  1
VIGAS DE RIGIDEZ
 72
1
 11
648.5
 21
278.0
 31
0.0
100
AcDbText
 73
2
  0
TEXT
  5
AD
330
17
100
AcDbEntity
  8
ROTULO
 62
7
100
AcDbText
 10
648.5
 20
251.0
 30
0.0
 40
2.7
  1
ELEVACIONES, CORTES Y
 72
1
 11
648.5
 21
251.0
 31
0.0
100
AcDbText
 73
2
  0
TEXT
  5
AE
330
17
100
AcDbEntity
  8
ROTULO
 62
7
100
AcDbText
 10
648.5
 20
239.0
 30
0.0
 40
2.7
  1
LONGITUDES DE ANCLAJE
 72
1
 11
648.5
 21
239.0
 31
0.0
100
AcDbText
 73
2
  0
TEXT
  5
AF
330
17
100
AcDbEntity
  8
ALERTA
 62
1
100
AcDbText
 10
648.5
 20
123.0
 30
0.0
 40
2.8
  1
NO EMITIR PARA CONSTRUCCION
 72
1
 11
648.5
 21
123.0
 31
0.0
100
AcDbText
 73
2
  0
TEXT
  5
B0
330
17
100
AcDbEntity
  8
ALERTA
 62
1
100
AcDbText
 10
648.5
 20
109.0
 30
0.0
 40
2.6
  1
DETALLE ACADEMICO
 72
1
 11
648.5
 21
109.0
 31
0.0
100
AcDbText
 73
2
  0
TEXT
  5
B1
330
17
100
AcDbEntity
  8
ROTULO
 62
7
100
AcDbText
 10
602.0
 20
68.0
 30
0.0
 40
2.4
  1
Formato: ISO B2 horizontal
 11
602.0
 21
68.0
 31
0.0
100
AcDbText
  0
TEXT
  5
B2
330
17
100
AcDbEntity
  8
ROTULO
 62
7
100
AcDbText
 10
602.0
 20
56.0
 30
0.0
 40
2.4
  1
Tamaño: 707 x 500 mm
 11
602.0
 21
56.0
 31
0.0
100
AcDbText
  0
TEXT
  5
B3
330
17
100
AcDbEntity
  8
ROTULO
 62
7
100
AcDbText
 10
602.0
 20
44.0
 30
0.0
 40
2.4
  1
Unidades de lámina: mm
 11
602.0
 21
44.0
 31
0.0
100
AcDbText
  0
TEXT
  5
B4
330
17
100
AcDbEntity
  8
ROTULO
 62
7
100
AcDbText
 10
602.0
 20
29.0
 30
0.0
 40
2.4
  1
Fecha: 18-07-2026
 11
602.0
 21
29.0
 31
0.0
100
AcDbText
  0
TEXT
  5
B5
330
17
100
AcDbEntity
  8
ROTULO
 62
7
100
AcDbText
 10
602.0
 20
16.0
 30
0.0
 40
3.0
  1
Lamina: V-02
 11
602.0
 21
16.0
 31
0.0
100
AcDbText
  0
LWPOLYLINE
  5
B6
330
17
100
AcDbEntity
  8
GUIA
 62
9
370
9
100
AcDbPolyline
 90
4
 70
1
 10
10.0
 20
341.33333333333337
 10
300.0
 20
341.33333333333337
 10
300.0
 20
490.0
 10
10.0
 20
490.0
  0
TEXT
  5
B7
330
17
100
AcDbEntity
  8
TITULO
 62
6
100
AcDbText
 10
155.0
 20
486.0
 30
0.0
 40
2.45
  1
VIGA VR1 - 500x550 mm
 72
1
 11
155.0
 21
486.0
 31
0.0
100
AcDbText
 73
2
  0
LWPOLYLINE
  5
B8
330
17
100
AcDbEntity
  8
APOYOS
 62
4
370
18
100
AcDbPolyline
 90
4
 70
1
 10
36.4
 20
455.8
 10
45.599999999999994
 20
455.8
 10
45.599999999999994
 20
477.2
 10
36.4
 20
477.2
  0
LWPOLYLINE
  5
B9
330
17
100
AcDbEntity
  8
APOYOS
 62
4
370
18
100
AcDbPolyline
 90
4
 70
1
 10
284.4
 20
455.8
 10
293.59999999999997
 20
455.8
 10
293.59999999999997
 20
477.2
 10
284.4
 20
477.2
  0
LINE
  5
BA
330
17
100
AcDbEntity
  8
EJES
 62
8
370
9
100
AcDbLine
 10
41.0
 20
454.0
 30
0.0
 11
41.0
 21
481.0
 31
0.0
  0
LINE
  5
BB
330
17
100
AcDbEntity
  8
EJES
 62
8
370
9
100
AcDbLine
 10
289.0
 20
454.0
 30
0.0
 11
289.0
 21
481.0
 31
0.0
  0
LWPOLYLINE
  5
BC
330
17
100
AcDbEntity
  8
CONTORNO
 62
7
370
18
100
AcDbPolyline
 90
4
 70
1
 10
45.6
 20
460.0
 10
284.4
 20
460.0
 10
284.4
 20
473.0
 10
45.6
 20
473.0
  0
TEXT
  5
BD
330
17
100
AcDbEntity
  8
EJES
 62
8
100
AcDbText
 10
41.0
 20
478.2
 30
0.0
 40
1.6
  1
I
 72
1
 11
41.0
 21
478.2
 31
0.0
100
AcDbText
 73
2
  0
TEXT
  5
BE
330
17
100
AcDbEntity
  8
EJES
 62
8
100
AcDbText
 10
289.0
 20
478.2
 30
0.0
 40
1.6
  1
J
 72
1
 11
289.0
 21
478.2
 31
0.0
100
AcDbText
 73
2
  0
LWPOLYLINE
  5
BF
330
17
100
AcDbEntity
  8
M1_SUP_CONT
 62
5
370
35
100
AcDbPolyline
 90
4
 70
0
 10
39.8
 20
466.6
 10
39.8
 20
471.0
 10
290.2
 20
471.0
 10
290.2
 20
466.6
  0
LWPOLYLINE
  5
C0
330
17
100
AcDbEntity
  8
M2_SUP_IZQ
 62
2
370
35
100
AcDbPolyline
 90
3
 70
0
 10
37.8
 20
463.6
 10
37.8
 20
468.0
 10
105.3
 20
468.0
  0
LWPOLYLINE
  5
C1
330
17
100
AcDbEntity
  8
M3_SUP_DER
 62
2
370
35
100
AcDbPolyline
 90
3
 70
0
 10
224.7
 20
465.2
 10
292.2
 20
465.2
 10
292.2
 20
460.8
  0
LWPOLYLINE
  5
C2
330
17
100
AcDbEntity
  8
M4_INF_CONT
 62
1
370
35
100
AcDbPolyline
 90
4
 70
0
 10
42.2
 20
466.5
 10
42.2
 20
462.1
 10
287.8
 20
462.1
 10
287.8
 20
466.5
  0
LINE
  5
C3
330
17
100
AcDbEntity
  8
CORTE
 62
7
370
9
100
AcDbLine
 10
69.48
 20
458.0
 30
0.0
 11
69.48
 21
475.0
 31
0.0
  0
TEXT
  5
C4
330
17
100
AcDbEntity
  8
CORTE
 62
7
100
AcDbText
 10
69.48
 20
475.6
 30
0.0
 40
1.35
  1
A
 72
1
 11
69.48
 21
475.6
 31
0.0
100
AcDbText
 73
2
  0
LINE
  5
C5
330
17
100
AcDbEntity
  8
CORTE
 62
7
370
9
100
AcDbLine
 10
165.0
 20
458.0
 30
0.0
 11
165.0
 21
475.0
 31
0.0
  0
TEXT
  5
C6
330
17
100
AcDbEntity
  8
CORTE
 62
7
100
AcDbText
 10
165.0
 20
475.6
 30
0.0
 40
1.35
  1
B
 72
1
 11
165.0
 21
475.6
 31
0.0
100
AcDbText
 73
2
  0
LINE
  5
C7
330
17
100
AcDbEntity
  8
CORTE
 62
7
370
9
100
AcDbLine
 10
260.52
 20
458.0
 30
0.0
 11
260.52
 21
475.0
 31
0.0
  0
TEXT
  5
C8
330
17
100
AcDbEntity
  8
CORTE
 62
7
100
AcDbText
 10
260.52
 20
475.6
 30
0.0
 40
1.35
  1
C
 72
1
 11
260.52
 21
475.6
 31
0.0
100
AcDbText
 73
2
  0
LINE
  5
C9
330
17
100
AcDbEntity
  8
COTAS
 62
3
370
15
100
AcDbLine
 10
41.0
 20
453.0
 30
0.0
 11
289.0
 21
453.0
 31
0.0
  0
LINE
  5
CA
330
17
100
AcDbEntity
  8
COTAS
 62
3
370
15
100
AcDbLine
 10
41.0
 20
451.8
 30
0.0
 11
41.0
 21
454.2
 31
0.0
  0
LINE
  5
CB
330
17
100
AcDbEntity
  8
COTAS
 62
3
370
15
100
AcDbLine
 10
289.0
 20
451.8
 30
0.0
 11
289.0
 21
454.2
 31
0.0
  0
TEXT
  5
CC
330
17
100
AcDbEntity
  8
COTAS
 62
3
100
AcDbText
 10
165.0
 20
454.3
 30
0.0
 40
1.6
  1
L SAP I-J = 2.500-4.000 m
 72
1
 11
165.0
 21
454.3
 31
0.0
100
AcDbText
 73
2
  0
TEXT
  5
CD
330
17
100
AcDbEntity
  8
TEXTO
 62
7
100
AcDbText
 10
165.0
 20
450.0
 30
0.0
 40
1.45
  1
Ln = 1.900-3.400 m
 72
1
 11
165.0
 21
450.0
 31
0.0
100
AcDbText
 73
2
  0
TEXT
  5
CE
330
17
100
AcDbEntity
  8
TEXTO
 62
5
100
AcDbText
 10
16.0
 20
446.0
 30
0.0
 40
1.45
  1
M1
 11
16.0
 21
446.0
 31
0.0
100
AcDbText
  0
TEXT
  5
CF
330
17
100
AcDbEntity
  8
TEXTO
 62
5
100
AcDbText
 10
32.0
 20
446.0
 30
0.0
 40
1.42
  1
2#5 SUP CONT | Lc=2510-4010 mm
 11
32.0
 21
446.0
 31
0.0
100
AcDbText
  0
TEXT
  5
D0
330
17
100
AcDbEntity
  8
TEXTO
 62
2
100
AcDbText
 10
16.0
 20
442.8
 30
0.0
 40
1.45
  1
M2/M3
 11
16.0
 21
442.8
 31
0.0
100
AcDbText
  0
TEXT
  5
D1
330
17
100
AcDbEntity
  8
TEXTO
 62
2
100
AcDbText
 10
32.0
 20
442.8
 30
0.0
 40
1.42
  1
4#5 SUP/APOYO | Lc=780-1155 mm
 11
32.0
 21
442.8
 31
0.0
100
AcDbText
  0
TEXT
  5
D2
330
17
100
AcDbEntity
  8
TEXTO
 62
1
100
AcDbText
 10
16.0
 20
439.6
 30
0.0
 40
1.45
  1
M4
 11
16.0
 21
439.6
 31
0.0
100
AcDbText
  0
TEXT
  5
D3
330
17
100
AcDbEntity
  8
TEXTO
 62
1
100
AcDbText
 10
32.0
 20
439.6
 30
0.0
 40
1.42
  1
5#5 INF CONT | Lc=2510-4010 mm
 11
32.0
 21
439.6
 31
0.0
100
AcDbText
  0
TEXT
  5
D4
330
17
100
AcDbEntity
  8
TEXTO
 62
30
100
AcDbText
 10
16.0
 20
436.4
 30
0.0
 40
1.45
  1
M5
 11
16.0
 21
436.4
 31
0.0
100
AcDbText
  0
TEXT
  5
D5
330
17
100
AcDbEntity
  8
TEXTO
 62
30
100
AcDbText
 10
32.0
 20
436.4
 30
0.0
 40
1.42
  1
0#5 TOR DEDIC. | Lc=2510-4010 mm
 11
32.0
 21
436.4
 31
0.0
100
AcDbText
  0
TEXT
  5
D6
330
17
100
AcDbEntity
  8
TEXTO
 62
7
100
AcDbText
 10
16.0
 20
432.4
 30
0.0
 40
1.35
  1
#5: ld sup=480; ld inf=370; ldh=305; 90°: cola=195, Dint>=100 mm
 11
16.0
 21
432.4
 31
0.0
100
AcDbText
  0
TEXT
  5
D7
330
17
100
AcDbEntity
  8
TEXTO
 62
7
100
AcDbText
 10
16.0
 20
429.4
 30
0.0
 40
1.35
  1
E1 Nº3 4R: 1ro<=50; @90 en 2h; @90 centro; 135° cola=75, Dint>=60
 11
16.0
 21
429.4
 31
0.0
100
AcDbText
  0
LWPOLYLINE
  5
D8
330
17
100
AcDbEntity
  8
CORTE
 62
7
370
20
100
AcDbPolyline
 90
4
 70
1
 10
82.73636363636363
 20
344.33333333333337
 10
105.46363636363637
 20
344.33333333333337
 10
105.46363636363637
 20
369.33333333333337
 10
82.73636363636363
 20
369.33333333333337
  0
LWPOLYLINE
  5
D9
330
17
100
AcDbEntity
  8
ESTRIBOS
 62
7
370
18
100
AcDbPolyline
 90
4
 70
1
 10
84.93636363636364
 20
346.53333333333336
 10
103.26363636363637
 20
346.53333333333336
 10
103.26363636363637
 20
367.1333333333334
 10
84.93636363636364
 20
367.1333333333334
  0
LINE
  5
DA
330
17
100
AcDbEntity
  8
ESTRIBOS
 62
7
370
15
100
AcDbLine
 10
90.31212121212121
 20
346.53333333333336
 30
0.0
 11
90.31212121212121
 21
367.1333333333334
 31
0.0
  0
LINE
  5
DB
330
17
100
AcDbEntity
  8
ESTRIBOS
 62
7
370
15
100
AcDbLine
 10
97.88787878787879
 20
346.53333333333336
 30
0.0
 11
97.88787878787879
 21
367.1333333333334
 31
0.0
  0
CIRCLE
  5
DC
330
17
100
AcDbEntity
  8
M1_SUP_CONT
 62
5
100
AcDbCircle
 10
89.45227272727273
 20
366.5765151515152
 30
0.0
 40
0.72
  0
CIRCLE
  5
DD
330
17
100
AcDbEntity
  8
M1_SUP_CONT
 62
5
100
AcDbCircle
 10
91.31136363636364
 20
366.5765151515152
 30
0.0
 40
0.72
  0
CIRCLE
  5
DE
330
17
100
AcDbEntity
  8
M1_SUP_CONT
 62
5
100
AcDbCircle
 10
93.17045454545455
 20
366.5765151515152
 30
0.0
 40
0.72
  0
CIRCLE
  5
DF
330
17
100
AcDbEntity
  8
M1_SUP_CONT
 62
5
100
AcDbCircle
 10
95.02954545454546
 20
366.5765151515152
 30
0.0
 40
0.72
  0
CIRCLE
  5
E0
330
17
100
AcDbEntity
  8
M1_SUP_CONT
 62
5
100
AcDbCircle
 10
96.88863636363637
 20
366.5765151515152
 30
0.0
 40
0.72
  0
CIRCLE
  5
E1
330
17
100
AcDbEntity
  8
M1_SUP_CONT
 62
5
100
AcDbCircle
 10
98.74772727272727
 20
366.5765151515152
 30
0.0
 40
0.72
  0
CIRCLE
  5
E2
330
17
100
AcDbEntity
  8
M4_INF_CONT
 62
1
100
AcDbCircle
 10
90.38181818181818
 20
347.09015151515155
 30
0.0
 40
0.72
  0
CIRCLE
  5
E3
330
17
100
AcDbEntity
  8
M4_INF_CONT
 62
1
100
AcDbCircle
 10
92.24090909090908
 20
347.09015151515155
 30
0.0
 40
0.72
  0
CIRCLE
  5
E4
330
17
100
AcDbEntity
  8
M4_INF_CONT
 62
1
100
AcDbCircle
 10
94.1
 20
347.09015151515155
 30
0.0
 40
0.72
  0
CIRCLE
  5
E5
330
17
100
AcDbEntity
  8
M4_INF_CONT
 62
1
100
AcDbCircle
 10
95.9590909090909
 20
347.09015151515155
 30
0.0
 40
0.72
  0
CIRCLE
  5
E6
330
17
100
AcDbEntity
  8
M4_INF_CONT
 62
1
100
AcDbCircle
 10
97.81818181818181
 20
347.09015151515155
 30
0.0
 40
0.72
  0
TEXT
  5
E7
330
17
100
AcDbEntity
  8
TEXTO
 62
7
100
AcDbText
 10
94.1
 20
341.03333333333336
 30
0.0
 40
1.65
  1
A-A APOYO I
 72
1
 11
94.1
 21
341.03333333333336
 31
0.0
100
AcDbText
 73
2
  0
TEXT
  5
E8
330
17
100
AcDbEntity
  8
TEXTO
 62
7
100
AcDbText
 10
94.1
 20
338.33333333333337
 30
0.0
 40
1.45
  1
500x550
 72
1
 11
94.1
 21
338.33333333333337
 31
0.0
100
AcDbText
 73
2
  0
LWPOLYLINE
  5
E9
330
17
100
AcDbEntity
  8
CORTE
 62
7
370
20
100
AcDbPolyline
 90
4
 70
1
 10
149.43636363636364
 20
344.33333333333337
 10
172.16363636363636
 20
344.33333333333337
 10
172.16363636363636
 20
369.33333333333337
 10
149.43636363636364
 20
369.33333333333337
  0
LWPOLYLINE
  5
EA
330
17
100
AcDbEntity
  8
ESTRIBOS
 62
7
370
18
100
AcDbPolyline
 90
4
 70
1
 10
151.63636363636363
 20
346.53333333333336
 10
169.96363636363634
 20
346.53333333333336
 10
169.96363636363634
 20
367.1333333333334
 10
151.63636363636363
 20
367.1333333333334
  0
LINE
  5
EB
330
17
100
AcDbEntity
  8
ESTRIBOS
 62
7
370
15
100
AcDbLine
 10
157.0121212121212
 20
346.53333333333336
 30
0.0
 11
157.0121212121212
 21
367.1333333333334
 31
0.0
  0
LINE
  5
EC
330
17
100
AcDbEntity
  8
ESTRIBOS
 62
7
370
15
100
AcDbLine
 10
164.5878787878788
 20
346.53333333333336
 30
0.0
 11
164.5878787878788
 21
367.1333333333334
 31
0.0
  0
CIRCLE
  5
ED
330
17
100
AcDbEntity
  8
M1_SUP_CONT
 62
5
100
AcDbCircle
 10
159.87045454545455
 20
366.5765151515152
 30
0.0
 40
0.72
  0
CIRCLE
  5
EE
330
17
100
AcDbEntity
  8
M1_SUP_CONT
 62
5
100
AcDbCircle
 10
161.72954545454544
 20
366.5765151515152
 30
0.0
 40
0.72
  0
CIRCLE
  5
EF
330
17
100
AcDbEntity
  8
M4_INF_CONT
 62
1
100
AcDbCircle
 10
157.0818181818182
 20
347.09015151515155
 30
0.0
 40
0.72
  0
CIRCLE
  5
F0
330
17
100
AcDbEntity
  8
M4_INF_CONT
 62
1
100
AcDbCircle
 10
158.9409090909091
 20
347.09015151515155
 30
0.0
 40
0.72
  0
CIRCLE
  5
F1
330
17
100
AcDbEntity
  8
M4_INF_CONT
 62
1
100
AcDbCircle
 10
160.8
 20
347.09015151515155
 30
0.0
 40
0.72
  0
CIRCLE
  5
F2
330
17
100
AcDbEntity
  8
M4_INF_CONT
 62
1
100
AcDbCircle
 10
162.6590909090909
 20
347.09015151515155
 30
0.0
 40
0.72
  0
CIRCLE
  5
F3
330
17
100
AcDbEntity
  8
M4_INF_CONT
 62
1
100
AcDbCircle
 10
164.5181818181818
 20
347.09015151515155
 30
0.0
 40
0.72
  0
TEXT
  5
F4
330
17
100
AcDbEntity
  8
TEXTO
 62
7
100
AcDbText
 10
160.8
 20
341.03333333333336
 30
0.0
 40
1.65
  1
B-B CENTRO
 72
1
 11
160.8
 21
341.03333333333336
 31
0.0
100
AcDbText
 73
2
  0
TEXT
  5
F5
330
17
100
AcDbEntity
  8
TEXTO
 62
7
100
AcDbText
 10
160.8
 20
338.33333333333337
 30
0.0
 40
1.45
  1
500x550
 72
1
 11
160.8
 21
338.33333333333337
 31
0.0
100
AcDbText
 73
2
  0
LWPOLYLINE
  5
F6
330
17
100
AcDbEntity
  8
CORTE
 62
7
370
20
100
AcDbPolyline
 90
4
 70
1
 10
216.13636363636363
 20
344.33333333333337
 10
238.86363636363635
 20
344.33333333333337
 10
238.86363636363635
 20
369.33333333333337
 10
216.13636363636363
 20
369.33333333333337
  0
LWPOLYLINE
  5
F7
330
17
100
AcDbEntity
  8
ESTRIBOS
 62
7
370
18
100
AcDbPolyline
 90
4
 70
1
 10
218.33636363636361
 20
346.53333333333336
 10
236.66363636363633
 20
346.53333333333336
 10
236.66363636363633
 20
367.1333333333334
 10
218.33636363636361
 20
367.1333333333334
  0
LINE
  5
F8
330
17
100
AcDbEntity
  8
ESTRIBOS
 62
7
370
15
100
AcDbLine
 10
223.7121212121212
 20
346.53333333333336
 30
0.0
 11
223.7121212121212
 21
367.1333333333334
 31
0.0
  0
LINE
  5
F9
330
17
100
AcDbEntity
  8
ESTRIBOS
 62
7
370
15
100
AcDbLine
 10
231.28787878787878
 20
346.53333333333336
 30
0.0
 11
231.28787878787878
 21
367.1333333333334
 31
0.0
  0
CIRCLE
  5
FA
330
17
100
AcDbEntity
  8
M1_SUP_CONT
 62
5
100
AcDbCircle
 10
222.85227272727272
 20
366.5765151515152
 30
0.0
 40
0.72
  0
CIRCLE
  5
FB
330
17
100
AcDbEntity
  8
M1_SUP_CONT
 62
5
100
AcDbCircle
 10
224.71136363636361
 20
366.5765151515152
 30
0.0
 40
0.72
  0
CIRCLE
  5
FC
330
17
100
AcDbEntity
  8
M1_SUP_CONT
 62
5
100
AcDbCircle
 10
226.57045454545454
 20
366.5765151515152
 30
0.0
 40
0.72
  0
CIRCLE
  5
FD
330
17
100
AcDbEntity
  8
M1_SUP_CONT
 62
5
100
AcDbCircle
 10
228.42954545454543
 20
366.5765151515152
 30
0.0
 40
0.72
  0
CIRCLE
  5
FE
330
17
100
AcDbEntity
  8
M1_SUP_CONT
 62
5
100
AcDbCircle
 10
230.28863636363636
 20
366.5765151515152
 30
0.0
 40
0.72
  0
CIRCLE
  5
FF
330
17
100
AcDbEntity
  8
M1_SUP_CONT
 62
5
100
AcDbCircle
 10
232.14772727272725
 20
366.5765151515152
 30
0.0
 40
0.72
  0
CIRCLE
  5
100
330
17
100
AcDbEntity
  8
M4_INF_CONT
 62
1
100
AcDbCircle
 10
223.78181818181818
 20
347.09015151515155
 30
0.0
 40
0.72
  0
CIRCLE
  5
101
330
17
100
AcDbEntity
  8
M4_INF_CONT
 62
1
100
AcDbCircle
 10
225.64090909090908
 20
347.09015151515155
 30
0.0
 40
0.72
  0
CIRCLE
  5
102
330
17
100
AcDbEntity
  8
M4_INF_CONT
 62
1
100
AcDbCircle
 10
227.5
 20
347.09015151515155
 30
0.0
 40
0.72
  0
CIRCLE
  5
103
330
17
100
AcDbEntity
  8
M4_INF_CONT
 62
1
100
AcDbCircle
 10
229.3590909090909
 20
347.09015151515155
 30
0.0
 40
0.72
  0
CIRCLE
  5
104
330
17
100
AcDbEntity
  8
M4_INF_CONT
 62
1
100
AcDbCircle
 10
231.2181818181818
 20
347.09015151515155
 30
0.0
 40
0.72
  0
TEXT
  5
105
330
17
100
AcDbEntity
  8
TEXTO
 62
7
100
AcDbText
 10
227.5
 20
341.03333333333336
 30
0.0
 40
1.65
  1
C-C APOYO J
 72
1
 11
227.5
 21
341.03333333333336
 31
0.0
100
AcDbText
 73
2
  0
TEXT
  5
106
330
17
100
AcDbEntity
  8
TEXTO
 62
7
100
AcDbText
 10
227.5
 20
338.33333333333337
 30
0.0
 40
1.45
  1
500x550
 72
1
 11
227.5
 21
338.33333333333337
 31
0.0
100
AcDbText
 73
2
  0
TEXT
  5
107
330
17
100
AcDbEntity
  8
TEXTO
 62
7
100
AcDbText
 10
15.0
 20
344.33333333333337
 30
0.0
 40
1.35
  1
80 frames | 4 longitudes
 11
15.0
 21
344.33333333333337
 31
0.0
100
AcDbText
  0
TEXT
  5
108
330
17
100
AcDbEntity
  8
TEXTO
 62
3
100
AcDbText
 10
295.0
 20
344.33333333333337
 30
0.0
 40
1.35
  1
Marcas separadas; cantidades reales en cortes
 72
2
 11
295.0
 21
344.33333333333337
 31
0.0
100
AcDbText
  0
LWPOLYLINE
  5
109
330
17
100
AcDbEntity
  8
GUIA
 62
9
370
9
100
AcDbPolyline
 90
4
 70
1
 10
304.0
 20
341.33333333333337
 10
594.0
 20
341.33333333333337
 10
594.0
 20
490.0
 10
304.0
 20
490.0
  0
TEXT
  5
10A
330
17
100
AcDbEntity
  8
TITULO
 62
6
100
AcDbText
 10
449.0
 20
486.0
 30
0.0
 40
2.45
  1
VIGA VR N1 - 500x550 mm
 72
1
 11
449.0
 21
486.0
 31
0.0
100
AcDbText
 73
2
  0
LWPOLYLINE
  5
10B
330
17
100
AcDbEntity
  8
APOYOS
 62
4
370
18
100
AcDbPolyline
 90
4
 70
1
 10
330.4
 20
455.8
 10
339.59999999999997
 20
455.8
 10
339.59999999999997
 20
477.2
 10
330.4
 20
477.2
  0
LWPOLYLINE
  5
10C
330
17
100
AcDbEntity
  8
APOYOS
 62
4
370
18
100
AcDbPolyline
 90
4
 70
1
 10
578.4
 20
455.8
 10
587.6
 20
455.8
 10
587.6
 20
477.2
 10
578.4
 20
477.2
  0
LINE
  5
10D
330
17
100
AcDbEntity
  8
EJES
 62
8
370
9
100
AcDbLine
 10
335.0
 20
454.0
 30
0.0
 11
335.0
 21
481.0
 31
0.0
  0
LINE
  5
10E
330
17
100
AcDbEntity
  8
EJES
 62
8
370
9
100
AcDbLine
 10
583.0
 20
454.0
 30
0.0
 11
583.0
 21
481.0
 31
0.0
  0
LWPOLYLINE
  5
10F
330
17
100
AcDbEntity
  8
CONTORNO
 62
7
370
18
100
AcDbPolyline
 90
4
 70
1
 10
339.6
 20
460.0
 10
578.4
 20
460.0
 10
578.4
 20
473.0
 10
339.6
 20
473.0
  0
TEXT
  5
110
330
17
100
AcDbEntity
  8
EJES
 62
8
100
AcDbText
 10
335.0
 20
478.2
 30
0.0
 40
1.6
  1
I
 72
1
 11
335.0
 21
478.2
 31
0.0
100
AcDbText
 73
2
  0
TEXT
  5
111
330
17
100
AcDbEntity
  8
EJES
 62
8
100
AcDbText
 10
583.0
 20
478.2
 30
0.0
 40
1.6
  1
J
 72
1
 11
583.0
 21
478.2
 31
0.0
100
AcDbText
 73
2
  0
LWPOLYLINE
  5
112
330
17
100
AcDbEntity
  8
M1_SUP_CONT
 62
5
370
35
100
AcDbPolyline
 90
4
 70
0
 10
333.8
 20
466.6
 10
333.8
 20
471.0
 10
584.2
 20
471.0
 10
584.2
 20
466.6
  0
LWPOLYLINE
  5
113
330
17
100
AcDbEntity
  8
M2_SUP_IZQ
 62
2
370
35
100
AcDbPolyline
 90
3
 70
0
 10
331.8
 20
463.6
 10
331.8
 20
468.0
 10
399.3
 20
468.0
  0
LWPOLYLINE
  5
114
330
17
100
AcDbEntity
  8
M3_SUP_DER
 62
2
370
35
100
AcDbPolyline
 90
3
 70
0
 10
518.7
 20
465.2
 10
586.2
 20
465.2
 10
586.2
 20
460.8
  0
LWPOLYLINE
  5
115
330
17
100
AcDbEntity
  8
M4_INF_CONT
 62
1
370
35
100
AcDbPolyline
 90
4
 70
0
 10
336.2
 20
466.5
 10
336.2
 20
462.1
 10
581.8
 20
462.1
 10
581.8
 20
466.5
  0
LWPOLYLINE
  5
116
330
17
100
AcDbEntity
  8
M5_TORSION
 62
30
370
30
100
AcDbPolyline
 90
4
 70
0
 10
338.0
 20
463.1
 10
338.0
 20
466.5
 10
580.0
 20
466.5
 10
580.0
 20
463.1
  0
LINE
  5
117
330
17
100
AcDbEntity
  8
CORTE
 62
7
370
9
100
AcDbLine
 10
363.48
 20
458.0
 30
0.0
 11
363.48
 21
475.0
 31
0.0
  0
TEXT
  5
118
330
17
100
AcDbEntity
  8
CORTE
 62
7
100
AcDbText
 10
363.48
 20
475.6
 30
0.0
 40
1.35
  1
A
 72
1
 11
363.48
 21
475.6
 31
0.0
100
AcDbText
 73
2
  0
LINE
  5
119
330
17
100
AcDbEntity
  8
CORTE
 62
7
370
9
100
AcDbLine
 10
459.0
 20
458.0
 30
0.0
 11
459.0
 21
475.0
 31
0.0
  0
TEXT
  5
11A
330
17
100
AcDbEntity
  8
CORTE
 62
7
100
AcDbText
 10
459.0
 20
475.6
 30
0.0
 40
1.35
  1
B
 72
1
 11
459.0
 21
475.6
 31
0.0
100
AcDbText
 73
2
  0
LINE
  5
11B
330
17
100
AcDbEntity
  8
CORTE
 62
7
370
9
100
AcDbLine
 10
554.52
 20
458.0
 30
0.0
 11
554.52
 21
475.0
 31
0.0
  0
TEXT
  5
11C
330
17
100
AcDbEntity
  8
CORTE
 62
7
100
AcDbText
 10
554.52
 20
475.6
 30
0.0
 40
1.35
  1
C
 72
1
 11
554.52
 21
475.6
 31
0.0
100
AcDbText
 73
2
  0
LINE
  5
11D
330
17
100
AcDbEntity
  8
COTAS
 62
3
370
15
100
AcDbLine
 10
335.0
 20
453.0
 30
0.0
 11
583.0
 21
453.0
 31
0.0
  0
LINE
  5
11E
330
17
100
AcDbEntity
  8
COTAS
 62
3
370
15
100
AcDbLine
 10
335.0
 20
451.8
 30
0.0
 11
335.0
 21
454.2
 31
0.0
  0
LINE
  5
11F
330
17
100
AcDbEntity
  8
COTAS
 62
3
370
15
100
AcDbLine
 10
583.0
 20
451.8
 30
0.0
 11
583.0
 21
454.2
 31
0.0
  0
TEXT
  5
120
330
17
100
AcDbEntity
  8
COTAS
 62
3
100
AcDbText
 10
459.0
 20
454.3
 30
0.0
 40
1.6
  1
L SAP I-J = 2.500-5.500 m
 72
1
 11
459.0
 21
454.3
 31
0.0
100
AcDbText
 73
2
  0
TEXT
  5
121
330
17
100
AcDbEntity
  8
TEXTO
 62
7
100
AcDbText
 10
459.0
 20
450.0
 30
0.0
 40
1.45
  1
Ln = 1.900-4.900 m
 72
1
 11
459.0
 21
450.0
 31
0.0
100
AcDbText
 73
2
  0
TEXT
  5
122
330
17
100
AcDbEntity
  8
TEXTO
 62
5
100
AcDbText
 10
310.0
 20
446.0
 30
0.0
 40
1.45
  1
M1
 11
310.0
 21
446.0
 31
0.0
100
AcDbText
  0
TEXT
  5
123
330
17
100
AcDbEntity
  8
TEXTO
 62
5
100
AcDbText
 10
326.0
 20
446.0
 30
0.0
 40
1.42
  1
2#5 SUP CONT | Lc=2510-5510 mm
 11
326.0
 21
446.0
 31
0.0
100
AcDbText
  0
TEXT
  5
124
330
17
100
AcDbEntity
  8
TEXTO
 62
2
100
AcDbText
 10
310.0
 20
442.8
 30
0.0
 40
1.45
  1
M2/M3
 11
310.0
 21
442.8
 31
0.0
100
AcDbText
  0
TEXT
  5
125
330
17
100
AcDbEntity
  8
TEXTO
 62
2
100
AcDbText
 10
326.0
 20
442.8
 30
0.0
 40
1.42
  1
4#5 SUP/APOYO | Lc=780-1530 mm
 11
326.0
 21
442.8
 31
0.0
100
AcDbText
  0
TEXT
  5
126
330
17
100
AcDbEntity
  8
TEXTO
 62
1
100
AcDbText
 10
310.0
 20
439.6
 30
0.0
 40
1.45
  1
M4
 11
310.0
 21
439.6
 31
0.0
100
AcDbText
  0
TEXT
  5
127
330
17
100
AcDbEntity
  8
TEXTO
 62
1
100
AcDbText
 10
326.0
 20
439.6
 30
0.0
 40
1.42
  1
5#5 INF CONT | Lc=2510-5510 mm
 11
326.0
 21
439.6
 31
0.0
100
AcDbText
  0
TEXT
  5
128
330
17
100
AcDbEntity
  8
TEXTO
 62
30
100
AcDbText
 10
310.0
 20
436.4
 30
0.0
 40
1.45
  1
M5
 11
310.0
 21
436.4
 31
0.0
100
AcDbText
  0
TEXT
  5
129
330
17
100
AcDbEntity
  8
TEXTO
 62
30
100
AcDbText
 10
326.0
 20
436.4
 30
0.0
 40
1.42
  1
8#5 TOR DEDIC. | Lc=2510-5510 mm
 11
326.0
 21
436.4
 31
0.0
100
AcDbText
  0
TEXT
  5
12A
330
17
100
AcDbEntity
  8
TEXTO
 62
7
100
AcDbText
 10
310.0
 20
432.4
 30
0.0
 40
1.35
  1
#5: ld sup=480; ld inf=370; ldh=305; 90°: cola=195, Dint>=100 mm
 11
310.0
 21
432.4
 31
0.0
100
AcDbText
  0
TEXT
  5
12B
330
17
100
AcDbEntity
  8
TEXTO
 62
7
100
AcDbText
 10
310.0
 20
429.4
 30
0.0
 40
1.35
  1
E1 Nº3 4R: 1ro<=50; @80 en 2h; @80 centro; 135° cola=75, Dint>=60
 11
310.0
 21
429.4
 31
0.0
100
AcDbText
  0
LWPOLYLINE
  5
12C
330
17
100
AcDbEntity
  8
CORTE
 62
7
370
20
100
AcDbPolyline
 90
4
 70
1
 10
376.73636363636365
 20
344.33333333333337
 10
399.4636363636364
 20
344.33333333333337
 10
399.4636363636364
 20
369.33333333333337
 10
376.73636363636365
 20
369.33333333333337
  0
LWPOLYLINE
  5
12D
330
17
100
AcDbEntity
  8
ESTRIBOS
 62
7
370
18
100
AcDbPolyline
 90
4
 70
1
 10
378.93636363636364
 20
346.53333333333336
 10
397.26363636363635
 20
346.53333333333336
 10
397.26363636363635
 20
367.1333333333334
 10
378.93636363636364
 20
367.1333333333334
  0
LINE
  5
12E
330
17
100
AcDbEntity
  8
ESTRIBOS
 62
7
370
15
100
AcDbLine
 10
384.3121212121212
 20
346.53333333333336
 30
0.0
 11
384.3121212121212
 21
367.1333333333334
 31
0.0
  0
LINE
  5
12F
330
17
100
AcDbEntity
  8
ESTRIBOS
 62
7
370
15
100
AcDbLine
 10
391.8878787878788
 20
346.53333333333336
 30
0.0
 11
391.8878787878788
 21
367.1333333333334
 31
0.0
  0
CIRCLE
  5
130
330
17
100
AcDbEntity
  8
M1_SUP_CONT
 62
5
100
AcDbCircle
 10
383.4522727272727
 20
366.5765151515152
 30
0.0
 40
0.72
  0
CIRCLE
  5
131
330
17
100
AcDbEntity
  8
M1_SUP_CONT
 62
5
100
AcDbCircle
 10
385.31136363636364
 20
366.5765151515152
 30
0.0
 40
0.72
  0
CIRCLE
  5
132
330
17
100
AcDbEntity
  8
M1_SUP_CONT
 62
5
100
AcDbCircle
 10
387.17045454545456
 20
366.5765151515152
 30
0.0
 40
0.72
  0
CIRCLE
  5
133
330
17
100
AcDbEntity
  8
M1_SUP_CONT
 62
5
100
AcDbCircle
 10
389.0295454545455
 20
366.5765151515152
 30
0.0
 40
0.72
  0
CIRCLE
  5
134
330
17
100
AcDbEntity
  8
M1_SUP_CONT
 62
5
100
AcDbCircle
 10
390.88863636363635
 20
366.5765151515152
 30
0.0
 40
0.72
  0
CIRCLE
  5
135
330
17
100
AcDbEntity
  8
M1_SUP_CONT
 62
5
100
AcDbCircle
 10
392.7477272727273
 20
366.5765151515152
 30
0.0
 40
0.72
  0
CIRCLE
  5
136
330
17
100
AcDbEntity
  8
M4_INF_CONT
 62
1
100
AcDbCircle
 10
384.3818181818182
 20
347.09015151515155
 30
0.0
 40
0.72
  0
CIRCLE
  5
137
330
17
100
AcDbEntity
  8
M4_INF_CONT
 62
1
100
AcDbCircle
 10
386.2409090909091
 20
347.09015151515155
 30
0.0
 40
0.72
  0
CIRCLE
  5
138
330
17
100
AcDbEntity
  8
M4_INF_CONT
 62
1
100
AcDbCircle
 10
388.1
 20
347.09015151515155
 30
0.0
 40
0.72
  0
CIRCLE
  5
139
330
17
100
AcDbEntity
  8
M4_INF_CONT
 62
1
100
AcDbCircle
 10
389.95909090909095
 20
347.09015151515155
 30
0.0
 40
0.72
  0
CIRCLE
  5
13A
330
17
100
AcDbEntity
  8
M4_INF_CONT
 62
1
100
AcDbCircle
 10
391.8181818181818
 20
347.09015151515155
 30
0.0
 40
0.72
  0
CIRCLE
  5
13B
330
17
100
AcDbEntity
  8
M5_TORSION
 62
30
100
AcDbCircle
 10
379.4931818181818
 20
349.42424242424244
 30
0.0
 40
0.64
  0
CIRCLE
  5
13C
330
17
100
AcDbEntity
  8
M5_TORSION
 62
30
100
AcDbCircle
 10
379.4931818181818
 20
364.2424242424243
 30
0.0
 40
0.64
  0
CIRCLE
  5
13D
330
17
100
AcDbEntity
  8
M5_TORSION
 62
30
100
AcDbCircle
 10
396.7068181818182
 20
349.42424242424244
 30
0.0
 40
0.64
  0
CIRCLE
  5
13E
330
17
100
AcDbEntity
  8
M5_TORSION
 62
30
100
AcDbCircle
 10
396.7068181818182
 20
364.2424242424243
 30
0.0
 40
0.64
  0
CIRCLE
  5
13F
330
17
100
AcDbEntity
  8
M5_TORSION
 62
30
100
AcDbCircle
 10
379.4931818181818
 20
354.3636363636364
 30
0.0
 40
0.64
  0
CIRCLE
  5
140
330
17
100
AcDbEntity
  8
M5_TORSION
 62
30
100
AcDbCircle
 10
396.7068181818182
 20
354.3636363636364
 30
0.0
 40
0.64
  0
CIRCLE
  5
141
330
17
100
AcDbEntity
  8
M5_TORSION
 62
30
100
AcDbCircle
 10
379.4931818181818
 20
359.30303030303037
 30
0.0
 40
0.64
  0
CIRCLE
  5
142
330
17
100
AcDbEntity
  8
M5_TORSION
 62
30
100
AcDbCircle
 10
396.7068181818182
 20
359.30303030303037
 30
0.0
 40
0.64
  0
TEXT
  5
143
330
17
100
AcDbEntity
  8
TEXTO
 62
7
100
AcDbText
 10
388.1
 20
341.03333333333336
 30
0.0
 40
1.65
  1
A-A APOYO I
 72
1
 11
388.1
 21
341.03333333333336
 31
0.0
100
AcDbText
 73
2
  0
TEXT
  5
144
330
17
100
AcDbEntity
  8
TEXTO
 62
7
100
AcDbText
 10
388.1
 20
338.33333333333337
 30
0.0
 40
1.45
  1
500x550
 72
1
 11
388.1
 21
338.33333333333337
 31
0.0
100
AcDbText
 73
2
  0
LWPOLYLINE
  5
145
330
17
100
AcDbEntity
  8
CORTE
 62
7
370
20
100
AcDbPolyline
 90
4
 70
1
 10
443.43636363636364
 20
344.33333333333337
 10
466.1636363636364
 20
344.33333333333337
 10
466.1636363636364
 20
369.33333333333337
 10
443.43636363636364
 20
369.33333333333337
  0
LWPOLYLINE
  5
146
330
17
100
AcDbEntity
  8
ESTRIBOS
 62
7
370
18
100
AcDbPolyline
 90
4
 70
1
 10
445.6363636363636
 20
346.53333333333336
 10
463.96363636363634
 20
346.53333333333336
 10
463.96363636363634
 20
367.1333333333334
 10
445.6363636363636
 20
367.1333333333334
  0
LINE
  5
147
330
17
100
AcDbEntity
  8
ESTRIBOS
 62
7
370
15
100
AcDbLine
 10
451.0121212121212
 20
346.53333333333336
 30
0.0
 11
451.0121212121212
 21
367.1333333333334
 31
0.0
  0
LINE
  5
148
330
17
100
AcDbEntity
  8
ESTRIBOS
 62
7
370
15
100
AcDbLine
 10
458.58787878787876
 20
346.53333333333336
 30
0.0
 11
458.58787878787876
 21
367.1333333333334
 31
0.0
  0
CIRCLE
  5
149
330
17
100
AcDbEntity
  8
M1_SUP_CONT
 62
5
100
AcDbCircle
 10
453.87045454545455
 20
366.5765151515152
 30
0.0
 40
0.72
  0
CIRCLE
  5
14A
330
17
100
AcDbEntity
  8
M1_SUP_CONT
 62
5
100
AcDbCircle
 10
455.7295454545455
 20
366.5765151515152
 30
0.0
 40
0.72
  0
CIRCLE
  5
14B
330
17
100
AcDbEntity
  8
M4_INF_CONT
 62
1
100
AcDbCircle
 10
451.08181818181816
 20
347.09015151515155
 30
0.0
 40
0.72
  0
CIRCLE
  5
14C
330
17
100
AcDbEntity
  8
M4_INF_CONT
 62
1
100
AcDbCircle
 10
452.9409090909091
 20
347.09015151515155
 30
0.0
 40
0.72
  0
CIRCLE
  5
14D
330
17
100
AcDbEntity
  8
M4_INF_CONT
 62
1
100
AcDbCircle
 10
454.8
 20
347.09015151515155
 30
0.0
 40
0.72
  0
CIRCLE
  5
14E
330
17
100
AcDbEntity
  8
M4_INF_CONT
 62
1
100
AcDbCircle
 10
456.65909090909093
 20
347.09015151515155
 30
0.0
 40
0.72
  0
CIRCLE
  5
14F
330
17
100
AcDbEntity
  8
M4_INF_CONT
 62
1
100
AcDbCircle
 10
458.5181818181818
 20
347.09015151515155
 30
0.0
 40
0.72
  0
CIRCLE
  5
150
330
17
100
AcDbEntity
  8
M5_TORSION
 62
30
100
AcDbCircle
 10
446.1931818181818
 20
349.42424242424244
 30
0.0
 40
0.64
  0
CIRCLE
  5
151
330
17
100
AcDbEntity
  8
M5_TORSION
 62
30
100
AcDbCircle
 10
446.1931818181818
 20
364.2424242424243
 30
0.0
 40
0.64
  0
CIRCLE
  5
152
330
17
100
AcDbEntity
  8
M5_TORSION
 62
30
100
AcDbCircle
 10
463.4068181818182
 20
349.42424242424244
 30
0.0
 40
0.64
  0
CIRCLE
  5
153
330
17
100
AcDbEntity
  8
M5_TORSION
 62
30
100
AcDbCircle
 10
463.4068181818182
 20
364.2424242424243
 30
0.0
 40
0.64
  0
CIRCLE
  5
154
330
17
100
AcDbEntity
  8
M5_TORSION
 62
30
100
AcDbCircle
 10
446.1931818181818
 20
354.3636363636364
 30
0.0
 40
0.64
  0
CIRCLE
  5
155
330
17
100
AcDbEntity
  8
M5_TORSION
 62
30
100
AcDbCircle
 10
463.4068181818182
 20
354.3636363636364
 30
0.0
 40
0.64
  0
CIRCLE
  5
156
330
17
100
AcDbEntity
  8
M5_TORSION
 62
30
100
AcDbCircle
 10
446.1931818181818
 20
359.30303030303037
 30
0.0
 40
0.64
  0
CIRCLE
  5
157
330
17
100
AcDbEntity
  8
M5_TORSION
 62
30
100
AcDbCircle
 10
463.4068181818182
 20
359.30303030303037
 30
0.0
 40
0.64
  0
TEXT
  5
158
330
17
100
AcDbEntity
  8
TEXTO
 62
7
100
AcDbText
 10
454.8
 20
341.03333333333336
 30
0.0
 40
1.65
  1
B-B CENTRO
 72
1
 11
454.8
 21
341.03333333333336
 31
0.0
100
AcDbText
 73
2
  0
TEXT
  5
159
330
17
100
AcDbEntity
  8
TEXTO
 62
7
100
AcDbText
 10
454.8
 20
338.33333333333337
 30
0.0
 40
1.45
  1
500x550
 72
1
 11
454.8
 21
338.33333333333337
 31
0.0
100
AcDbText
 73
2
  0
LWPOLYLINE
  5
15A
330
17
100
AcDbEntity
  8
CORTE
 62
7
370
20
100
AcDbPolyline
 90
4
 70
1
 10
510.1363636363636
 20
344.33333333333337
 10
532.8636363636364
 20
344.33333333333337
 10
532.8636363636364
 20
369.33333333333337
 10
510.1363636363636
 20
369.33333333333337
  0
LWPOLYLINE
  5
15B
330
17
100
AcDbEntity
  8
ESTRIBOS
 62
7
370
18
100
AcDbPolyline
 90
4
 70
1
 10
512.3363636363637
 20
346.53333333333336
 10
530.6636363636364
 20
346.53333333333336
 10
530.6636363636364
 20
367.1333333333334
 10
512.3363636363637
 20
367.1333333333334
  0
LINE
  5
15C
330
17
100
AcDbEntity
  8
ESTRIBOS
 62
7
370
15
100
AcDbLine
 10
517.7121212121212
 20
346.53333333333336
 30
0.0
 11
517.7121212121212
 21
367.1333333333334
 31
0.0
  0
LINE
  5
15D
330
17
100
AcDbEntity
  8
ESTRIBOS
 62
7
370
15
100
AcDbLine
 10
525.2878787878788
 20
346.53333333333336
 30
0.0
 11
525.2878787878788
 21
367.1333333333334
 31
0.0
  0
CIRCLE
  5
15E
330
17
100
AcDbEntity
  8
M1_SUP_CONT
 62
5
100
AcDbCircle
 10
516.8522727272727
 20
366.5765151515152
 30
0.0
 40
0.72
  0
CIRCLE
  5
15F
330
17
100
AcDbEntity
  8
M1_SUP_CONT
 62
5
100
AcDbCircle
 10
518.7113636363637
 20
366.5765151515152
 30
0.0
 40
0.72
  0
CIRCLE
  5
160
330
17
100
AcDbEntity
  8
M1_SUP_CONT
 62
5
100
AcDbCircle
 10
520.5704545454545
 20
366.5765151515152
 30
0.0
 40
0.72
  0
CIRCLE
  5
161
330
17
100
AcDbEntity
  8
M1_SUP_CONT
 62
5
100
AcDbCircle
 10
522.4295454545454
 20
366.5765151515152
 30
0.0
 40
0.72
  0
CIRCLE
  5
162
330
17
100
AcDbEntity
  8
M1_SUP_CONT
 62
5
100
AcDbCircle
 10
524.2886363636363
 20
366.5765151515152
 30
0.0
 40
0.72
  0
CIRCLE
  5
163
330
17
100
AcDbEntity
  8
M1_SUP_CONT
 62
5
100
AcDbCircle
 10
526.1477272727273
 20
366.5765151515152
 30
0.0
 40
0.72
  0
CIRCLE
  5
164
330
17
100
AcDbEntity
  8
M4_INF_CONT
 62
1
100
AcDbCircle
 10
517.7818181818182
 20
347.09015151515155
 30
0.0
 40
0.72
  0
CIRCLE
  5
165
330
17
100
AcDbEntity
  8
M4_INF_CONT
 62
1
100
AcDbCircle
 10
519.6409090909091
 20
347.09015151515155
 30
0.0
 40
0.72
  0
CIRCLE
  5
166
330
17
100
AcDbEntity
  8
M4_INF_CONT
 62
1
100
AcDbCircle
 10
521.5
 20
347.09015151515155
 30
0.0
 40
0.72
  0
CIRCLE
  5
167
330
17
100
AcDbEntity
  8
M4_INF_CONT
 62
1
100
AcDbCircle
 10
523.3590909090909
 20
347.09015151515155
 30
0.0
 40
0.72
  0
CIRCLE
  5
168
330
17
100
AcDbEntity
  8
M4_INF_CONT
 62
1
100
AcDbCircle
 10
525.2181818181818
 20
347.09015151515155
 30
0.0
 40
0.72
  0
CIRCLE
  5
169
330
17
100
AcDbEntity
  8
M5_TORSION
 62
30
100
AcDbCircle
 10
512.8931818181818
 20
349.42424242424244
 30
0.0
 40
0.64
  0
CIRCLE
  5
16A
330
17
100
AcDbEntity
  8
M5_TORSION
 62
30
100
AcDbCircle
 10
512.8931818181818
 20
364.2424242424243
 30
0.0
 40
0.64
  0
CIRCLE
  5
16B
330
17
100
AcDbEntity
  8
M5_TORSION
 62
30
100
AcDbCircle
 10
530.1068181818182
 20
349.42424242424244
 30
0.0
 40
0.64
  0
CIRCLE
  5
16C
330
17
100
AcDbEntity
  8
M5_TORSION
 62
30
100
AcDbCircle
 10
530.1068181818182
 20
364.2424242424243
 30
0.0
 40
0.64
  0
CIRCLE
  5
16D
330
17
100
AcDbEntity
  8
M5_TORSION
 62
30
100
AcDbCircle
 10
512.8931818181818
 20
354.3636363636364
 30
0.0
 40
0.64
  0
CIRCLE
  5
16E
330
17
100
AcDbEntity
  8
M5_TORSION
 62
30
100
AcDbCircle
 10
530.1068181818182
 20
354.3636363636364
 30
0.0
 40
0.64
  0
CIRCLE
  5
16F
330
17
100
AcDbEntity
  8
M5_TORSION
 62
30
100
AcDbCircle
 10
512.8931818181818
 20
359.30303030303037
 30
0.0
 40
0.64
  0
CIRCLE
  5
170
330
17
100
AcDbEntity
  8
M5_TORSION
 62
30
100
AcDbCircle
 10
530.1068181818182
 20
359.30303030303037
 30
0.0
 40
0.64
  0
TEXT
  5
171
330
17
100
AcDbEntity
  8
TEXTO
 62
7
100
AcDbText
 10
521.5
 20
341.03333333333336
 30
0.0
 40
1.65
  1
C-C APOYO J
 72
1
 11
521.5
 21
341.03333333333336
 31
0.0
100
AcDbText
 73
2
  0
TEXT
  5
172
330
17
100
AcDbEntity
  8
TEXTO
 62
7
100
AcDbText
 10
521.5
 20
338.33333333333337
 30
0.0
 40
1.45
  1
500x550
 72
1
 11
521.5
 21
338.33333333333337
 31
0.0
100
AcDbText
 73
2
  0
TEXT
  5
173
330
17
100
AcDbEntity
  8
TEXTO
 62
7
100
AcDbText
 10
309.0
 20
344.33333333333337
 30
0.0
 40
1.35
  1
22 frames | 5 longitudes
 11
309.0
 21
344.33333333333337
 31
0.0
100
AcDbText
  0
TEXT
  5
174
330
17
100
AcDbEntity
  8
TEXTO
 62
3
100
AcDbText
 10
589.0
 20
344.33333333333337
 30
0.0
 40
1.35
  1
Marcas separadas; cantidades reales en cortes
 72
2
 11
589.0
 21
344.33333333333337
 31
0.0
100
AcDbText
  0
LWPOLYLINE
  5
175
330
17
100
AcDbEntity
  8
GUIA
 62
9
370
9
100
AcDbPolyline
 90
4
 70
1
 10
10.0
 20
188.66666666666669
 10
300.0
 20
188.66666666666669
 10
300.0
 20
337.33333333333337
 10
10.0
 20
337.33333333333337
  0
TEXT
  5
176
330
17
100
AcDbEntity
  8
TITULO
 62
6
100
AcDbText
 10
155.0
 20
333.33333333333337
 30
0.0
 40
2.45
  1
VIGA VR2 - 500x550 mm
 72
1
 11
155.0
 21
333.33333333333337
 31
0.0
100
AcDbText
 73
2
  0
LWPOLYLINE
  5
177
330
17
100
AcDbEntity
  8
APOYOS
 62
4
370
18
100
AcDbPolyline
 90
4
 70
1
 10
36.4
 20
303.1333333333334
 10
45.599999999999994
 20
303.1333333333334
 10
45.599999999999994
 20
324.53333333333336
 10
36.4
 20
324.53333333333336
  0
LWPOLYLINE
  5
178
330
17
100
AcDbEntity
  8
APOYOS
 62
4
370
18
100
AcDbPolyline
 90
4
 70
1
 10
284.4
 20
303.1333333333334
 10
293.59999999999997
 20
303.1333333333334
 10
293.59999999999997
 20
324.53333333333336
 10
284.4
 20
324.53333333333336
  0
LINE
  5
179
330
17
100
AcDbEntity
  8
EJES
 62
8
370
9
100
AcDbLine
 10
41.0
 20
301.33333333333337
 30
0.0
 11
41.0
 21
328.33333333333337
 31
0.0
  0
LINE
  5
17A
330
17
100
AcDbEntity
  8
EJES
 62
8
370
9
100
AcDbLine
 10
289.0
 20
301.33333333333337
 30
0.0
 11
289.0
 21
328.33333333333337
 31
0.0
  0
LWPOLYLINE
  5
17B
330
17
100
AcDbEntity
  8
CONTORNO
 62
7
370
18
100
AcDbPolyline
 90
4
 70
1
 10
45.6
 20
307.33333333333337
 10
284.4
 20
307.33333333333337
 10
284.4
 20
320.33333333333337
 10
45.6
 20
320.33333333333337
  0
TEXT
  5
17C
330
17
100
AcDbEntity
  8
EJES
 62
8
100
AcDbText
 10
41.0
 20
325.53333333333336
 30
0.0
 40
1.6
  1
I
 72
1
 11
41.0
 21
325.53333333333336
 31
0.0
100
AcDbText
 73
2
  0
TEXT
  5
17D
330
17
100
AcDbEntity
  8
EJES
 62
8
100
AcDbText
 10
289.0
 20
325.53333333333336
 30
0.0
 40
1.6
  1
J
 72
1
 11
289.0
 21
325.53333333333336
 31
0.0
100
AcDbText
 73
2
  0
LWPOLYLINE
  5
17E
330
17
100
AcDbEntity
  8
M1_SUP_CONT
 62
5
370
35
100
AcDbPolyline
 90
4
 70
0
 10
39.8
 20
313.9333333333334
 10
39.8
 20
318.33333333333337
 10
290.2
 20
318.33333333333337
 10
290.2
 20
313.9333333333334
  0
LWPOLYLINE
  5
17F
330
17
100
AcDbEntity
  8
M2_SUP_IZQ
 62
2
370
35
100
AcDbPolyline
 90
3
 70
0
 10
37.8
 20
310.9333333333334
 10
37.8
 20
315.33333333333337
 10
105.3
 20
315.33333333333337
  0
LWPOLYLINE
  5
180
330
17
100
AcDbEntity
  8
M3_SUP_DER
 62
2
370
35
100
AcDbPolyline
 90
3
 70
0
 10
224.7
 20
312.53333333333336
 10
292.2
 20
312.53333333333336
 10
292.2
 20
308.1333333333334
  0
LWPOLYLINE
  5
181
330
17
100
AcDbEntity
  8
M4_INF_CONT
 62
1
370
35
100
AcDbPolyline
 90
4
 70
0
 10
42.2
 20
313.83333333333337
 10
42.2
 20
309.4333333333334
 10
287.8
 20
309.4333333333334
 10
287.8
 20
313.83333333333337
  0
LWPOLYLINE
  5
182
330
17
100
AcDbEntity
  8
M5_TORSION
 62
30
370
30
100
AcDbPolyline
 90
4
 70
0
 10
44.0
 20
310.4333333333334
 10
44.0
 20
313.83333333333337
 10
286.0
 20
313.83333333333337
 10
286.0
 20
310.4333333333334
  0
LINE
  5
183
330
17
100
AcDbEntity
  8
CORTE
 62
7
370
9
100
AcDbLine
 10
69.48
 20
305.33333333333337
 30
0.0
 11
69.48
 21
322.33333333333337
 31
0.0
  0
TEXT
  5
184
330
17
100
AcDbEntity
  8
CORTE
 62
7
100
AcDbText
 10
69.48
 20
322.9333333333334
 30
0.0
 40
1.35
  1
A
 72
1
 11
69.48
 21
322.9333333333334
 31
0.0
100
AcDbText
 73
2
  0
LINE
  5
185
330
17
100
AcDbEntity
  8
CORTE
 62
7
370
9
100
AcDbLine
 10
165.0
 20
305.33333333333337
 30
0.0
 11
165.0
 21
322.33333333333337
 31
0.0
  0
TEXT
  5
186
330
17
100
AcDbEntity
  8
CORTE
 62
7
100
AcDbText
 10
165.0
 20
322.9333333333334
 30
0.0
 40
1.35
  1
B
 72
1
 11
165.0
 21
322.9333333333334
 31
0.0
100
AcDbText
 73
2
  0
LINE
  5
187
330
17
100
AcDbEntity
  8
CORTE
 62
7
370
9
100
AcDbLine
 10
260.52
 20
305.33333333333337
 30
0.0
 11
260.52
 21
322.33333333333337
 31
0.0
  0
TEXT
  5
188
330
17
100
AcDbEntity
  8
CORTE
 62
7
100
AcDbText
 10
260.52
 20
322.9333333333334
 30
0.0
 40
1.35
  1
C
 72
1
 11
260.52
 21
322.9333333333334
 31
0.0
100
AcDbText
 73
2
  0
LINE
  5
189
330
17
100
AcDbEntity
  8
COTAS
 62
3
370
15
100
AcDbLine
 10
41.0
 20
300.33333333333337
 30
0.0
 11
289.0
 21
300.33333333333337
 31
0.0
  0
LINE
  5
18A
330
17
100
AcDbEntity
  8
COTAS
 62
3
370
15
100
AcDbLine
 10
41.0
 20
299.1333333333334
 30
0.0
 11
41.0
 21
301.53333333333336
 31
0.0
  0
LINE
  5
18B
330
17
100
AcDbEntity
  8
COTAS
 62
3
370
15
100
AcDbLine
 10
289.0
 20
299.1333333333334
 30
0.0
 11
289.0
 21
301.53333333333336
 31
0.0
  0
TEXT
  5
18C
330
17
100
AcDbEntity
  8
COTAS
 62
3
100
AcDbText
 10
165.0
 20
301.6333333333334
 30
0.0
 40
1.6
  1
L SAP I-J = 1.500-4.176 m
 72
1
 11
165.0
 21
301.6333333333334
 31
0.0
100
AcDbText
 73
2
  0
TEXT
  5
18D
330
17
100
AcDbEntity
  8
TEXTO
 62
7
100
AcDbText
 10
165.0
 20
297.33333333333337
 30
0.0
 40
1.45
  1
Ln = 0.900-3.576 m
 72
1
 11
165.0
 21
297.33333333333337
 31
0.0
100
AcDbText
 73
2
  0
TEXT
  5
18E
330
17
100
AcDbEntity
  8
TEXTO
 62
5
100
AcDbText
 10
16.0
 20
293.33333333333337
 30
0.0
 40
1.45
  1
M1
 11
16.0
 21
293.33333333333337
 31
0.0
100
AcDbText
  0
TEXT
  5
18F
330
17
100
AcDbEntity
  8
TEXTO
 62
5
100
AcDbText
 10
32.0
 20
293.33333333333337
 30
0.0
 40
1.42
  1
2#5 SUP CONT | Lc=1510-4190 mm
 11
32.0
 21
293.33333333333337
 31
0.0
100
AcDbText
  0
TEXT
  5
190
330
17
100
AcDbEntity
  8
TEXTO
 62
2
100
AcDbText
 10
16.0
 20
290.1333333333334
 30
0.0
 40
1.45
  1
M2/M3
 11
16.0
 21
290.1333333333334
 31
0.0
100
AcDbText
  0
TEXT
  5
191
330
17
100
AcDbEntity
  8
TEXTO
 62
2
100
AcDbText
 10
32.0
 20
290.1333333333334
 30
0.0
 40
1.42
  1
5#5 SUP/APOYO | Lc=530-1200 mm
 11
32.0
 21
290.1333333333334
 31
0.0
100
AcDbText
  0
TEXT
  5
192
330
17
100
AcDbEntity
  8
TEXTO
 62
1
100
AcDbText
 10
16.0
 20
286.9333333333334
 30
0.0
 40
1.45
  1
M4
 11
16.0
 21
286.9333333333334
 31
0.0
100
AcDbText
  0
TEXT
  5
193
330
17
100
AcDbEntity
  8
TEXTO
 62
1
100
AcDbText
 10
32.0
 20
286.9333333333334
 30
0.0
 40
1.42
  1
5#5 INF CONT | Lc=1510-4190 mm
 11
32.0
 21
286.9333333333334
 31
0.0
100
AcDbText
  0
TEXT
  5
194
330
17
100
AcDbEntity
  8
TEXTO
 62
30
100
AcDbText
 10
16.0
 20
283.73333333333335
 30
0.0
 40
1.45
  1
M5
 11
16.0
 21
283.73333333333335
 31
0.0
100
AcDbText
  0
TEXT
  5
195
330
17
100
AcDbEntity
  8
TEXTO
 62
30
100
AcDbText
 10
32.0
 20
283.73333333333335
 30
0.0
 40
1.42
  1
16#5 TOR DEDIC. | Lc=1510-4190 mm
 11
32.0
 21
283.73333333333335
 31
0.0
100
AcDbText
  0
TEXT
  5
196
330
17
100
AcDbEntity
  8
TEXTO
 62
7
100
AcDbText
 10
16.0
 20
279.73333333333335
 30
0.0
 40
1.35
  1
#5: ld sup=480; ld inf=370; ldh=305; 90°: cola=195, Dint>=100 mm
 11
16.0
 21
279.73333333333335
 31
0.0
100
AcDbText
  0
TEXT
  5
197
330
17
100
AcDbEntity
  8
TEXTO
 62
7
100
AcDbText
 10
16.0
 20
276.73333333333335
 30
0.0
 40
1.35
  1
E1 Nº4 4R: 1ro<=50; @90 en 2h; @90 centro; 135° cola=80, Dint>=80
 11
16.0
 21
276.73333333333335
 31
0.0
100
AcDbText
  0
LWPOLYLINE
  5
198
330
17
100
AcDbEntity
  8
CORTE
 62
7
370
20
100
AcDbPolyline
 90
4
 70
1
 10
82.73636363636363
 20
191.66666666666669
 10
105.46363636363637
 20
191.66666666666669
 10
105.46363636363637
 20
216.66666666666669
 10
82.73636363636363
 20
216.66666666666669
  0
LWPOLYLINE
  5
199
330
17
100
AcDbEntity
  8
ESTRIBOS
 62
7
370
18
100
AcDbPolyline
 90
4
 70
1
 10
84.93636363636364
 20
193.86666666666667
 10
103.26363636363637
 20
193.86666666666667
 10
103.26363636363637
 20
214.46666666666667
 10
84.93636363636364
 20
214.46666666666667
  0
LINE
  5
19A
330
17
100
AcDbEntity
  8
ESTRIBOS
 62
7
370
15
100
AcDbLine
 10
90.31212121212121
 20
193.86666666666667
 30
0.0
 11
90.31212121212121
 21
214.4666666666667
 31
0.0
  0
LINE
  5
19B
330
17
100
AcDbEntity
  8
ESTRIBOS
 62
7
370
15
100
AcDbLine
 10
97.88787878787879
 20
193.86666666666667
 30
0.0
 11
97.88787878787879
 21
214.4666666666667
 31
0.0
  0
CIRCLE
  5
19C
330
17
100
AcDbEntity
  8
M1_SUP_CONT
 62
5
100
AcDbCircle
 10
88.52272727272727
 20
213.9098484848485
 30
0.0
 40
0.72
  0
CIRCLE
  5
19D
330
17
100
AcDbEntity
  8
M1_SUP_CONT
 62
5
100
AcDbCircle
 10
90.38181818181818
 20
213.9098484848485
 30
0.0
 40
0.72
  0
CIRCLE
  5
19E
330
17
100
AcDbEntity
  8
M1_SUP_CONT
 62
5
100
AcDbCircle
 10
92.24090909090908
 20
213.9098484848485
 30
0.0
 40
0.72
  0
CIRCLE
  5
19F
330
17
100
AcDbEntity
  8
M1_SUP_CONT
 62
5
100
AcDbCircle
 10
94.1
 20
213.9098484848485
 30
0.0
 40
0.72
  0
CIRCLE
  5
1A0
330
17
100
AcDbEntity
  8
M1_SUP_CONT
 62
5
100
AcDbCircle
 10
95.9590909090909
 20
213.9098484848485
 30
0.0
 40
0.72
  0
CIRCLE
  5
1A1
330
17
100
AcDbEntity
  8
M1_SUP_CONT
 62
5
100
AcDbCircle
 10
97.81818181818181
 20
213.9098484848485
 30
0.0
 40
0.72
  0
CIRCLE
  5
1A2
330
17
100
AcDbEntity
  8
M1_SUP_CONT
 62
5
100
AcDbCircle
 10
99.67727272727272
 20
213.9098484848485
 30
0.0
 40
0.72
  0
CIRCLE
  5
1A3
330
17
100
AcDbEntity
  8
M4_INF_CONT
 62
1
100
AcDbCircle
 10
90.38181818181818
 20
194.42348484848486
 30
0.0
 40
0.72
  0
CIRCLE
  5
1A4
330
17
100
AcDbEntity
  8
M4_INF_CONT
 62
1
100
AcDbCircle
 10
92.24090909090908
 20
194.42348484848486
 30
0.0
 40
0.72
  0
CIRCLE
  5
1A5
330
17
100
AcDbEntity
  8
M4_INF_CONT
 62
1
100
AcDbCircle
 10
94.1
 20
194.42348484848486
 30
0.0
 40
0.72
  0
CIRCLE
  5
1A6
330
17
100
AcDbEntity
  8
M4_INF_CONT
 62
1
100
AcDbCircle
 10
95.9590909090909
 20
194.42348484848486
 30
0.0
 40
0.72
  0
CIRCLE
  5
1A7
330
17
100
AcDbEntity
  8
M4_INF_CONT
 62
1
100
AcDbCircle
 10
97.81818181818181
 20
194.42348484848486
 30
0.0
 40
0.72
  0
CIRCLE
  5
1A8
330
17
100
AcDbEntity
  8
M5_TORSION
 62
30
100
AcDbCircle
 10
85.49318181818181
 20
196.75757575757578
 30
0.0
 40
0.64
  0
CIRCLE
  5
1A9
330
17
100
AcDbEntity
  8
M5_TORSION
 62
30
100
AcDbCircle
 10
85.49318181818181
 20
211.5757575757576
 30
0.0
 40
0.64
  0
CIRCLE
  5
1AA
330
17
100
AcDbEntity
  8
M5_TORSION
 62
30
100
AcDbCircle
 10
91.23106060606061
 20
196.75757575757578
 30
0.0
 40
0.64
  0
CIRCLE
  5
1AB
330
17
100
AcDbEntity
  8
M5_TORSION
 62
30
100
AcDbCircle
 10
91.23106060606061
 20
211.5757575757576
 30
0.0
 40
0.64
  0
CIRCLE
  5
1AC
330
17
100
AcDbEntity
  8
M5_TORSION
 62
30
100
AcDbCircle
 10
96.9689393939394
 20
196.75757575757578
 30
0.0
 40
0.64
  0
CIRCLE
  5
1AD
330
17
100
AcDbEntity
  8
M5_TORSION
 62
30
100
AcDbCircle
 10
96.9689393939394
 20
211.5757575757576
 30
0.0
 40
0.64
  0
CIRCLE
  5
1AE
330
17
100
AcDbEntity
  8
M5_TORSION
 62
30
100
AcDbCircle
 10
102.70681818181818
 20
196.75757575757578
 30
0.0
 40
0.64
  0
CIRCLE
  5
1AF
330
17
100
AcDbEntity
  8
M5_TORSION
 62
30
100
AcDbCircle
 10
102.70681818181818
 20
211.5757575757576
 30
0.0
 40
0.64
  0
CIRCLE
  5
1B0
330
17
100
AcDbEntity
  8
M5_TORSION
 62
30
100
AcDbCircle
 10
85.49318181818181
 20
199.72121212121215
 30
0.0
 40
0.64
  0
CIRCLE
  5
1B1
330
17
100
AcDbEntity
  8
M5_TORSION
 62
30
100
AcDbCircle
 10
102.70681818181818
 20
199.72121212121215
 30
0.0
 40
0.64
  0
CIRCLE
  5
1B2
330
17
100
AcDbEntity
  8
M5_TORSION
 62
30
100
AcDbCircle
 10
85.49318181818181
 20
202.68484848484852
 30
0.0
 40
0.64
  0
CIRCLE
  5
1B3
330
17
100
AcDbEntity
  8
M5_TORSION
 62
30
100
AcDbCircle
 10
102.70681818181818
 20
202.68484848484852
 30
0.0
 40
0.64
  0
CIRCLE
  5
1B4
330
17
100
AcDbEntity
  8
M5_TORSION
 62
30
100
AcDbCircle
 10
85.49318181818181
 20
205.64848484848488
 30
0.0
 40
0.64
  0
CIRCLE
  5
1B5
330
17
100
AcDbEntity
  8
M5_TORSION
 62
30
100
AcDbCircle
 10
102.70681818181818
 20
205.64848484848488
 30
0.0
 40
0.64
  0
CIRCLE
  5
1B6
330
17
100
AcDbEntity
  8
M5_TORSION
 62
30
100
AcDbCircle
 10
85.49318181818181
 20
208.61212121212122
 30
0.0
 40
0.64
  0
CIRCLE
  5
1B7
330
17
100
AcDbEntity
  8
M5_TORSION
 62
30
100
AcDbCircle
 10
102.70681818181818
 20
208.61212121212122
 30
0.0
 40
0.64
  0
TEXT
  5
1B8
330
17
100
AcDbEntity
  8
TEXTO
 62
7
100
AcDbText
 10
94.1
 20
188.36666666666667
 30
0.0
 40
1.65
  1
A-A APOYO I
 72
1
 11
94.1
 21
188.36666666666667
 31
0.0
100
AcDbText
 73
2
  0
TEXT
  5
1B9
330
17
100
AcDbEntity
  8
TEXTO
 62
7
100
AcDbText
 10
94.1
 20
185.66666666666669
 30
0.0
 40
1.45
  1
500x550
 72
1
 11
94.1
 21
185.66666666666669
 31
0.0
100
AcDbText
 73
2
  0
LWPOLYLINE
  5
1BA
330
17
100
AcDbEntity
  8
CORTE
 62
7
370
20
100
AcDbPolyline
 90
4
 70
1
 10
149.43636363636364
 20
191.66666666666669
 10
172.16363636363636
 20
191.66666666666669
 10
172.16363636363636
 20
216.66666666666669
 10
149.43636363636364
 20
216.66666666666669
  0
LWPOLYLINE
  5
1BB
330
17
100
AcDbEntity
  8
ESTRIBOS
 62
7
370
18
100
AcDbPolyline
 90
4
 70
1
 10
151.63636363636363
 20
193.86666666666667
 10
169.96363636363634
 20
193.86666666666667
 10
169.96363636363634
 20
214.46666666666667
 10
151.63636363636363
 20
214.46666666666667
  0
LINE
  5
1BC
330
17
100
AcDbEntity
  8
ESTRIBOS
 62
7
370
15
100
AcDbLine
 10
157.0121212121212
 20
193.86666666666667
 30
0.0
 11
157.0121212121212
 21
214.4666666666667
 31
0.0
  0
LINE
  5
1BD
330
17
100
AcDbEntity
  8
ESTRIBOS
 62
7
370
15
100
AcDbLine
 10
164.5878787878788
 20
193.86666666666667
 30
0.0
 11
164.5878787878788
 21
214.4666666666667
 31
0.0
  0
CIRCLE
  5
1BE
330
17
100
AcDbEntity
  8
M1_SUP_CONT
 62
5
100
AcDbCircle
 10
159.87045454545455
 20
213.9098484848485
 30
0.0
 40
0.72
  0
CIRCLE
  5
1BF
330
17
100
AcDbEntity
  8
M1_SUP_CONT
 62
5
100
AcDbCircle
 10
161.72954545454544
 20
213.9098484848485
 30
0.0
 40
0.72
  0
CIRCLE
  5
1C0
330
17
100
AcDbEntity
  8
M4_INF_CONT
 62
1
100
AcDbCircle
 10
157.0818181818182
 20
194.42348484848486
 30
0.0
 40
0.72
  0
CIRCLE
  5
1C1
330
17
100
AcDbEntity
  8
M4_INF_CONT
 62
1
100
AcDbCircle
 10
158.9409090909091
 20
194.42348484848486
 30
0.0
 40
0.72
  0
CIRCLE
  5
1C2
330
17
100
AcDbEntity
  8
M4_INF_CONT
 62
1
100
AcDbCircle
 10
160.8
 20
194.42348484848486
 30
0.0
 40
0.72
  0
CIRCLE
  5
1C3
330
17
100
AcDbEntity
  8
M4_INF_CONT
 62
1
100
AcDbCircle
 10
162.6590909090909
 20
194.42348484848486
 30
0.0
 40
0.72
  0
CIRCLE
  5
1C4
330
17
100
AcDbEntity
  8
M4_INF_CONT
 62
1
100
AcDbCircle
 10
164.5181818181818
 20
194.42348484848486
 30
0.0
 40
0.72
  0
CIRCLE
  5
1C5
330
17
100
AcDbEntity
  8
M5_TORSION
 62
30
100
AcDbCircle
 10
152.1931818181818
 20
196.75757575757578
 30
0.0
 40
0.64
  0
CIRCLE
  5
1C6
330
17
100
AcDbEntity
  8
M5_TORSION
 62
30
100
AcDbCircle
 10
152.1931818181818
 20
211.5757575757576
 30
0.0
 40
0.64
  0
CIRCLE
  5
1C7
330
17
100
AcDbEntity
  8
M5_TORSION
 62
30
100
AcDbCircle
 10
157.9310606060606
 20
196.75757575757578
 30
0.0
 40
0.64
  0
CIRCLE
  5
1C8
330
17
100
AcDbEntity
  8
M5_TORSION
 62
30
100
AcDbCircle
 10
157.9310606060606
 20
211.5757575757576
 30
0.0
 40
0.64
  0
CIRCLE
  5
1C9
330
17
100
AcDbEntity
  8
M5_TORSION
 62
30
100
AcDbCircle
 10
163.66893939393938
 20
196.75757575757578
 30
0.0
 40
0.64
  0
CIRCLE
  5
1CA
330
17
100
AcDbEntity
  8
M5_TORSION
 62
30
100
AcDbCircle
 10
163.66893939393938
 20
211.5757575757576
 30
0.0
 40
0.64
  0
CIRCLE
  5
1CB
330
17
100
AcDbEntity
  8
M5_TORSION
 62
30
100
AcDbCircle
 10
169.40681818181818
 20
196.75757575757578
 30
0.0
 40
0.64
  0
CIRCLE
  5
1CC
330
17
100
AcDbEntity
  8
M5_TORSION
 62
30
100
AcDbCircle
 10
169.40681818181818
 20
211.5757575757576
 30
0.0
 40
0.64
  0
CIRCLE
  5
1CD
330
17
100
AcDbEntity
  8
M5_TORSION
 62
30
100
AcDbCircle
 10
152.1931818181818
 20
199.72121212121215
 30
0.0
 40
0.64
  0
CIRCLE
  5
1CE
330
17
100
AcDbEntity
  8
M5_TORSION
 62
30
100
AcDbCircle
 10
169.40681818181818
 20
199.72121212121215
 30
0.0
 40
0.64
  0
CIRCLE
  5
1CF
330
17
100
AcDbEntity
  8
M5_TORSION
 62
30
100
AcDbCircle
 10
152.1931818181818
 20
202.68484848484852
 30
0.0
 40
0.64
  0
CIRCLE
  5
1D0
330
17
100
AcDbEntity
  8
M5_TORSION
 62
30
100
AcDbCircle
 10
169.40681818181818
 20
202.68484848484852
 30
0.0
 40
0.64
  0
CIRCLE
  5
1D1
330
17
100
AcDbEntity
  8
M5_TORSION
 62
30
100
AcDbCircle
 10
152.1931818181818
 20
205.64848484848488
 30
0.0
 40
0.64
  0
CIRCLE
  5
1D2
330
17
100
AcDbEntity
  8
M5_TORSION
 62
30
100
AcDbCircle
 10
169.40681818181818
 20
205.64848484848488
 30
0.0
 40
0.64
  0
CIRCLE
  5
1D3
330
17
100
AcDbEntity
  8
M5_TORSION
 62
30
100
AcDbCircle
 10
152.1931818181818
 20
208.61212121212122
 30
0.0
 40
0.64
  0
CIRCLE
  5
1D4
330
17
100
AcDbEntity
  8
M5_TORSION
 62
30
100
AcDbCircle
 10
169.40681818181818
 20
208.61212121212122
 30
0.0
 40
0.64
  0
TEXT
  5
1D5
330
17
100
AcDbEntity
  8
TEXTO
 62
7
100
AcDbText
 10
160.8
 20
188.36666666666667
 30
0.0
 40
1.65
  1
B-B CENTRO
 72
1
 11
160.8
 21
188.36666666666667
 31
0.0
100
AcDbText
 73
2
  0
TEXT
  5
1D6
330
17
100
AcDbEntity
  8
TEXTO
 62
7
100
AcDbText
 10
160.8
 20
185.66666666666669
 30
0.0
 40
1.45
  1
500x550
 72
1
 11
160.8
 21
185.66666666666669
 31
0.0
100
AcDbText
 73
2
  0
LWPOLYLINE
  5
1D7
330
17
100
AcDbEntity
  8
CORTE
 62
7
370
20
100
AcDbPolyline
 90
4
 70
1
 10
216.13636363636363
 20
191.66666666666669
 10
238.86363636363635
 20
191.66666666666669
 10
238.86363636363635
 20
216.66666666666669
 10
216.13636363636363
 20
216.66666666666669
  0
LWPOLYLINE
  5
1D8
330
17
100
AcDbEntity
  8
ESTRIBOS
 62
7
370
18
100
AcDbPolyline
 90
4
 70
1
 10
218.33636363636361
 20
193.86666666666667
 10
236.66363636363633
 20
193.86666666666667
 10
236.66363636363633
 20
214.46666666666667
 10
218.33636363636361
 20
214.46666666666667
  0
LINE
  5
1D9
330
17
100
AcDbEntity
  8
ESTRIBOS
 62
7
370
15
100
AcDbLine
 10
223.7121212121212
 20
193.86666666666667
 30
0.0
 11
223.7121212121212
 21
214.4666666666667
 31
0.0
  0
LINE
  5
1DA
330
17
100
AcDbEntity
  8
ESTRIBOS
 62
7
370
15
100
AcDbLine
 10
231.28787878787878
 20
193.86666666666667
 30
0.0
 11
231.28787878787878
 21
214.4666666666667
 31
0.0
  0
CIRCLE
  5
1DB
330
17
100
AcDbEntity
  8
M1_SUP_CONT
 62
5
100
AcDbCircle
 10
221.92272727272726
 20
213.9098484848485
 30
0.0
 40
0.72
  0
CIRCLE
  5
1DC
330
17
100
AcDbEntity
  8
M1_SUP_CONT
 62
5
100
AcDbCircle
 10
223.78181818181818
 20
213.9098484848485
 30
0.0
 40
0.72
  0
CIRCLE
  5
1DD
330
17
100
AcDbEntity
  8
M1_SUP_CONT
 62
5
100
AcDbCircle
 10
225.64090909090908
 20
213.9098484848485
 30
0.0
 40
0.72
  0
CIRCLE
  5
1DE
330
17
100
AcDbEntity
  8
M1_SUP_CONT
 62
5
100
AcDbCircle
 10
227.5
 20
213.9098484848485
 30
0.0
 40
0.72
  0
CIRCLE
  5
1DF
330
17
100
AcDbEntity
  8
M1_SUP_CONT
 62
5
100
AcDbCircle
 10
229.3590909090909
 20
213.9098484848485
 30
0.0
 40
0.72
  0
CIRCLE
  5
1E0
330
17
100
AcDbEntity
  8
M1_SUP_CONT
 62
5
100
AcDbCircle
 10
231.21818181818182
 20
213.9098484848485
 30
0.0
 40
0.72
  0
CIRCLE
  5
1E1
330
17
100
AcDbEntity
  8
M1_SUP_CONT
 62
5
100
AcDbCircle
 10
233.0772727272727
 20
213.9098484848485
 30
0.0
 40
0.72
  0
CIRCLE
  5
1E2
330
17
100
AcDbEntity
  8
M4_INF_CONT
 62
1
100
AcDbCircle
 10
223.78181818181818
 20
194.42348484848486
 30
0.0
 40
0.72
  0
CIRCLE
  5
1E3
330
17
100
AcDbEntity
  8
M4_INF_CONT
 62
1
100
AcDbCircle
 10
225.64090909090908
 20
194.42348484848486
 30
0.0
 40
0.72
  0
CIRCLE
  5
1E4
330
17
100
AcDbEntity
  8
M4_INF_CONT
 62
1
100
AcDbCircle
 10
227.5
 20
194.42348484848486
 30
0.0
 40
0.72
  0
CIRCLE
  5
1E5
330
17
100
AcDbEntity
  8
M4_INF_CONT
 62
1
100
AcDbCircle
 10
229.3590909090909
 20
194.42348484848486
 30
0.0
 40
0.72
  0
CIRCLE
  5
1E6
330
17
100
AcDbEntity
  8
M4_INF_CONT
 62
1
100
AcDbCircle
 10
231.2181818181818
 20
194.42348484848486
 30
0.0
 40
0.72
  0
CIRCLE
  5
1E7
330
17
100
AcDbEntity
  8
M5_TORSION
 62
30
100
AcDbCircle
 10
218.8931818181818
 20
196.75757575757578
 30
0.0
 40
0.64
  0
CIRCLE
  5
1E8
330
17
100
AcDbEntity
  8
M5_TORSION
 62
30
100
AcDbCircle
 10
218.8931818181818
 20
211.5757575757576
 30
0.0
 40
0.64
  0
CIRCLE
  5
1E9
330
17
100
AcDbEntity
  8
M5_TORSION
 62
30
100
AcDbCircle
 10
224.6310606060606
 20
196.75757575757578
 30
0.0
 40
0.64
  0
CIRCLE
  5
1EA
330
17
100
AcDbEntity
  8
M5_TORSION
 62
30
100
AcDbCircle
 10
224.6310606060606
 20
211.5757575757576
 30
0.0
 40
0.64
  0
CIRCLE
  5
1EB
330
17
100
AcDbEntity
  8
M5_TORSION
 62
30
100
AcDbCircle
 10
230.36893939393937
 20
196.75757575757578
 30
0.0
 40
0.64
  0
CIRCLE
  5
1EC
330
17
100
AcDbEntity
  8
M5_TORSION
 62
30
100
AcDbCircle
 10
230.36893939393937
 20
211.5757575757576
 30
0.0
 40
0.64
  0
CIRCLE
  5
1ED
330
17
100
AcDbEntity
  8
M5_TORSION
 62
30
100
AcDbCircle
 10
236.10681818181817
 20
196.75757575757578
 30
0.0
 40
0.64
  0
CIRCLE
  5
1EE
330
17
100
AcDbEntity
  8
M5_TORSION
 62
30
100
AcDbCircle
 10
236.10681818181817
 20
211.5757575757576
 30
0.0
 40
0.64
  0
CIRCLE
  5
1EF
330
17
100
AcDbEntity
  8
M5_TORSION
 62
30
100
AcDbCircle
 10
218.8931818181818
 20
199.72121212121215
 30
0.0
 40
0.64
  0
CIRCLE
  5
1F0
330
17
100
AcDbEntity
  8
M5_TORSION
 62
30
100
AcDbCircle
 10
236.10681818181817
 20
199.72121212121215
 30
0.0
 40
0.64
  0
CIRCLE
  5
1F1
330
17
100
AcDbEntity
  8
M5_TORSION
 62
30
100
AcDbCircle
 10
218.8931818181818
 20
202.68484848484852
 30
0.0
 40
0.64
  0
CIRCLE
  5
1F2
330
17
100
AcDbEntity
  8
M5_TORSION
 62
30
100
AcDbCircle
 10
236.10681818181817
 20
202.68484848484852
 30
0.0
 40
0.64
  0
CIRCLE
  5
1F3
330
17
100
AcDbEntity
  8
M5_TORSION
 62
30
100
AcDbCircle
 10
218.8931818181818
 20
205.64848484848488
 30
0.0
 40
0.64
  0
CIRCLE
  5
1F4
330
17
100
AcDbEntity
  8
M5_TORSION
 62
30
100
AcDbCircle
 10
236.10681818181817
 20
205.64848484848488
 30
0.0
 40
0.64
  0
CIRCLE
  5
1F5
330
17
100
AcDbEntity
  8
M5_TORSION
 62
30
100
AcDbCircle
 10
218.8931818181818
 20
208.61212121212122
 30
0.0
 40
0.64
  0
CIRCLE
  5
1F6
330
17
100
AcDbEntity
  8
M5_TORSION
 62
30
100
AcDbCircle
 10
236.10681818181817
 20
208.61212121212122
 30
0.0
 40
0.64
  0
TEXT
  5
1F7
330
17
100
AcDbEntity
  8
TEXTO
 62
7
100
AcDbText
 10
227.5
 20
188.36666666666667
 30
0.0
 40
1.65
  1
C-C APOYO J
 72
1
 11
227.5
 21
188.36666666666667
 31
0.0
100
AcDbText
 73
2
  0
TEXT
  5
1F8
330
17
100
AcDbEntity
  8
TEXTO
 62
7
100
AcDbText
 10
227.5
 20
185.66666666666669
 30
0.0
 40
1.45
  1
500x550
 72
1
 11
227.5
 21
185.66666666666669
 31
0.0
100
AcDbText
 73
2
  0
TEXT
  5
1F9
330
17
100
AcDbEntity
  8
TEXTO
 62
7
100
AcDbText
 10
15.0
 20
191.66666666666669
 30
0.0
 40
1.35
  1
140 frames | 7 longitudes
 11
15.0
 21
191.66666666666669
 31
0.0
100
AcDbText
  0
TEXT
  5
1FA
330
17
100
AcDbEntity
  8
TEXTO
 62
3
100
AcDbText
 10
295.0
 20
191.66666666666669
 30
0.0
 40
1.35
  1
Marcas separadas; cantidades reales en cortes
 72
2
 11
295.0
 21
191.66666666666669
 31
0.0
100
AcDbText
  0
LWPOLYLINE
  5
1FB
330
17
100
AcDbEntity
  8
GUIA
 62
9
370
9
100
AcDbPolyline
 90
4
 70
1
 10
304.0
 20
188.66666666666669
 10
594.0
 20
188.66666666666669
 10
594.0
 20
337.33333333333337
 10
304.0
 20
337.33333333333337
  0
TEXT
  5
1FC
330
17
100
AcDbEntity
  8
TITULO
 62
6
100
AcDbText
 10
449.0
 20
333.33333333333337
 30
0.0
 40
2.45
  1
VIGA VR3 - 500x550 mm
 72
1
 11
449.0
 21
333.33333333333337
 31
0.0
100
AcDbText
 73
2
  0
LWPOLYLINE
  5
1FD
330
17
100
AcDbEntity
  8
APOYOS
 62
4
370
18
100
AcDbPolyline
 90
4
 70
1
 10
330.4
 20
303.1333333333334
 10
339.59999999999997
 20
303.1333333333334
 10
339.59999999999997
 20
324.53333333333336
 10
330.4
 20
324.53333333333336
  0
LWPOLYLINE
  5
1FE
330
17
100
AcDbEntity
  8
APOYOS
 62
4
370
18
100
AcDbPolyline
 90
4
 70
1
 10
578.4
 20
303.1333333333334
 10
587.6
 20
303.1333333333334
 10
587.6
 20
324.53333333333336
 10
578.4
 20
324.53333333333336
  0
LINE
  5
1FF
330
17
100
AcDbEntity
  8
EJES
 62
8
370
9
100
AcDbLine
 10
335.0
 20
301.33333333333337
 30
0.0
 11
335.0
 21
328.33333333333337
 31
0.0
  0
LINE
  5
200
330
17
100
AcDbEntity
  8
EJES
 62
8
370
9
100
AcDbLine
 10
583.0
 20
301.33333333333337
 30
0.0
 11
583.0
 21
328.33333333333337
 31
0.0
  0
LWPOLYLINE
  5
201
330
17
100
AcDbEntity
  8
CONTORNO
 62
7
370
18
100
AcDbPolyline
 90
4
 70
1
 10
339.6
 20
307.33333333333337
 10
578.4
 20
307.33333333333337
 10
578.4
 20
320.33333333333337
 10
339.6
 20
320.33333333333337
  0
TEXT
  5
202
330
17
100
AcDbEntity
  8
EJES
 62
8
100
AcDbText
 10
335.0
 20
325.53333333333336
 30
0.0
 40
1.6
  1
I
 72
1
 11
335.0
 21
325.53333333333336
 31
0.0
100
AcDbText
 73
2
  0
TEXT
  5
203
330
17
100
AcDbEntity
  8
EJES
 62
8
100
AcDbText
 10
583.0
 20
325.53333333333336
 30
0.0
 40
1.6
  1
J
 72
1
 11
583.0
 21
325.53333333333336
 31
0.0
100
AcDbText
 73
2
  0
LWPOLYLINE
  5
204
330
17
100
AcDbEntity
  8
M1_SUP_CONT
 62
5
370
35
100
AcDbPolyline
 90
4
 70
0
 10
333.8
 20
313.9333333333334
 10
333.8
 20
318.33333333333337
 10
584.2
 20
318.33333333333337
 10
584.2
 20
313.9333333333334
  0
LWPOLYLINE
  5
205
330
17
100
AcDbEntity
  8
M2_SUP_IZQ
 62
2
370
35
100
AcDbPolyline
 90
3
 70
0
 10
331.8
 20
310.9333333333334
 10
331.8
 20
315.33333333333337
 10
399.3
 20
315.33333333333337
  0
LWPOLYLINE
  5
206
330
17
100
AcDbEntity
  8
M3_SUP_DER
 62
2
370
35
100
AcDbPolyline
 90
3
 70
0
 10
518.7
 20
312.53333333333336
 10
586.2
 20
312.53333333333336
 10
586.2
 20
308.1333333333334
  0
LWPOLYLINE
  5
207
330
17
100
AcDbEntity
  8
M4_INF_CONT
 62
1
370
35
100
AcDbPolyline
 90
4
 70
0
 10
336.2
 20
313.83333333333337
 10
336.2
 20
309.4333333333334
 10
581.8
 20
309.4333333333334
 10
581.8
 20
313.83333333333337
  0
LWPOLYLINE
  5
208
330
17
100
AcDbEntity
  8
M5_TORSION
 62
30
370
30
100
AcDbPolyline
 90
4
 70
0
 10
338.0
 20
310.4333333333334
 10
338.0
 20
313.83333333333337
 10
580.0
 20
313.83333333333337
 10
580.0
 20
310.4333333333334
  0
LINE
  5
209
330
17
100
AcDbEntity
  8
CORTE
 62
7
370
9
100
AcDbLine
 10
363.48
 20
305.33333333333337
 30
0.0
 11
363.48
 21
322.33333333333337
 31
0.0
  0
TEXT
  5
20A
330
17
100
AcDbEntity
  8
CORTE
 62
7
100
AcDbText
 10
363.48
 20
322.9333333333334
 30
0.0
 40
1.35
  1
A
 72
1
 11
363.48
 21
322.9333333333334
 31
0.0
100
AcDbText
 73
2
  0
LINE
  5
20B
330
17
100
AcDbEntity
  8
CORTE
 62
7
370
9
100
AcDbLine
 10
459.0
 20
305.33333333333337
 30
0.0
 11
459.0
 21
322.33333333333337
 31
0.0
  0
TEXT
  5
20C
330
17
100
AcDbEntity
  8
CORTE
 62
7
100
AcDbText
 10
459.0
 20
322.9333333333334
 30
0.0
 40
1.35
  1
B
 72
1
 11
459.0
 21
322.9333333333334
 31
0.0
100
AcDbText
 73
2
  0
LINE
  5
20D
330
17
100
AcDbEntity
  8
CORTE
 62
7
370
9
100
AcDbLine
 10
554.52
 20
305.33333333333337
 30
0.0
 11
554.52
 21
322.33333333333337
 31
0.0
  0
TEXT
  5
20E
330
17
100
AcDbEntity
  8
CORTE
 62
7
100
AcDbText
 10
554.52
 20
322.9333333333334
 30
0.0
 40
1.35
  1
C
 72
1
 11
554.52
 21
322.9333333333334
 31
0.0
100
AcDbText
 73
2
  0
LINE
  5
20F
330
17
100
AcDbEntity
  8
COTAS
 62
3
370
15
100
AcDbLine
 10
335.0
 20
300.33333333333337
 30
0.0
 11
583.0
 21
300.33333333333337
 31
0.0
  0
LINE
  5
210
330
17
100
AcDbEntity
  8
COTAS
 62
3
370
15
100
AcDbLine
 10
335.0
 20
299.1333333333334
 30
0.0
 11
335.0
 21
301.53333333333336
 31
0.0
  0
LINE
  5
211
330
17
100
AcDbEntity
  8
COTAS
 62
3
370
15
100
AcDbLine
 10
583.0
 20
299.1333333333334
 30
0.0
 11
583.0
 21
301.53333333333336
 31
0.0
  0
TEXT
  5
212
330
17
100
AcDbEntity
  8
COTAS
 62
3
100
AcDbText
 10
459.0
 20
301.6333333333334
 30
0.0
 40
1.6
  1
L SAP I-J = 1.500-4.000 m
 72
1
 11
459.0
 21
301.6333333333334
 31
0.0
100
AcDbText
 73
2
  0
TEXT
  5
213
330
17
100
AcDbEntity
  8
TEXTO
 62
7
100
AcDbText
 10
459.0
 20
297.33333333333337
 30
0.0
 40
1.45
  1
Ln = 0.900-3.400 m
 72
1
 11
459.0
 21
297.33333333333337
 31
0.0
100
AcDbText
 73
2
  0
TEXT
  5
214
330
17
100
AcDbEntity
  8
TEXTO
 62
5
100
AcDbText
 10
310.0
 20
293.33333333333337
 30
0.0
 40
1.45
  1
M1
 11
310.0
 21
293.33333333333337
 31
0.0
100
AcDbText
  0
TEXT
  5
215
330
17
100
AcDbEntity
  8
TEXTO
 62
5
100
AcDbText
 10
326.0
 20
293.33333333333337
 30
0.0
 40
1.42
  1
2#5 SUP CONT | Lc=1510-4010 mm
 11
326.0
 21
293.33333333333337
 31
0.0
100
AcDbText
  0
TEXT
  5
216
330
17
100
AcDbEntity
  8
TEXTO
 62
2
100
AcDbText
 10
310.0
 20
290.1333333333334
 30
0.0
 40
1.45
  1
M2/M3
 11
310.0
 21
290.1333333333334
 31
0.0
100
AcDbText
  0
TEXT
  5
217
330
17
100
AcDbEntity
  8
TEXTO
 62
2
100
AcDbText
 10
326.0
 20
290.1333333333334
 30
0.0
 40
1.42
  1
7#5 SUP/APOYO | Lc=530-1155 mm
 11
326.0
 21
290.1333333333334
 31
0.0
100
AcDbText
  0
TEXT
  5
218
330
17
100
AcDbEntity
  8
TEXTO
 62
1
100
AcDbText
 10
310.0
 20
286.9333333333334
 30
0.0
 40
1.45
  1
M4
 11
310.0
 21
286.9333333333334
 31
0.0
100
AcDbText
  0
TEXT
  5
219
330
17
100
AcDbEntity
  8
TEXTO
 62
1
100
AcDbText
 10
326.0
 20
286.9333333333334
 30
0.0
 40
1.42
  1
5#5 INF CONT | Lc=1510-4010 mm
 11
326.0
 21
286.9333333333334
 31
0.0
100
AcDbText
  0
TEXT
  5
21A
330
17
100
AcDbEntity
  8
TEXTO
 62
30
100
AcDbText
 10
310.0
 20
283.73333333333335
 30
0.0
 40
1.45
  1
M5
 11
310.0
 21
283.73333333333335
 31
0.0
100
AcDbText
  0
TEXT
  5
21B
330
17
100
AcDbEntity
  8
TEXTO
 62
30
100
AcDbText
 10
326.0
 20
283.73333333333335
 30
0.0
 40
1.42
  1
16#5 TOR DEDIC. | Lc=1510-4010 mm
 11
326.0
 21
283.73333333333335
 31
0.0
100
AcDbText
  0
TEXT
  5
21C
330
17
100
AcDbEntity
  8
TEXTO
 62
7
100
AcDbText
 10
310.0
 20
279.73333333333335
 30
0.0
 40
1.35
  1
#5: ld sup=480; ld inf=370; ldh=305; 90°: cola=195, Dint>=100 mm
 11
310.0
 21
279.73333333333335
 31
0.0
100
AcDbText
  0
TEXT
  5
21D
330
17
100
AcDbEntity
  8
TEXTO
 62
7
100
AcDbText
 10
310.0
 20
276.73333333333335
 30
0.0
 40
1.35
  1
E1 Nº4 4R: 1ro<=50; @80 en 2h; @80 centro; 135° cola=80, Dint>=80
 11
310.0
 21
276.73333333333335
 31
0.0
100
AcDbText
  0
LWPOLYLINE
  5
21E
330
17
100
AcDbEntity
  8
CORTE
 62
7
370
20
100
AcDbPolyline
 90
4
 70
1
 10
376.73636363636365
 20
191.66666666666669
 10
399.4636363636364
 20
191.66666666666669
 10
399.4636363636364
 20
216.66666666666669
 10
376.73636363636365
 20
216.66666666666669
  0
LWPOLYLINE
  5
21F
330
17
100
AcDbEntity
  8
ESTRIBOS
 62
7
370
18
100
AcDbPolyline
 90
4
 70
1
 10
378.93636363636364
 20
193.86666666666667
 10
397.26363636363635
 20
193.86666666666667
 10
397.26363636363635
 20
214.46666666666667
 10
378.93636363636364
 20
214.46666666666667
  0
LINE
  5
220
330
17
100
AcDbEntity
  8
ESTRIBOS
 62
7
370
15
100
AcDbLine
 10
384.3121212121212
 20
193.86666666666667
 30
0.0
 11
384.3121212121212
 21
214.4666666666667
 31
0.0
  0
LINE
  5
221
330
17
100
AcDbEntity
  8
ESTRIBOS
 62
7
370
15
100
AcDbLine
 10
391.8878787878788
 20
193.86666666666667
 30
0.0
 11
391.8878787878788
 21
214.4666666666667
 31
0.0
  0
CIRCLE
  5
222
330
17
100
AcDbEntity
  8
M1_SUP_CONT
 62
5
100
AcDbCircle
 10
380.6636363636364
 20
213.9098484848485
 30
0.0
 40
0.72
  0
CIRCLE
  5
223
330
17
100
AcDbEntity
  8
M1_SUP_CONT
 62
5
100
AcDbCircle
 10
382.5227272727273
 20
213.9098484848485
 30
0.0
 40
0.72
  0
CIRCLE
  5
224
330
17
100
AcDbEntity
  8
M1_SUP_CONT
 62
5
100
AcDbCircle
 10
384.3818181818182
 20
213.9098484848485
 30
0.0
 40
0.72
  0
CIRCLE
  5
225
330
17
100
AcDbEntity
  8
M1_SUP_CONT
 62
5
100
AcDbCircle
 10
386.2409090909091
 20
213.9098484848485
 30
0.0
 40
0.72
  0
CIRCLE
  5
226
330
17
100
AcDbEntity
  8
M1_SUP_CONT
 62
5
100
AcDbCircle
 10
388.1
 20
213.9098484848485
 30
0.0
 40
0.72
  0
CIRCLE
  5
227
330
17
100
AcDbEntity
  8
M1_SUP_CONT
 62
5
100
AcDbCircle
 10
389.95909090909095
 20
213.9098484848485
 30
0.0
 40
0.72
  0
CIRCLE
  5
228
330
17
100
AcDbEntity
  8
M1_SUP_CONT
 62
5
100
AcDbCircle
 10
391.8181818181818
 20
213.9098484848485
 30
0.0
 40
0.72
  0
CIRCLE
  5
229
330
17
100
AcDbEntity
  8
M1_SUP_CONT
 62
5
100
AcDbCircle
 10
393.67727272727274
 20
213.9098484848485
 30
0.0
 40
0.72
  0
CIRCLE
  5
22A
330
17
100
AcDbEntity
  8
M1_SUP_CONT
 62
5
100
AcDbCircle
 10
395.53636363636366
 20
213.9098484848485
 30
0.0
 40
0.72
  0
CIRCLE
  5
22B
330
17
100
AcDbEntity
  8
M4_INF_CONT
 62
1
100
AcDbCircle
 10
384.3818181818182
 20
194.42348484848486
 30
0.0
 40
0.72
  0
CIRCLE
  5
22C
330
17
100
AcDbEntity
  8
M4_INF_CONT
 62
1
100
AcDbCircle
 10
386.2409090909091
 20
194.42348484848486
 30
0.0
 40
0.72
  0
CIRCLE
  5
22D
330
17
100
AcDbEntity
  8
M4_INF_CONT
 62
1
100
AcDbCircle
 10
388.1
 20
194.42348484848486
 30
0.0
 40
0.72
  0
CIRCLE
  5
22E
330
17
100
AcDbEntity
  8
M4_INF_CONT
 62
1
100
AcDbCircle
 10
389.95909090909095
 20
194.42348484848486
 30
0.0
 40
0.72
  0
CIRCLE
  5
22F
330
17
100
AcDbEntity
  8
M4_INF_CONT
 62
1
100
AcDbCircle
 10
391.8181818181818
 20
194.42348484848486
 30
0.0
 40
0.72
  0
CIRCLE
  5
230
330
17
100
AcDbEntity
  8
M5_TORSION
 62
30
100
AcDbCircle
 10
379.4931818181818
 20
196.75757575757578
 30
0.0
 40
0.64
  0
CIRCLE
  5
231
330
17
100
AcDbEntity
  8
M5_TORSION
 62
30
100
AcDbCircle
 10
379.4931818181818
 20
211.5757575757576
 30
0.0
 40
0.64
  0
CIRCLE
  5
232
330
17
100
AcDbEntity
  8
M5_TORSION
 62
30
100
AcDbCircle
 10
385.2310606060606
 20
196.75757575757578
 30
0.0
 40
0.64
  0
CIRCLE
  5
233
330
17
100
AcDbEntity
  8
M5_TORSION
 62
30
100
AcDbCircle
 10
385.2310606060606
 20
211.5757575757576
 30
0.0
 40
0.64
  0
CIRCLE
  5
234
330
17
100
AcDbEntity
  8
M5_TORSION
 62
30
100
AcDbCircle
 10
390.9689393939394
 20
196.75757575757578
 30
0.0
 40
0.64
  0
CIRCLE
  5
235
330
17
100
AcDbEntity
  8
M5_TORSION
 62
30
100
AcDbCircle
 10
390.9689393939394
 20
211.5757575757576
 30
0.0
 40
0.64
  0
CIRCLE
  5
236
330
17
100
AcDbEntity
  8
M5_TORSION
 62
30
100
AcDbCircle
 10
396.7068181818182
 20
196.75757575757578
 30
0.0
 40
0.64
  0
CIRCLE
  5
237
330
17
100
AcDbEntity
  8
M5_TORSION
 62
30
100
AcDbCircle
 10
396.7068181818182
 20
211.5757575757576
 30
0.0
 40
0.64
  0
CIRCLE
  5
238
330
17
100
AcDbEntity
  8
M5_TORSION
 62
30
100
AcDbCircle
 10
379.4931818181818
 20
199.72121212121215
 30
0.0
 40
0.64
  0
CIRCLE
  5
239
330
17
100
AcDbEntity
  8
M5_TORSION
 62
30
100
AcDbCircle
 10
396.7068181818182
 20
199.72121212121215
 30
0.0
 40
0.64
  0
CIRCLE
  5
23A
330
17
100
AcDbEntity
  8
M5_TORSION
 62
30
100
AcDbCircle
 10
379.4931818181818
 20
202.68484848484852
 30
0.0
 40
0.64
  0
CIRCLE
  5
23B
330
17
100
AcDbEntity
  8
M5_TORSION
 62
30
100
AcDbCircle
 10
396.7068181818182
 20
202.68484848484852
 30
0.0
 40
0.64
  0
CIRCLE
  5
23C
330
17
100
AcDbEntity
  8
M5_TORSION
 62
30
100
AcDbCircle
 10
379.4931818181818
 20
205.64848484848488
 30
0.0
 40
0.64
  0
CIRCLE
  5
23D
330
17
100
AcDbEntity
  8
M5_TORSION
 62
30
100
AcDbCircle
 10
396.7068181818182
 20
205.64848484848488
 30
0.0
 40
0.64
  0
CIRCLE
  5
23E
330
17
100
AcDbEntity
  8
M5_TORSION
 62
30
100
AcDbCircle
 10
379.4931818181818
 20
208.61212121212122
 30
0.0
 40
0.64
  0
CIRCLE
  5
23F
330
17
100
AcDbEntity
  8
M5_TORSION
 62
30
100
AcDbCircle
 10
396.7068181818182
 20
208.61212121212122
 30
0.0
 40
0.64
  0
TEXT
  5
240
330
17
100
AcDbEntity
  8
TEXTO
 62
7
100
AcDbText
 10
388.1
 20
188.36666666666667
 30
0.0
 40
1.65
  1
A-A APOYO I
 72
1
 11
388.1
 21
188.36666666666667
 31
0.0
100
AcDbText
 73
2
  0
TEXT
  5
241
330
17
100
AcDbEntity
  8
TEXTO
 62
7
100
AcDbText
 10
388.1
 20
185.66666666666669
 30
0.0
 40
1.45
  1
500x550
 72
1
 11
388.1
 21
185.66666666666669
 31
0.0
100
AcDbText
 73
2
  0
LWPOLYLINE
  5
242
330
17
100
AcDbEntity
  8
CORTE
 62
7
370
20
100
AcDbPolyline
 90
4
 70
1
 10
443.43636363636364
 20
191.66666666666669
 10
466.1636363636364
 20
191.66666666666669
 10
466.1636363636364
 20
216.66666666666669
 10
443.43636363636364
 20
216.66666666666669
  0
LWPOLYLINE
  5
243
330
17
100
AcDbEntity
  8
ESTRIBOS
 62
7
370
18
100
AcDbPolyline
 90
4
 70
1
 10
445.6363636363636
 20
193.86666666666667
 10
463.96363636363634
 20
193.86666666666667
 10
463.96363636363634
 20
214.46666666666667
 10
445.6363636363636
 20
214.46666666666667
  0
LINE
  5
244
330
17
100
AcDbEntity
  8
ESTRIBOS
 62
7
370
15
100
AcDbLine
 10
451.0121212121212
 20
193.86666666666667
 30
0.0
 11
451.0121212121212
 21
214.4666666666667
 31
0.0
  0
LINE
  5
245
330
17
100
AcDbEntity
  8
ESTRIBOS
 62
7
370
15
100
AcDbLine
 10
458.58787878787876
 20
193.86666666666667
 30
0.0
 11
458.58787878787876
 21
214.4666666666667
 31
0.0
  0
CIRCLE
  5
246
330
17
100
AcDbEntity
  8
M1_SUP_CONT
 62
5
100
AcDbCircle
 10
453.87045454545455
 20
213.9098484848485
 30
0.0
 40
0.72
  0
CIRCLE
  5
247
330
17
100
AcDbEntity
  8
M1_SUP_CONT
 62
5
100
AcDbCircle
 10
455.7295454545455
 20
213.9098484848485
 30
0.0
 40
0.72
  0
CIRCLE
  5
248
330
17
100
AcDbEntity
  8
M4_INF_CONT
 62
1
100
AcDbCircle
 10
451.08181818181816
 20
194.42348484848486
 30
0.0
 40
0.72
  0
CIRCLE
  5
249
330
17
100
AcDbEntity
  8
M4_INF_CONT
 62
1
100
AcDbCircle
 10
452.9409090909091
 20
194.42348484848486
 30
0.0
 40
0.72
  0
CIRCLE
  5
24A
330
17
100
AcDbEntity
  8
M4_INF_CONT
 62
1
100
AcDbCircle
 10
454.8
 20
194.42348484848486
 30
0.0
 40
0.72
  0
CIRCLE
  5
24B
330
17
100
AcDbEntity
  8
M4_INF_CONT
 62
1
100
AcDbCircle
 10
456.65909090909093
 20
194.42348484848486
 30
0.0
 40
0.72
  0
CIRCLE
  5
24C
330
17
100
AcDbEntity
  8
M4_INF_CONT
 62
1
100
AcDbCircle
 10
458.5181818181818
 20
194.42348484848486
 30
0.0
 40
0.72
  0
CIRCLE
  5
24D
330
17
100
AcDbEntity
  8
M5_TORSION
 62
30
100
AcDbCircle
 10
446.1931818181818
 20
196.75757575757578
 30
0.0
 40
0.64
  0
CIRCLE
  5
24E
330
17
100
AcDbEntity
  8
M5_TORSION
 62
30
100
AcDbCircle
 10
446.1931818181818
 20
211.5757575757576
 30
0.0
 40
0.64
  0
CIRCLE
  5
24F
330
17
100
AcDbEntity
  8
M5_TORSION
 62
30
100
AcDbCircle
 10
451.9310606060606
 20
196.75757575757578
 30
0.0
 40
0.64
  0
CIRCLE
  5
250
330
17
100
AcDbEntity
  8
M5_TORSION
 62
30
100
AcDbCircle
 10
451.9310606060606
 20
211.5757575757576
 30
0.0
 40
0.64
  0
CIRCLE
  5
251
330
17
100
AcDbEntity
  8
M5_TORSION
 62
30
100
AcDbCircle
 10
457.6689393939394
 20
196.75757575757578
 30
0.0
 40
0.64
  0
CIRCLE
  5
252
330
17
100
AcDbEntity
  8
M5_TORSION
 62
30
100
AcDbCircle
 10
457.6689393939394
 20
211.5757575757576
 30
0.0
 40
0.64
  0
CIRCLE
  5
253
330
17
100
AcDbEntity
  8
M5_TORSION
 62
30
100
AcDbCircle
 10
463.4068181818182
 20
196.75757575757578
 30
0.0
 40
0.64
  0
CIRCLE
  5
254
330
17
100
AcDbEntity
  8
M5_TORSION
 62
30
100
AcDbCircle
 10
463.4068181818182
 20
211.5757575757576
 30
0.0
 40
0.64
  0
CIRCLE
  5
255
330
17
100
AcDbEntity
  8
M5_TORSION
 62
30
100
AcDbCircle
 10
446.1931818181818
 20
199.72121212121215
 30
0.0
 40
0.64
  0
CIRCLE
  5
256
330
17
100
AcDbEntity
  8
M5_TORSION
 62
30
100
AcDbCircle
 10
463.4068181818182
 20
199.72121212121215
 30
0.0
 40
0.64
  0
CIRCLE
  5
257
330
17
100
AcDbEntity
  8
M5_TORSION
 62
30
100
AcDbCircle
 10
446.1931818181818
 20
202.68484848484852
 30
0.0
 40
0.64
  0
CIRCLE
  5
258
330
17
100
AcDbEntity
  8
M5_TORSION
 62
30
100
AcDbCircle
 10
463.4068181818182
 20
202.68484848484852
 30
0.0
 40
0.64
  0
CIRCLE
  5
259
330
17
100
AcDbEntity
  8
M5_TORSION
 62
30
100
AcDbCircle
 10
446.1931818181818
 20
205.64848484848488
 30
0.0
 40
0.64
  0
CIRCLE
  5
25A
330
17
100
AcDbEntity
  8
M5_TORSION
 62
30
100
AcDbCircle
 10
463.4068181818182
 20
205.64848484848488
 30
0.0
 40
0.64
  0
CIRCLE
  5
25B
330
17
100
AcDbEntity
  8
M5_TORSION
 62
30
100
AcDbCircle
 10
446.1931818181818
 20
208.61212121212122
 30
0.0
 40
0.64
  0
CIRCLE
  5
25C
330
17
100
AcDbEntity
  8
M5_TORSION
 62
30
100
AcDbCircle
 10
463.4068181818182
 20
208.61212121212122
 30
0.0
 40
0.64
  0
TEXT
  5
25D
330
17
100
AcDbEntity
  8
TEXTO
 62
7
100
AcDbText
 10
454.8
 20
188.36666666666667
 30
0.0
 40
1.65
  1
B-B CENTRO
 72
1
 11
454.8
 21
188.36666666666667
 31
0.0
100
AcDbText
 73
2
  0
TEXT
  5
25E
330
17
100
AcDbEntity
  8
TEXTO
 62
7
100
AcDbText
 10
454.8
 20
185.66666666666669
 30
0.0
 40
1.45
  1
500x550
 72
1
 11
454.8
 21
185.66666666666669
 31
0.0
100
AcDbText
 73
2
  0
LWPOLYLINE
  5
25F
330
17
100
AcDbEntity
  8
CORTE
 62
7
370
20
100
AcDbPolyline
 90
4
 70
1
 10
510.1363636363636
 20
191.66666666666669
 10
532.8636363636364
 20
191.66666666666669
 10
532.8636363636364
 20
216.66666666666669
 10
510.1363636363636
 20
216.66666666666669
  0
LWPOLYLINE
  5
260
330
17
100
AcDbEntity
  8
ESTRIBOS
 62
7
370
18
100
AcDbPolyline
 90
4
 70
1
 10
512.3363636363637
 20
193.86666666666667
 10
530.6636363636364
 20
193.86666666666667
 10
530.6636363636364
 20
214.46666666666667
 10
512.3363636363637
 20
214.46666666666667
  0
LINE
  5
261
330
17
100
AcDbEntity
  8
ESTRIBOS
 62
7
370
15
100
AcDbLine
 10
517.7121212121212
 20
193.86666666666667
 30
0.0
 11
517.7121212121212
 21
214.4666666666667
 31
0.0
  0
LINE
  5
262
330
17
100
AcDbEntity
  8
ESTRIBOS
 62
7
370
15
100
AcDbLine
 10
525.2878787878788
 20
193.86666666666667
 30
0.0
 11
525.2878787878788
 21
214.4666666666667
 31
0.0
  0
CIRCLE
  5
263
330
17
100
AcDbEntity
  8
M1_SUP_CONT
 62
5
100
AcDbCircle
 10
514.0636363636363
 20
213.9098484848485
 30
0.0
 40
0.72
  0
CIRCLE
  5
264
330
17
100
AcDbEntity
  8
M1_SUP_CONT
 62
5
100
AcDbCircle
 10
515.9227272727272
 20
213.9098484848485
 30
0.0
 40
0.72
  0
CIRCLE
  5
265
330
17
100
AcDbEntity
  8
M1_SUP_CONT
 62
5
100
AcDbCircle
 10
517.7818181818182
 20
213.9098484848485
 30
0.0
 40
0.72
  0
CIRCLE
  5
266
330
17
100
AcDbEntity
  8
M1_SUP_CONT
 62
5
100
AcDbCircle
 10
519.6409090909091
 20
213.9098484848485
 30
0.0
 40
0.72
  0
CIRCLE
  5
267
330
17
100
AcDbEntity
  8
M1_SUP_CONT
 62
5
100
AcDbCircle
 10
521.5
 20
213.9098484848485
 30
0.0
 40
0.72
  0
CIRCLE
  5
268
330
17
100
AcDbEntity
  8
M1_SUP_CONT
 62
5
100
AcDbCircle
 10
523.3590909090909
 20
213.9098484848485
 30
0.0
 40
0.72
  0
CIRCLE
  5
269
330
17
100
AcDbEntity
  8
M1_SUP_CONT
 62
5
100
AcDbCircle
 10
525.2181818181818
 20
213.9098484848485
 30
0.0
 40
0.72
  0
CIRCLE
  5
26A
330
17
100
AcDbEntity
  8
M1_SUP_CONT
 62
5
100
AcDbCircle
 10
527.0772727272728
 20
213.9098484848485
 30
0.0
 40
0.72
  0
CIRCLE
  5
26B
330
17
100
AcDbEntity
  8
M1_SUP_CONT
 62
5
100
AcDbCircle
 10
528.9363636363636
 20
213.9098484848485
 30
0.0
 40
0.72
  0
CIRCLE
  5
26C
330
17
100
AcDbEntity
  8
M4_INF_CONT
 62
1
100
AcDbCircle
 10
517.7818181818182
 20
194.42348484848486
 30
0.0
 40
0.72
  0
CIRCLE
  5
26D
330
17
100
AcDbEntity
  8
M4_INF_CONT
 62
1
100
AcDbCircle
 10
519.6409090909091
 20
194.42348484848486
 30
0.0
 40
0.72
  0
CIRCLE
  5
26E
330
17
100
AcDbEntity
  8
M4_INF_CONT
 62
1
100
AcDbCircle
 10
521.5
 20
194.42348484848486
 30
0.0
 40
0.72
  0
CIRCLE
  5
26F
330
17
100
AcDbEntity
  8
M4_INF_CONT
 62
1
100
AcDbCircle
 10
523.3590909090909
 20
194.42348484848486
 30
0.0
 40
0.72
  0
CIRCLE
  5
270
330
17
100
AcDbEntity
  8
M4_INF_CONT
 62
1
100
AcDbCircle
 10
525.2181818181818
 20
194.42348484848486
 30
0.0
 40
0.72
  0
CIRCLE
  5
271
330
17
100
AcDbEntity
  8
M5_TORSION
 62
30
100
AcDbCircle
 10
512.8931818181818
 20
196.75757575757578
 30
0.0
 40
0.64
  0
CIRCLE
  5
272
330
17
100
AcDbEntity
  8
M5_TORSION
 62
30
100
AcDbCircle
 10
512.8931818181818
 20
211.5757575757576
 30
0.0
 40
0.64
  0
CIRCLE
  5
273
330
17
100
AcDbEntity
  8
M5_TORSION
 62
30
100
AcDbCircle
 10
518.6310606060606
 20
196.75757575757578
 30
0.0
 40
0.64
  0
CIRCLE
  5
274
330
17
100
AcDbEntity
  8
M5_TORSION
 62
30
100
AcDbCircle
 10
518.6310606060606
 20
211.5757575757576
 30
0.0
 40
0.64
  0
CIRCLE
  5
275
330
17
100
AcDbEntity
  8
M5_TORSION
 62
30
100
AcDbCircle
 10
524.3689393939394
 20
196.75757575757578
 30
0.0
 40
0.64
  0
CIRCLE
  5
276
330
17
100
AcDbEntity
  8
M5_TORSION
 62
30
100
AcDbCircle
 10
524.3689393939394
 20
211.5757575757576
 30
0.0
 40
0.64
  0
CIRCLE
  5
277
330
17
100
AcDbEntity
  8
M5_TORSION
 62
30
100
AcDbCircle
 10
530.1068181818182
 20
196.75757575757578
 30
0.0
 40
0.64
  0
CIRCLE
  5
278
330
17
100
AcDbEntity
  8
M5_TORSION
 62
30
100
AcDbCircle
 10
530.1068181818182
 20
211.5757575757576
 30
0.0
 40
0.64
  0
CIRCLE
  5
279
330
17
100
AcDbEntity
  8
M5_TORSION
 62
30
100
AcDbCircle
 10
512.8931818181818
 20
199.72121212121215
 30
0.0
 40
0.64
  0
CIRCLE
  5
27A
330
17
100
AcDbEntity
  8
M5_TORSION
 62
30
100
AcDbCircle
 10
530.1068181818182
 20
199.72121212121215
 30
0.0
 40
0.64
  0
CIRCLE
  5
27B
330
17
100
AcDbEntity
  8
M5_TORSION
 62
30
100
AcDbCircle
 10
512.8931818181818
 20
202.68484848484852
 30
0.0
 40
0.64
  0
CIRCLE
  5
27C
330
17
100
AcDbEntity
  8
M5_TORSION
 62
30
100
AcDbCircle
 10
530.1068181818182
 20
202.68484848484852
 30
0.0
 40
0.64
  0
CIRCLE
  5
27D
330
17
100
AcDbEntity
  8
M5_TORSION
 62
30
100
AcDbCircle
 10
512.8931818181818
 20
205.64848484848488
 30
0.0
 40
0.64
  0
CIRCLE
  5
27E
330
17
100
AcDbEntity
  8
M5_TORSION
 62
30
100
AcDbCircle
 10
530.1068181818182
 20
205.64848484848488
 30
0.0
 40
0.64
  0
CIRCLE
  5
27F
330
17
100
AcDbEntity
  8
M5_TORSION
 62
30
100
AcDbCircle
 10
512.8931818181818
 20
208.61212121212122
 30
0.0
 40
0.64
  0
CIRCLE
  5
280
330
17
100
AcDbEntity
  8
M5_TORSION
 62
30
100
AcDbCircle
 10
530.1068181818182
 20
208.61212121212122
 30
0.0
 40
0.64
  0
TEXT
  5
281
330
17
100
AcDbEntity
  8
TEXTO
 62
7
100
AcDbText
 10
521.5
 20
188.36666666666667
 30
0.0
 40
1.65
  1
C-C APOYO J
 72
1
 11
521.5
 21
188.36666666666667
 31
0.0
100
AcDbText
 73
2
  0
TEXT
  5
282
330
17
100
AcDbEntity
  8
TEXTO
 62
7
100
AcDbText
 10
521.5
 20
185.66666666666669
 30
0.0
 40
1.45
  1
500x550
 72
1
 11
521.5
 21
185.66666666666669
 31
0.0
100
AcDbText
 73
2
  0
TEXT
  5
283
330
17
100
AcDbEntity
  8
TEXTO
 62
7
100
AcDbText
 10
309.0
 20
191.66666666666669
 30
0.0
 40
1.35
  1
70 frames | 8 longitudes
 11
309.0
 21
191.66666666666669
 31
0.0
100
AcDbText
  0
TEXT
  5
284
330
17
100
AcDbEntity
  8
TEXTO
 62
3
100
AcDbText
 10
589.0
 20
191.66666666666669
 30
0.0
 40
1.35
  1
Marcas separadas; cantidades reales en cortes
 72
2
 11
589.0
 21
191.66666666666669
 31
0.0
100
AcDbText
  0
LWPOLYLINE
  5
285
330
17
100
AcDbEntity
  8
GUIA
 62
9
370
9
100
AcDbPolyline
 90
4
 70
1
 10
10.0
 20
36.0
 10
300.0
 20
36.0
 10
300.0
 20
184.66666666666666
 10
10.0
 20
184.66666666666666
  0
TEXT
  5
286
330
17
100
AcDbEntity
  8
TITULO
 62
6
100
AcDbText
 10
155.0
 20
180.66666666666666
 30
0.0
 40
2.45
  1
VIGA VRAUX - 450x550 mm
 72
1
 11
155.0
 21
180.66666666666666
 31
0.0
100
AcDbText
 73
2
  0
LWPOLYLINE
  5
287
330
17
100
AcDbEntity
  8
APOYOS
 62
4
370
18
100
AcDbPolyline
 90
4
 70
1
 10
36.4
 20
150.46666666666667
 10
45.599999999999994
 20
150.46666666666667
 10
45.599999999999994
 20
171.86666666666667
 10
36.4
 20
171.86666666666667
  0
LWPOLYLINE
  5
288
330
17
100
AcDbEntity
  8
APOYOS
 62
4
370
18
100
AcDbPolyline
 90
4
 70
1
 10
284.4
 20
150.46666666666667
 10
293.59999999999997
 20
150.46666666666667
 10
293.59999999999997
 20
171.86666666666667
 10
284.4
 20
171.86666666666667
  0
LINE
  5
289
330
17
100
AcDbEntity
  8
EJES
 62
8
370
9
100
AcDbLine
 10
41.0
 20
148.66666666666666
 30
0.0
 11
41.0
 21
175.66666666666666
 31
0.0
  0
LINE
  5
28A
330
17
100
AcDbEntity
  8
EJES
 62
8
370
9
100
AcDbLine
 10
289.0
 20
148.66666666666666
 30
0.0
 11
289.0
 21
175.66666666666666
 31
0.0
  0
LWPOLYLINE
  5
28B
330
17
100
AcDbEntity
  8
CONTORNO
 62
7
370
18
100
AcDbPolyline
 90
4
 70
1
 10
45.6
 20
154.66666666666666
 10
284.4
 20
154.66666666666666
 10
284.4
 20
167.66666666666666
 10
45.6
 20
167.66666666666666
  0
TEXT
  5
28C
330
17
100
AcDbEntity
  8
EJES
 62
8
100
AcDbText
 10
41.0
 20
172.86666666666665
 30
0.0
 40
1.6
  1
I
 72
1
 11
41.0
 21
172.86666666666665
 31
0.0
100
AcDbText
 73
2
  0
TEXT
  5
28D
330
17
100
AcDbEntity
  8
EJES
 62
8
100
AcDbText
 10
289.0
 20
172.86666666666665
 30
0.0
 40
1.6
  1
J
 72
1
 11
289.0
 21
172.86666666666665
 31
0.0
100
AcDbText
 73
2
  0
LWPOLYLINE
  5
28E
330
17
100
AcDbEntity
  8
M1_SUP_CONT
 62
5
370
35
100
AcDbPolyline
 90
4
 70
0
 10
39.8
 20
161.26666666666665
 10
39.8
 20
165.66666666666666
 10
290.2
 20
165.66666666666666
 10
290.2
 20
161.26666666666665
  0
LWPOLYLINE
  5
28F
330
17
100
AcDbEntity
  8
M2_SUP_IZQ
 62
2
370
35
100
AcDbPolyline
 90
3
 70
0
 10
37.8
 20
158.26666666666665
 10
37.8
 20
162.66666666666666
 10
105.3
 20
162.66666666666666
  0
LWPOLYLINE
  5
290
330
17
100
AcDbEntity
  8
M3_SUP_DER
 62
2
370
35
100
AcDbPolyline
 90
3
 70
0
 10
224.7
 20
159.86666666666665
 10
292.2
 20
159.86666666666665
 10
292.2
 20
155.46666666666664
  0
LWPOLYLINE
  5
291
330
17
100
AcDbEntity
  8
M4_INF_CONT
 62
1
370
35
100
AcDbPolyline
 90
4
 70
0
 10
42.2
 20
161.16666666666666
 10
42.2
 20
156.76666666666665
 10
287.8
 20
156.76666666666665
 10
287.8
 20
161.16666666666666
  0
LWPOLYLINE
  5
292
330
17
100
AcDbEntity
  8
M5_TORSION
 62
30
370
30
100
AcDbPolyline
 90
4
 70
0
 10
44.0
 20
157.76666666666665
 10
44.0
 20
161.16666666666666
 10
286.0
 20
161.16666666666666
 10
286.0
 20
157.76666666666665
  0
LINE
  5
293
330
17
100
AcDbEntity
  8
CORTE
 62
7
370
9
100
AcDbLine
 10
69.48
 20
152.66666666666666
 30
0.0
 11
69.48
 21
169.66666666666666
 31
0.0
  0
TEXT
  5
294
330
17
100
AcDbEntity
  8
CORTE
 62
7
100
AcDbText
 10
69.48
 20
170.26666666666665
 30
0.0
 40
1.35
  1
A
 72
1
 11
69.48
 21
170.26666666666665
 31
0.0
100
AcDbText
 73
2
  0
LINE
  5
295
330
17
100
AcDbEntity
  8
CORTE
 62
7
370
9
100
AcDbLine
 10
165.0
 20
152.66666666666666
 30
0.0
 11
165.0
 21
169.66666666666666
 31
0.0
  0
TEXT
  5
296
330
17
100
AcDbEntity
  8
CORTE
 62
7
100
AcDbText
 10
165.0
 20
170.26666666666665
 30
0.0
 40
1.35
  1
B
 72
1
 11
165.0
 21
170.26666666666665
 31
0.0
100
AcDbText
 73
2
  0
LINE
  5
297
330
17
100
AcDbEntity
  8
CORTE
 62
7
370
9
100
AcDbLine
 10
260.52
 20
152.66666666666666
 30
0.0
 11
260.52
 21
169.66666666666666
 31
0.0
  0
TEXT
  5
298
330
17
100
AcDbEntity
  8
CORTE
 62
7
100
AcDbText
 10
260.52
 20
170.26666666666665
 30
0.0
 40
1.35
  1
C
 72
1
 11
260.52
 21
170.26666666666665
 31
0.0
100
AcDbText
 73
2
  0
LINE
  5
299
330
17
100
AcDbEntity
  8
COTAS
 62
3
370
15
100
AcDbLine
 10
41.0
 20
147.66666666666666
 30
0.0
 11
289.0
 21
147.66666666666666
 31
0.0
  0
LINE
  5
29A
330
17
100
AcDbEntity
  8
COTAS
 62
3
370
15
100
AcDbLine
 10
41.0
 20
146.46666666666667
 30
0.0
 11
41.0
 21
148.86666666666665
 31
0.0
  0
LINE
  5
29B
330
17
100
AcDbEntity
  8
COTAS
 62
3
370
15
100
AcDbLine
 10
289.0
 20
146.46666666666667
 30
0.0
 11
289.0
 21
148.86666666666665
 31
0.0
  0
TEXT
  5
29C
330
17
100
AcDbEntity
  8
COTAS
 62
3
100
AcDbText
 10
165.0
 20
148.96666666666667
 30
0.0
 40
1.6
  1
L SAP I-J = 2.500 m
 72
1
 11
165.0
 21
148.96666666666667
 31
0.0
100
AcDbText
 73
2
  0
TEXT
  5
29D
330
17
100
AcDbEntity
  8
TEXTO
 62
7
100
AcDbText
 10
165.0
 20
144.66666666666666
 30
0.0
 40
1.45
  1
Ln = 1.900 m
 72
1
 11
165.0
 21
144.66666666666666
 31
0.0
100
AcDbText
 73
2
  0
TEXT
  5
29E
330
17
100
AcDbEntity
  8
TEXTO
 62
5
100
AcDbText
 10
16.0
 20
140.66666666666666
 30
0.0
 40
1.45
  1
M1
 11
16.0
 21
140.66666666666666
 31
0.0
100
AcDbText
  0
TEXT
  5
29F
330
17
100
AcDbEntity
  8
TEXTO
 62
5
100
AcDbText
 10
32.0
 20
140.66666666666666
 30
0.0
 40
1.42
  1
2#5 SUP CONT | Lc=2510-2610 mm
 11
32.0
 21
140.66666666666666
 31
0.0
100
AcDbText
  0
TEXT
  5
2A0
330
17
100
AcDbEntity
  8
TEXTO
 62
2
100
AcDbText
 10
16.0
 20
137.46666666666667
 30
0.0
 40
1.45
  1
M2/M3
 11
16.0
 21
137.46666666666667
 31
0.0
100
AcDbText
  0
TEXT
  5
2A1
330
17
100
AcDbEntity
  8
TEXTO
 62
2
100
AcDbText
 10
32.0
 20
137.46666666666667
 30
0.0
 40
1.42
  1
2#5 SUP/APOYO | Lc=780-805 mm
 11
32.0
 21
137.46666666666667
 31
0.0
100
AcDbText
  0
TEXT
  5
2A2
330
17
100
AcDbEntity
  8
TEXTO
 62
1
100
AcDbText
 10
16.0
 20
134.26666666666665
 30
0.0
 40
1.45
  1
M4
 11
16.0
 21
134.26666666666665
 31
0.0
100
AcDbText
  0
TEXT
  5
2A3
330
17
100
AcDbEntity
  8
TEXTO
 62
1
100
AcDbText
 10
32.0
 20
134.26666666666665
 30
0.0
 40
1.42
  1
4#5 INF CONT | Lc=2510-2610 mm
 11
32.0
 21
134.26666666666665
 31
0.0
100
AcDbText
  0
TEXT
  5
2A4
330
17
100
AcDbEntity
  8
TEXTO
 62
30
100
AcDbText
 10
16.0
 20
131.06666666666666
 30
0.0
 40
1.45
  1
M5
 11
16.0
 21
131.06666666666666
 31
0.0
100
AcDbText
  0
TEXT
  5
2A5
330
17
100
AcDbEntity
  8
TEXTO
 62
30
100
AcDbText
 10
32.0
 20
131.06666666666666
 30
0.0
 40
1.42
  1
8#5 TOR DEDIC. | Lc=2510-2610 mm
 11
32.0
 21
131.06666666666666
 31
0.0
100
AcDbText
  0
TEXT
  5
2A6
330
17
100
AcDbEntity
  8
TEXTO
 62
7
100
AcDbText
 10
16.0
 20
127.06666666666666
 30
0.0
 40
1.35
  1
#5: ld sup=480; ld inf=370; ldh=305; 90°: cola=195, Dint>=100 mm
 11
16.0
 21
127.06666666666666
 31
0.0
100
AcDbText
  0
TEXT
  5
2A7
330
17
100
AcDbEntity
  8
TEXTO
 62
7
100
AcDbText
 10
16.0
 20
124.06666666666666
 30
0.0
 40
1.35
  1
E1 Nº3 2R: 1ro<=50; @120 en 2h; @130 centro; 135° cola=75, Dint>=60
 11
16.0
 21
124.06666666666666
 31
0.0
100
AcDbText
  0
LWPOLYLINE
  5
2A8
330
17
100
AcDbEntity
  8
CORTE
 62
7
370
20
100
AcDbPolyline
 90
4
 70
1
 10
83.87272727272727
 20
39.0
 10
104.32727272727273
 20
39.0
 10
104.32727272727273
 20
64.0
 10
83.87272727272727
 20
64.0
  0
LWPOLYLINE
  5
2A9
330
17
100
AcDbEntity
  8
ESTRIBOS
 62
7
370
18
100
AcDbPolyline
 90
4
 70
1
 10
86.07272727272728
 20
41.2
 10
102.12727272727273
 20
41.2
 10
102.12727272727273
 20
61.800000000000004
 10
86.07272727272728
 20
61.800000000000004
  0
CIRCLE
  5
2AA
330
17
100
AcDbEntity
  8
M1_SUP_CONT
 62
5
100
AcDbCircle
 10
91.31136363636364
 20
61.243181818181824
 30
0.0
 40
0.72
  0
CIRCLE
  5
2AB
330
17
100
AcDbEntity
  8
M1_SUP_CONT
 62
5
100
AcDbCircle
 10
93.17045454545455
 20
61.243181818181824
 30
0.0
 40
0.72
  0
CIRCLE
  5
2AC
330
17
100
AcDbEntity
  8
M1_SUP_CONT
 62
5
100
AcDbCircle
 10
95.02954545454546
 20
61.243181818181824
 30
0.0
 40
0.72
  0
CIRCLE
  5
2AD
330
17
100
AcDbEntity
  8
M1_SUP_CONT
 62
5
100
AcDbCircle
 10
96.88863636363637
 20
61.243181818181824
 30
0.0
 40
0.72
  0
CIRCLE
  5
2AE
330
17
100
AcDbEntity
  8
M4_INF_CONT
 62
1
100
AcDbCircle
 10
91.31136363636364
 20
41.75681818181818
 30
0.0
 40
0.72
  0
CIRCLE
  5
2AF
330
17
100
AcDbEntity
  8
M4_INF_CONT
 62
1
100
AcDbCircle
 10
93.17045454545455
 20
41.75681818181818
 30
0.0
 40
0.72
  0
CIRCLE
  5
2B0
330
17
100
AcDbEntity
  8
M4_INF_CONT
 62
1
100
AcDbCircle
 10
95.02954545454546
 20
41.75681818181818
 30
0.0
 40
0.72
  0
CIRCLE
  5
2B1
330
17
100
AcDbEntity
  8
M4_INF_CONT
 62
1
100
AcDbCircle
 10
96.88863636363637
 20
41.75681818181818
 30
0.0
 40
0.72
  0
CIRCLE
  5
2B2
330
17
100
AcDbEntity
  8
M5_TORSION
 62
30
100
AcDbCircle
 10
86.62954545454545
 20
44.09090909090909
 30
0.0
 40
0.64
  0
CIRCLE
  5
2B3
330
17
100
AcDbEntity
  8
M5_TORSION
 62
30
100
AcDbCircle
 10
86.62954545454545
 20
58.90909090909091
 30
0.0
 40
0.64
  0
CIRCLE
  5
2B4
330
17
100
AcDbEntity
  8
M5_TORSION
 62
30
100
AcDbCircle
 10
101.57045454545454
 20
44.09090909090909
 30
0.0
 40
0.64
  0
CIRCLE
  5
2B5
330
17
100
AcDbEntity
  8
M5_TORSION
 62
30
100
AcDbCircle
 10
101.57045454545454
 20
58.90909090909091
 30
0.0
 40
0.64
  0
CIRCLE
  5
2B6
330
17
100
AcDbEntity
  8
M5_TORSION
 62
30
100
AcDbCircle
 10
86.62954545454545
 20
49.03030303030303
 30
0.0
 40
0.64
  0
CIRCLE
  5
2B7
330
17
100
AcDbEntity
  8
M5_TORSION
 62
30
100
AcDbCircle
 10
101.57045454545454
 20
49.03030303030303
 30
0.0
 40
0.64
  0
CIRCLE
  5
2B8
330
17
100
AcDbEntity
  8
M5_TORSION
 62
30
100
AcDbCircle
 10
86.62954545454545
 20
53.96969696969697
 30
0.0
 40
0.64
  0
CIRCLE
  5
2B9
330
17
100
AcDbEntity
  8
M5_TORSION
 62
30
100
AcDbCircle
 10
101.57045454545454
 20
53.96969696969697
 30
0.0
 40
0.64
  0
TEXT
  5
2BA
330
17
100
AcDbEntity
  8
TEXTO
 62
7
100
AcDbText
 10
94.1
 20
35.7
 30
0.0
 40
1.65
  1
A-A APOYO I
 72
1
 11
94.1
 21
35.7
 31
0.0
100
AcDbText
 73
2
  0
TEXT
  5
2BB
330
17
100
AcDbEntity
  8
TEXTO
 62
7
100
AcDbText
 10
94.1
 20
33.0
 30
0.0
 40
1.45
  1
450x550
 72
1
 11
94.1
 21
33.0
 31
0.0
100
AcDbText
 73
2
  0
LWPOLYLINE
  5
2BC
330
17
100
AcDbEntity
  8
CORTE
 62
7
370
20
100
AcDbPolyline
 90
4
 70
1
 10
150.5727272727273
 20
39.0
 10
171.02727272727276
 20
39.0
 10
171.02727272727276
 20
64.0
 10
150.5727272727273
 20
64.0
  0
LWPOLYLINE
  5
2BD
330
17
100
AcDbEntity
  8
ESTRIBOS
 62
7
370
18
100
AcDbPolyline
 90
4
 70
1
 10
152.77272727272728
 20
41.2
 10
168.82727272727274
 20
41.2
 10
168.82727272727274
 20
61.800000000000004
 10
152.77272727272728
 20
61.800000000000004
  0
CIRCLE
  5
2BE
330
17
100
AcDbEntity
  8
M1_SUP_CONT
 62
5
100
AcDbCircle
 10
159.87045454545458
 20
61.243181818181824
 30
0.0
 40
0.72
  0
CIRCLE
  5
2BF
330
17
100
AcDbEntity
  8
M1_SUP_CONT
 62
5
100
AcDbCircle
 10
161.72954545454547
 20
61.243181818181824
 30
0.0
 40
0.72
  0
CIRCLE
  5
2C0
330
17
100
AcDbEntity
  8
M4_INF_CONT
 62
1
100
AcDbCircle
 10
158.01136363636365
 20
41.75681818181818
 30
0.0
 40
0.72
  0
CIRCLE
  5
2C1
330
17
100
AcDbEntity
  8
M4_INF_CONT
 62
1
100
AcDbCircle
 10
159.87045454545458
 20
41.75681818181818
 30
0.0
 40
0.72
  0
CIRCLE
  5
2C2
330
17
100
AcDbEntity
  8
M4_INF_CONT
 62
1
100
AcDbCircle
 10
161.72954545454547
 20
41.75681818181818
 30
0.0
 40
0.72
  0
CIRCLE
  5
2C3
330
17
100
AcDbEntity
  8
M4_INF_CONT
 62
1
100
AcDbCircle
 10
163.5886363636364
 20
41.75681818181818
 30
0.0
 40
0.72
  0
CIRCLE
  5
2C4
330
17
100
AcDbEntity
  8
M5_TORSION
 62
30
100
AcDbCircle
 10
153.32954545454547
 20
44.09090909090909
 30
0.0
 40
0.64
  0
CIRCLE
  5
2C5
330
17
100
AcDbEntity
  8
M5_TORSION
 62
30
100
AcDbCircle
 10
153.32954545454547
 20
58.90909090909091
 30
0.0
 40
0.64
  0
CIRCLE
  5
2C6
330
17
100
AcDbEntity
  8
M5_TORSION
 62
30
100
AcDbCircle
 10
168.27045454545456
 20
44.09090909090909
 30
0.0
 40
0.64
  0
CIRCLE
  5
2C7
330
17
100
AcDbEntity
  8
M5_TORSION
 62
30
100
AcDbCircle
 10
168.27045454545456
 20
58.90909090909091
 30
0.0
 40
0.64
  0
CIRCLE
  5
2C8
330
17
100
AcDbEntity
  8
M5_TORSION
 62
30
100
AcDbCircle
 10
153.32954545454547
 20
49.03030303030303
 30
0.0
 40
0.64
  0
CIRCLE
  5
2C9
330
17
100
AcDbEntity
  8
M5_TORSION
 62
30
100
AcDbCircle
 10
168.27045454545456
 20
49.03030303030303
 30
0.0
 40
0.64
  0
CIRCLE
  5
2CA
330
17
100
AcDbEntity
  8
M5_TORSION
 62
30
100
AcDbCircle
 10
153.32954545454547
 20
53.96969696969697
 30
0.0
 40
0.64
  0
CIRCLE
  5
2CB
330
17
100
AcDbEntity
  8
M5_TORSION
 62
30
100
AcDbCircle
 10
168.27045454545456
 20
53.96969696969697
 30
0.0
 40
0.64
  0
TEXT
  5
2CC
330
17
100
AcDbEntity
  8
TEXTO
 62
7
100
AcDbText
 10
160.8
 20
35.7
 30
0.0
 40
1.65
  1
B-B CENTRO
 72
1
 11
160.8
 21
35.7
 31
0.0
100
AcDbText
 73
2
  0
TEXT
  5
2CD
330
17
100
AcDbEntity
  8
TEXTO
 62
7
100
AcDbText
 10
160.8
 20
33.0
 30
0.0
 40
1.45
  1
450x550
 72
1
 11
160.8
 21
33.0
 31
0.0
100
AcDbText
 73
2
  0
LWPOLYLINE
  5
2CE
330
17
100
AcDbEntity
  8
CORTE
 62
7
370
20
100
AcDbPolyline
 90
4
 70
1
 10
217.27272727272728
 20
39.0
 10
237.72727272727275
 20
39.0
 10
237.72727272727275
 20
64.0
 10
217.27272727272728
 20
64.0
  0
LWPOLYLINE
  5
2CF
330
17
100
AcDbEntity
  8
ESTRIBOS
 62
7
370
18
100
AcDbPolyline
 90
4
 70
1
 10
219.47272727272727
 20
41.2
 10
235.52727272727273
 20
41.2
 10
235.52727272727273
 20
61.800000000000004
 10
219.47272727272727
 20
61.800000000000004
  0
CIRCLE
  5
2D0
330
17
100
AcDbEntity
  8
M1_SUP_CONT
 62
5
100
AcDbCircle
 10
224.71136363636364
 20
61.243181818181824
 30
0.0
 40
0.72
  0
CIRCLE
  5
2D1
330
17
100
AcDbEntity
  8
M1_SUP_CONT
 62
5
100
AcDbCircle
 10
226.57045454545457
 20
61.243181818181824
 30
0.0
 40
0.72
  0
CIRCLE
  5
2D2
330
17
100
AcDbEntity
  8
M1_SUP_CONT
 62
5
100
AcDbCircle
 10
228.42954545454546
 20
61.243181818181824
 30
0.0
 40
0.72
  0
CIRCLE
  5
2D3
330
17
100
AcDbEntity
  8
M1_SUP_CONT
 62
5
100
AcDbCircle
 10
230.28863636363639
 20
61.243181818181824
 30
0.0
 40
0.72
  0
CIRCLE
  5
2D4
330
17
100
AcDbEntity
  8
M4_INF_CONT
 62
1
100
AcDbCircle
 10
224.71136363636364
 20
41.75681818181818
 30
0.0
 40
0.72
  0
CIRCLE
  5
2D5
330
17
100
AcDbEntity
  8
M4_INF_CONT
 62
1
100
AcDbCircle
 10
226.57045454545457
 20
41.75681818181818
 30
0.0
 40
0.72
  0
CIRCLE
  5
2D6
330
17
100
AcDbEntity
  8
M4_INF_CONT
 62
1
100
AcDbCircle
 10
228.42954545454546
 20
41.75681818181818
 30
0.0
 40
0.72
  0
CIRCLE
  5
2D7
330
17
100
AcDbEntity
  8
M4_INF_CONT
 62
1
100
AcDbCircle
 10
230.28863636363639
 20
41.75681818181818
 30
0.0
 40
0.72
  0
CIRCLE
  5
2D8
330
17
100
AcDbEntity
  8
M5_TORSION
 62
30
100
AcDbCircle
 10
220.02954545454546
 20
44.09090909090909
 30
0.0
 40
0.64
  0
CIRCLE
  5
2D9
330
17
100
AcDbEntity
  8
M5_TORSION
 62
30
100
AcDbCircle
 10
220.02954545454546
 20
58.90909090909091
 30
0.0
 40
0.64
  0
CIRCLE
  5
2DA
330
17
100
AcDbEntity
  8
M5_TORSION
 62
30
100
AcDbCircle
 10
234.97045454545454
 20
44.09090909090909
 30
0.0
 40
0.64
  0
CIRCLE
  5
2DB
330
17
100
AcDbEntity
  8
M5_TORSION
 62
30
100
AcDbCircle
 10
234.97045454545454
 20
58.90909090909091
 30
0.0
 40
0.64
  0
CIRCLE
  5
2DC
330
17
100
AcDbEntity
  8
M5_TORSION
 62
30
100
AcDbCircle
 10
220.02954545454546
 20
49.03030303030303
 30
0.0
 40
0.64
  0
CIRCLE
  5
2DD
330
17
100
AcDbEntity
  8
M5_TORSION
 62
30
100
AcDbCircle
 10
234.97045454545454
 20
49.03030303030303
 30
0.0
 40
0.64
  0
CIRCLE
  5
2DE
330
17
100
AcDbEntity
  8
M5_TORSION
 62
30
100
AcDbCircle
 10
220.02954545454546
 20
53.96969696969697
 30
0.0
 40
0.64
  0
CIRCLE
  5
2DF
330
17
100
AcDbEntity
  8
M5_TORSION
 62
30
100
AcDbCircle
 10
234.97045454545454
 20
53.96969696969697
 30
0.0
 40
0.64
  0
TEXT
  5
2E0
330
17
100
AcDbEntity
  8
TEXTO
 62
7
100
AcDbText
 10
227.5
 20
35.7
 30
0.0
 40
1.65
  1
C-C APOYO J
 72
1
 11
227.5
 21
35.7
 31
0.0
100
AcDbText
 73
2
  0
TEXT
  5
2E1
330
17
100
AcDbEntity
  8
TEXTO
 62
7
100
AcDbText
 10
227.5
 20
33.0
 30
0.0
 40
1.45
  1
450x550
 72
1
 11
227.5
 21
33.0
 31
0.0
100
AcDbText
 73
2
  0
TEXT
  5
2E2
330
17
100
AcDbEntity
  8
TEXTO
 62
7
100
AcDbText
 10
15.0
 20
39.0
 30
0.0
 40
1.35
  1
40 frames | 2 longitudes
 11
15.0
 21
39.0
 31
0.0
100
AcDbText
  0
TEXT
  5
2E3
330
17
100
AcDbEntity
  8
TEXTO
 62
3
100
AcDbText
 10
295.0
 20
39.0
 30
0.0
 40
1.35
  1
Marcas separadas; cantidades reales en cortes
 72
2
 11
295.0
 21
39.0
 31
0.0
100
AcDbText
  0
TEXT
  5
2E4
330
17
100
AcDbEntity
  8
TITULO
 62
6
100
AcDbText
 10
10.0
 20
26.0
 30
0.0
 40
2.0
  1
DETALLE DE ANCLAJE Nº5
 11
10.0
 21
26.0
 31
0.0
100
AcDbText
  0
LWPOLYLINE
  5
2E5
330
17
100
AcDbEntity
  8
M1_SUP_CONT
 62
5
370
35
100
AcDbPolyline
 90
3
 70
0
 10
60.0
 20
16.0
 10
60.0
 20
25.0
 10
87.0
 20
25.0
  0
LINE
  5
2E6
330
17
100
AcDbEntity
  8
COTAS
 62
5
370
15
100
AcDbLine
 10
60.0
 20
29.2
 30
0.0
 11
87.0
 21
29.2
 31
0.0
  0
LINE
  5
2E7
330
17
100
AcDbEntity
  8
COTAS
 62
5
370
15
100
AcDbLine
 10
60.0
 20
28.0
 30
0.0
 11
60.0
 21
30.4
 31
0.0
  0
LINE
  5
2E8
330
17
100
AcDbEntity
  8
COTAS
 62
5
370
15
100
AcDbLine
 10
87.0
 20
28.0
 30
0.0
 11
87.0
 21
30.4
 31
0.0
  0
TEXT
  5
2E9
330
17
100
AcDbEntity
  8
COTAS
 62
5
100
AcDbText
 10
73.5
 20
30.5
 30
0.0
 40
1.35
  1
ldh adopt. 305 mm
 72
1
 11
73.5
 21
30.5
 31
0.0
100
AcDbText
 73
2
  0
LINE
  5
2EA
330
17
100
AcDbEntity
  8
COTAS
 62
5
370
15
100
AcDbLine
 10
56.0
 20
16.0
 30
0.0
 11
56.0
 21
16.0
 31
0.0
  0
LINE
  5
2EB
330
17
100
AcDbEntity
  8
COTAS
 62
5
370
15
100
AcDbLine
 10
56.0
 20
14.8
 30
0.0
 11
56.0
 21
17.2
 31
0.0
  0
LINE
  5
2EC
330
17
100
AcDbEntity
  8
COTAS
 62
5
370
15
100
AcDbLine
 10
56.0
 20
14.8
 30
0.0
 11
56.0
 21
17.2
 31
0.0
  0
TEXT
  5
2ED
330
17
100
AcDbEntity
  8
COTAS
 62
5
100
AcDbText
 10
56.0
 20
17.3
 30
0.0
 40
1.0
  1

 72
1
 11
56.0
 21
17.3
 31
0.0
100
AcDbText
 73
2
  0
TEXT
  5
2EE
330
17
100
AcDbEntity
  8
TEXTO
 62
5
100
AcDbText
 10
59.0
 20
13.2
 30
0.0
 40
1.35
  1
cola 12db = 195 mm
 11
59.0
 21
13.2
 31
0.0
100
AcDbText
  0
TEXT
  5
2EF
330
17
100
AcDbEntity
  8
TEXTO
 62
5
100
AcDbText
 10
91.0
 20
24.0
 30
0.0
 40
1.35
  1
Dint >= 100 mm
 11
91.0
 21
24.0
 31
0.0
100
AcDbText
  0
TEXT
  5
2F0
330
17
100
AcDbEntity
  8
TEXTO
 62
7
100
AcDbText
 10
145.0
 20
25.0
 30
0.0
 40
1.55
  1
ld recto: superior 480 mm; inferior 370 mm. Si no cabe recto, usar gancho estándar y verificar confinamiento.
 11
145.0
 21
25.0
 31
0.0
100
AcDbText
  0
TEXT
  5
2F1
330
17
100
AcDbEntity
  8
TEXTO
 62
7
100
AcDbText
 10
145.0
 20
19.0
 30
0.0
 40
1.55
  1
Lc: barras continuas = Ln+2ldh; barras negativas de apoyo = Ln/4+ldh. Longitudes redondeadas hacia arriba.
 11
145.0
 21
19.0
 31
0.0
100
AcDbText
  0
TEXT
  5
2F2
330
17
100
AcDbEntity
  8
TEXTO
 62
7
100
AcDbText
 10
145.0
 20
13.0
 30
0.0
 40
1.55
  1
Grupos: VR1, VR N1, VR2, VR3, VRAUX
 11
145.0
 21
13.0
 31
0.0
100
AcDbText
  0
VIEWPORT
  5
2F7
330
2F3
100
AcDbEntity
 67
1
  8
VIEWPORTS
100
AcDbViewport
 10
353.5
 20
250.0
 30
0.0
 40
777.7
 41
550.0
 68
1
 69
1
 12
353.5
 22
250.0
 13
0.0
 23
0.0
 14
10.0
 24
10.0
 15
10.0
 25
10.0
 16
0.0
 26
0.0
 36
1.0
 17
0.0
 27
0.0
 37
0.0
 42
50.0
 43
0.0
 44
0.0
 45
550.0
 50
0.0
 51
0.0
 72
100
 90
557088
  1

281
0
 71
0
 74
0
110
0.0
120
0.0
130
0.0
111
1.0
121
0.0
131
0.0
112
0.0
122
1.0
132
0.0
 79
0
146
0.0
282
0
  0
VIEWPORT
  5
2F8
330
2F3
100
AcDbEntity
 67
1
  8
VIEWPORTS
100
AcDbViewport
 10
353.5
 20
250.0
 30
0.0
 40
707.0
 41
500.0
 68
2
 69
3
 12
353.5
 22
250.0
 13
0.0
 23
0.0
 14
10.0
 24
10.0
 15
10.0
 25
10.0
 16
0.0
 26
0.0
 36
1.0
 17
0.0
 27
0.0
 37
0.0
 42
50.0
 43
0.0
 44
0.0
 45
500.0
 50
0.0
 51
0.0
 72
100
 90
0
  1

281
0
 71
0
 74
0
110
0.0
120
0.0
130
0.0
111
1.0
121
0.0
131
0.0
112
0.0
122
1.0
132
0.0
 79
0
146
0.0
282
0
  0
ENDSEC
  0
SECTION
  2
OBJECTS
  0
DICTIONARY
  5
A
330
0
100
AcDbDictionary
281
1
  3
ACAD_COLOR
350
B
  3
ACAD_GROUP
350
C
  3
ACAD_LAYOUT
350
D
  3
ACAD_MATERIAL
350
E
  3
ACAD_MLEADERSTYLE
350
F
  3
ACAD_MLINESTYLE
350
10
  3
ACAD_PLOTSETTINGS
350
11
  3
ACAD_PLOTSTYLENAME
350
12
  3
ACAD_SCALELIST
350
14
  3
ACAD_TABLESTYLE
350
15
  3
ACAD_VISUALSTYLE
350
16
  3
EZDXF_META
350
2D
  0
DICTIONARY
  5
B
330
A
100
AcDbDictionary
281
1
  0
DICTIONARY
  5
C
330
A
100
AcDbDictionary
281
1
  0
DICTIONARY
  5
D
330
A
100
AcDbDictionary
281
1
  3
Model
350
1A
  3
B2_HORIZONTAL
350
2F6
  0
DICTIONARY
  5
E
330
A
100
AcDbDictionary
281
1
  3
ByBlock
350
1F
  3
ByLayer
350
20
  3
Global
350
21
  0
DICTIONARY
  5
F
330
A
100
AcDbDictionary
281
1
  3
Standard
350
2C
  0
DICTIONARY
  5
10
330
A
100
AcDbDictionary
281
1
  3
Standard
350
22
  0
DICTIONARY
  5
11
330
A
100
AcDbDictionary
281
1
  0
ACDBDICTIONARYWDFLT
  5
12
330
A
100
AcDbDictionary
281
1
  3
Normal
350
13
100
AcDbDictionaryWithDefault
340
13
  0
ACDBPLACEHOLDER
  5
13
330
12
  0
DICTIONARY
  5
14
330
A
100
AcDbDictionary
281
1
  0
DICTIONARY
  5
15
330
A
100
AcDbDictionary
281
1
  0
DICTIONARY
  5
16
330
A
100
AcDbDictionary
281
1
  3
2dWireframe
350
5A
  3
Basic
350
5B
  3
Brighten
350
5C
  3
ColorChange
350
5D
  3
Conceptual
350
5E
  3
Dim
350
5F
  3
EdgeColorOff
350
60
  3
Facepattern
350
61
  3
Flat
350
62
  3
FlatWithEdges
350
63
  3
Gouraud
350
64
  3
GouraudWithEdges
350
65
  3
Hidden
350
66
  3
JitterOff
350
67
  3
Linepattern
350
68
  3
Modeling
350
69
  3
OverhangOff
350
6A
  3
Realistic
350
6B
  3
Shaded
350
6C
  3
Shaded with edges
350
6D
  3
Shades of Gray
350
6E
  3
Sketchy
350
6F
  3
Thicken
350
70
  3
Wireframe
350
71
  3
X-Ray
350
72
  0
LAYOUT
  5
1A
330
D
100
AcDbPlotSettings
  1

  4
A3
  6

 40
7.5
 41
20.0
 42
7.5
 43
20.0
 44
420.0
 45
297.0
 46
0.0
 47
0.0
 48
0.0
 49
0.0
140
0.0
141
0.0
142
1.0
143
1.0
 70
1024
 72
1
 73
0
 74
5
  7

 75
16
 76
0
 77
2
 78
300
147
1.0
148
0.0
149
0.0
100
AcDbLayout
  1
Model
 70
1
 71
0
 10
0.0
 20
0.0
 11
420.0
 21
297.0
 12
0.0
 22
0.0
 32
0.0
 14
1e+20
 24
1e+20
 34
1e+20
 15
-1e+20
 25
-1e+20
 35
-1e+20
146
0.0
 13
0.0
 23
0.0
 33
0.0
 16
1.0
 26
0.0
 36
0.0
 17
0.0
 27
1.0
 37
0.0
 76
1
330
17
  0
MATERIAL
  5
1F
102
{ACAD_REACTORS
330
E
102
}
330
E
100
AcDbMaterial
  1
ByBlock
  2

 70
0
 40
1.0
 71
1
 41
1.0
 91
-1023410177
 42
1.0
 72
1
  3

 73
1
 74
1
 75
1
 44
0.5
 73
0
 45
1.0
 46
1.0
 77
1
  4

 78
1
 79
1
170
1
 48
1.0
171
1
  6

172
1
173
1
174
1
140
1.0
141
1.0
175
1
  7

176
1
177
1
178
1
143
1.0
179
1
  8

270
1
271
1
272
1
145
1.0
146
1.0
273
1
  9

274
1
275
1
276
1
 42
1.0
 72
1
  3

 73
1
 74
1
 75
1
 94
63
  0
MATERIAL
  5
20
102
{ACAD_REACTORS
330
E
102
}
330
E
100
AcDbMaterial
  1
ByLayer
  2

 70
0
 40
1.0
 71
1
 41
1.0
 91
-1023410177
 42
1.0
 72
1
  3

 73
1
 74
1
 75
1
 44
0.5
 73
0
 45
1.0
 46
1.0
 77
1
  4

 78
1
 79
1
170
1
 48
1.0
171
1
  6

172
1
173
1
174
1
140
1.0
141
1.0
175
1
  7

176
1
177
1
178
1
143
1.0
179
1
  8

270
1
271
1
272
1
145
1.0
146
1.0
273
1
  9

274
1
275
1
276
1
 42
1.0
 72
1
  3

 73
1
 74
1
 75
1
 94
63
  0
MATERIAL
  5
21
102
{ACAD_REACTORS
330
E
102
}
330
E
100
AcDbMaterial
  1
Global
  2

 70
0
 40
1.0
 71
1
 41
1.0
 91
-1023410177
 42
1.0
 72
1
  3

 73
1
 74
1
 75
1
 44
0.5
 73
0
 45
1.0
 46
1.0
 77
1
  4

 78
1
 79
1
170
1
 48
1.0
171
1
  6

172
1
173
1
174
1
140
1.0
141
1.0
175
1
  7

176
1
177
1
178
1
143
1.0
179
1
  8

270
1
271
1
272
1
145
1.0
146
1.0
273
1
  9

274
1
275
1
276
1
 42
1.0
 72
1
  3

 73
1
 74
1
 75
1
 94
63
  0
MLINESTYLE
  5
22
102
{ACAD_REACTORS
330
10
102
}
330
10
100
AcDbMlineStyle
  2
Standard
 70
0
  3

 62
256
 51
90.0
 52
90.0
 71
2
 49
0.5
 62
256
  6
BYLAYER
 49
-0.5
 62
256
  6
BYLAYER
  0
MLEADERSTYLE
  5
2C
102
{ACAD_REACTORS
330
F
102
}
330
F
100
AcDbMLeaderStyle
179
2
170
2
171
1
172
0
 90
2
 40
0.0
 41
0.0
173
1
 91
-1056964608
 92
-2
290
1
 42
2.0
291
1
 43
8.0
  3
Standard
 44
4.0
300

342
29
174
1
175
1
176
0
178
1
 93
-1056964608
 45
4.0
292
0
297
0
 46
4.0
 94
-1056964608
 47
1.0
 49
1.0
140
1.0
294
1
141
0.0
177
0
142
1.0
295
0
296
0
143
3.75
271
0
272
9
273
9
  0
DICTIONARY
  5
2D
330
A
100
AcDbDictionary
280
1
281
1
  3
CREATED_BY_EZDXF
350
2E
  3
WRITTEN_BY_EZDXF
350
2FB
  0
DICTIONARYVAR
  5
2E
330
2D
100
DictionaryVariables
280
0
  1
1.4.2 @ 2026-07-18T03:58:17.217185+00:00
  0
VISUALSTYLE
  5
5A
102
{ACAD_REACTORS
330
16
102
}
330
16
100
AcDbVisualStyle
  2
2dWireframe
 70
4
177
3
291
0
 70
58
 90
2
176
1
 90
2
176
1
 90
0
176
1
 90
0
176
1
 40
0.6
176
1
 40
30.0
176
1
 62
7
420
16777215
176
1
 90
1
176
1
 90
4
176
1
 62
7
176
1
 62
257
176
1
 90
1
176
1
 90
1
176
1
 40
1.0
176
1
 90
8
176
1
 62
7
176
1
 40
1.0
176
1
 90
1
176
1
 90
6
176
1
 90
2
176
1
 62
7
176
1
 90
5
176
1
 90
0
176
1
 90
0
176
1
290
0
176
1
 90
1
176
1
 40
0.0
176
1
 90
0
176
1
290
1
176
1
290
1
176
1
290
0
176
1
290
0
176
1
290
0
176
1
290
0
176
1
290
0
176
1
290
0
176
1
290
0
176
1
 90
50
176
1
 40
0.0
176
1
 40
1.0
176
1
 90
0
176
1
 62
18
420
0
176
1
 90
50
176
1
 90
3
176
1
 62
5
420
255
176
1
290
0
176
1
 90
50
176
1
 90
50
176
1
 90
50
176
1
290
0
176
1
 90
50
176
1
 62
256
176
0
 40
1.0
176
0
 90
2
176
1
  1
strokes_ogs.tif
176
1
290
0
176
1
 40
1.0
176
1
 40
1.0
176
1
  0
VISUALSTYLE
  5
5B
102
{ACAD_REACTORS
330
16
102
}
330
16
100
AcDbVisualStyle
  2
Basic
 70
7
177
3
291
1
 70
58
 90
2
176
1
 90
2
176
1
 90
0
176
1
 90
1
176
1
 40
0.6
176
1
 40
30.0
176
1
 62
7
420
16777215
176
1
 90
1
176
1
 90
4
176
1
 62
7
176
1
 62
257
176
1
 90
1
176
1
 90
1
176
1
 40
1.0
176
1
 90
8
176
1
 62
7
176
1
 40
1.0
176
1
 90
1
176
1
 90
6
176
1
 90
2
176
1
 62
7
176
1
 90
5
176
1
 90
0
176
1
 90
0
176
1
290
0
176
1
 90
1
176
1
 40
0.0
176
1
 90
0
176
1
290
0
176
1
290
1
176
1
290
1
176
1
290
0
176
1
290
0
176
1
290
0
176
1
290
0
176
1
290
0
176
1
290
0
176
1
 90
50
176
1
 40
0.0
176
1
 40
1.0
176
1
 90
0
176
1
 62
18
420
0
176
1
 90
50
176
1
 90
3
176
1
 62
5
420
255
176
1
290
0
176
1
 90
50
176
1
 90
50
176
1
 90
50
176
1
290
0
176
1
 90
50
176
1
 62
256
176
0
 40
1.0
176
0
 90
2
176
1
  1
strokes_ogs.tif
176
1
290
0
176
1
 40
1.0
176
1
 40
1.0
176
1
  0
VISUALSTYLE
  5
5C
102
{ACAD_REACTORS
330
16
102
}
330
16
100
AcDbVisualStyle
  2
Brighten
 70
12
177
3
291
1
 70
58
 90
2
176
1
 90
2
176
1
 90
0
176
1
 90
2
176
1
 40
0.6
176
1
 40
30.0
176
1
 62
7
420
16777215
176
1
 90
1
176
1
 90
4
176
1
 62
7
176
1
 62
257
176
1
 90
1
176
1
 90
1
176
1
 40
1.0
176
1
 90
8
176
1
 62
7
176
1
 40
1.0
176
1
 90
1
176
1
 90
6
176
1
 90
2
176
1
 62
7
176
1
 90
5
176
1
 90
0
176
1
 90
0
176
1
290
0
176
1
 90
1
176
1
 40
0.0
176
1
 90
0
176
1
290
0
176
1
290
1
176
1
290
1
176
1
290
0
176
1
290
0
176
1
290
0
176
1
290
0
176
1
290
0
176
1
290
0
176
1
 90
50
176
1
 40
0.0
176
1
 40
1.0
176
1
 90
0
176
1
 62
18
420
0
176
1
 90
50
176
1
 90
3
176
1
 62
5
420
255
176
1
290
0
176
1
 90
50
176
1
 90
50
176
1
 90
50
176
1
290
0
176
1
 90
50
176
1
 62
256
176
0
 40
1.0
176
0
 90
2
176
1
  1
strokes_ogs.tif
176
1
290
0
176
1
 40
1.0
176
1
 40
1.0
176
1
  0
VISUALSTYLE
  5
5D
102
{ACAD_REACTORS
330
16
102
}
330
16
100
AcDbVisualStyle
  2
ColorChange
 70
16
177
3
291
1
 70
58
 90
2
176
1
 90
2
176
1
 90
0
176
1
 90
2
176
1
 40
0.6
176
1
 40
30.0
176
1
 62
7
420
16777215
176
1
 90
1
176
1
 90
4
176
1
 62
7
176
1
 62
257
176
1
 90
1
176
1
 90
1
176
1
 40
1.0
176
1
 90
8
176
1
 62
7
176
1
 40
1.0
176
1
 90
1
176
1
 90
6
176
1
 90
2
176
1
 62
7
176
1
 90
5
176
1
 90
0
176
1
 90
0
176
1
290
0
176
1
 90
1
176
1
 40
0.0
176
1
 90
0
176
1
290
0
176
1
290
1
176
1
290
1
176
1
290
0
176
1
290
0
176
1
290
0
176
1
290
0
176
1
290
0
176
1
290
0
176
1
 90
50
176
1
 40
0.0
176
1
 40
1.0
176
1
 90
0
176
1
 62
18
420
0
176
1
 90
50
176
1
 90
3
176
1
 62
5
420
255
176
1
290
0
176
1
 90
50
176
1
 90
50
176
1
 90
50
176
1
290
0
176
1
 90
50
176
1
 62
256
176
0
 40
1.0
176
0
 90
2
176
1
  1
strokes_ogs.tif
176
1
290
0
176
1
 40
1.0
176
1
 40
1.0
176
1
  0
VISUALSTYLE
  5
5E
102
{ACAD_REACTORS
330
16
102
}
330
16
100
AcDbVisualStyle
  2
Conceptual
 70
9
177
3
291
0
 70
58
 90
2
176
1
 90
2
176
1
 90
0
176
1
 90
3
176
1
 40
0.6
176
1
 40
30.0
176
1
 62
7
420
16777215
176
1
 90
1
176
1
 90
4
176
1
 62
7
176
1
 62
257
176
1
 90
1
176
1
 90
1
176
1
 40
1.0
176
1
 90
8
176
1
 62
7
176
1
 40
1.0
176
1
 90
1
176
1
 90
6
176
1
 90
2
176
1
 62
7
176
1
 90
5
176
1
 90
0
176
1
 90
0
176
1
290
0
176
1
 90
1
176
1
 40
0.0
176
1
 90
0
176
1
290
0
176
1
290
1
176
1
290
1
176
1
290
0
176
1
290
0
176
1
290
0
176
1
290
0
176
1
290
0
176
1
290
0
176
1
 90
50
176
1
 40
0.0
176
1
 40
1.0
176
1
 90
0
176
1
 62
18
420
0
176
1
 90
50
176
1
 90
3
176
1
 62
5
420
255
176
1
290
0
176
1
 90
50
176
1
 90
50
176
1
 90
50
176
1
290
0
176
1
 90
50
176
1
 62
256
176
0
 40
1.0
176
0
 90
2
176
1
  1
strokes_ogs.tif
176
1
290
0
176
1
 40
1.0
176
1
 40
1.0
176
1
  0
VISUALSTYLE
  5
5F
102
{ACAD_REACTORS
330
16
102
}
330
16
100
AcDbVisualStyle
  2
Dim
 70
11
177
3
291
1
 70
58
 90
2
176
1
 90
2
176
1
 90
0
176
1
 90
2
176
1
 40
0.6
176
1
 40
30.0
176
1
 62
7
420
16777215
176
1
 90
1
176
1
 90
4
176
1
 62
7
176
1
 62
257
176
1
 90
1
176
1
 90
1
176
1
 40
1.0
176
1
 90
8
176
1
 62
7
176
1
 40
1.0
176
1
 90
1
176
1
 90
6
176
1
 90
2
176
1
 62
7
176
1
 90
5
176
1
 90
0
176
1
 90
0
176
1
290
0
176
1
 90
1
176
1
 40
0.0
176
1
 90
0
176
1
290
0
176
1
290
1
176
1
290
1
176
1
290
0
176
1
290
0
176
1
290
0
176
1
290
0
176
1
290
0
176
1
290
0
176
1
 90
50
176
1
 40
0.0
176
1
 40
1.0
176
1
 90
0
176
1
 62
18
420
0
176
1
 90
50
176
1
 90
3
176
1
 62
5
420
255
176
1
290
0
176
1
 90
50
176
1
 90
50
176
1
 90
50
176
1
290
0
176
1
 90
50
176
1
 62
256
176
0
 40
1.0
176
0
 90
2
176
1
  1
strokes_ogs.tif
176
1
290
0
176
1
 40
1.0
176
1
 40
1.0
176
1
  0
VISUALSTYLE
  5
60
102
{ACAD_REACTORS
330
16
102
}
330
16
100
AcDbVisualStyle
  2
EdgeColorOff
 70
22
177
3
291
1
 70
58
 90
2
176
1
 90
2
176
1
 90
0
176
1
 90
2
176
1
 40
0.6
176
1
 40
30.0
176
1
 62
7
420
16777215
176
1
 90
1
176
1
 90
4
176
1
 62
7
176
1
 62
257
176
1
 90
1
176
1
 90
1
176
1
 40
1.0
176
1
 90
8
176
1
 62
7
176
1
 40
1.0
176
1
 90
1
176
1
 90
6
176
1
 90
2
176
1
 62
7
176
1
 90
5
176
1
 90
0
176
1
 90
0
176
1
290
0
176
1
 90
1
176
1
 40
0.0
176
1
 90
0
176
1
290
0
176
1
290
1
176
1
290
1
176
1
290
0
176
1
290
0
176
1
290
0
176
1
290
0
176
1
290
0
176
1
290
0
176
1
 90
50
176
1
 40
0.0
176
1
 40
1.0
176
1
 90
0
176
1
 62
18
420
0
176
1
 90
50
176
1
 90
3
176
1
 62
5
420
255
176
1
290
0
176
1
 90
50
176
1
 90
50
176
1
 90
50
176
1
290
0
176
1
 90
50
176
1
 62
256
176
0
 40
1.0
176
0
 90
2
176
1
  1
strokes_ogs.tif
176
1
290
0
176
1
 40
1.0
176
1
 40
1.0
176
1
  0
VISUALSTYLE
  5
61
102
{ACAD_REACTORS
330
16
102
}
330
16
100
AcDbVisualStyle
  2
Facepattern
 70
15
177
3
291
1
 70
58
 90
2
176
1
 90
2
176
1
 90
0
176
1
 90
2
176
1
 40
0.6
176
1
 40
30.0
176
1
 62
7
420
16777215
176
1
 90
1
176
1
 90
4
176
1
 62
7
176
1
 62
257
176
1
 90
1
176
1
 90
1
176
1
 40
1.0
176
1
 90
8
176
1
 62
7
176
1
 40
1.0
176
1
 90
1
176
1
 90
6
176
1
 90
2
176
1
 62
7
176
1
 90
5
176
1
 90
0
176
1
 90
0
176
1
290
0
176
1
 90
1
176
1
 40
0.0
176
1
 90
0
176
1
290
0
176
1
290
1
176
1
290
1
176
1
290
0
176
1
290
0
176
1
290
0
176
1
290
0
176
1
290
0
176
1
290
0
176
1
 90
50
176
1
 40
0.0
176
1
 40
1.0
176
1
 90
0
176
1
 62
18
420
0
176
1
 90
50
176
1
 90
3
176
1
 62
5
420
255
176
1
290
0
176
1
 90
50
176
1
 90
50
176
1
 90
50
176
1
290
0
176
1
 90
50
176
1
 62
256
176
0
 40
1.0
176
0
 90
2
176
1
  1
strokes_ogs.tif
176
1
290
0
176
1
 40
1.0
176
1
 40
1.0
176
1
  0
VISUALSTYLE
  5
62
102
{ACAD_REACTORS
330
16
102
}
330
16
100
AcDbVisualStyle
  2
Flat
 70
0
177
3
291
1
 70
58
 90
2
176
1
 90
2
176
1
 90
0
176
1
 90
2
176
1
 40
0.6
176
1
 40
30.0
176
1
 62
7
420
16777215
176
1
 90
1
176
1
 90
4
176
1
 62
7
176
1
 62
257
176
1
 90
1
176
1
 90
1
176
1
 40
1.0
176
1
 90
8
176
1
 62
7
176
1
 40
1.0
176
1
 90
1
176
1
 90
6
176
1
 90
2
176
1
 62
7
176
1
 90
5
176
1
 90
0
176
1
 90
0
176
1
290
0
176
1
 90
1
176
1
 40
0.0
176
1
 90
0
176
1
290
0
176
1
290
1
176
1
290
1
176
1
290
0
176
1
290
0
176
1
290
0
176
1
290
0
176
1
290
0
176
1
290
0
176
1
 90
50
176
1
 40
0.0
176
1
 40
1.0
176
1
 90
0
176
1
 62
18
420
0
176
1
 90
50
176
1
 90
3
176
1
 62
5
420
255
176
1
290
0
176
1
 90
50
176
1
 90
50
176
1
 90
50
176
1
290
0
176
1
 90
50
176
1
 62
256
176
0
 40
1.0
176
0
 90
2
176
1
  1
strokes_ogs.tif
176
1
290
0
176
1
 40
1.0
176
1
 40
1.0
176
1
  0
VISUALSTYLE
  5
63
102
{ACAD_REACTORS
330
16
102
}
330
16
100
AcDbVisualStyle
  2
FlatWithEdges
 70
1
177
3
291
1
 70
58
 90
2
176
1
 90
2
176
1
 90
0
176
1
 90
2
176
1
 40
0.6
176
1
 40
30.0
176
1
 62
7
420
16777215
176
1
 90
1
176
1
 90
4
176
1
 62
7
176
1
 62
257
176
1
 90
1
176
1
 90
1
176
1
 40
1.0
176
1
 90
8
176
1
 62
7
176
1
 40
1.0
176
1
 90
1
176
1
 90
6
176
1
 90
2
176
1
 62
7
176
1
 90
5
176
1
 90
0
176
1
 90
0
176
1
290
0
176
1
 90
1
176
1
 40
0.0
176
1
 90
0
176
1
290
0
176
1
290
1
176
1
290
1
176
1
290
0
176
1
290
0
176
1
290
0
176
1
290
0
176
1
290
0
176
1
290
0
176
1
 90
50
176
1
 40
0.0
176
1
 40
1.0
176
1
 90
0
176
1
 62
18
420
0
176
1
 90
50
176
1
 90
3
176
1
 62
5
420
255
176
1
290
0
176
1
 90
50
176
1
 90
50
176
1
 90
50
176
1
290
0
176
1
 90
50
176
1
 62
256
176
0
 40
1.0
176
0
 90
2
176
1
  1
strokes_ogs.tif
176
1
290
0
176
1
 40
1.0
176
1
 40
1.0
176
1
  0
VISUALSTYLE
  5
64
102
{ACAD_REACTORS
330
16
102
}
330
16
100
AcDbVisualStyle
  2
Gouraud
 70
2
177
3
291
1
 70
58
 90
2
176
1
 90
2
176
1
 90
0
176
1
 90
2
176
1
 40
0.6
176
1
 40
30.0
176
1
 62
7
420
16777215
176
1
 90
1
176
1
 90
4
176
1
 62
7
176
1
 62
257
176
1
 90
1
176
1
 90
1
176
1
 40
1.0
176
1
 90
8
176
1
 62
7
176
1
 40
1.0
176
1
 90
1
176
1
 90
6
176
1
 90
2
176
1
 62
7
176
1
 90
5
176
1
 90
0
176
1
 90
0
176
1
290
0
176
1
 90
1
176
1
 40
0.0
176
1
 90
0
176
1
290
0
176
1
290
1
176
1
290
1
176
1
290
0
176
1
290
0
176
1
290
0
176
1
290
0
176
1
290
0
176
1
290
0
176
1
 90
50
176
1
 40
0.0
176
1
 40
1.0
176
1
 90
0
176
1
 62
18
420
0
176
1
 90
50
176
1
 90
3
176
1
 62
5
420
255
176
1
290
0
176
1
 90
50
176
1
 90
50
176
1
 90
50
176
1
290
0
176
1
 90
50
176
1
 62
256
176
0
 40
1.0
176
0
 90
2
176
1
  1
strokes_ogs.tif
176
1
290
0
176
1
 40
1.0
176
1
 40
1.0
176
1
  0
VISUALSTYLE
  5
65
102
{ACAD_REACTORS
330
16
102
}
330
16
100
AcDbVisualStyle
  2
GouraudWithEdges
 70
3
177
3
291
1
 70
58
 90
2
176
1
 90
2
176
1
 90
0
176
1
 90
2
176
1
 40
0.6
176
1
 40
30.0
176
1
 62
7
420
16777215
176
1
 90
1
176
1
 90
4
176
1
 62
7
176
1
 62
257
176
1
 90
1
176
1
 90
1
176
1
 40
1.0
176
1
 90
8
176
1
 62
7
176
1
 40
1.0
176
1
 90
1
176
1
 90
6
176
1
 90
2
176
1
 62
7
176
1
 90
5
176
1
 90
0
176
1
 90
0
176
1
290
0
176
1
 90
1
176
1
 40
0.0
176
1
 90
0
176
1
290
0
176
1
290
1
176
1
290
1
176
1
290
0
176
1
290
0
176
1
290
0
176
1
290
0
176
1
290
0
176
1
290
0
176
1
 90
50
176
1
 40
0.0
176
1
 40
1.0
176
1
 90
0
176
1
 62
18
420
0
176
1
 90
50
176
1
 90
3
176
1
 62
5
420
255
176
1
290
0
176
1
 90
50
176
1
 90
50
176
1
 90
50
176
1
290
0
176
1
 90
50
176
1
 62
256
176
0
 40
1.0
176
0
 90
2
176
1
  1
strokes_ogs.tif
176
1
290
0
176
1
 40
1.0
176
1
 40
1.0
176
1
  0
VISUALSTYLE
  5
66
102
{ACAD_REACTORS
330
16
102
}
330
16
100
AcDbVisualStyle
  2
Hidden
 70
6
177
3
291
0
 70
58
 90
2
176
1
 90
2
176
1
 90
0
176
1
 90
1
176
1
 40
0.6
176
1
 40
30.0
176
1
 62
7
420
16777215
176
1
 90
1
176
1
 90
4
176
1
 62
7
176
1
 62
257
176
1
 90
1
176
1
 90
1
176
1
 40
1.0
176
1
 90
8
176
1
 62
7
176
1
 40
1.0
176
1
 90
1
176
1
 90
6
176
1
 90
2
176
1
 62
7
176
1
 90
5
176
1
 90
0
176
1
 90
0
176
1
290
0
176
1
 90
1
176
1
 40
0.0
176
1
 90
0
176
1
290
0
176
1
290
1
176
1
290
1
176
1
290
0
176
1
290
0
176
1
290
0
176
1
290
0
176
1
290
0
176
1
290
0
176
1
 90
50
176
1
 40
0.0
176
1
 40
1.0
176
1
 90
0
176
1
 62
18
420
0
176
1
 90
50
176
1
 90
3
176
1
 62
5
420
255
176
1
290
0
176
1
 90
50
176
1
 90
50
176
1
 90
50
176
1
290
0
176
1
 90
50
176
1
 62
256
176
0
 40
1.0
176
0
 90
2
176
1
  1
strokes_ogs.tif
176
1
290
0
176
1
 40
1.0
176
1
 40
1.0
176
1
  0
VISUALSTYLE
  5
67
102
{ACAD_REACTORS
330
16
102
}
330
16
100
AcDbVisualStyle
  2
JitterOff
 70
20
177
3
291
1
 70
58
 90
2
176
1
 90
2
176
1
 90
0
176
1
 90
2
176
1
 40
0.6
176
1
 40
30.0
176
1
 62
7
420
16777215
176
1
 90
1
176
1
 90
4
176
1
 62
7
176
1
 62
257
176
1
 90
1
176
1
 90
1
176
1
 40
1.0
176
1
 90
8
176
1
 62
7
176
1
 40
1.0
176
1
 90
1
176
1
 90
6
176
1
 90
2
176
1
 62
7
176
1
 90
5
176
1
 90
0
176
1
 90
0
176
1
290
0
176
1
 90
1
176
1
 40
0.0
176
1
 90
0
176
1
290
0
176
1
290
1
176
1
290
1
176
1
290
0
176
1
290
0
176
1
290
0
176
1
290
0
176
1
290
0
176
1
290
0
176
1
 90
50
176
1
 40
0.0
176
1
 40
1.0
176
1
 90
0
176
1
 62
18
420
0
176
1
 90
50
176
1
 90
3
176
1
 62
5
420
255
176
1
290
0
176
1
 90
50
176
1
 90
50
176
1
 90
50
176
1
290
0
176
1
 90
50
176
1
 62
256
176
0
 40
1.0
176
0
 90
2
176
1
  1
strokes_ogs.tif
176
1
290
0
176
1
 40
1.0
176
1
 40
1.0
176
1
  0
VISUALSTYLE
  5
68
102
{ACAD_REACTORS
330
16
102
}
330
16
100
AcDbVisualStyle
  2
Linepattern
 70
14
177
3
291
1
 70
58
 90
2
176
1
 90
2
176
1
 90
0
176
1
 90
2
176
1
 40
0.6
176
1
 40
30.0
176
1
 62
7
420
16777215
176
1
 90
1
176
1
 90
4
176
1
 62
7
176
1
 62
257
176
1
 90
1
176
1
 90
1
176
1
 40
1.0
176
1
 90
8
176
1
 62
7
176
1
 40
1.0
176
1
 90
1
176
1
 90
6
176
1
 90
2
176
1
 62
7
176
1
 90
5
176
1
 90
0
176
1
 90
0
176
1
290
0
176
1
 90
1
176
1
 40
0.0
176
1
 90
0
176
1
290
0
176
1
290
1
176
1
290
1
176
1
290
0
176
1
290
0
176
1
290
0
176
1
290
0
176
1
290
0
176
1
290
0
176
1
 90
50
176
1
 40
0.0
176
1
 40
1.0
176
1
 90
0
176
1
 62
18
420
0
176
1
 90
50
176
1
 90
3
176
1
 62
5
420
255
176
1
290
0
176
1
 90
50
176
1
 90
50
176
1
 90
50
176
1
290
0
176
1
 90
50
176
1
 62
256
176
0
 40
1.0
176
0
 90
2
176
1
  1
strokes_ogs.tif
176
1
290
0
176
1
 40
1.0
176
1
 40
1.0
176
1
  0
VISUALSTYLE
  5
69
102
{ACAD_REACTORS
330
16
102
}
330
16
100
AcDbVisualStyle
  2
Modeling
 70
10
177
3
291
0
 70
58
 90
2
176
1
 90
2
176
1
 90
0
176
1
 90
2
176
1
 40
0.6
176
1
 40
30.0
176
1
 62
7
420
16777215
176
1
 90
1
176
1
 90
4
176
1
 62
7
176
1
 62
257
176
1
 90
1
176
1
 90
1
176
1
 40
1.0
176
1
 90
8
176
1
 62
7
176
1
 40
1.0
176
1
 90
1
176
1
 90
6
176
1
 90
2
176
1
 62
7
176
1
 90
5
176
1
 90
0
176
1
 90
0
176
1
290
0
176
1
 90
1
176
1
 40
0.0
176
1
 90
0
176
1
290
0
176
1
290
1
176
1
290
1
176
1
290
0
176
1
290
0
176
1
290
0
176
1
290
0
176
1
290
0
176
1
290
0
176
1
 90
50
176
1
 40
0.0
176
1
 40
1.0
176
1
 90
0
176
1
 62
18
420
0
176
1
 90
50
176
1
 90
3
176
1
 62
5
420
255
176
1
290
0
176
1
 90
50
176
1
 90
50
176
1
 90
50
176
1
290
0
176
1
 90
50
176
1
 62
256
176
0
 40
1.0
176
0
 90
2
176
1
  1
strokes_ogs.tif
176
1
290
0
176
1
 40
1.0
176
1
 40
1.0
176
1
  0
VISUALSTYLE
  5
6A
102
{ACAD_REACTORS
330
16
102
}
330
16
100
AcDbVisualStyle
  2
OverhangOff
 70
21
177
3
291
1
 70
58
 90
2
176
1
 90
2
176
1
 90
0
176
1
 90
2
176
1
 40
0.6
176
1
 40
30.0
176
1
 62
7
420
16777215
176
1
 90
1
176
1
 90
4
176
1
 62
7
176
1
 62
257
176
1
 90
1
176
1
 90
1
176
1
 40
1.0
176
1
 90
8
176
1
 62
7
176
1
 40
1.0
176
1
 90
1
176
1
 90
6
176
1
 90
2
176
1
 62
7
176
1
 90
5
176
1
 90
0
176
1
 90
0
176
1
290
0
176
1
 90
1
176
1
 40
0.0
176
1
 90
0
176
1
290
0
176
1
290
1
176
1
290
1
176
1
290
0
176
1
290
0
176
1
290
0
176
1
290
0
176
1
290
0
176
1
290
0
176
1
 90
50
176
1
 40
0.0
176
1
 40
1.0
176
1
 90
0
176
1
 62
18
420
0
176
1
 90
50
176
1
 90
3
176
1
 62
5
420
255
176
1
290
0
176
1
 90
50
176
1
 90
50
176
1
 90
50
176
1
290
0
176
1
 90
50
176
1
 62
256
176
0
 40
1.0
176
0
 90
2
176
1
  1
strokes_ogs.tif
176
1
290
0
176
1
 40
1.0
176
1
 40
1.0
176
1
  0
VISUALSTYLE
  5
6B
102
{ACAD_REACTORS
330
16
102
}
330
16
100
AcDbVisualStyle
  2
Realistic
 70
8
177
3
291
0
 70
58
 90
2
176
1
 90
2
176
1
 90
0
176
1
 90
2
176
1
 40
0.6
176
1
 40
30.0
176
1
 62
7
420
16777215
176
1
 90
1
176
1
 90
4
176
1
 62
7
176
1
 62
257
176
1
 90
1
176
1
 90
1
176
1
 40
1.0
176
1
 90
8
176
1
 62
7
176
1
 40
1.0
176
1
 90
1
176
1
 90
6
176
1
 90
2
176
1
 62
7
176
1
 90
5
176
1
 90
0
176
1
 90
0
176
1
290
0
176
1
 90
1
176
1
 40
0.0
176
1
 90
0
176
1
290
0
176
1
290
1
176
1
290
1
176
1
290
0
176
1
290
0
176
1
290
0
176
1
290
0
176
1
290
0
176
1
290
0
176
1
 90
50
176
1
 40
0.0
176
1
 40
1.0
176
1
 90
0
176
1
 62
18
420
0
176
1
 90
50
176
1
 90
3
176
1
 62
5
420
255
176
1
290
0
176
1
 90
50
176
1
 90
50
176
1
 90
50
176
1
290
0
176
1
 90
50
176
1
 62
256
176
0
 40
1.0
176
0
 90
2
176
1
  1
strokes_ogs.tif
176
1
290
0
176
1
 40
1.0
176
1
 40
1.0
176
1
  0
VISUALSTYLE
  5
6C
102
{ACAD_REACTORS
330
16
102
}
330
16
100
AcDbVisualStyle
  2
Shaded
 70
27
177
3
291
0
 70
58
 90
2
176
1
 90
2
176
1
 90
0
176
1
 90
2
176
1
 40
0.6
176
1
 40
30.0
176
1
 62
7
420
16777215
176
1
 90
1
176
1
 90
4
176
1
 62
7
176
1
 62
257
176
1
 90
1
176
1
 90
1
176
1
 40
1.0
176
1
 90
8
176
1
 62
7
176
1
 40
1.0
176
1
 90
1
176
1
 90
6
176
1
 90
2
176
1
 62
7
176
1
 90
5
176
1
 90
0
176
1
 90
0
176
1
290
0
176
1
 90
1
176
1
 40
0.0
176
1
 90
0
176
1
290
0
176
1
290
1
176
1
290
1
176
1
290
0
176
1
290
0
176
1
290
0
176
1
290
0
176
1
290
0
176
1
290
0
176
1
 90
50
176
1
 40
0.0
176
1
 40
1.0
176
1
 90
0
176
1
 62
18
420
0
176
1
 90
50
176
1
 90
3
176
1
 62
5
420
255
176
1
290
0
176
1
 90
50
176
1
 90
50
176
1
 90
50
176
1
290
0
176
1
 90
50
176
1
 62
256
176
0
 40
1.0
176
0
 90
2
176
1
  1
strokes_ogs.tif
176
1
290
0
176
1
 40
1.0
176
1
 40
1.0
176
1
  0
VISUALSTYLE
  5
6D
102
{ACAD_REACTORS
330
16
102
}
330
16
100
AcDbVisualStyle
  2
Shaded with edges
 70
26
177
3
291
0
 70
58
 90
2
176
1
 90
2
176
1
 90
0
176
1
 90
2
176
1
 40
0.6
176
1
 40
30.0
176
1
 62
7
420
16777215
176
1
 90
1
176
1
 90
4
176
1
 62
7
176
1
 62
257
176
1
 90
1
176
1
 90
1
176
1
 40
1.0
176
1
 90
8
176
1
 62
7
176
1
 40
1.0
176
1
 90
1
176
1
 90
6
176
1
 90
2
176
1
 62
7
176
1
 90
5
176
1
 90
0
176
1
 90
0
176
1
290
0
176
1
 90
1
176
1
 40
0.0
176
1
 90
0
176
1
290
0
176
1
290
1
176
1
290
1
176
1
290
0
176
1
290
0
176
1
290
0
176
1
290
0
176
1
290
0
176
1
290
0
176
1
 90
50
176
1
 40
0.0
176
1
 40
1.0
176
1
 90
0
176
1
 62
18
420
0
176
1
 90
50
176
1
 90
3
176
1
 62
5
420
255
176
1
290
0
176
1
 90
50
176
1
 90
50
176
1
 90
50
176
1
290
0
176
1
 90
50
176
1
 62
256
176
0
 40
1.0
176
0
 90
2
176
1
  1
strokes_ogs.tif
176
1
290
0
176
1
 40
1.0
176
1
 40
1.0
176
1
  0
VISUALSTYLE
  5
6E
102
{ACAD_REACTORS
330
16
102
}
330
16
100
AcDbVisualStyle
  2
Shades of Gray
 70
23
177
3
291
0
 70
58
 90
2
176
1
 90
2
176
1
 90
0
176
1
 90
2
176
1
 40
0.6
176
1
 40
30.0
176
1
 62
7
420
16777215
176
1
 90
1
176
1
 90
4
176
1
 62
7
176
1
 62
257
176
1
 90
1
176
1
 90
1
176
1
 40
1.0
176
1
 90
8
176
1
 62
7
176
1
 40
1.0
176
1
 90
1
176
1
 90
6
176
1
 90
2
176
1
 62
7
176
1
 90
5
176
1
 90
0
176
1
 90
0
176
1
290
0
176
1
 90
1
176
1
 40
0.0
176
1
 90
0
176
1
290
0
176
1
290
1
176
1
290
1
176
1
290
0
176
1
290
0
176
1
290
0
176
1
290
0
176
1
290
0
176
1
290
0
176
1
 90
50
176
1
 40
0.0
176
1
 40
1.0
176
1
 90
0
176
1
 62
18
420
0
176
1
 90
50
176
1
 90
3
176
1
 62
5
420
255
176
1
290
0
176
1
 90
50
176
1
 90
50
176
1
 90
50
176
1
290
0
176
1
 90
50
176
1
 62
256
176
0
 40
1.0
176
0
 90
2
176
1
  1
strokes_ogs.tif
176
1
290
0
176
1
 40
1.0
176
1
 40
1.0
176
1
  0
VISUALSTYLE
  5
6F
102
{ACAD_REACTORS
330
16
102
}
330
16
100
AcDbVisualStyle
  2
Sketchy
 70
24
177
3
291
0
 70
58
 90
2
176
1
 90
2
176
1
 90
0
176
1
 90
1
176
1
 40
0.6
176
1
 40
30.0
176
1
 62
7
420
16777215
176
1
 90
1
176
1
 90
4
176
1
 62
7
176
1
 62
257
176
1
 90
1
176
1
 90
1
176
1
 40
1.0
176
1
 90
8
176
1
 62
7
176
1
 40
1.0
176
1
 90
1
176
1
 90
6
176
1
 90
2
176
1
 62
7
176
1
 90
5
176
1
 90
0
176
1
 90
0
176
1
290
0
176
1
 90
1
176
1
 40
0.0
176
1
 90
0
176
1
290
0
176
1
290
1
176
1
290
1
176
1
290
0
176
1
290
0
176
1
290
0
176
1
290
0
176
1
290
0
176
1
290
0
176
1
 90
50
176
1
 40
0.0
176
1
 40
1.0
176
1
 90
0
176
1
 62
18
420
0
176
1
 90
50
176
1
 90
3
176
1
 62
5
420
255
176
1
290
0
176
1
 90
50
176
1
 90
50
176
1
 90
50
176
1
290
0
176
1
 90
50
176
1
 62
256
176
0
 40
1.0
176
0
 90
2
176
1
  1
strokes_ogs.tif
176
1
290
0
176
1
 40
1.0
176
1
 40
1.0
176
1
  0
VISUALSTYLE
  5
70
102
{ACAD_REACTORS
330
16
102
}
330
16
100
AcDbVisualStyle
  2
Thicken
 70
13
177
3
291
1
 70
58
 90
2
176
1
 90
2
176
1
 90
0
176
1
 90
2
176
1
 40
0.6
176
1
 40
30.0
176
1
 62
7
420
16777215
176
1
 90
1
176
1
 90
4
176
1
 62
7
176
1
 62
257
176
1
 90
1
176
1
 90
1
176
1
 40
1.0
176
1
 90
8
176
1
 62
7
176
1
 40
1.0
176
1
 90
1
176
1
 90
6
176
1
 90
2
176
1
 62
7
176
1
 90
5
176
1
 90
0
176
1
 90
0
176
1
290
0
176
1
 90
1
176
1
 40
0.0
176
1
 90
0
176
1
290
0
176
1
290
1
176
1
290
1
176
1
290
0
176
1
290
0
176
1
290
0
176
1
290
0
176
1
290
0
176
1
290
0
176
1
 90
50
176
1
 40
0.0
176
1
 40
1.0
176
1
 90
0
176
1
 62
18
420
0
176
1
 90
50
176
1
 90
3
176
1
 62
5
420
255
176
1
290
0
176
1
 90
50
176
1
 90
50
176
1
 90
50
176
1
290
0
176
1
 90
50
176
1
 62
256
176
0
 40
1.0
176
0
 90
2
176
1
  1
strokes_ogs.tif
176
1
290
0
176
1
 40
1.0
176
1
 40
1.0
176
1
  0
VISUALSTYLE
  5
71
102
{ACAD_REACTORS
330
16
102
}
330
16
100
AcDbVisualStyle
  2
Wireframe
 70
5
177
3
291
0
 70
58
 90
2
176
1
 90
2
176
1
 90
0
176
1
 90
0
176
1
 40
0.6
176
1
 40
30.0
176
1
 62
7
420
16777215
176
1
 90
1
176
1
 90
4
176
1
 62
7
176
1
 62
257
176
1
 90
1
176
1
 90
1
176
1
 40
1.0
176
1
 90
8
176
1
 62
7
176
1
 40
1.0
176
1
 90
1
176
1
 90
6
176
1
 90
2
176
1
 62
7
176
1
 90
5
176
1
 90
0
176
1
 90
0
176
1
290
0
176
1
 90
1
176
1
 40
0.0
176
1
 90
0
176
1
290
0
176
1
290
1
176
1
290
1
176
1
290
0
176
1
290
0
176
1
290
0
176
1
290
0
176
1
290
0
176
1
290
0
176
1
 90
50
176
1
 40
0.0
176
1
 40
1.0
176
1
 90
0
176
1
 62
18
420
0
176
1
 90
50
176
1
 90
3
176
1
 62
5
420
255
176
1
290
0
176
1
 90
50
176
1
 90
50
176
1
 90
50
176
1
290
0
176
1
 90
50
176
1
 62
256
176
0
 40
1.0
176
0
 90
2
176
1
  1
strokes_ogs.tif
176
1
290
0
176
1
 40
1.0
176
1
 40
1.0
176
1
  0
VISUALSTYLE
  5
72
102
{ACAD_REACTORS
330
16
102
}
330
16
100
AcDbVisualStyle
  2
X-Ray
 70
25
177
3
291
0
 70
58
 90
2
176
1
 90
2
176
1
 90
0
176
1
 90
2
176
1
 40
0.5
176
1
 40
30.0
176
1
 62
7
420
16777215
176
1
 90
1
176
1
 90
4
176
1
 62
7
176
1
 62
257
176
1
 90
1
176
1
 90
1
176
1
 40
1.0
176
1
 90
8
176
1
 62
7
176
1
 40
1.0
176
1
 90
1
176
1
 90
6
176
1
 90
2
176
1
 62
7
176
1
 90
5
176
1
 90
0
176
1
 90
0
176
1
290
0
176
1
 90
1
176
1
 40
0.0
176
1
 90
0
176
1
290
0
176
1
290
1
176
1
290
1
176
1
290
0
176
1
290
0
176
1
290
0
176
1
290
0
176
1
290
0
176
1
290
0
176
1
 90
50
176
1
 40
0.0
176
1
 40
1.0
176
1
 90
0
176
1
 62
18
420
0
176
1
 90
50
176
1
 90
3
176
1
 62
5
420
255
176
1
290
0
176
1
 90
50
176
1
 90
50
176
1
 90
50
176
1
290
0
176
1
 90
50
176
1
 62
256
176
0
 40
1.0
176
0
 90
2
176
1
  1
strokes_ogs.tif
176
1
290
0
176
1
 40
1.0
176
1
 40
1.0
176
1
  0
LAYOUT
  5
2F6
330
D
100
AcDbPlotSettings
  1

  2
DWG To PDF.pc3
  4
ISO B2 horizontal 707x500 mm 1:1_(707.00_x_500.00_MM)
  6

 40
0.0
 41
0.0
 42
0.0
 43
0.0
 44
707.0
 45
500.0
 46
0.0
 47
0.0
 48
0.0
 49
0.0
140
0.0
141
0.0
142
1.0
143
1.0
 70
0
 72
1
 73
0
 74
5
  7

 75
16
 76
0
 77
2
 78
300
147
1.0
148
0.0
149
0.0
100
AcDbLayout
  1
B2_HORIZONTAL
 70
1
 71
3
 10
-0.0
 20
-0.0
 11
707.0
 21
500.0
 12
0.0
 22
0.0
 32
0.0
 14
1e+20
 24
1e+20
 34
1e+20
 15
-1e+20
 25
-1e+20
 35
-1e+20
146
0.0
 13
0.0
 23
0.0
 33
0.0
 16
1.0
 26
0.0
 36
0.0
 17
0.0
 27
1.0
 37
0.0
 76
1
330
2F3
331
2F7
  0
DICTIONARYVAR
  5
2FB
330
2D
100
DictionaryVariables
280
0
  1
1.4.2 @ 2026-07-18T03:58:17.238665+00:00
  0
ENDSEC
  0
EOF
