  0
SECTION
  2
HEADER
  9
$ACADVER
  1
AC1032
  9
$ACADMAINTVER
 90
4
  9
$DWGCODEPAGE
  3
ANSI_1252
  9
$LASTSAVEDBY
  1
ezdxf
  9
$REQUIREDVERSIONS
160
0
  9
$INSBASE
 10
0.0
 20
0.0
 30
0.0
  9
$EXTMIN
 10
1e+20
 20
1e+20
 30
1e+20
  9
$EXTMAX
 10
-1e+20
 20
-1e+20
 30
-1e+20
  9
$LIMMIN
 10
0.0
 20
0.0
  9
$LIMMAX
 10
420.0
 20
297.0
  9
$ORTHOMODE
 70
0
  9
$REGENMODE
 70
1
  9
$FILLMODE
 70
1
  9
$QTEXTMODE
 70
0
  9
$MIRRTEXT
 70
1
  9
$LTSCALE
 40
1.0
  9
$ATTMODE
 70
1
  9
$TEXTSIZE
 40
2.5
  9
$TRACEWID
 40
1.0
  9
$TEXTSTYLE
  7
OpenSans
  9
$CLAYER
  8
0
  9
$CELTYPE
  6
ByLayer
  9
$CECOLOR
 62
256
  9
$CELTSCALE
 40
1.0
  9
$DISPSILH
 70
0
  9
$DIMSCALE
 40
1.0
  9
$DIMASZ
 40
0.175
  9
$DIMEXO
 40
0.125
  9
$DIMDLI
 40
3.75
  9
$DIMRND
 40
0.0
  9
$DIMDLE
 40
0.0
  9
$DIMEXE
 40
0.375
  9
$DIMTP
 40
0.0
  9
$DIMTM
 40
0.0
  9
$DIMTXT
 40
0.25
  9
$DIMCEN
 40
2.5
  9
$DIMTSZ
 40
0.0
  9
$DIMTOL
 70
0
  9
$DIMLIM
 70
0
  9
$DIMTIH
 70
0
  9
$DIMTOH
 70
0
  9
$DIMSE1
 70
0
  9
$DIMSE2
 70
0
  9
$DIMTAD
 70
1
  9
$DIMZIN
 70
12
  9
$DIMBLK
  1
ARCHTICK
  9
$DIMASO
 70
1
  9
$DIMSHO
 70
1
  9
$DIMPOST
  1

  9
$DIMAPOST
  1

  9
$DIMALT
 70
0
  9
$DIMALTD
 70
3
  9
$DIMALTF
 40
0.03937007874
  9
$DIMLFAC
 40
100.0
  9
$DIMTOFL
 70
1
  9
$DIMTVP
 40
0.0
  9
$DIMTIX
 70
0
  9
$DIMSOXD
 70
0
  9
$DIMSAH
 70
0
  9
$DIMBLK1
  1

  9
$DIMBLK2
  1

  9
$DIMSTYLE
  2
EZDXF
  9
$DIMCLRD
 70
0
  9
$DIMCLRE
 70
0
  9
$DIMCLRT
 70
0
  9
$DIMTFAC
 40
0.5
  9
$DIMGAP
 40
0.1
  9
$DIMJUST
 70
0
  9
$DIMSD1
 70
0
  9
$DIMSD2
 70
0
  9
$DIMTOLJ
 70
0
  9
$DIMTZIN
 70
8
  9
$DIMALTZ
 70
0
  9
$DIMALTTZ
 70
0
  9
$DIMUPT
 70
1
  9
$DIMDEC
 70
2
  9
$DIMTDEC
 70
2
  9
$DIMALTU
 70
2
  9
$DIMALTTD
 70
3
  9
$DIMTXSTY
  7
OpenSansCondensed-Light
  9
$DIMAUNIT
 70
0
  9
$DIMADEC
 70
2
  9
$DIMALTRND
 40
0.0
  9
$DIMAZIN
 70
3
  9
$DIMDSEP
 70
46
  9
$DIMATFIT
 70
3
  9
$DIMFRAC
 70
0
  9
$DIMLDRBLK
  1

  9
$DIMLUNIT
 70
2
  9
$DIMLWD
 70
-2
  9
$DIMLWE
 70
-2
  9
$DIMTMOVE
 70
2
  9
$DIMFXL
 40
1.0
  9
$DIMFXLON
 70
0
  9
$DIMJOGANG
 40
0.785398163397
  9
$DIMTFILL
 70
0
  9
$DIMTFILLCLR
 70
0
  9
$DIMARCSYM
 70
0
  9
$DIMLTYPE
  6

  9
$DIMLTEX1
  6

  9
$DIMLTEX2
  6

  9
$DIMTXTDIRECTION
 70
0
  9
$LUNITS
 70
2
  9
$LUPREC
 70
3
  9
$SKETCHINC
 40
1.0
  9
$FILLETRAD
 40
10.0
  9
$AUNITS
 70
0
  9
$AUPREC
 70
2
  9
$MENU
  1
.
  9
$ELEVATION
 40
0.0
  9
$PELEVATION
 40
0.0
  9
$THICKNESS
 40
0.0
  9
$LIMCHECK
 70
0
  9
$CHAMFERA
 40
0.0
  9
$CHAMFERB
 40
0.0
  9
$CHAMFERC
 40
0.0
  9
$CHAMFERD
 40
0.0
  9
$SKPOLY
 70
0
  9
$TDCREATE
 40
2461240.066064815
  9
$TDUCREATE
 40
2458532.153996898
  9
$TDUPDATE
 40
2461240.066064815
  9
$TDUUPDATE
 40
2458532.1544311
  9
$TDINDWG
 40
0.0
  9
$TDUSRTIMER
 40
0.0
  9
$USRTIMER
 70
1
  9
$ANGBASE
 50
0.0
  9
$ANGDIR
 70
0
  9
$PDMODE
 70
0
  9
$PDSIZE
 40
0.0
  9
$PLINEWID
 40
0.0
  9
$SPLFRAME
 70
0
  9
$SPLINETYPE
 70
6
  9
$SPLINESEGS
 70
8
  9
$HANDSEED
  5
39D
  9
$SURFTAB1
 70
6
  9
$SURFTAB2
 70
6
  9
$SURFTYPE
 70
6
  9
$SURFU
 70
6
  9
$SURFV
 70
6
  9
$UCSBASE
  2

  9
$UCSNAME
  2

  9
$UCSORG
 10
0.0
 20
0.0
 30
0.0
  9
$UCSXDIR
 10
1.0
 20
0.0
 30
0.0
  9
$UCSYDIR
 10
0.0
 20
1.0
 30
0.0
  9
$UCSORTHOREF
  2

  9
$UCSORTHOVIEW
 70
0
  9
$UCSORGTOP
 10
0.0
 20
0.0
 30
0.0
  9
$UCSORGBOTTOM
 10
0.0
 20
0.0
 30
0.0
  9
$UCSORGLEFT
 10
0.0
 20
0.0
 30
0.0
  9
$UCSORGRIGHT
 10
0.0
 20
0.0
 30
0.0
  9
$UCSORGFRONT
 10
0.0
 20
0.0
 30
0.0
  9
$UCSORGBACK
 10
0.0
 20
0.0
 30
0.0
  9
$PUCSBASE
  2

  9
$PUCSNAME
  2

  9
$PUCSORG
 10
0.0
 20
0.0
 30
0.0
  9
$PUCSXDIR
 10
1.0
 20
0.0
 30
0.0
  9
$PUCSYDIR
 10
0.0
 20
1.0
 30
0.0
  9
$PUCSORTHOREF
  2

  9
$PUCSORTHOVIEW
 70
0
  9
$PUCSORGTOP
 10
0.0
 20
0.0
 30
0.0
  9
$PUCSORGBOTTOM
 10
0.0
 20
0.0
 30
0.0
  9
$PUCSORGLEFT
 10
0.0
 20
0.0
 30
0.0
  9
$PUCSORGRIGHT
 10
0.0
 20
0.0
 30
0.0
  9
$PUCSORGFRONT
 10
0.0
 20
0.0
 30
0.0
  9
$PUCSORGBACK
 10
0.0
 20
0.0
 30
0.0
  9
$USERI1
 70
0
  9
$USERI2
 70
0
  9
$USERI3
 70
0
  9
$USERI4
 70
0
  9
$USERI5
 70
0
  9
$USERR1
 40
0.0
  9
$USERR2
 40
0.0
  9
$USERR3
 40
0.0
  9
$USERR4
 40
0.0
  9
$USERR5
 40
0.0
  9
$WORLDVIEW
 70
1
  9
$SHADEDGE
 70
3
  9
$SHADEDIF
 70
70
  9
$TILEMODE
 70
1
  9
$MAXACTVP
 70
64
  9
$PINSBASE
 10
0.0
 20
0.0
 30
0.0
  9
$PLIMCHECK
 70
0
  9
$PEXTMIN
 10
1e+20
 20
1e+20
 30
1e+20
  9
$PEXTMAX
 10
-1e+20
 20
-1e+20
 30
-1e+20
  9
$PLIMMIN
 10
-0.0
 20
-0.0
  9
$PLIMMAX
 10
1189.0
 20
841.0
  9
$UNITMODE
 70
0
  9
$VISRETAIN
 70
1
  9
$PLINEGEN
 70
0
  9
$PSLTSCALE
 70
1
  9
$TREEDEPTH
 70
3020
  9
$CMLSTYLE
  2
Standard
  9
$CMLJUST
 70
0
  9
$CMLSCALE
 40
20.0
  9
$PROXYGRAPHICS
 70
1
  9
$MEASUREMENT
 70
1
  9
$CELWEIGHT
370
-1
  9
$ENDCAPS
280
0
  9
$JOINSTYLE
280
0
  9
$LWDISPLAY
290
0
  9
$INSUNITS
 70
4
  9
$HYPERLINKBASE
  1

  9
$STYLESHEET
  1

  9
$XEDIT
290
1
  9
$CEPSNTYPE
380
0
  9
$PSTYLEMODE
290
1
  9
$FINGERPRINTGUID
  2
{969A51E2-13AC-4D6C-805C-8B9406FFBABC}
  9
$VERSIONGUID
  2
{01DC9F1D-DDA4-4036-BE13-6376B68807BB}
  9
$EXTNAMES
290
1
  9
$PSVPSCALE
 40
0.0
  9
$OLESTARTUP
290
0
  9
$SORTENTS
280
127
  9
$INDEXCTL
280
0
  9
$HIDETEXT
280
1
  9
$XCLIPFRAME
280
1
  9
$HALOGAP
280
0
  9
$OBSCOLOR
 70
257
  9
$OBSLTYPE
280
0
  9
$INTERSECTIONDISPLAY
280
0
  9
$INTERSECTIONCOLOR
 70
257
  9
$DIMASSOC
280
2
  9
$PROJECTNAME
  1

  9
$CAMERADISPLAY
290
0
  9
$LENSLENGTH
 40
50.0
  9
$CAMERAHEIGHT
 40
0.0
  9
$STEPSPERSEC
 40
24.0
  9
$STEPSIZE
 40
100.0
  9
$3DDWFPREC
 40
2.0
  9
$PSOLWIDTH
 40
0.005
  9
$PSOLHEIGHT
 40
0.08
  9
$LOFTANG1
 40
1.570796326795
  9
$LOFTANG2
 40
1.570796326795
  9
$LOFTMAG1
 40
0.0
  9
$LOFTMAG2
 40
0.0
  9
$LOFTPARAM
 70
7
  9
$LOFTNORMALS
280
1
  9
$LATITUDE
 40
37.795
  9
$LONGITUDE
 40
-122.394
  9
$NORTHDIRECTION
 40
0.0
  9
$TIMEZONE
 70
-8000
  9
$LIGHTGLYPHDISPLAY
280
1
  9
$TILEMODELIGHTSYNCH
280
1
  9
$CMATERIAL
347
20
  9
$SOLIDHIST
280
0
  9
$SHOWHIST
280
1
  9
$DWFFRAME
280
2
  9
$DGNFRAME
280
2
  9
$REALWORLDSCALE
290
1
  9
$INTERFERECOLOR
 62
256
  9
$CSHADOW
280
0
  9
$SHADOWPLANELOCATION
 40
0.0
  0
ENDSEC
  0
SECTION
  2
CLASSES
  0
CLASS
  1
ACDBDICTIONARYWDFLT
  2
AcDbDictionaryWithDefault
  3
ObjectDBX Classes
 90
0
 91
0
280
0
281
0
  0
CLASS
  1
SUN
  2
AcDbSun
  3
SCENEOE
 90
1153
 91
0
280
0
281
0
  0
CLASS
  1
VISUALSTYLE
  2
AcDbVisualStyle
  3
ObjectDBX Classes
 90
4095
 91
0
280
0
281
0
  0
CLASS
  1
MATERIAL
  2
AcDbMaterial
  3
ObjectDBX Classes
 90
1153
 91
0
280
0
281
0
  0
CLASS
  1
SCALE
  2
AcDbScale
  3
ObjectDBX Classes
 90
1153
 91
0
280
0
281
0
  0
CLASS
  1
TABLESTYLE
  2
AcDbTableStyle
  3
ObjectDBX Classes
 90
4095
 91
0
280
0
281
0
  0
CLASS
  1
MLEADERSTYLE
  2
AcDbMLeaderStyle
  3
ACDB_MLEADERSTYLE_CLASS
 90
4095
 91
0
280
0
281
0
  0
CLASS
  1
DICTIONARYVAR
  2
AcDbDictionaryVar
  3
ObjectDBX Classes
 90
0
 91
0
280
0
281
0
  0
CLASS
  1
CELLSTYLEMAP
  2
AcDbCellStyleMap
  3
ObjectDBX Classes
 90
1152
 91
0
280
0
281
0
  0
CLASS
  1
MENTALRAYRENDERSETTINGS
  2
AcDbMentalRayRenderSettings
  3
SCENEOE
 90
1024
 91
0
280
0
281
0
  0
CLASS
  1
ACDBDETAILVIEWSTYLE
  2
AcDbDetailViewStyle
  3
ObjectDBX Classes
 90
1025
 91
0
280
0
281
0
  0
CLASS
  1
ACDBSECTIONVIEWSTYLE
  2
AcDbSectionViewStyle
  3
ObjectDBX Classes
 90
1025
 91
0
280
0
281
0
  0
CLASS
  1
RASTERVARIABLES
  2
AcDbRasterVariables
  3
ISM
 90
0
 91
0
280
0
281
0
  0
CLASS
  1
ACDBPLACEHOLDER
  2
AcDbPlaceHolder
  3
ObjectDBX Classes
 90
0
 91
0
280
0
281
0
  0
CLASS
  1
LAYOUT
  2
AcDbLayout
  3
ObjectDBX Classes
 90
0
 91
0
280
0
281
0
  0
ENDSEC
  0
SECTION
  2
TABLES
  0
TABLE
  2
VPORT
  5
8
330
0
100
AcDbSymbolTable
 70
1
  0
VPORT
  5
23
330
8
100
AcDbSymbolTableRecord
100
AcDbViewportTableRecord
  2
*Active
 70
0
 10
0.0
 20
0.0
 11
1.0
 21
1.0
 12
0.0
 22
0.0
 13
0.0
 23
0.0
 14
0.5
 24
0.5
 15
0.5
 25
0.5
 16
0.0
 26
0.0
 36
1.0
 17
0.0
 27
0.0
 37
0.0
 40
1000.0
 41
1.34
 42
50.0
 43
0.0
 44
0.0
 50
0.0
 51
0.0
 71
0
 72
1000
 73
1
 74
3
 75
0
 76
0
 77
0
 78
0
281
0
 65
0
146
0.0
  0
ENDTAB
  0
TABLE
  2
LTYPE
  5
2
330
0
100
AcDbSymbolTable
 70
21
  0
LTYPE
  5
24
330
2
100
AcDbSymbolTableRecord
100
AcDbLinetypeTableRecord
  2
ByBlock
 70
0
  3

 72
65
 73
0
 40
0.0
  0
LTYPE
  5
25
330
2
100
AcDbSymbolTableRecord
100
AcDbLinetypeTableRecord
  2
ByLayer
 70
0
  3

 72
65
 73
0
 40
0.0
  0
LTYPE
  5
26
330
2
100
AcDbSymbolTableRecord
100
AcDbLinetypeTableRecord
  2
Continuous
 70
0
  3

 72
65
 73
0
 40
0.0
  0
LTYPE
  5
2F
330
2
100
AcDbSymbolTableRecord
100
AcDbLinetypeTableRecord
  2
CENTER
 70
0
  3
Center ____ _ ____ _ ____ _ ____ _ ____ _ ____
 72
65
 73
4
 40
5.08
 49
3.175
 74
0
 49
-0.635
 74
0
 49
0.635
 74
0
 49
-0.635
 74
0
  0
LTYPE
  5
30
330
2
100
AcDbSymbolTableRecord
100
AcDbLinetypeTableRecord
  2
CENTERX2
 70
0
  3
Center (2x) ________  __  ________  __  ________
 72
65
 73
4
 40
8.89
 49
6.35
 74
0
 49
-0.635
 74
0
 49
1.27
 74
0
 49
-0.635
 74
0
  0
LTYPE
  5
31
330
2
100
AcDbSymbolTableRecord
100
AcDbLinetypeTableRecord
  2
CENTER2
 70
0
  3
Center (.5x) ____ _ ____ _ ____ _ ____ _ ____
 72
65
 73
4
 40
2.54
 49
1.587
 74
0
 49
-0.318
 74
0
 49
0.318
 74
0
 49
-0.318
 74
0
  0
LTYPE
  5
32
330
2
100
AcDbSymbolTableRecord
100
AcDbLinetypeTableRecord
  2
DASHED
 70
0
  3
Dashed __ __ __ __ __ __ __ __ __ __ __ __ __ _
 72
65
 73
2
 40
1.524
 49
1.27
 74
0
 49
-0.254
 74
0
  0
LTYPE
  5
33
330
2
100
AcDbSymbolTableRecord
100
AcDbLinetypeTableRecord
  2
DASHEDX2
 70
0
  3
Dashed (2x) ____  ____  ____  ____  ____  ____
 72
65
 73
2
 40
3.048
 49
2.54
 74
0
 49
-0.508
 74
0
  0
LTYPE
  5
34
330
2
100
AcDbSymbolTableRecord
100
AcDbLinetypeTableRecord
  2
DASHED2
 70
0
  3
Dashed (.5x) _ _ _ _ _ _ _ _ _ _ _ _ _ _
 72
65
 73
2
 40
0.762
 49
0.635
 74
0
 49
-0.127
 74
0
  0
LTYPE
  5
35
330
2
100
AcDbSymbolTableRecord
100
AcDbLinetypeTableRecord
  2
PHANTOM
 70
0
  3
Phantom ______  __  __  ______  __  __  ______
 72
65
 73
6
 40
6.35
 49
3.175
 74
0
 49
-0.635
 74
0
 49
0.635
 74
0
 49
-0.635
 74
0
 49
0.635
 74
0
 49
-0.635
 74
0
  0
LTYPE
  5
36
330
2
100
AcDbSymbolTableRecord
100
AcDbLinetypeTableRecord
  2
PHANTOMX2
 70
0
  3
Phantom (2x)____________    ____    ____    ____________
 72
65
 73
6
 40
10.795
 49
6.35
 74
0
 49
-0.635
 74
0
 49
1.27
 74
0
 49
-0.635
 74
0
 49
1.27
 74
0
 49
-0.635
 74
0
  0
LTYPE
  5
37
330
2
100
AcDbSymbolTableRecord
100
AcDbLinetypeTableRecord
  2
PHANTOM2
 70
0
  3
Phantom (.5x) ___ _ _ ___ _ _ ___ _ _ ___ _ _ ___
 72
65
 73
6
 40
3.175
 49
1.587
 74
0
 49
-0.318
 74
0
 49
0.318
 74
0
 49
-0.318
 74
0
 49
0.318
 74
0
 49
-0.318
 74
0
  0
LTYPE
  5
38
330
2
100
AcDbSymbolTableRecord
100
AcDbLinetypeTableRecord
  2
DASHDOT
 70
0
  3
Dash dot __ . __ . __ . __ . __ . __ . __ . __
 72
65
 73
4
 40
3.556
 49
2.54
 74
0
 49
-0.508
 74
0
 49
0.0
 74
0
 49
-0.508
 74
0
  0
LTYPE
  5
39
330
2
100
AcDbSymbolTableRecord
100
AcDbLinetypeTableRecord
  2
DASHDOTX2
 70
0
  3
Dash dot (2x) ____  .  ____  .  ____  .  ____
 72
65
 73
4
 40
6.096
 49
5.08
 74
0
 49
-0.508
 74
0
 49
0.0
 74
0
 49
-0.508
 74
0
  0
LTYPE
  5
3A
330
2
100
AcDbSymbolTableRecord
100
AcDbLinetypeTableRecord
  2
DASHDOT2
 70
0
  3
Dash dot (.5x) _ . _ . _ . _ . _ . _ . _ . _
 72
65
 73
4
 40
1.778
 49
1.27
 74
0
 49
-0.254
 74
0
 49
0.0
 74
0
 49
-0.254
 74
0
  0
LTYPE
  5
3B
330
2
100
AcDbSymbolTableRecord
100
AcDbLinetypeTableRecord
  2
DOT
 70
0
  3
Dot .  .  .  .  .  .  .  .  .  .  .  .  .  .  .  .
 72
65
 73
2
 40
0.508
 49
0.0
 74
0
 49
-0.508
 74
0
  0
LTYPE
  5
3C
330
2
100
AcDbSymbolTableRecord
100
AcDbLinetypeTableRecord
  2
DOTX2
 70
0
  3
Dot (2x) .    .    .    .    .    .    .    . 
 72
65
 73
2
 40
1.016
 49
0.0
 74
0
 49
-1.016
 74
0
  0
LTYPE
  5
3D
330
2
100
AcDbSymbolTableRecord
100
AcDbLinetypeTableRecord
  2
DOT2
 70
0
  3
Dot (.5) . . . . . . . . . . . . . . . . . . . 
 72
65
 73
2
 40
0.254
 49
0.0
 74
0
 49
-0.254
 74
0
  0
LTYPE
  5
3E
330
2
100
AcDbSymbolTableRecord
100
AcDbLinetypeTableRecord
  2
DIVIDE
 70
0
  3
Divide __ . . __ . . __ . . __ . . __ . . __
 72
65
 73
6
 40
4.064
 49
2.54
 74
0
 49
-0.508
 74
0
 49
0.0
 74
0
 49
-0.508
 74
0
 49
0.0
 74
0
 49
-0.508
 74
0
  0
LTYPE
  5
3F
330
2
100
AcDbSymbolTableRecord
100
AcDbLinetypeTableRecord
  2
DIVIDEX2
 70
0
  3
Divide (2x) ____  . .  ____  . .  ____  . .  ____
 72
65
 73
6
 40
6.604
 49
5.08
 74
0
 49
-0.508
 74
0
 49
0.0
 74
0
 49
-0.508
 74
0
 49
0.0
 74
0
 49
-0.508
 74
0
  0
LTYPE
  5
40
330
2
100
AcDbSymbolTableRecord
100
AcDbLinetypeTableRecord
  2
DIVIDE2
 70
0
  3
Divide(.5x) _ . _ . _ . _ . _ . _ . _ . _
 72
65
 73
6
 40
2.032
 49
1.27
 74
0
 49
-0.254
 74
0
 49
0.0
 74
0
 49
-0.254
 74
0
 49
0.0
 74
0
 49
-0.254
 74
0
  0
ENDTAB
  0
TABLE
  2
LAYER
  5
1
330
0
100
AcDbSymbolTable
 70
18
  0
LAYER
  5
27
330
1
100
AcDbSymbolTableRecord
100
AcDbLayerTableRecord
  2
0
 70
0
 62
7
  6
Continuous
370
-3
390
13
347
21
  0
LAYER
  5
28
330
1
100
AcDbSymbolTableRecord
100
AcDbLayerTableRecord
  2
Defpoints
 70
0
 62
7
  6
Continuous
290
0
370
-3
390
13
347
21
  0
LAYER
  5
8A
330
1
100
AcDbSymbolTableRecord
100
AcDbLayerTableRecord
  2
MARCO
 70
0
 62
7
  6
Continuous
370
-3
390
13
347
21
  0
LAYER
  5
8B
330
1
100
AcDbSymbolTableRecord
100
AcDbLayerTableRecord
  2
GUIA
 70
0
 62
9
  6
Continuous
370
-3
390
13
347
21
  0
LAYER
  5
8C
330
1
100
AcDbSymbolTableRecord
100
AcDbLayerTableRecord
  2
ROTULO
 70
0
 62
7
  6
Continuous
370
-3
390
13
347
21
  0
LAYER
  5
8D
330
1
100
AcDbSymbolTableRecord
100
AcDbLayerTableRecord
  2
TITULO
 70
0
 62
6
  6
Continuous
370
-3
390
13
347
21
  0
LAYER
  5
8E
330
1
100
AcDbSymbolTableRecord
100
AcDbLayerTableRecord
  2
TEXTO
 70
0
 62
7
  6
Continuous
370
-3
390
13
347
21
  0
LAYER
  5
8F
330
1
100
AcDbSymbolTableRecord
100
AcDbLayerTableRecord
  2
CONTORNO
 70
0
 62
7
  6
Continuous
370
-3
390
13
347
21
  0
LAYER
  5
90
330
1
100
AcDbSymbolTableRecord
100
AcDbLayerTableRecord
  2
APOYOS
 70
0
 62
4
  6
Continuous
370
-3
390
13
347
21
  0
LAYER
  5
91
330
1
100
AcDbSymbolTableRecord
100
AcDbLayerTableRecord
  2
EJES
 70
0
 62
8
  6
Continuous
370
-3
390
13
347
21
  0
LAYER
  5
92
330
1
100
AcDbSymbolTableRecord
100
AcDbLayerTableRecord
  2
ACERO_SUP
 70
0
 62
5
  6
Continuous
370
-3
390
13
347
21
  0
LAYER
  5
93
330
1
100
AcDbSymbolTableRecord
100
AcDbLayerTableRecord
  2
ACERO_ADIC
 70
0
 62
2
  6
Continuous
370
-3
390
13
347
21
  0
LAYER
  5
94
330
1
100
AcDbSymbolTableRecord
100
AcDbLayerTableRecord
  2
ACERO_INF
 70
0
 62
1
  6
Continuous
370
-3
390
13
347
21
  0
LAYER
  5
95
330
1
100
AcDbSymbolTableRecord
100
AcDbLayerTableRecord
  2
ACERO_TOR
 70
0
 62
30
  6
Continuous
370
-3
390
13
347
21
  0
LAYER
  5
96
330
1
100
AcDbSymbolTableRecord
100
AcDbLayerTableRecord
  2
ESTRIBOS
 70
0
 62
7
  6
Continuous
370
-3
390
13
347
21
  0
LAYER
  5
97
330
1
100
AcDbSymbolTableRecord
100
AcDbLayerTableRecord
  2
CORTE
 70
0
 62
7
  6
Continuous
370
-3
390
13
347
21
  0
LAYER
  5
98
330
1
100
AcDbSymbolTableRecord
100
AcDbLayerTableRecord
  2
COTAS
 70
0
 62
3
  6
Continuous
370
-3
390
13
347
21
  0
LAYER
  5
99
330
1
100
AcDbSymbolTableRecord
100
AcDbLayerTableRecord
  2
ALERTA
 70
0
 62
1
  6
Continuous
370
-3
390
13
347
21
  0
ENDTAB
  0
TABLE
  2
STYLE
  5
5
330
0
100
AcDbSymbolTable
 70
26
  0
STYLE
  5
29
330
5
100
AcDbSymbolTableRecord
100
AcDbTextStyleTableRecord
  2
Standard
 70
0
 40
0.0
 41
1.0
 50
0.0
 71
0
 42
2.5
  3
txt
  4

  0
STYLE
  5
41
330
5
100
AcDbSymbolTableRecord
100
AcDbTextStyleTableRecord
  2
OpenSans-Light
 70
0
 40
0.0
 41
1.0
 50
0.0
 71
0
 42
2.5
  3
OpenSans-Light.ttf
  4

  0
STYLE
  5
42
330
5
100
AcDbSymbolTableRecord
100
AcDbTextStyleTableRecord
  2
OpenSans-Light-Italic
 70
0
 40
0.0
 41
1.0
 50
0.0
 71
0
 42
2.5
  3
OpenSans-LightItalic.ttf
  4

  0
STYLE
  5
43
330
5
100
AcDbSymbolTableRecord
100
AcDbTextStyleTableRecord
  2
OpenSans
 70
0
 40
0.0
 41
1.0
 50
0.0
 71
0
 42
2.5
  3
OpenSans-Regular.ttf
  4

  0
STYLE
  5
44
330
5
100
AcDbSymbolTableRecord
100
AcDbTextStyleTableRecord
  2
OpenSans-Italic
 70
0
 40
0.0
 41
1.0
 50
0.0
 71
0
 42
2.5
  3
OpenSans-Italic.ttf
  4

  0
STYLE
  5
45
330
5
100
AcDbSymbolTableRecord
100
AcDbTextStyleTableRecord
  2
OpenSans-SemiBold
 70
0
 40
0.0
 41
1.0
 50
0.0
 71
0
 42
2.5
  3
OpenSans-SemiBold.ttf
  4

  0
STYLE
  5
46
330
5
100
AcDbSymbolTableRecord
100
AcDbTextStyleTableRecord
  2
OpenSans-SemiBoldItalic
 70
0
 40
0.0
 41
1.0
 50
0.0
 71
0
 42
2.5
  3
OpenSans-SemiBoldItalic.ttf
  4

  0
STYLE
  5
47
330
5
100
AcDbSymbolTableRecord
100
AcDbTextStyleTableRecord
  2
OpenSans-Bold
 70
0
 40
0.0
 41
1.0
 50
0.0
 71
0
 42
2.5
  3
OpenSans-Bold.ttf
  4

  0
STYLE
  5
48
330
5
100
AcDbSymbolTableRecord
100
AcDbTextStyleTableRecord
  2
OpenSans-BoldItalic
 70
0
 40
0.0
 41
1.0
 50
0.0
 71
0
 42
2.5
  3
OpenSans-BoldItalic.ttf
  4

  0
STYLE
  5
49
330
5
100
AcDbSymbolTableRecord
100
AcDbTextStyleTableRecord
  2
OpenSans-ExtraBold
 70
0
 40
0.0
 41
1.0
 50
0.0
 71
0
 42
2.5
  3
OpenSans-ExtraBold.ttf
  4

  0
STYLE
  5
4A
330
5
100
AcDbSymbolTableRecord
100
AcDbTextStyleTableRecord
  2
OpenSans-ExtraBoldItalic
 70
0
 40
0.0
 41
1.0
 50
0.0
 71
0
 42
2.5
  3
OpenSans-ExtraBoldItalic.ttf
  4

  0
STYLE
  5
4B
330
5
100
AcDbSymbolTableRecord
100
AcDbTextStyleTableRecord
  2
OpenSansCondensed-Bold
 70
0
 40
0.0
 41
1.0
 50
0.0
 71
0
 42
2.5
  3
OpenSansCondensed-Bold.ttf
  4

  0
STYLE
  5
4C
330
5
100
AcDbSymbolTableRecord
100
AcDbTextStyleTableRecord
  2
OpenSansCondensed-Light
 70
0
 40
0.0
 41
1.0
 50
0.0
 71
0
 42
2.5
  3
OpenSansCondensed-Light.ttf
  4

  0
STYLE
  5
4D
330
5
100
AcDbSymbolTableRecord
100
AcDbTextStyleTableRecord
  2
OpenSansCondensed-Italic
 70
0
 40
0.0
 41
1.0
 50
0.0
 71
0
 42
2.5
  3
OpenSansCondensed-LightItalic.ttf
  4

  0
STYLE
  5
4E
330
5
100
AcDbSymbolTableRecord
100
AcDbTextStyleTableRecord
  2
LiberationSans
 70
0
 40
0.0
 41
1.0
 50
0.0
 71
0
 42
2.5
  3
LiberationSans-Regular.ttf
  4

  0
STYLE
  5
4F
330
5
100
AcDbSymbolTableRecord
100
AcDbTextStyleTableRecord
  2
LiberationSans-Bold
 70
0
 40
0.0
 41
1.0
 50
0.0
 71
0
 42
2.5
  3
LiberationSans-Bold.ttf
  4

  0
STYLE
  5
50
330
5
100
AcDbSymbolTableRecord
100
AcDbTextStyleTableRecord
  2
LiberationSans-BoldItalic
 70
0
 40
0.0
 41
1.0
 50
0.0
 71
0
 42
2.5
  3
LiberationSans-BoldItalic.ttf
  4

  0
STYLE
  5
51
330
5
100
AcDbSymbolTableRecord
100
AcDbTextStyleTableRecord
  2
LiberationSans-Italic
 70
0
 40
0.0
 41
1.0
 50
0.0
 71
0
 42
2.5
  3
LiberationSans-Italic.ttf
  4

  0
STYLE
  5
52
330
5
100
AcDbSymbolTableRecord
100
AcDbTextStyleTableRecord
  2
LiberationSerif
 70
0
 40
0.0
 41
1.0
 50
0.0
 71
0
 42
2.5
  3
LiberationSerif-Regular.ttf
  4

  0
STYLE
  5
53
330
5
100
AcDbSymbolTableRecord
100
AcDbTextStyleTableRecord
  2
LiberationSerif-Bold
 70
0
 40
0.0
 41
1.0
 50
0.0
 71
0
 42
2.5
  3
LiberationSerif-Bold.ttf
  4

  0
STYLE
  5
54
330
5
100
AcDbSymbolTableRecord
100
AcDbTextStyleTableRecord
  2
LiberationSerif-BoldItalic
 70
0
 40
0.0
 41
1.0
 50
0.0
 71
0
 42
2.5
  3
LiberationSerif-BoldItalic.ttf
  4

  0
STYLE
  5
55
330
5
100
AcDbSymbolTableRecord
100
AcDbTextStyleTableRecord
  2
LiberationSerif-Italic
 70
0
 40
0.0
 41
1.0
 50
0.0
 71
0
 42
2.5
  3
LiberationSerif-Italic.ttf
  4

  0
STYLE
  5
56
330
5
100
AcDbSymbolTableRecord
100
AcDbTextStyleTableRecord
  2
LiberationMono
 70
0
 40
0.0
 41
1.0
 50
0.0
 71
0
 42
2.5
  3
LiberationMono-Regular.ttf
  4

  0
STYLE
  5
57
330
5
100
AcDbSymbolTableRecord
100
AcDbTextStyleTableRecord
  2
LiberationMono-Bold
 70
0
 40
0.0
 41
1.0
 50
0.0
 71
0
 42
2.5
  3
LiberationMono-Bold.ttf
  4

  0
STYLE
  5
58
330
5
100
AcDbSymbolTableRecord
100
AcDbTextStyleTableRecord
  2
LiberationMono-BoldItalic
 70
0
 40
0.0
 41
1.0
 50
0.0
 71
0
 42
2.5
  3
LiberationMono-BoldItalic.ttf
  4

  0
STYLE
  5
59
330
5
100
AcDbSymbolTableRecord
100
AcDbTextStyleTableRecord
  2
LiberationMono-Italic
 70
0
 40
0.0
 41
1.0
 50
0.0
 71
0
 42
2.5
  3
LiberationMono-Italic.ttf
  4

  0
ENDTAB
  0
TABLE
  2
VIEW
  5
7
330
0
100
AcDbSymbolTable
 70
0
  0
ENDTAB
  0
TABLE
  2
UCS
  5
6
330
0
100
AcDbSymbolTable
 70
0
  0
ENDTAB
  0
TABLE
  2
APPID
  5
3
330
0
100
AcDbSymbolTable
 70
3
  0
APPID
  5
2A
330
3
100
AcDbSymbolTableRecord
100
AcDbRegAppTableRecord
  2
ACAD
 70
0
  0
APPID
  5
39A
330
3
100
AcDbSymbolTableRecord
100
AcDbRegAppTableRecord
  2
HATCHBACKGROUNDCOLOR
 70
0
  0
APPID
  5
39B
330
3
100
AcDbSymbolTableRecord
100
AcDbRegAppTableRecord
  2
EZDXF
 70
0
  0
ENDTAB
  0
TABLE
  2
DIMSTYLE
  5
4
330
0
100
AcDbSymbolTable
 70
12
100
AcDbDimStyleTable
  0
DIMSTYLE
105
2B
330
4
100
AcDbSymbolTableRecord
100
AcDbDimStyleTableRecord
  2
Standard
 70
0
 40
1.0
 41
2.5
 42
0.625
 43
3.75
 44
1.25
 45
0.0
 46
0.0
 47
0.0
 48
0.0
 49
2.5
140
2.5
141
2.5
142
0.0
143
0.03937007874
144
1.0
145
0.0
146
1.0
147
0.625
148
0.0
 69
0
 70
0
 71
0
 72
0
 73
0
 74
0
 75
0
 76
0
 77
1
 78
8
 79
3
170
0
171
3
172
1
173
0
174
0
175
0
176
0
177
0
178
0
179
2
271
2
272
2
273
2
274
3
275
0
276
0
277
2
278
44
279
0
280
0
281
0
282
0
283
0
284
8
285
0
286
0
288
0
289
3
290
0
371
-2
372
-2
  0
DIMSTYLE
105
73
330
4
100
AcDbSymbolTableRecord
100
AcDbDimStyleTableRecord
  2
EZDXF
 70
0
 40
1.0
 41
0.175
 42
0.125
 43
3.75
 44
0.375
 45
0.0
 46
0.0
 47
0.0
 48
0.0
 49
2.5
140
0.25
141
2.5
142
0.0
143
0.03937007874
144
100.0
145
0.0
146
0.5
147
0.1
148
0.0
 69
0
 70
0
 71
0
 72
0
 73
0
 74
0
 75
0
 76
0
 77
1
 78
12
 79
3
170
0
171
3
172
1
173
0
174
0
175
0
176
0
177
0
178
0
179
2
271
2
272
2
273
2
274
3
275
0
276
0
277
2
278
46
279
2
280
0
281
0
282
0
283
0
284
8
285
0
286
0
288
1
289
3
290
0
340
4C
342
74
371
-2
372
-2
  0
DIMSTYLE
105
7C
330
4
100
AcDbSymbolTableRecord
100
AcDbDimStyleTableRecord
  2
EZ_M_100_H25_CM
 70
0
 40
1.0
 41
0.25
 42
0.125
 43
3.75
 44
0.375
 45
0.0
 46
0.0
 47
0.0
 48
0.0
 49
2.5
140
0.25
141
2.5
142
0.125
143
0.03937007874
144
100.0
145
0.0
146
0.5
147
0.1
148
0.0
 69
0
 70
0
 71
0
 72
0
 73
0
 74
0
 75
0
 76
0
 77
1
 78
12
 79
3
170
0
171
3
172
1
173
0
174
0
175
0
176
0
177
0
178
0
179
2
271
2
272
2
273
2
274
3
275
0
276
0
277
2
278
46
279
2
280
0
281
0
282
0
283
0
284
8
285
0
286
0
288
1
289
3
290
0
340
4C
371
-2
372
-2
  0
DIMSTYLE
105
7D
330
4
100
AcDbSymbolTableRecord
100
AcDbDimStyleTableRecord
  2
EZ_M_50_H25_CM
 70
0
 40
1.0
 41
0.125
 42
0.0625
 43
3.75
 44
0.1875
 45
0.0
 46
0.0
 47
0.0
 48
0.0
 49
2.5
140
0.125
141
2.5
142
0.0625
143
0.03937007874
144
100.0
145
0.0
146
0.5
147
0.05
148
0.0
 69
0
 70
0
 71
0
 72
0
 73
0
 74
0
 75
0
 76
0
 77
1
 78
12
 79
3
170
0
171
3
172
1
173
0
174
0
175
0
176
0
177
0
178
0
179
2
271
2
272
2
273
2
274
3
275
0
276
0
277
2
278
46
279
2
280
0
281
0
282
0
283
0
284
8
285
0
286
0
288
1
289
3
290
0
340
4C
371
-2
372
-2
  0
DIMSTYLE
105
7E
330
4
100
AcDbSymbolTableRecord
100
AcDbDimStyleTableRecord
  2
EZ_M_25_H25_CM
 70
0
 40
1.0
 41
0.0625
 42
0.03125
 43
3.75
 44
0.09375
 45
0.0
 46
0.0
 47
0.0
 48
0.0
 49
2.5
140
0.0625
141
2.5
142
0.03125
143
0.03937007874
144
100.0
145
0.0
146
0.5
147
0.025
148
0.0
 69
0
 70
0
 71
0
 72
0
 73
0
 74
0
 75
0
 76
0
 77
1
 78
12
 79
3
170
0
171
3
172
1
173
0
174
0
175
0
176
0
177
0
178
0
179
2
271
2
272
2
273
2
274
3
275
0
276
0
277
2
278
46
279
2
280
0
281
0
282
0
283
0
284
8
285
0
286
0
288
1
289
3
290
0
340
4C
371
-2
372
-2
  0
DIMSTYLE
105
7F
330
4
100
AcDbSymbolTableRecord
100
AcDbDimStyleTableRecord
  2
EZ_M_20_H25_CM
 70
0
 40
1.0
 41
0.05
 42
0.025
 43
3.75
 44
0.07500000000000001
 45
0.0
 46
0.0
 47
0.0
 48
0.0
 49
2.5
140
0.05
141
2.5
142
0.025
143
0.03937007874
144
100.0
145
0.0
146
0.5
147
0.020000000000000004
148
0.0
 69
0
 70
0
 71
0
 72
0
 73
0
 74
0
 75
0
 76
0
 77
1
 78
12
 79
3
170
0
171
3
172
1
173
0
174
0
175
0
176
0
177
0
178
0
179
2
271
2
272
2
273
2
274
3
275
0
276
0
277
2
278
46
279
2
280
0
281
0
282
0
283
0
284
8
285
0
286
0
288
1
289
3
290
0
340
4C
371
-2
372
-2
  0
DIMSTYLE
105
80
330
4
100
AcDbSymbolTableRecord
100
AcDbDimStyleTableRecord
  2
EZ_M_10_H25_CM
 70
0
 40
1.0
 41
0.025
 42
0.0125
 43
3.75
 44
0.037500000000000006
 45
0.0
 46
0.0
 47
0.0
 48
0.0
 49
2.5
140
0.025
141
2.5
142
0.0125
143
0.03937007874
144
100.0
145
0.0
146
0.5
147
0.010000000000000002
148
0.0
 69
0
 70
0
 71
0
 72
0
 73
0
 74
0
 75
0
 76
0
 77
1
 78
12
 79
3
170
0
171
3
172
1
173
0
174
0
175
0
176
0
177
0
178
0
179
2
271
2
272
2
273
2
274
3
275
0
276
0
277
2
278
46
279
2
280
0
281
0
282
0
283
0
284
8
285
0
286
0
288
1
289
3
290
0
340
4C
371
-2
372
-2
  0
DIMSTYLE
105
81
330
4
100
AcDbSymbolTableRecord
100
AcDbDimStyleTableRecord
  2
EZ_M_5_H25_CM
 70
0
 40
1.0
 41
0.0125
 42
0.00625
 43
3.75
 44
0.018750000000000003
 45
0.0
 46
0.0
 47
0.0
 48
0.0
 49
2.5
140
0.0125
141
2.5
142
0.00625
143
0.03937007874
144
100.0
145
0.0
146
0.5
147
0.005000000000000001
148
0.0
 69
0
 70
0
 71
0
 72
0
 73
0
 74
0
 75
0
 76
0
 77
1
 78
12
 79
3
170
0
171
3
172
1
173
0
174
0
175
0
176
0
177
0
178
0
179
2
271
2
272
2
273
2
274
3
275
0
276
0
277
2
278
46
279
2
280
0
281
0
282
0
283
0
284
8
285
0
286
0
288
1
289
3
290
0
340
4C
371
-2
372
-2
  0
DIMSTYLE
105
82
330
4
100
AcDbSymbolTableRecord
100
AcDbDimStyleTableRecord
  2
EZ_M_1_H25_CM
 70
0
 40
1.0
 41
0.0025
 42
0.00125
 43
3.75
 44
0.00375
 45
0.0
 46
0.0
 47
0.0
 48
0.0
 49
2.5
140
0.0025
141
2.5
142
0.00125
143
0.03937007874
144
100.0
145
0.0
146
0.5
147
0.001
148
0.0
 69
0
 70
0
 71
0
 72
0
 73
0
 74
0
 75
0
 76
0
 77
1
 78
12
 79
3
170
0
171
3
172
1
173
0
174
0
175
0
176
0
177
0
178
0
179
2
271
2
272
2
273
2
274
3
275
0
276
0
277
2
278
46
279
2
280
0
281
0
282
0
283
0
284
8
285
0
286
0
288
1
289
3
290
0
340
4C
371
-2
372
-2
  0
DIMSTYLE
105
83
330
4
100
AcDbSymbolTableRecord
100
AcDbDimStyleTableRecord
  2
EZ_RADIUS
 70
0
 40
1.0
 41
0.25
 42
0.125
 43
3.75
 44
0.375
 45
0.0
 46
0.0
 47
0.0
 48
0.0
 49
2.5
140
0.25
141
0.0
142
0.0
143
0.03937007874
144
100.0
145
0.0
146
0.5
147
0.1
148
0.0
 69
0
 70
0
 71
0
 72
0
 73
0
 74
0
 75
0
 76
0
 77
1
 78
12
 79
3
170
0
171
3
172
0
173
0
174
0
175
0
176
0
177
0
178
0
179
2
271
2
272
2
273
2
274
3
275
0
276
0
277
2
278
46
279
1
280
0
281
0
282
0
283
0
284
8
285
0
286
0
288
1
289
3
290
0
340
4C
342
84
371
-2
372
-2
  0
DIMSTYLE
105
88
330
4
100
AcDbSymbolTableRecord
100
AcDbDimStyleTableRecord
  2
EZ_RADIUS_INSIDE
 70
0
 40
1.0
 41
0.25
 42
0.125
 43
3.75
 44
0.375
 45
0.0
 46
0.0
 47
0.0
 48
0.0
 49
2.5
140
0.25
141
0.0
142
0.0
143
0.03937007874
144
100.0
145
0.0
146
0.5
147
0.1
148
0.0
 69
0
 70
0
 71
0
 72
0
 73
0
 74
0
 75
0
 76
0
 77
0
 78
12
 79
3
170
0
171
3
172
0
173
0
174
1
175
0
176
0
177
0
178
0
179
2
271
2
272
2
273
2
274
3
275
0
276
0
277
2
278
46
279
0
280
0
281
0
282
0
283
0
284
8
285
0
286
0
288
1
289
0
290
0
340
4C
342
84
371
-2
372
-2
  0
DIMSTYLE
105
89
330
4
100
AcDbSymbolTableRecord
100
AcDbDimStyleTableRecord
  2
EZ_CURVED
 70
0
 40
1.0
 41
0.25
 42
0.125
 43
3.75
 44
0.375
 45
0.0
 46
0.0
 47
0.0
 48
0.0
 49
2.5
140
0.25
141
2.5
142
0.0
143
0.03937007874
144
100.0
145
0.0
146
0.5
147
0.1
148
0.0
 69
0
 70
0
 71
0
 72
0
 73
0
 74
0
 75
0
 76
0
 77
1
 78
12
 79
2
 90
2
170
0
171
3
172
1
173
0
174
0
175
0
176
0
177
0
178
0
179
2
271
2
272
2
273
2
274
3
275
0
276
0
277
2
278
46
279
2
280
0
281
0
282
0
283
0
284
8
285
0
286
0
288
1
289
3
290
0
340
4C
371
-2
372
-2
  0
ENDTAB
  0
TABLE
  2
BLOCK_RECORD
  5
9
330
0
100
AcDbSymbolTable
 70
5
  0
BLOCK_RECORD
  5
17
330
9
100
AcDbSymbolTableRecord
100
AcDbBlockTableRecord
  2
*Model_Space
340
1A
 70
0
280
1
281
0
  0
BLOCK_RECORD
  5
74
330
9
100
AcDbSymbolTableRecord
100
AcDbBlockTableRecord
  2
_ARCHTICK
340
0
 70
0
280
1
281
0
  0
BLOCK_RECORD
  5
78
330
9
100
AcDbSymbolTableRecord
100
AcDbBlockTableRecord
  2
_CLOSEDFILLED
340
0
 70
0
280
1
281
0
  0
BLOCK_RECORD
  5
84
330
9
100
AcDbSymbolTableRecord
100
AcDbBlockTableRecord
  2
_CLOSEDBLANK
340
0
 70
0
280
1
281
0
  0
BLOCK_RECORD
  5
394
330
9
100
AcDbSymbolTableRecord
100
AcDbBlockTableRecord
  2
*Paper_Space
340
397
 70
0
280
1
281
0
  0
ENDTAB
  0
ENDSEC
  0
SECTION
  2
BLOCKS
  0
BLOCK
  5
18
330
17
100
AcDbEntity
  8
0
100
AcDbBlockBegin
  2
*Model_Space
 70
0
 10
0.0
 20
0.0
 30
0.0
  3
*Model_Space
  1

  0
ENDBLK
  5
19
330
17
100
AcDbEntity
  8
0
100
AcDbBlockEnd
  0
BLOCK
  5
75
330
74
100
AcDbEntity
  8
0
100
AcDbBlockBegin
  2
_ARCHTICK
 70
0
 10
0.0
 20
0.0
 30
0.0
  3
_ARCHTICK
  1

  0
LWPOLYLINE
  5
77
330
74
100
AcDbEntity
  8
0
  6
BYBLOCK
 62
0
100
AcDbPolyline
 90
2
 70
0
 43
0.15
 10
-0.5
 20
-0.5
 10
0.5
 20
0.5
  0
ENDBLK
  5
76
330
74
100
AcDbEntity
  8
0
100
AcDbBlockEnd
  0
BLOCK
  5
79
330
78
100
AcDbEntity
  8
0
100
AcDbBlockBegin
  2
_CLOSEDFILLED
 70
0
 10
0.0
 20
0.0
 30
0.0
  3
_CLOSEDFILLED
  1

  0
SOLID
  5
7B
330
78
100
AcDbEntity
  8
0
  6
BYBLOCK
 62
0
100
AcDbTrace
 10
-1.0
 20
0.16439898372402537
 30
0.0
 11
0.0
 21
0.0
 31
0.0
 12
-1.0
 22
-0.16439898372402537
 32
0.0
 13
-1.0
 23
-0.16439898372402537
 33
0.0
  0
ENDBLK
  5
7A
330
78
100
AcDbEntity
  8
0
100
AcDbBlockEnd
  0
BLOCK
  5
85
330
84
100
AcDbEntity
  8
0
100
AcDbBlockBegin
  2
_CLOSEDBLANK
 70
0
 10
0.0
 20
0.0
 30
0.0
  3
_CLOSEDBLANK
  1

  0
LWPOLYLINE
  5
87
330
84
100
AcDbEntity
  8
0
  6
BYBLOCK
 62
0
100
AcDbPolyline
 90
3
 70
1
 10
-1.0
 20
0.16439898372402537
 10
0.0
 20
0.0
 10
-1.0
 20
-0.16439898372402537
  0
ENDBLK
  5
86
330
84
100
AcDbEntity
  8
0
100
AcDbBlockEnd
  0
BLOCK
  5
395
330
394
100
AcDbEntity
  8
0
100
AcDbBlockBegin
  2
*Paper_Space
 70
0
 10
0.0
 20
0.0
 30
0.0
  3
*Paper_Space
  1

  0
ENDBLK
  5
396
330
394
100
AcDbEntity
  8
0
100
AcDbBlockEnd
  0
ENDSEC
  0
SECTION
  2
ENTITIES
  0
LWPOLYLINE
  5
9A
330
17
100
AcDbEntity
  8
MARCO
 62
7
370
35
100
AcDbPolyline
 90
4
 70
1
 10
10.0
 20
10.0
 10
1179.0
 20
10.0
 10
1179.0
 20
831.0
 10
10.0
 20
831.0
  0
LINE
  5
9B
330
17
100
AcDbEntity
  8
MARCO
 62
7
370
35
100
AcDbLine
 10
1009.0
 20
10.0
 30
0.0
 11
1009.0
 21
831.0
 31
0.0
  0
LWPOLYLINE
  5
9C
330
17
100
AcDbEntity
  8
MARCO
 62
7
370
35
100
AcDbPolyline
 90
4
 70
1
 10
1009.0
 20
10.0
 10
1179.0
 20
10.0
 10
1179.0
 20
831.0
 10
1009.0
 20
831.0
  0
LWPOLYLINE
  5
9D
330
17
100
AcDbEntity
  8
ROTULO
 62
7
370
25
100
AcDbPolyline
 90
4
 70
1
 10
1009.0
 20
686.0
 10
1179.0
 20
686.0
 10
1179.0
 20
831.0
 10
1009.0
 20
831.0
  0
LWPOLYLINE
  5
9E
330
17
100
AcDbEntity
  8
ROTULO
 62
7
370
30
100
AcDbPolyline
 90
5
 70
1
 10
1072.5
 20
821.0
 10
1115.5
 20
821.0
 10
1111.5
 20
785.0
 10
1094.0
 20
773.0
 10
1076.5
 20
785.0
  0
LINE
  5
9F
330
17
100
AcDbEntity
  8
ROTULO
 62
7
370
25
100
AcDbLine
 10
1076.5
 20
810.0
 30
0.0
 11
1111.5
 21
810.0
 31
0.0
  0
LINE
  5
A0
330
17
100
AcDbEntity
  8
ROTULO
 62
7
370
25
100
AcDbLine
 10
1094.0
 20
818.0
 30
0.0
 11
1094.0
 21
778.0
 31
0.0
  0
TEXT
  5
A1
330
17
100
AcDbEntity
  8
ROTULO
 62
7
100
AcDbText
 10
1094.0
 20
788.0
 30
0.0
 40
8.0
  1
UN
 72
1
 11
1094.0
 21
788.0
 31
0.0
100
AcDbText
 73
2
  0
TEXT
  5
A2
330
17
100
AcDbEntity
  8
ROTULO
 62
7
100
AcDbText
 10
1094.0
 20
704.0
 30
0.0
 40
4.1
  1
UNIVERSIDAD NACIONAL
 72
1
 11
1094.0
 21
704.0
 31
0.0
100
AcDbText
 73
2
  0
TEXT
  5
A3
330
17
100
AcDbEntity
  8
ROTULO
 62
7
100
AcDbText
 10
1094.0
 20
696.0
 30
0.0
 40
4.1
  1
DE COLOMBIA
 72
1
 11
1094.0
 21
696.0
 31
0.0
100
AcDbText
 73
2
  0
LWPOLYLINE
  5
A4
330
17
100
AcDbEntity
  8
ROTULO
 62
7
370
25
100
AcDbPolyline
 90
4
 70
1
 10
1009.0
 20
581.0
 10
1179.0
 20
581.0
 10
1179.0
 20
686.0
 10
1009.0
 20
686.0
  0
TEXT
  5
A5
330
17
100
AcDbEntity
  8
ROTULO
 62
7
100
AcDbText
 10
1094.0
 20
669.0
 30
0.0
 40
4.0
  1
SEDE BOGOTA
 72
1
 11
1094.0
 21
669.0
 31
0.0
100
AcDbText
 73
2
  0
TEXT
  5
A6
330
17
100
AcDbEntity
  8
ROTULO
 62
7
100
AcDbText
 10
1094.0
 20
652.0
 30
0.0
 40
4.0
  1
FACULTAD DE INGENIERIA
 72
1
 11
1094.0
 21
652.0
 31
0.0
100
AcDbText
 73
2
  0
TEXT
  5
A7
330
17
100
AcDbEntity
  8
ROTULO
 62
7
100
AcDbText
 10
1094.0
 20
635.0
 30
0.0
 40
4.0
  1
DEPARTAMENTO DE INGENIERIA CIVIL
 72
1
 11
1094.0
 21
635.0
 31
0.0
100
AcDbText
 73
2
  0
TEXT
  5
A8
330
17
100
AcDbEntity
  8
ROTULO
 62
7
100
AcDbText
 10
1094.0
 20
618.0
 30
0.0
 40
4.0
  1
Y AGRICOLA
 72
1
 11
1094.0
 21
618.0
 31
0.0
100
AcDbText
 73
2
  0
TEXT
  5
A9
330
17
100
AcDbEntity
  8
ROTULO
 62
7
100
AcDbText
 10
1094.0
 20
601.0
 30
0.0
 40
4.0
  1
DISEÑO ESTRUCTURAL
 72
1
 11
1094.0
 21
601.0
 31
0.0
100
AcDbText
 73
2
  0
LWPOLYLINE
  5
AA
330
17
100
AcDbEntity
  8
ROTULO
 62
7
370
25
100
AcDbPolyline
 90
4
 70
1
 10
1009.0
 20
451.0
 10
1179.0
 20
451.0
 10
1179.0
 20
581.0
 10
1009.0
 20
581.0
  0
TEXT
  5
AB
330
17
100
AcDbEntity
  8
ROTULO
 62
7
100
AcDbText
 10
1016.0
 20
561.0
 30
0.0
 40
4.1
  1
Localizacion:
 11
1016.0
 21
561.0
 31
0.0
100
AcDbText
  0
TEXT
  5
AC
330
17
100
AcDbEntity
  8
ROTULO
 62
7
100
AcDbText
 10
1094.0
 20
538.0
 30
0.0
 40
5.0
  1
Santa Marta
 72
1
 11
1094.0
 21
538.0
 31
0.0
100
AcDbText
 73
2
  0
LINE
  5
AD
330
17
100
AcDbEntity
  8
ROTULO
 62
7
370
18
100
AcDbLine
 10
1009.0
 20
517.0
 30
0.0
 11
1179.0
 21
517.0
 31
0.0
  0
TEXT
  5
AE
330
17
100
AcDbEntity
  8
ROTULO
 62
7
100
AcDbText
 10
1016.0
 20
501.0
 30
0.0
 40
4.1
  1
Tipo de proyecto:
 11
1016.0
 21
501.0
 31
0.0
100
AcDbText
  0
TEXT
  5
AF
330
17
100
AcDbEntity
  8
ROTULO
 62
7
100
AcDbText
 10
1094.0
 20
476.0
 30
0.0
 40
5.0
  1
RESIDENCIAL
 72
1
 11
1094.0
 21
476.0
 31
0.0
100
AcDbText
 73
2
  0
LWPOLYLINE
  5
B0
330
17
100
AcDbEntity
  8
ROTULO
 62
7
370
25
100
AcDbPolyline
 90
4
 70
1
 10
1009.0
 20
221.0
 10
1179.0
 20
221.0
 10
1179.0
 20
451.0
 10
1009.0
 20
451.0
  0
TEXT
  5
B1
330
17
100
AcDbEntity
  8
ROTULO
 62
7
100
AcDbText
 10
1016.0
 20
429.0
 30
0.0
 40
4.2
  1
Contiene:
 11
1016.0
 21
429.0
 31
0.0
100
AcDbText
  0
TEXT
  5
B2
330
17
100
AcDbEntity
  8
ROTULO
 62
7
100
AcDbText
 10
1094.0
 20
392.0
 30
0.0
 40
5.6
  1
DESPIECE VIGAS DE
 72
1
 11
1094.0
 21
392.0
 31
0.0
100
AcDbText
 73
2
  0
TEXT
  5
B3
330
17
100
AcDbEntity
  8
ROTULO
 62
7
100
AcDbText
 10
1094.0
 20
377.0
 30
0.0
 40
5.6
  1
RIGIDEZ
 72
1
 11
1094.0
 21
377.0
 31
0.0
100
AcDbText
 73
2
  0
TEXT
  5
B4
330
17
100
AcDbEntity
  8
ROTULO
 62
7
100
AcDbText
 10
1094.0
 20
317.0
 30
0.0
 40
4.4
  1
ELEVACIONES Y CORTES
 72
1
 11
1094.0
 21
317.0
 31
0.0
100
AcDbText
 73
2
  0
TEXT
  5
B5
330
17
100
AcDbEntity
  8
ALERTA
 62
1
100
AcDbText
 10
1094.0
 20
267.0
 30
0.0
 40
4.6
  1
NO EMITIR PARA CONSTRUCCION
 72
1
 11
1094.0
 21
267.0
 31
0.0
100
AcDbText
 73
2
  0
TEXT
  5
B6
330
17
100
AcDbEntity
  8
ALERTA
 62
1
100
AcDbText
 10
1094.0
 20
250.0
 30
0.0
 40
4.2
  1
DETALLE ACADEMICO
 72
1
 11
1094.0
 21
250.0
 31
0.0
100
AcDbText
 73
2
  0
LWPOLYLINE
  5
B7
330
17
100
AcDbEntity
  8
ROTULO
 62
7
370
25
100
AcDbPolyline
 90
4
 70
1
 10
1009.0
 20
10.0
 10
1179.0
 20
10.0
 10
1179.0
 20
221.0
 10
1009.0
 20
221.0
  0
LINE
  5
B8
330
17
100
AcDbEntity
  8
ROTULO
 62
7
370
18
100
AcDbLine
 10
1009.0
 20
115.5
 30
0.0
 11
1179.0
 21
115.5
 31
0.0
  0
TEXT
  5
B9
330
17
100
AcDbEntity
  8
ROTULO
 62
7
100
AcDbText
 10
1016.0
 20
204.0
 30
0.0
 40
3.8
  1
Formato: A0 horizontal
 11
1016.0
 21
204.0
 31
0.0
100
AcDbText
  0
TEXT
  5
BA
330
17
100
AcDbEntity
  8
ROTULO
 62
7
100
AcDbText
 10
1016.0
 20
188.0
 30
0.0
 40
3.8
  1
Unidades: mm
 11
1016.0
 21
188.0
 31
0.0
100
AcDbText
  0
TEXT
  5
BB
330
17
100
AcDbEntity
  8
ROTULO
 62
7
100
AcDbText
 10
1016.0
 20
33.0
 30
0.0
 40
3.8
  1
Fecha: 17-07-2026
 11
1016.0
 21
33.0
 31
0.0
100
AcDbText
  0
TEXT
  5
BC
330
17
100
AcDbEntity
  8
ROTULO
 62
7
100
AcDbText
 10
1016.0
 20
19.0
 30
0.0
 40
4.5
  1
Lamina: V-02
 11
1016.0
 21
19.0
 31
0.0
100
AcDbText
  0
LWPOLYLINE
  5
BD
330
17
100
AcDbEntity
  8
GUIA
 62
9
370
9
100
AcDbPolyline
 90
4
 70
1
 10
15.0
 20
566.0
 10
506.5
 20
566.0
 10
506.5
 20
826.0
 10
15.0
 20
826.0
  0
TEXT
  5
BE
330
17
100
AcDbEntity
  8
TITULO
 62
6
100
AcDbText
 10
260.75
 20
816.0
 30
0.0
 40
4.8
  1
DESPIECE VIGA VR1
 72
1
 11
260.75
 21
816.0
 31
0.0
100
AcDbText
 73
2
  0
TEXT
  5
BF
330
17
100
AcDbEntity
  8
TITULO
 62
6
100
AcDbText
 10
22.0
 20
803.0
 30
0.0
 40
3.6
  1
PISO TIPO
 11
22.0
 21
803.0
 31
0.0
100
AcDbText
  0
TEXT
  5
C0
330
17
100
AcDbEntity
  8
TITULO
 62
6
100
AcDbText
 10
22.0
 20
795.0
 30
0.0
 40
3.6
  1
50x55 cm
 11
22.0
 21
795.0
 31
0.0
100
AcDbText
  0
LINE
  5
C1
330
17
100
AcDbEntity
  8
APOYOS
 62
4
370
18
100
AcDbLine
 10
72.0
 20
744.0
 30
0.0
 11
72.0
 21
795.0
 31
0.0
  0
LINE
  5
C2
330
17
100
AcDbEntity
  8
APOYOS
 62
4
370
18
100
AcDbLine
 10
80.0
 20
744.0
 30
0.0
 11
80.0
 21
795.0
 31
0.0
  0
LINE
  5
C3
330
17
100
AcDbEntity
  8
EJES
 62
8
370
9
100
AcDbLine
 10
76.0
 20
740.0
 30
0.0
 11
76.0
 21
800.0
 31
0.0
  0
CIRCLE
  5
C4
330
17
100
AcDbEntity
  8
EJES
 62
8
100
AcDbCircle
 10
76.0
 20
794.0
 30
0.0
 40
4.5
  0
TEXT
  5
C5
330
17
100
AcDbEntity
  8
EJES
 62
8
100
AcDbText
 10
76.0
 20
792.85
 30
0.0
 40
2.6
  1
I
 72
1
 11
76.0
 21
792.85
 31
0.0
100
AcDbText
 73
2
  0
LINE
  5
C6
330
17
100
AcDbEntity
  8
APOYOS
 62
4
370
18
100
AcDbLine
 10
483.5
 20
744.0
 30
0.0
 11
483.5
 21
795.0
 31
0.0
  0
LINE
  5
C7
330
17
100
AcDbEntity
  8
APOYOS
 62
4
370
18
100
AcDbLine
 10
491.5
 20
744.0
 30
0.0
 11
491.5
 21
795.0
 31
0.0
  0
LINE
  5
C8
330
17
100
AcDbEntity
  8
EJES
 62
8
370
9
100
AcDbLine
 10
487.5
 20
740.0
 30
0.0
 11
487.5
 21
800.0
 31
0.0
  0
CIRCLE
  5
C9
330
17
100
AcDbEntity
  8
EJES
 62
8
100
AcDbCircle
 10
487.5
 20
794.0
 30
0.0
 40
4.5
  0
TEXT
  5
CA
330
17
100
AcDbEntity
  8
EJES
 62
8
100
AcDbText
 10
487.5
 20
792.85
 30
0.0
 40
2.6
  1
J
 72
1
 11
487.5
 21
792.85
 31
0.0
100
AcDbText
 73
2
  0
LINE
  5
CB
330
17
100
AcDbEntity
  8
EJES
 62
8
370
9
100
AcDbLine
 10
213.16666666666666
 20
746.0
 30
0.0
 11
213.16666666666666
 21
797.0
 31
0.0
  0
CIRCLE
  5
CC
330
17
100
AcDbEntity
  8
EJES
 62
8
100
AcDbCircle
 10
213.16666666666666
 20
794.0
 30
0.0
 40
4.2
  0
TEXT
  5
CD
330
17
100
AcDbEntity
  8
EJES
 62
8
100
AcDbText
 10
213.16666666666666
 20
792.85
 30
0.0
 40
2.6
  1
1
 72
1
 11
213.16666666666666
 21
792.85
 31
0.0
100
AcDbText
 73
2
  0
LINE
  5
CE
330
17
100
AcDbEntity
  8
EJES
 62
8
370
9
100
AcDbLine
 10
350.3333333333333
 20
746.0
 30
0.0
 11
350.3333333333333
 21
797.0
 31
0.0
  0
CIRCLE
  5
CF
330
17
100
AcDbEntity
  8
EJES
 62
8
100
AcDbCircle
 10
350.3333333333333
 20
794.0
 30
0.0
 40
4.2
  0
TEXT
  5
D0
330
17
100
AcDbEntity
  8
EJES
 62
8
100
AcDbText
 10
350.3333333333333
 20
792.85
 30
0.0
 40
2.6
  1
2
 72
1
 11
350.3333333333333
 21
792.85
 31
0.0
100
AcDbText
 73
2
  0
LWPOLYLINE
  5
D1
330
17
100
AcDbEntity
  8
CONTORNO
 62
7
370
18
100
AcDbPolyline
 90
4
 70
1
 10
76.0
 20
759.0
 10
487.5
 20
759.0
 10
487.5
 20
780.0
 10
76.0
 20
780.0
  0
LINE
  5
D2
330
17
100
AcDbEntity
  8
ACERO_SUP
 62
5
370
30
100
AcDbLine
 10
76.0
 20
776.5
 30
0.0
 11
487.5
 21
776.5
 31
0.0
  0
LINE
  5
D3
330
17
100
AcDbEntity
  8
ACERO_SUP
 62
5
370
30
100
AcDbLine
 10
76.0
 20
774.4
 30
0.0
 11
487.5
 21
774.4
 31
0.0
  0
LINE
  5
D4
330
17
100
AcDbEntity
  8
ACERO_SUP
 62
5
370
30
100
AcDbLine
 10
76.0
 20
772.3
 30
0.0
 11
487.5
 21
772.3
 31
0.0
  0
LINE
  5
D5
330
17
100
AcDbEntity
  8
ACERO_ADIC
 62
2
370
30
100
AcDbLine
 10
76.0
 20
770.0
 30
0.0
 11
224.14
 21
770.0
 31
0.0
  0
LINE
  5
D6
330
17
100
AcDbEntity
  8
ACERO_ADIC
 62
2
370
30
100
AcDbLine
 10
339.36
 20
770.0
 30
0.0
 11
487.5
 21
770.0
 31
0.0
  0
LINE
  5
D7
330
17
100
AcDbEntity
  8
ACERO_ADIC
 62
2
370
30
100
AcDbLine
 10
76.0
 20
768.5
 30
0.0
 11
224.14
 21
768.5
 31
0.0
  0
LINE
  5
D8
330
17
100
AcDbEntity
  8
ACERO_ADIC
 62
2
370
30
100
AcDbLine
 10
339.36
 20
768.5
 30
0.0
 11
487.5
 21
768.5
 31
0.0
  0
LINE
  5
D9
330
17
100
AcDbEntity
  8
ACERO_ADIC
 62
2
370
30
100
AcDbLine
 10
76.0
 20
767.0
 30
0.0
 11
224.14
 21
767.0
 31
0.0
  0
LINE
  5
DA
330
17
100
AcDbEntity
  8
ACERO_ADIC
 62
2
370
30
100
AcDbLine
 10
339.36
 20
767.0
 30
0.0
 11
487.5
 21
767.0
 31
0.0
  0
LINE
  5
DB
330
17
100
AcDbEntity
  8
ACERO_ADIC
 62
2
370
30
100
AcDbLine
 10
76.0
 20
765.5
 30
0.0
 11
224.14
 21
765.5
 31
0.0
  0
LINE
  5
DC
330
17
100
AcDbEntity
  8
ACERO_ADIC
 62
2
370
30
100
AcDbLine
 10
339.36
 20
765.5
 30
0.0
 11
487.5
 21
765.5
 31
0.0
  0
LINE
  5
DD
330
17
100
AcDbEntity
  8
ACERO_INF
 62
1
370
30
100
AcDbLine
 10
76.0
 20
762.5
 30
0.0
 11
487.5
 21
762.5
 31
0.0
  0
LINE
  5
DE
330
17
100
AcDbEntity
  8
ACERO_INF
 62
1
370
30
100
AcDbLine
 10
76.0
 20
764.3
 30
0.0
 11
487.5
 21
764.3
 31
0.0
  0
LINE
  5
DF
330
17
100
AcDbEntity
  8
ACERO_INF
 62
1
370
30
100
AcDbLine
 10
76.0
 20
766.1
 30
0.0
 11
487.5
 21
766.1
 31
0.0
  0
LINE
  5
E0
330
17
100
AcDbEntity
  8
ACERO_INF
 62
1
370
30
100
AcDbLine
 10
76.0
 20
767.9
 30
0.0
 11
487.5
 21
767.9
 31
0.0
  0
LINE
  5
E1
330
17
100
AcDbEntity
  8
ESTRIBOS
 62
7
370
9
100
AcDbLine
 10
79.0
 20
760.0
 30
0.0
 11
79.0
 21
779.0
 31
0.0
  0
LINE
  5
E2
330
17
100
AcDbEntity
  8
ESTRIBOS
 62
7
370
9
100
AcDbLine
 10
88.25874999999999
 20
760.0
 30
0.0
 11
88.25874999999999
 21
779.0
 31
0.0
  0
LINE
  5
E3
330
17
100
AcDbEntity
  8
ESTRIBOS
 62
7
370
9
100
AcDbLine
 10
97.51749999999998
 20
760.0
 30
0.0
 11
97.51749999999998
 21
779.0
 31
0.0
  0
LINE
  5
E4
330
17
100
AcDbEntity
  8
ESTRIBOS
 62
7
370
9
100
AcDbLine
 10
106.77624999999998
 20
760.0
 30
0.0
 11
106.77624999999998
 21
779.0
 31
0.0
  0
LINE
  5
E5
330
17
100
AcDbEntity
  8
ESTRIBOS
 62
7
370
9
100
AcDbLine
 10
116.03499999999997
 20
760.0
 30
0.0
 11
116.03499999999997
 21
779.0
 31
0.0
  0
LINE
  5
E6
330
17
100
AcDbEntity
  8
ESTRIBOS
 62
7
370
9
100
AcDbLine
 10
125.29374999999996
 20
760.0
 30
0.0
 11
125.29374999999996
 21
779.0
 31
0.0
  0
LINE
  5
E7
330
17
100
AcDbEntity
  8
ESTRIBOS
 62
7
370
9
100
AcDbLine
 10
134.55249999999995
 20
760.0
 30
0.0
 11
134.55249999999995
 21
779.0
 31
0.0
  0
LINE
  5
E8
330
17
100
AcDbEntity
  8
ESTRIBOS
 62
7
370
9
100
AcDbLine
 10
143.81124999999994
 20
760.0
 30
0.0
 11
143.81124999999994
 21
779.0
 31
0.0
  0
LINE
  5
E9
330
17
100
AcDbEntity
  8
ESTRIBOS
 62
7
370
9
100
AcDbLine
 10
153.06999999999994
 20
760.0
 30
0.0
 11
153.06999999999994
 21
779.0
 31
0.0
  0
LINE
  5
EA
330
17
100
AcDbEntity
  8
ESTRIBOS
 62
7
370
9
100
AcDbLine
 10
162.32874999999993
 20
760.0
 30
0.0
 11
162.32874999999993
 21
779.0
 31
0.0
  0
LINE
  5
EB
330
17
100
AcDbEntity
  8
ESTRIBOS
 62
7
370
9
100
AcDbLine
 10
171.58749999999992
 20
760.0
 30
0.0
 11
171.58749999999992
 21
779.0
 31
0.0
  0
LINE
  5
EC
330
17
100
AcDbEntity
  8
ESTRIBOS
 62
7
370
9
100
AcDbLine
 10
180.8462499999999
 20
760.0
 30
0.0
 11
180.8462499999999
 21
779.0
 31
0.0
  0
LINE
  5
ED
330
17
100
AcDbEntity
  8
ESTRIBOS
 62
7
370
9
100
AcDbLine
 10
189.16250000000002
 20
760.0
 30
0.0
 11
189.16250000000002
 21
779.0
 31
0.0
  0
LINE
  5
EE
330
17
100
AcDbEntity
  8
ESTRIBOS
 62
7
370
9
100
AcDbLine
 10
198.42125000000001
 20
760.0
 30
0.0
 11
198.42125000000001
 21
779.0
 31
0.0
  0
LINE
  5
EF
330
17
100
AcDbEntity
  8
ESTRIBOS
 62
7
370
9
100
AcDbLine
 10
207.68
 20
760.0
 30
0.0
 11
207.68
 21
779.0
 31
0.0
  0
LINE
  5
F0
330
17
100
AcDbEntity
  8
ESTRIBOS
 62
7
370
9
100
AcDbLine
 10
216.93875
 20
760.0
 30
0.0
 11
216.93875
 21
779.0
 31
0.0
  0
LINE
  5
F1
330
17
100
AcDbEntity
  8
ESTRIBOS
 62
7
370
9
100
AcDbLine
 10
226.1975
 20
760.0
 30
0.0
 11
226.1975
 21
779.0
 31
0.0
  0
LINE
  5
F2
330
17
100
AcDbEntity
  8
ESTRIBOS
 62
7
370
9
100
AcDbLine
 10
235.45624999999998
 20
760.0
 30
0.0
 11
235.45624999999998
 21
779.0
 31
0.0
  0
LINE
  5
F3
330
17
100
AcDbEntity
  8
ESTRIBOS
 62
7
370
9
100
AcDbLine
 10
244.71499999999997
 20
760.0
 30
0.0
 11
244.71499999999997
 21
779.0
 31
0.0
  0
LINE
  5
F4
330
17
100
AcDbEntity
  8
ESTRIBOS
 62
7
370
9
100
AcDbLine
 10
253.97374999999997
 20
760.0
 30
0.0
 11
253.97374999999997
 21
779.0
 31
0.0
  0
LINE
  5
F5
330
17
100
AcDbEntity
  8
ESTRIBOS
 62
7
370
9
100
AcDbLine
 10
263.23249999999996
 20
760.0
 30
0.0
 11
263.23249999999996
 21
779.0
 31
0.0
  0
LINE
  5
F6
330
17
100
AcDbEntity
  8
ESTRIBOS
 62
7
370
9
100
AcDbLine
 10
272.49125
 20
760.0
 30
0.0
 11
272.49125
 21
779.0
 31
0.0
  0
LINE
  5
F7
330
17
100
AcDbEntity
  8
ESTRIBOS
 62
7
370
9
100
AcDbLine
 10
281.75
 20
760.0
 30
0.0
 11
281.75
 21
779.0
 31
0.0
  0
LINE
  5
F8
330
17
100
AcDbEntity
  8
ESTRIBOS
 62
7
370
9
100
AcDbLine
 10
291.00875
 20
760.0
 30
0.0
 11
291.00875
 21
779.0
 31
0.0
  0
LINE
  5
F9
330
17
100
AcDbEntity
  8
ESTRIBOS
 62
7
370
9
100
AcDbLine
 10
300.26750000000004
 20
760.0
 30
0.0
 11
300.26750000000004
 21
779.0
 31
0.0
  0
LINE
  5
FA
330
17
100
AcDbEntity
  8
ESTRIBOS
 62
7
370
9
100
AcDbLine
 10
309.52625000000006
 20
760.0
 30
0.0
 11
309.52625000000006
 21
779.0
 31
0.0
  0
LINE
  5
FB
330
17
100
AcDbEntity
  8
ESTRIBOS
 62
7
370
9
100
AcDbLine
 10
318.7850000000001
 20
760.0
 30
0.0
 11
318.7850000000001
 21
779.0
 31
0.0
  0
LINE
  5
FC
330
17
100
AcDbEntity
  8
ESTRIBOS
 62
7
370
9
100
AcDbLine
 10
328.0437500000001
 20
760.0
 30
0.0
 11
328.0437500000001
 21
779.0
 31
0.0
  0
LINE
  5
FD
330
17
100
AcDbEntity
  8
ESTRIBOS
 62
7
370
9
100
AcDbLine
 10
337.3025000000001
 20
760.0
 30
0.0
 11
337.3025000000001
 21
779.0
 31
0.0
  0
LINE
  5
FE
330
17
100
AcDbEntity
  8
ESTRIBOS
 62
7
370
9
100
AcDbLine
 10
346.56125000000014
 20
760.0
 30
0.0
 11
346.56125000000014
 21
779.0
 31
0.0
  0
LINE
  5
FF
330
17
100
AcDbEntity
  8
ESTRIBOS
 62
7
370
9
100
AcDbLine
 10
355.82000000000016
 20
760.0
 30
0.0
 11
355.82000000000016
 21
779.0
 31
0.0
  0
LINE
  5
100
330
17
100
AcDbEntity
  8
ESTRIBOS
 62
7
370
9
100
AcDbLine
 10
365.0787500000002
 20
760.0
 30
0.0
 11
365.0787500000002
 21
779.0
 31
0.0
  0
LINE
  5
101
330
17
100
AcDbEntity
  8
ESTRIBOS
 62
7
370
9
100
AcDbLine
 10
374.3375
 20
760.0
 30
0.0
 11
374.3375
 21
779.0
 31
0.0
  0
LINE
  5
102
330
17
100
AcDbEntity
  8
ESTRIBOS
 62
7
370
9
100
AcDbLine
 10
383.59625
 20
760.0
 30
0.0
 11
383.59625
 21
779.0
 31
0.0
  0
LINE
  5
103
330
17
100
AcDbEntity
  8
ESTRIBOS
 62
7
370
9
100
AcDbLine
 10
392.855
 20
760.0
 30
0.0
 11
392.855
 21
779.0
 31
0.0
  0
LINE
  5
104
330
17
100
AcDbEntity
  8
ESTRIBOS
 62
7
370
9
100
AcDbLine
 10
402.11375000000004
 20
760.0
 30
0.0
 11
402.11375000000004
 21
779.0
 31
0.0
  0
LINE
  5
105
330
17
100
AcDbEntity
  8
ESTRIBOS
 62
7
370
9
100
AcDbLine
 10
411.37250000000006
 20
760.0
 30
0.0
 11
411.37250000000006
 21
779.0
 31
0.0
  0
LINE
  5
106
330
17
100
AcDbEntity
  8
ESTRIBOS
 62
7
370
9
100
AcDbLine
 10
420.6312500000001
 20
760.0
 30
0.0
 11
420.6312500000001
 21
779.0
 31
0.0
  0
LINE
  5
107
330
17
100
AcDbEntity
  8
ESTRIBOS
 62
7
370
9
100
AcDbLine
 10
429.8900000000001
 20
760.0
 30
0.0
 11
429.8900000000001
 21
779.0
 31
0.0
  0
LINE
  5
108
330
17
100
AcDbEntity
  8
ESTRIBOS
 62
7
370
9
100
AcDbLine
 10
439.1487500000001
 20
760.0
 30
0.0
 11
439.1487500000001
 21
779.0
 31
0.0
  0
LINE
  5
109
330
17
100
AcDbEntity
  8
ESTRIBOS
 62
7
370
9
100
AcDbLine
 10
448.40750000000014
 20
760.0
 30
0.0
 11
448.40750000000014
 21
779.0
 31
0.0
  0
LINE
  5
10A
330
17
100
AcDbEntity
  8
ESTRIBOS
 62
7
370
9
100
AcDbLine
 10
457.66625000000016
 20
760.0
 30
0.0
 11
457.66625000000016
 21
779.0
 31
0.0
  0
LINE
  5
10B
330
17
100
AcDbEntity
  8
ESTRIBOS
 62
7
370
9
100
AcDbLine
 10
466.9250000000002
 20
760.0
 30
0.0
 11
466.9250000000002
 21
779.0
 31
0.0
  0
LINE
  5
10C
330
17
100
AcDbEntity
  8
ESTRIBOS
 62
7
370
9
100
AcDbLine
 10
476.1837500000002
 20
760.0
 30
0.0
 11
476.1837500000002
 21
779.0
 31
0.0
  0
LINE
  5
10D
330
17
100
AcDbEntity
  8
COTAS
 62
3
370
18
100
AcDbLine
 10
76.0
 20
748.0
 30
0.0
 11
487.5
 21
748.0
 31
0.0
  0
LINE
  5
10E
330
17
100
AcDbEntity
  8
COTAS
 62
3
370
18
100
AcDbLine
 10
76.0
 20
746.0
 30
0.0
 11
76.0
 21
750.0
 31
0.0
  0
LINE
  5
10F
330
17
100
AcDbEntity
  8
COTAS
 62
3
370
18
100
AcDbLine
 10
487.5
 20
746.0
 30
0.0
 11
487.5
 21
750.0
 31
0.0
  0
TEXT
  5
110
330
17
100
AcDbEntity
  8
COTAS
 62
3
100
AcDbText
 10
281.75
 20
750.5
 30
0.0
 40
3.0
  1
L SAP I-J = 2.500 a 4.000 m
 72
1
 11
281.75
 21
750.5
 31
0.0
100
AcDbText
 73
2
  0
TEXT
  5
111
330
17
100
AcDbEntity
  8
TEXTO
 62
7
100
AcDbText
 10
281.75
 20
743.0
 30
0.0
 40
2.7
  1
Ln calculo = 1.900 a 3.400 m
 72
1
 11
281.75
 21
743.0
 31
0.0
100
AcDbText
 73
2
  0
TEXT
  5
112
330
17
100
AcDbEntity
  8
TEXTO
 62
7
100
AcDbText
 10
76.0
 20
739.0
 30
0.0
 40
2.8
  1
SUP: 6#5 | INF: 5#5 | TOR: 0#5 adicionales
 11
76.0
 21
739.0
 31
0.0
100
AcDbText
  0
TEXT
  5
113
330
17
100
AcDbEntity
  8
TEXTO
 62
7
100
AcDbText
 10
76.0
 20
733.0
 30
0.0
 40
2.8
  1
EST Nº3 4R: 1ro <=50; @90 en 2h; @90 centro
 11
76.0
 21
733.0
 31
0.0
100
AcDbText
  0
LWPOLYLINE
  5
114
330
17
100
AcDbEntity
  8
CORTE
 62
7
370
20
100
AcDbPolyline
 90
4
 70
1
 10
136.62
 20
589.0
 10
168.62
 20
589.0
 10
168.62
 20
629.0
 10
136.62
 20
629.0
  0
LWPOLYLINE
  5
115
330
17
100
AcDbEntity
  8
ESTRIBOS
 62
7
370
18
100
AcDbPolyline
 90
4
 70
1
 10
139.62
 20
592.0
 10
165.62
 20
592.0
 10
165.62
 20
626.0
 10
139.62
 20
626.0
  0
LINE
  5
116
330
17
100
AcDbEntity
  8
ESTRIBOS
 62
7
370
18
100
AcDbLine
 10
147.28666666666666
 20
592.0
 30
0.0
 11
147.28666666666666
 21
626.0
 31
0.0
  0
LINE
  5
117
330
17
100
AcDbEntity
  8
ESTRIBOS
 62
7
370
18
100
AcDbLine
 10
157.95333333333335
 20
592.0
 30
0.0
 11
157.95333333333335
 21
626.0
 31
0.0
  0
CIRCLE
  5
118
330
17
100
AcDbEntity
  8
ACERO_SUP
 62
5
100
AcDbCircle
 10
141.92000000000002
 20
623.7
 30
0.0
 40
1.0
  0
CIRCLE
  5
119
330
17
100
AcDbEntity
  8
ACERO_SUP
 62
5
100
AcDbCircle
 10
146.20000000000002
 20
623.7
 30
0.0
 40
1.0
  0
CIRCLE
  5
11A
330
17
100
AcDbEntity
  8
ACERO_SUP
 62
5
100
AcDbCircle
 10
150.48000000000002
 20
623.7
 30
0.0
 40
1.0
  0
CIRCLE
  5
11B
330
17
100
AcDbEntity
  8
ACERO_SUP
 62
5
100
AcDbCircle
 10
154.76000000000002
 20
623.7
 30
0.0
 40
1.0
  0
CIRCLE
  5
11C
330
17
100
AcDbEntity
  8
ACERO_SUP
 62
5
100
AcDbCircle
 10
159.04000000000002
 20
623.7
 30
0.0
 40
1.0
  0
CIRCLE
  5
11D
330
17
100
AcDbEntity
  8
ACERO_SUP
 62
5
100
AcDbCircle
 10
163.32000000000002
 20
623.7
 30
0.0
 40
1.0
  0
CIRCLE
  5
11E
330
17
100
AcDbEntity
  8
ACERO_INF
 62
1
100
AcDbCircle
 10
141.92000000000002
 20
594.3
 30
0.0
 40
1.0
  0
CIRCLE
  5
11F
330
17
100
AcDbEntity
  8
ACERO_INF
 62
1
100
AcDbCircle
 10
147.27
 20
594.3
 30
0.0
 40
1.0
  0
CIRCLE
  5
120
330
17
100
AcDbEntity
  8
ACERO_INF
 62
1
100
AcDbCircle
 10
152.62
 20
594.3
 30
0.0
 40
1.0
  0
CIRCLE
  5
121
330
17
100
AcDbEntity
  8
ACERO_INF
 62
1
100
AcDbCircle
 10
157.97000000000003
 20
594.3
 30
0.0
 40
1.0
  0
CIRCLE
  5
122
330
17
100
AcDbEntity
  8
ACERO_INF
 62
1
100
AcDbCircle
 10
163.32000000000002
 20
594.3
 30
0.0
 40
1.0
  0
TEXT
  5
123
330
17
100
AcDbEntity
  8
TEXTO
 62
7
100
AcDbText
 10
152.62
 20
583.5
 30
0.0
 40
2.8
  1
CORTE A-A
 72
1
 11
152.62
 21
583.5
 31
0.0
100
AcDbText
 73
2
  0
TEXT
  5
124
330
17
100
AcDbEntity
  8
TEXTO
 62
7
100
AcDbText
 10
152.62
 20
579.0
 30
0.0
 40
2.7
  1
500x550
 72
1
 11
152.62
 21
579.0
 31
0.0
100
AcDbText
 73
2
  0
LWPOLYLINE
  5
125
330
17
100
AcDbEntity
  8
CORTE
 62
7
370
20
100
AcDbPolyline
 90
4
 70
1
 10
254.58000000000004
 20
589.0
 10
286.58000000000004
 20
589.0
 10
286.58000000000004
 20
629.0
 10
254.58000000000004
 20
629.0
  0
LWPOLYLINE
  5
126
330
17
100
AcDbEntity
  8
ESTRIBOS
 62
7
370
18
100
AcDbPolyline
 90
4
 70
1
 10
257.58000000000004
 20
592.0
 10
283.58000000000004
 20
592.0
 10
283.58000000000004
 20
626.0
 10
257.58000000000004
 20
626.0
  0
LINE
  5
127
330
17
100
AcDbEntity
  8
ESTRIBOS
 62
7
370
18
100
AcDbLine
 10
265.2466666666667
 20
592.0
 30
0.0
 11
265.2466666666667
 21
626.0
 31
0.0
  0
LINE
  5
128
330
17
100
AcDbEntity
  8
ESTRIBOS
 62
7
370
18
100
AcDbLine
 10
275.91333333333336
 20
592.0
 30
0.0
 11
275.91333333333336
 21
626.0
 31
0.0
  0
CIRCLE
  5
129
330
17
100
AcDbEntity
  8
ACERO_SUP
 62
5
100
AcDbCircle
 10
259.88000000000005
 20
623.7
 30
0.0
 40
1.0
  0
CIRCLE
  5
12A
330
17
100
AcDbEntity
  8
ACERO_SUP
 62
5
100
AcDbCircle
 10
264.16
 20
623.7
 30
0.0
 40
1.0
  0
CIRCLE
  5
12B
330
17
100
AcDbEntity
  8
ACERO_SUP
 62
5
100
AcDbCircle
 10
268.44000000000005
 20
623.7
 30
0.0
 40
1.0
  0
CIRCLE
  5
12C
330
17
100
AcDbEntity
  8
ACERO_SUP
 62
5
100
AcDbCircle
 10
272.72
 20
623.7
 30
0.0
 40
1.0
  0
CIRCLE
  5
12D
330
17
100
AcDbEntity
  8
ACERO_SUP
 62
5
100
AcDbCircle
 10
277.00000000000006
 20
623.7
 30
0.0
 40
1.0
  0
CIRCLE
  5
12E
330
17
100
AcDbEntity
  8
ACERO_SUP
 62
5
100
AcDbCircle
 10
281.28000000000003
 20
623.7
 30
0.0
 40
1.0
  0
CIRCLE
  5
12F
330
17
100
AcDbEntity
  8
ACERO_INF
 62
1
100
AcDbCircle
 10
259.88000000000005
 20
594.3
 30
0.0
 40
1.0
  0
CIRCLE
  5
130
330
17
100
AcDbEntity
  8
ACERO_INF
 62
1
100
AcDbCircle
 10
265.2300000000001
 20
594.3
 30
0.0
 40
1.0
  0
CIRCLE
  5
131
330
17
100
AcDbEntity
  8
ACERO_INF
 62
1
100
AcDbCircle
 10
270.58000000000004
 20
594.3
 30
0.0
 40
1.0
  0
CIRCLE
  5
132
330
17
100
AcDbEntity
  8
ACERO_INF
 62
1
100
AcDbCircle
 10
275.93000000000006
 20
594.3
 30
0.0
 40
1.0
  0
CIRCLE
  5
133
330
17
100
AcDbEntity
  8
ACERO_INF
 62
1
100
AcDbCircle
 10
281.28000000000003
 20
594.3
 30
0.0
 40
1.0
  0
TEXT
  5
134
330
17
100
AcDbEntity
  8
TEXTO
 62
7
100
AcDbText
 10
270.58000000000004
 20
583.5
 30
0.0
 40
2.8
  1
CORTE B-B
 72
1
 11
270.58000000000004
 21
583.5
 31
0.0
100
AcDbText
 73
2
  0
TEXT
  5
135
330
17
100
AcDbEntity
  8
TEXTO
 62
7
100
AcDbText
 10
270.58000000000004
 20
579.0
 30
0.0
 40
2.7
  1
500x550
 72
1
 11
270.58000000000004
 21
579.0
 31
0.0
100
AcDbText
 73
2
  0
LWPOLYLINE
  5
136
330
17
100
AcDbEntity
  8
CORTE
 62
7
370
20
100
AcDbPolyline
 90
4
 70
1
 10
372.54
 20
589.0
 10
404.54
 20
589.0
 10
404.54
 20
629.0
 10
372.54
 20
629.0
  0
LWPOLYLINE
  5
137
330
17
100
AcDbEntity
  8
ESTRIBOS
 62
7
370
18
100
AcDbPolyline
 90
4
 70
1
 10
375.54
 20
592.0
 10
401.54
 20
592.0
 10
401.54
 20
626.0
 10
375.54
 20
626.0
  0
LINE
  5
138
330
17
100
AcDbEntity
  8
ESTRIBOS
 62
7
370
18
100
AcDbLine
 10
383.2066666666667
 20
592.0
 30
0.0
 11
383.2066666666667
 21
626.0
 31
0.0
  0
LINE
  5
139
330
17
100
AcDbEntity
  8
ESTRIBOS
 62
7
370
18
100
AcDbLine
 10
393.87333333333333
 20
592.0
 30
0.0
 11
393.87333333333333
 21
626.0
 31
0.0
  0
CIRCLE
  5
13A
330
17
100
AcDbEntity
  8
ACERO_SUP
 62
5
100
AcDbCircle
 10
377.84000000000003
 20
623.7
 30
0.0
 40
1.0
  0
CIRCLE
  5
13B
330
17
100
AcDbEntity
  8
ACERO_SUP
 62
5
100
AcDbCircle
 10
382.12
 20
623.7
 30
0.0
 40
1.0
  0
CIRCLE
  5
13C
330
17
100
AcDbEntity
  8
ACERO_SUP
 62
5
100
AcDbCircle
 10
386.40000000000003
 20
623.7
 30
0.0
 40
1.0
  0
CIRCLE
  5
13D
330
17
100
AcDbEntity
  8
ACERO_SUP
 62
5
100
AcDbCircle
 10
390.68
 20
623.7
 30
0.0
 40
1.0
  0
CIRCLE
  5
13E
330
17
100
AcDbEntity
  8
ACERO_SUP
 62
5
100
AcDbCircle
 10
394.96000000000004
 20
623.7
 30
0.0
 40
1.0
  0
CIRCLE
  5
13F
330
17
100
AcDbEntity
  8
ACERO_SUP
 62
5
100
AcDbCircle
 10
399.24
 20
623.7
 30
0.0
 40
1.0
  0
CIRCLE
  5
140
330
17
100
AcDbEntity
  8
ACERO_INF
 62
1
100
AcDbCircle
 10
377.84000000000003
 20
594.3
 30
0.0
 40
1.0
  0
CIRCLE
  5
141
330
17
100
AcDbEntity
  8
ACERO_INF
 62
1
100
AcDbCircle
 10
383.19000000000005
 20
594.3
 30
0.0
 40
1.0
  0
CIRCLE
  5
142
330
17
100
AcDbEntity
  8
ACERO_INF
 62
1
100
AcDbCircle
 10
388.54
 20
594.3
 30
0.0
 40
1.0
  0
CIRCLE
  5
143
330
17
100
AcDbEntity
  8
ACERO_INF
 62
1
100
AcDbCircle
 10
393.89000000000004
 20
594.3
 30
0.0
 40
1.0
  0
CIRCLE
  5
144
330
17
100
AcDbEntity
  8
ACERO_INF
 62
1
100
AcDbCircle
 10
399.24
 20
594.3
 30
0.0
 40
1.0
  0
TEXT
  5
145
330
17
100
AcDbEntity
  8
TEXTO
 62
7
100
AcDbText
 10
388.54
 20
583.5
 30
0.0
 40
2.8
  1
CORTE C-C
 72
1
 11
388.54
 21
583.5
 31
0.0
100
AcDbText
 73
2
  0
TEXT
  5
146
330
17
100
AcDbEntity
  8
TEXTO
 62
7
100
AcDbText
 10
388.54
 20
579.0
 30
0.0
 40
2.7
  1
500x550
 72
1
 11
388.54
 21
579.0
 31
0.0
100
AcDbText
 73
2
  0
TEXT
  5
147
330
17
100
AcDbEntity
  8
TEXTO
 62
7
100
AcDbText
 10
22.0
 20
576.0
 30
0.0
 40
2.8
  1
80 frames | variantes de longitud: 4
 11
22.0
 21
576.0
 31
0.0
100
AcDbText
  0
TEXT
  5
148
330
17
100
AcDbEntity
  8
TEXTO
 62
3
100
AcDbText
 10
499.5
 20
576.0
 30
0.0
 40
2.8
  1
Verificacion seccional: CUMPLE
 72
2
 11
499.5
 21
576.0
 31
0.0
100
AcDbText
  0
LWPOLYLINE
  5
149
330
17
100
AcDbEntity
  8
GUIA
 62
9
370
9
100
AcDbPolyline
 90
4
 70
1
 10
512.5
 20
566.0
 10
1004.0
 20
566.0
 10
1004.0
 20
826.0
 10
512.5
 20
826.0
  0
TEXT
  5
14A
330
17
100
AcDbEntity
  8
TITULO
 62
6
100
AcDbText
 10
758.25
 20
816.0
 30
0.0
 40
4.8
  1
DESPIECE VIGA VR N1
 72
1
 11
758.25
 21
816.0
 31
0.0
100
AcDbText
 73
2
  0
TEXT
  5
14B
330
17
100
AcDbEntity
  8
TITULO
 62
6
100
AcDbText
 10
519.5
 20
803.0
 30
0.0
 40
3.6
  1
PISO TIPO
 11
519.5
 21
803.0
 31
0.0
100
AcDbText
  0
TEXT
  5
14C
330
17
100
AcDbEntity
  8
TITULO
 62
6
100
AcDbText
 10
519.5
 20
795.0
 30
0.0
 40
3.6
  1
50x55 cm
 11
519.5
 21
795.0
 31
0.0
100
AcDbText
  0
LINE
  5
14D
330
17
100
AcDbEntity
  8
APOYOS
 62
4
370
18
100
AcDbLine
 10
569.5
 20
744.0
 30
0.0
 11
569.5
 21
795.0
 31
0.0
  0
LINE
  5
14E
330
17
100
AcDbEntity
  8
APOYOS
 62
4
370
18
100
AcDbLine
 10
577.5
 20
744.0
 30
0.0
 11
577.5
 21
795.0
 31
0.0
  0
LINE
  5
14F
330
17
100
AcDbEntity
  8
EJES
 62
8
370
9
100
AcDbLine
 10
573.5
 20
740.0
 30
0.0
 11
573.5
 21
800.0
 31
0.0
  0
CIRCLE
  5
150
330
17
100
AcDbEntity
  8
EJES
 62
8
100
AcDbCircle
 10
573.5
 20
794.0
 30
0.0
 40
4.5
  0
TEXT
  5
151
330
17
100
AcDbEntity
  8
EJES
 62
8
100
AcDbText
 10
573.5
 20
792.85
 30
0.0
 40
2.6
  1
I
 72
1
 11
573.5
 21
792.85
 31
0.0
100
AcDbText
 73
2
  0
LINE
  5
152
330
17
100
AcDbEntity
  8
APOYOS
 62
4
370
18
100
AcDbLine
 10
981.0
 20
744.0
 30
0.0
 11
981.0
 21
795.0
 31
0.0
  0
LINE
  5
153
330
17
100
AcDbEntity
  8
APOYOS
 62
4
370
18
100
AcDbLine
 10
989.0
 20
744.0
 30
0.0
 11
989.0
 21
795.0
 31
0.0
  0
LINE
  5
154
330
17
100
AcDbEntity
  8
EJES
 62
8
370
9
100
AcDbLine
 10
985.0
 20
740.0
 30
0.0
 11
985.0
 21
800.0
 31
0.0
  0
CIRCLE
  5
155
330
17
100
AcDbEntity
  8
EJES
 62
8
100
AcDbCircle
 10
985.0
 20
794.0
 30
0.0
 40
4.5
  0
TEXT
  5
156
330
17
100
AcDbEntity
  8
EJES
 62
8
100
AcDbText
 10
985.0
 20
792.85
 30
0.0
 40
2.6
  1
J
 72
1
 11
985.0
 21
792.85
 31
0.0
100
AcDbText
 73
2
  0
LINE
  5
157
330
17
100
AcDbEntity
  8
EJES
 62
8
370
9
100
AcDbLine
 10
710.6666666666666
 20
746.0
 30
0.0
 11
710.6666666666666
 21
797.0
 31
0.0
  0
CIRCLE
  5
158
330
17
100
AcDbEntity
  8
EJES
 62
8
100
AcDbCircle
 10
710.6666666666666
 20
794.0
 30
0.0
 40
4.2
  0
TEXT
  5
159
330
17
100
AcDbEntity
  8
EJES
 62
8
100
AcDbText
 10
710.6666666666666
 20
792.85
 30
0.0
 40
2.6
  1
1
 72
1
 11
710.6666666666666
 21
792.85
 31
0.0
100
AcDbText
 73
2
  0
LINE
  5
15A
330
17
100
AcDbEntity
  8
EJES
 62
8
370
9
100
AcDbLine
 10
847.8333333333333
 20
746.0
 30
0.0
 11
847.8333333333333
 21
797.0
 31
0.0
  0
CIRCLE
  5
15B
330
17
100
AcDbEntity
  8
EJES
 62
8
100
AcDbCircle
 10
847.8333333333333
 20
794.0
 30
0.0
 40
4.2
  0
TEXT
  5
15C
330
17
100
AcDbEntity
  8
EJES
 62
8
100
AcDbText
 10
847.8333333333333
 20
792.85
 30
0.0
 40
2.6
  1
2
 72
1
 11
847.8333333333333
 21
792.85
 31
0.0
100
AcDbText
 73
2
  0
LWPOLYLINE
  5
15D
330
17
100
AcDbEntity
  8
CONTORNO
 62
7
370
18
100
AcDbPolyline
 90
4
 70
1
 10
573.5
 20
759.0
 10
985.0
 20
759.0
 10
985.0
 20
780.0
 10
573.5
 20
780.0
  0
LINE
  5
15E
330
17
100
AcDbEntity
  8
ACERO_SUP
 62
5
370
30
100
AcDbLine
 10
573.5
 20
776.5
 30
0.0
 11
985.0
 21
776.5
 31
0.0
  0
LINE
  5
15F
330
17
100
AcDbEntity
  8
ACERO_SUP
 62
5
370
30
100
AcDbLine
 10
573.5
 20
774.4
 30
0.0
 11
985.0
 21
774.4
 31
0.0
  0
LINE
  5
160
330
17
100
AcDbEntity
  8
ACERO_SUP
 62
5
370
30
100
AcDbLine
 10
573.5
 20
772.3
 30
0.0
 11
985.0
 21
772.3
 31
0.0
  0
LINE
  5
161
330
17
100
AcDbEntity
  8
ACERO_ADIC
 62
2
370
30
100
AcDbLine
 10
573.5
 20
770.0
 30
0.0
 11
721.64
 21
770.0
 31
0.0
  0
LINE
  5
162
330
17
100
AcDbEntity
  8
ACERO_ADIC
 62
2
370
30
100
AcDbLine
 10
836.86
 20
770.0
 30
0.0
 11
985.0
 21
770.0
 31
0.0
  0
LINE
  5
163
330
17
100
AcDbEntity
  8
ACERO_ADIC
 62
2
370
30
100
AcDbLine
 10
573.5
 20
768.5
 30
0.0
 11
721.64
 21
768.5
 31
0.0
  0
LINE
  5
164
330
17
100
AcDbEntity
  8
ACERO_ADIC
 62
2
370
30
100
AcDbLine
 10
836.86
 20
768.5
 30
0.0
 11
985.0
 21
768.5
 31
0.0
  0
LINE
  5
165
330
17
100
AcDbEntity
  8
ACERO_ADIC
 62
2
370
30
100
AcDbLine
 10
573.5
 20
767.0
 30
0.0
 11
721.64
 21
767.0
 31
0.0
  0
LINE
  5
166
330
17
100
AcDbEntity
  8
ACERO_ADIC
 62
2
370
30
100
AcDbLine
 10
836.86
 20
767.0
 30
0.0
 11
985.0
 21
767.0
 31
0.0
  0
LINE
  5
167
330
17
100
AcDbEntity
  8
ACERO_ADIC
 62
2
370
30
100
AcDbLine
 10
573.5
 20
765.5
 30
0.0
 11
721.64
 21
765.5
 31
0.0
  0
LINE
  5
168
330
17
100
AcDbEntity
  8
ACERO_ADIC
 62
2
370
30
100
AcDbLine
 10
836.86
 20
765.5
 30
0.0
 11
985.0
 21
765.5
 31
0.0
  0
LINE
  5
169
330
17
100
AcDbEntity
  8
ACERO_INF
 62
1
370
30
100
AcDbLine
 10
573.5
 20
762.5
 30
0.0
 11
985.0
 21
762.5
 31
0.0
  0
LINE
  5
16A
330
17
100
AcDbEntity
  8
ACERO_INF
 62
1
370
30
100
AcDbLine
 10
573.5
 20
764.3
 30
0.0
 11
985.0
 21
764.3
 31
0.0
  0
LINE
  5
16B
330
17
100
AcDbEntity
  8
ACERO_INF
 62
1
370
30
100
AcDbLine
 10
573.5
 20
766.1
 30
0.0
 11
985.0
 21
766.1
 31
0.0
  0
LINE
  5
16C
330
17
100
AcDbEntity
  8
ACERO_INF
 62
1
370
30
100
AcDbLine
 10
573.5
 20
767.9
 30
0.0
 11
985.0
 21
767.9
 31
0.0
  0
LINE
  5
16D
330
17
100
AcDbEntity
  8
ESTRIBOS
 62
7
370
9
100
AcDbLine
 10
576.5
 20
760.0
 30
0.0
 11
576.5
 21
779.0
 31
0.0
  0
LINE
  5
16E
330
17
100
AcDbEntity
  8
ESTRIBOS
 62
7
370
9
100
AcDbLine
 10
582.4854545454546
 20
760.0
 30
0.0
 11
582.4854545454546
 21
779.0
 31
0.0
  0
LINE
  5
16F
330
17
100
AcDbEntity
  8
ESTRIBOS
 62
7
370
9
100
AcDbLine
 10
588.4709090909091
 20
760.0
 30
0.0
 11
588.4709090909091
 21
779.0
 31
0.0
  0
LINE
  5
170
330
17
100
AcDbEntity
  8
ESTRIBOS
 62
7
370
9
100
AcDbLine
 10
594.4563636363637
 20
760.0
 30
0.0
 11
594.4563636363637
 21
779.0
 31
0.0
  0
LINE
  5
171
330
17
100
AcDbEntity
  8
ESTRIBOS
 62
7
370
9
100
AcDbLine
 10
600.4418181818182
 20
760.0
 30
0.0
 11
600.4418181818182
 21
779.0
 31
0.0
  0
LINE
  5
172
330
17
100
AcDbEntity
  8
ESTRIBOS
 62
7
370
9
100
AcDbLine
 10
606.4272727272728
 20
760.0
 30
0.0
 11
606.4272727272728
 21
779.0
 31
0.0
  0
LINE
  5
173
330
17
100
AcDbEntity
  8
ESTRIBOS
 62
7
370
9
100
AcDbLine
 10
612.4127272727274
 20
760.0
 30
0.0
 11
612.4127272727274
 21
779.0
 31
0.0
  0
LINE
  5
174
330
17
100
AcDbEntity
  8
ESTRIBOS
 62
7
370
9
100
AcDbLine
 10
618.3981818181819
 20
760.0
 30
0.0
 11
618.3981818181819
 21
779.0
 31
0.0
  0
LINE
  5
175
330
17
100
AcDbEntity
  8
ESTRIBOS
 62
7
370
9
100
AcDbLine
 10
624.3836363636365
 20
760.0
 30
0.0
 11
624.3836363636365
 21
779.0
 31
0.0
  0
LINE
  5
176
330
17
100
AcDbEntity
  8
ESTRIBOS
 62
7
370
9
100
AcDbLine
 10
630.369090909091
 20
760.0
 30
0.0
 11
630.369090909091
 21
779.0
 31
0.0
  0
LINE
  5
177
330
17
100
AcDbEntity
  8
ESTRIBOS
 62
7
370
9
100
AcDbLine
 10
636.3545454545456
 20
760.0
 30
0.0
 11
636.3545454545456
 21
779.0
 31
0.0
  0
LINE
  5
178
330
17
100
AcDbEntity
  8
ESTRIBOS
 62
7
370
9
100
AcDbLine
 10
642.3400000000001
 20
760.0
 30
0.0
 11
642.3400000000001
 21
779.0
 31
0.0
  0
LINE
  5
179
330
17
100
AcDbEntity
  8
ESTRIBOS
 62
7
370
9
100
AcDbLine
 10
648.3254545454547
 20
760.0
 30
0.0
 11
648.3254545454547
 21
779.0
 31
0.0
  0
LINE
  5
17A
330
17
100
AcDbEntity
  8
ESTRIBOS
 62
7
370
9
100
AcDbLine
 10
654.3109090909093
 20
760.0
 30
0.0
 11
654.3109090909093
 21
779.0
 31
0.0
  0
LINE
  5
17B
330
17
100
AcDbEntity
  8
ESTRIBOS
 62
7
370
9
100
AcDbLine
 10
655.8
 20
760.0
 30
0.0
 11
655.8
 21
779.0
 31
0.0
  0
LINE
  5
17C
330
17
100
AcDbEntity
  8
ESTRIBOS
 62
7
370
9
100
AcDbLine
 10
661.7854545454545
 20
760.0
 30
0.0
 11
661.7854545454545
 21
779.0
 31
0.0
  0
LINE
  5
17D
330
17
100
AcDbEntity
  8
ESTRIBOS
 62
7
370
9
100
AcDbLine
 10
667.7709090909091
 20
760.0
 30
0.0
 11
667.7709090909091
 21
779.0
 31
0.0
  0
LINE
  5
17E
330
17
100
AcDbEntity
  8
ESTRIBOS
 62
7
370
9
100
AcDbLine
 10
673.7563636363636
 20
760.0
 30
0.0
 11
673.7563636363636
 21
779.0
 31
0.0
  0
LINE
  5
17F
330
17
100
AcDbEntity
  8
ESTRIBOS
 62
7
370
9
100
AcDbLine
 10
679.7418181818182
 20
760.0
 30
0.0
 11
679.7418181818182
 21
779.0
 31
0.0
  0
LINE
  5
180
330
17
100
AcDbEntity
  8
ESTRIBOS
 62
7
370
9
100
AcDbLine
 10
685.7272727272727
 20
760.0
 30
0.0
 11
685.7272727272727
 21
779.0
 31
0.0
  0
LINE
  5
181
330
17
100
AcDbEntity
  8
ESTRIBOS
 62
7
370
9
100
AcDbLine
 10
691.7127272727273
 20
760.0
 30
0.0
 11
691.7127272727273
 21
779.0
 31
0.0
  0
LINE
  5
182
330
17
100
AcDbEntity
  8
ESTRIBOS
 62
7
370
9
100
AcDbLine
 10
697.6981818181819
 20
760.0
 30
0.0
 11
697.6981818181819
 21
779.0
 31
0.0
  0
LINE
  5
183
330
17
100
AcDbEntity
  8
ESTRIBOS
 62
7
370
9
100
AcDbLine
 10
703.6836363636364
 20
760.0
 30
0.0
 11
703.6836363636364
 21
779.0
 31
0.0
  0
LINE
  5
184
330
17
100
AcDbEntity
  8
ESTRIBOS
 62
7
370
9
100
AcDbLine
 10
709.669090909091
 20
760.0
 30
0.0
 11
709.669090909091
 21
779.0
 31
0.0
  0
LINE
  5
185
330
17
100
AcDbEntity
  8
ESTRIBOS
 62
7
370
9
100
AcDbLine
 10
715.6545454545455
 20
760.0
 30
0.0
 11
715.6545454545455
 21
779.0
 31
0.0
  0
LINE
  5
186
330
17
100
AcDbEntity
  8
ESTRIBOS
 62
7
370
9
100
AcDbLine
 10
721.6400000000001
 20
760.0
 30
0.0
 11
721.6400000000001
 21
779.0
 31
0.0
  0
LINE
  5
187
330
17
100
AcDbEntity
  8
ESTRIBOS
 62
7
370
9
100
AcDbLine
 10
727.6254545454547
 20
760.0
 30
0.0
 11
727.6254545454547
 21
779.0
 31
0.0
  0
LINE
  5
188
330
17
100
AcDbEntity
  8
ESTRIBOS
 62
7
370
9
100
AcDbLine
 10
733.6109090909092
 20
760.0
 30
0.0
 11
733.6109090909092
 21
779.0
 31
0.0
  0
LINE
  5
189
330
17
100
AcDbEntity
  8
ESTRIBOS
 62
7
370
9
100
AcDbLine
 10
739.5963636363638
 20
760.0
 30
0.0
 11
739.5963636363638
 21
779.0
 31
0.0
  0
LINE
  5
18A
330
17
100
AcDbEntity
  8
ESTRIBOS
 62
7
370
9
100
AcDbLine
 10
745.5818181818183
 20
760.0
 30
0.0
 11
745.5818181818183
 21
779.0
 31
0.0
  0
LINE
  5
18B
330
17
100
AcDbEntity
  8
ESTRIBOS
 62
7
370
9
100
AcDbLine
 10
751.5672727272729
 20
760.0
 30
0.0
 11
751.5672727272729
 21
779.0
 31
0.0
  0
LINE
  5
18C
330
17
100
AcDbEntity
  8
ESTRIBOS
 62
7
370
9
100
AcDbLine
 10
757.5527272727275
 20
760.0
 30
0.0
 11
757.5527272727275
 21
779.0
 31
0.0
  0
LINE
  5
18D
330
17
100
AcDbEntity
  8
ESTRIBOS
 62
7
370
9
100
AcDbLine
 10
763.538181818182
 20
760.0
 30
0.0
 11
763.538181818182
 21
779.0
 31
0.0
  0
LINE
  5
18E
330
17
100
AcDbEntity
  8
ESTRIBOS
 62
7
370
9
100
AcDbLine
 10
769.5236363636366
 20
760.0
 30
0.0
 11
769.5236363636366
 21
779.0
 31
0.0
  0
LINE
  5
18F
330
17
100
AcDbEntity
  8
ESTRIBOS
 62
7
370
9
100
AcDbLine
 10
775.5090909090911
 20
760.0
 30
0.0
 11
775.5090909090911
 21
779.0
 31
0.0
  0
LINE
  5
190
330
17
100
AcDbEntity
  8
ESTRIBOS
 62
7
370
9
100
AcDbLine
 10
781.4945454545457
 20
760.0
 30
0.0
 11
781.4945454545457
 21
779.0
 31
0.0
  0
LINE
  5
191
330
17
100
AcDbEntity
  8
ESTRIBOS
 62
7
370
9
100
AcDbLine
 10
787.4800000000002
 20
760.0
 30
0.0
 11
787.4800000000002
 21
779.0
 31
0.0
  0
LINE
  5
192
330
17
100
AcDbEntity
  8
ESTRIBOS
 62
7
370
9
100
AcDbLine
 10
793.4654545454548
 20
760.0
 30
0.0
 11
793.4654545454548
 21
779.0
 31
0.0
  0
LINE
  5
193
330
17
100
AcDbEntity
  8
ESTRIBOS
 62
7
370
9
100
AcDbLine
 10
799.4509090909094
 20
760.0
 30
0.0
 11
799.4509090909094
 21
779.0
 31
0.0
  0
LINE
  5
194
330
17
100
AcDbEntity
  8
ESTRIBOS
 62
7
370
9
100
AcDbLine
 10
805.4363636363639
 20
760.0
 30
0.0
 11
805.4363636363639
 21
779.0
 31
0.0
  0
LINE
  5
195
330
17
100
AcDbEntity
  8
ESTRIBOS
 62
7
370
9
100
AcDbLine
 10
811.4218181818185
 20
760.0
 30
0.0
 11
811.4218181818185
 21
779.0
 31
0.0
  0
LINE
  5
196
330
17
100
AcDbEntity
  8
ESTRIBOS
 62
7
370
9
100
AcDbLine
 10
817.407272727273
 20
760.0
 30
0.0
 11
817.407272727273
 21
779.0
 31
0.0
  0
LINE
  5
197
330
17
100
AcDbEntity
  8
ESTRIBOS
 62
7
370
9
100
AcDbLine
 10
823.3927272727276
 20
760.0
 30
0.0
 11
823.3927272727276
 21
779.0
 31
0.0
  0
LINE
  5
198
330
17
100
AcDbEntity
  8
ESTRIBOS
 62
7
370
9
100
AcDbLine
 10
829.3781818181822
 20
760.0
 30
0.0
 11
829.3781818181822
 21
779.0
 31
0.0
  0
LINE
  5
199
330
17
100
AcDbEntity
  8
ESTRIBOS
 62
7
370
9
100
AcDbLine
 10
835.3636363636367
 20
760.0
 30
0.0
 11
835.3636363636367
 21
779.0
 31
0.0
  0
LINE
  5
19A
330
17
100
AcDbEntity
  8
ESTRIBOS
 62
7
370
9
100
AcDbLine
 10
841.3490909090913
 20
760.0
 30
0.0
 11
841.3490909090913
 21
779.0
 31
0.0
  0
LINE
  5
19B
330
17
100
AcDbEntity
  8
ESTRIBOS
 62
7
370
9
100
AcDbLine
 10
847.3345454545458
 20
760.0
 30
0.0
 11
847.3345454545458
 21
779.0
 31
0.0
  0
LINE
  5
19C
330
17
100
AcDbEntity
  8
ESTRIBOS
 62
7
370
9
100
AcDbLine
 10
853.3200000000004
 20
760.0
 30
0.0
 11
853.3200000000004
 21
779.0
 31
0.0
  0
LINE
  5
19D
330
17
100
AcDbEntity
  8
ESTRIBOS
 62
7
370
9
100
AcDbLine
 10
859.305454545455
 20
760.0
 30
0.0
 11
859.305454545455
 21
779.0
 31
0.0
  0
LINE
  5
19E
330
17
100
AcDbEntity
  8
ESTRIBOS
 62
7
370
9
100
AcDbLine
 10
865.2909090909095
 20
760.0
 30
0.0
 11
865.2909090909095
 21
779.0
 31
0.0
  0
LINE
  5
19F
330
17
100
AcDbEntity
  8
ESTRIBOS
 62
7
370
9
100
AcDbLine
 10
871.2763636363641
 20
760.0
 30
0.0
 11
871.2763636363641
 21
779.0
 31
0.0
  0
LINE
  5
1A0
330
17
100
AcDbEntity
  8
ESTRIBOS
 62
7
370
9
100
AcDbLine
 10
877.2618181818186
 20
760.0
 30
0.0
 11
877.2618181818186
 21
779.0
 31
0.0
  0
LINE
  5
1A1
330
17
100
AcDbEntity
  8
ESTRIBOS
 62
7
370
9
100
AcDbLine
 10
883.2472727272732
 20
760.0
 30
0.0
 11
883.2472727272732
 21
779.0
 31
0.0
  0
LINE
  5
1A2
330
17
100
AcDbEntity
  8
ESTRIBOS
 62
7
370
9
100
AcDbLine
 10
889.2327272727277
 20
760.0
 30
0.0
 11
889.2327272727277
 21
779.0
 31
0.0
  0
LINE
  5
1A3
330
17
100
AcDbEntity
  8
ESTRIBOS
 62
7
370
9
100
AcDbLine
 10
895.2181818181823
 20
760.0
 30
0.0
 11
895.2181818181823
 21
779.0
 31
0.0
  0
LINE
  5
1A4
330
17
100
AcDbEntity
  8
ESTRIBOS
 62
7
370
9
100
AcDbLine
 10
901.2036363636369
 20
760.0
 30
0.0
 11
901.2036363636369
 21
779.0
 31
0.0
  0
LINE
  5
1A5
330
17
100
AcDbEntity
  8
ESTRIBOS
 62
7
370
9
100
AcDbLine
 10
902.7
 20
760.0
 30
0.0
 11
902.7
 21
779.0
 31
0.0
  0
LINE
  5
1A6
330
17
100
AcDbEntity
  8
ESTRIBOS
 62
7
370
9
100
AcDbLine
 10
908.6854545454546
 20
760.0
 30
0.0
 11
908.6854545454546
 21
779.0
 31
0.0
  0
LINE
  5
1A7
330
17
100
AcDbEntity
  8
ESTRIBOS
 62
7
370
9
100
AcDbLine
 10
914.6709090909092
 20
760.0
 30
0.0
 11
914.6709090909092
 21
779.0
 31
0.0
  0
LINE
  5
1A8
330
17
100
AcDbEntity
  8
ESTRIBOS
 62
7
370
9
100
AcDbLine
 10
920.6563636363637
 20
760.0
 30
0.0
 11
920.6563636363637
 21
779.0
 31
0.0
  0
LINE
  5
1A9
330
17
100
AcDbEntity
  8
ESTRIBOS
 62
7
370
9
100
AcDbLine
 10
926.6418181818183
 20
760.0
 30
0.0
 11
926.6418181818183
 21
779.0
 31
0.0
  0
LINE
  5
1AA
330
17
100
AcDbEntity
  8
ESTRIBOS
 62
7
370
9
100
AcDbLine
 10
932.6272727272728
 20
760.0
 30
0.0
 11
932.6272727272728
 21
779.0
 31
0.0
  0
LINE
  5
1AB
330
17
100
AcDbEntity
  8
ESTRIBOS
 62
7
370
9
100
AcDbLine
 10
938.6127272727274
 20
760.0
 30
0.0
 11
938.6127272727274
 21
779.0
 31
0.0
  0
LINE
  5
1AC
330
17
100
AcDbEntity
  8
ESTRIBOS
 62
7
370
9
100
AcDbLine
 10
944.598181818182
 20
760.0
 30
0.0
 11
944.598181818182
 21
779.0
 31
0.0
  0
LINE
  5
1AD
330
17
100
AcDbEntity
  8
ESTRIBOS
 62
7
370
9
100
AcDbLine
 10
950.5836363636365
 20
760.0
 30
0.0
 11
950.5836363636365
 21
779.0
 31
0.0
  0
LINE
  5
1AE
330
17
100
AcDbEntity
  8
ESTRIBOS
 62
7
370
9
100
AcDbLine
 10
956.5690909090911
 20
760.0
 30
0.0
 11
956.5690909090911
 21
779.0
 31
0.0
  0
LINE
  5
1AF
330
17
100
AcDbEntity
  8
ESTRIBOS
 62
7
370
9
100
AcDbLine
 10
962.5545454545456
 20
760.0
 30
0.0
 11
962.5545454545456
 21
779.0
 31
0.0
  0
LINE
  5
1B0
330
17
100
AcDbEntity
  8
ESTRIBOS
 62
7
370
9
100
AcDbLine
 10
968.5400000000002
 20
760.0
 30
0.0
 11
968.5400000000002
 21
779.0
 31
0.0
  0
LINE
  5
1B1
330
17
100
AcDbEntity
  8
ESTRIBOS
 62
7
370
9
100
AcDbLine
 10
974.5254545454547
 20
760.0
 30
0.0
 11
974.5254545454547
 21
779.0
 31
0.0
  0
LINE
  5
1B2
330
17
100
AcDbEntity
  8
ESTRIBOS
 62
7
370
9
100
AcDbLine
 10
980.5109090909093
 20
760.0
 30
0.0
 11
980.5109090909093
 21
779.0
 31
0.0
  0
LINE
  5
1B3
330
17
100
AcDbEntity
  8
COTAS
 62
3
370
18
100
AcDbLine
 10
573.5
 20
748.0
 30
0.0
 11
985.0
 21
748.0
 31
0.0
  0
LINE
  5
1B4
330
17
100
AcDbEntity
  8
COTAS
 62
3
370
18
100
AcDbLine
 10
573.5
 20
746.0
 30
0.0
 11
573.5
 21
750.0
 31
0.0
  0
LINE
  5
1B5
330
17
100
AcDbEntity
  8
COTAS
 62
3
370
18
100
AcDbLine
 10
985.0
 20
746.0
 30
0.0
 11
985.0
 21
750.0
 31
0.0
  0
TEXT
  5
1B6
330
17
100
AcDbEntity
  8
COTAS
 62
3
100
AcDbText
 10
779.25
 20
750.5
 30
0.0
 40
3.0
  1
L SAP I-J = 2.500 a 5.500 m
 72
1
 11
779.25
 21
750.5
 31
0.0
100
AcDbText
 73
2
  0
TEXT
  5
1B7
330
17
100
AcDbEntity
  8
TEXTO
 62
7
100
AcDbText
 10
779.25
 20
743.0
 30
0.0
 40
2.7
  1
Ln calculo = 1.900 a 4.900 m
 72
1
 11
779.25
 21
743.0
 31
0.0
100
AcDbText
 73
2
  0
TEXT
  5
1B8
330
17
100
AcDbEntity
  8
TEXTO
 62
7
100
AcDbText
 10
573.5
 20
739.0
 30
0.0
 40
2.8
  1
SUP: 6#5 | INF: 5#5 | TOR: 8#5 adicionales
 11
573.5
 21
739.0
 31
0.0
100
AcDbText
  0
TEXT
  5
1B9
330
17
100
AcDbEntity
  8
TEXTO
 62
7
100
AcDbText
 10
573.5
 20
733.0
 30
0.0
 40
2.8
  1
EST Nº3 4R: 1ro <=50; @80 en 2h; @80 centro
 11
573.5
 21
733.0
 31
0.0
100
AcDbText
  0
LWPOLYLINE
  5
1BA
330
17
100
AcDbEntity
  8
CORTE
 62
7
370
20
100
AcDbPolyline
 90
4
 70
1
 10
634.12
 20
589.0
 10
666.12
 20
589.0
 10
666.12
 20
629.0
 10
634.12
 20
629.0
  0
LWPOLYLINE
  5
1BB
330
17
100
AcDbEntity
  8
ESTRIBOS
 62
7
370
18
100
AcDbPolyline
 90
4
 70
1
 10
637.12
 20
592.0
 10
663.12
 20
592.0
 10
663.12
 20
626.0
 10
637.12
 20
626.0
  0
LINE
  5
1BC
330
17
100
AcDbEntity
  8
ESTRIBOS
 62
7
370
18
100
AcDbLine
 10
644.7866666666666
 20
592.0
 30
0.0
 11
644.7866666666666
 21
626.0
 31
0.0
  0
LINE
  5
1BD
330
17
100
AcDbEntity
  8
ESTRIBOS
 62
7
370
18
100
AcDbLine
 10
655.4533333333334
 20
592.0
 30
0.0
 11
655.4533333333334
 21
626.0
 31
0.0
  0
CIRCLE
  5
1BE
330
17
100
AcDbEntity
  8
ACERO_SUP
 62
5
100
AcDbCircle
 10
639.42
 20
623.7
 30
0.0
 40
1.0
  0
CIRCLE
  5
1BF
330
17
100
AcDbEntity
  8
ACERO_SUP
 62
5
100
AcDbCircle
 10
643.6999999999999
 20
623.7
 30
0.0
 40
1.0
  0
CIRCLE
  5
1C0
330
17
100
AcDbEntity
  8
ACERO_SUP
 62
5
100
AcDbCircle
 10
647.9799999999999
 20
623.7
 30
0.0
 40
1.0
  0
CIRCLE
  5
1C1
330
17
100
AcDbEntity
  8
ACERO_SUP
 62
5
100
AcDbCircle
 10
652.26
 20
623.7
 30
0.0
 40
1.0
  0
CIRCLE
  5
1C2
330
17
100
AcDbEntity
  8
ACERO_SUP
 62
5
100
AcDbCircle
 10
656.54
 20
623.7
 30
0.0
 40
1.0
  0
CIRCLE
  5
1C3
330
17
100
AcDbEntity
  8
ACERO_SUP
 62
5
100
AcDbCircle
 10
660.8199999999999
 20
623.7
 30
0.0
 40
1.0
  0
CIRCLE
  5
1C4
330
17
100
AcDbEntity
  8
ACERO_INF
 62
1
100
AcDbCircle
 10
639.42
 20
594.3
 30
0.0
 40
1.0
  0
CIRCLE
  5
1C5
330
17
100
AcDbEntity
  8
ACERO_INF
 62
1
100
AcDbCircle
 10
644.77
 20
594.3
 30
0.0
 40
1.0
  0
CIRCLE
  5
1C6
330
17
100
AcDbEntity
  8
ACERO_INF
 62
1
100
AcDbCircle
 10
650.12
 20
594.3
 30
0.0
 40
1.0
  0
CIRCLE
  5
1C7
330
17
100
AcDbEntity
  8
ACERO_INF
 62
1
100
AcDbCircle
 10
655.4699999999999
 20
594.3
 30
0.0
 40
1.0
  0
CIRCLE
  5
1C8
330
17
100
AcDbEntity
  8
ACERO_INF
 62
1
100
AcDbCircle
 10
660.8199999999999
 20
594.3
 30
0.0
 40
1.0
  0
CIRCLE
  5
1C9
330
17
100
AcDbEntity
  8
ACERO_TOR
 62
30
100
AcDbCircle
 10
639.32
 20
609.0
 30
0.0
 40
0.9
  0
CIRCLE
  5
1CA
330
17
100
AcDbEntity
  8
ACERO_TOR
 62
30
100
AcDbCircle
 10
660.92
 20
609.0
 30
0.0
 40
0.9
  0
TEXT
  5
1CB
330
17
100
AcDbEntity
  8
TEXTO
 62
7
100
AcDbText
 10
650.12
 20
583.5
 30
0.0
 40
2.8
  1
CORTE A-A
 72
1
 11
650.12
 21
583.5
 31
0.0
100
AcDbText
 73
2
  0
TEXT
  5
1CC
330
17
100
AcDbEntity
  8
TEXTO
 62
7
100
AcDbText
 10
650.12
 20
579.0
 30
0.0
 40
2.7
  1
500x550
 72
1
 11
650.12
 21
579.0
 31
0.0
100
AcDbText
 73
2
  0
LWPOLYLINE
  5
1CD
330
17
100
AcDbEntity
  8
CORTE
 62
7
370
20
100
AcDbPolyline
 90
4
 70
1
 10
752.08
 20
589.0
 10
784.08
 20
589.0
 10
784.08
 20
629.0
 10
752.08
 20
629.0
  0
LWPOLYLINE
  5
1CE
330
17
100
AcDbEntity
  8
ESTRIBOS
 62
7
370
18
100
AcDbPolyline
 90
4
 70
1
 10
755.08
 20
592.0
 10
781.08
 20
592.0
 10
781.08
 20
626.0
 10
755.08
 20
626.0
  0
LINE
  5
1CF
330
17
100
AcDbEntity
  8
ESTRIBOS
 62
7
370
18
100
AcDbLine
 10
762.7466666666667
 20
592.0
 30
0.0
 11
762.7466666666667
 21
626.0
 31
0.0
  0
LINE
  5
1D0
330
17
100
AcDbEntity
  8
ESTRIBOS
 62
7
370
18
100
AcDbLine
 10
773.4133333333334
 20
592.0
 30
0.0
 11
773.4133333333334
 21
626.0
 31
0.0
  0
CIRCLE
  5
1D1
330
17
100
AcDbEntity
  8
ACERO_SUP
 62
5
100
AcDbCircle
 10
757.38
 20
623.7
 30
0.0
 40
1.0
  0
CIRCLE
  5
1D2
330
17
100
AcDbEntity
  8
ACERO_SUP
 62
5
100
AcDbCircle
 10
761.66
 20
623.7
 30
0.0
 40
1.0
  0
CIRCLE
  5
1D3
330
17
100
AcDbEntity
  8
ACERO_SUP
 62
5
100
AcDbCircle
 10
765.9399999999999
 20
623.7
 30
0.0
 40
1.0
  0
CIRCLE
  5
1D4
330
17
100
AcDbEntity
  8
ACERO_SUP
 62
5
100
AcDbCircle
 10
770.22
 20
623.7
 30
0.0
 40
1.0
  0
CIRCLE
  5
1D5
330
17
100
AcDbEntity
  8
ACERO_SUP
 62
5
100
AcDbCircle
 10
774.5
 20
623.7
 30
0.0
 40
1.0
  0
CIRCLE
  5
1D6
330
17
100
AcDbEntity
  8
ACERO_SUP
 62
5
100
AcDbCircle
 10
778.78
 20
623.7
 30
0.0
 40
1.0
  0
CIRCLE
  5
1D7
330
17
100
AcDbEntity
  8
ACERO_INF
 62
1
100
AcDbCircle
 10
757.38
 20
594.3
 30
0.0
 40
1.0
  0
CIRCLE
  5
1D8
330
17
100
AcDbEntity
  8
ACERO_INF
 62
1
100
AcDbCircle
 10
762.73
 20
594.3
 30
0.0
 40
1.0
  0
CIRCLE
  5
1D9
330
17
100
AcDbEntity
  8
ACERO_INF
 62
1
100
AcDbCircle
 10
768.08
 20
594.3
 30
0.0
 40
1.0
  0
CIRCLE
  5
1DA
330
17
100
AcDbEntity
  8
ACERO_INF
 62
1
100
AcDbCircle
 10
773.43
 20
594.3
 30
0.0
 40
1.0
  0
CIRCLE
  5
1DB
330
17
100
AcDbEntity
  8
ACERO_INF
 62
1
100
AcDbCircle
 10
778.78
 20
594.3
 30
0.0
 40
1.0
  0
CIRCLE
  5
1DC
330
17
100
AcDbEntity
  8
ACERO_TOR
 62
30
100
AcDbCircle
 10
757.2800000000001
 20
609.0
 30
0.0
 40
0.9
  0
CIRCLE
  5
1DD
330
17
100
AcDbEntity
  8
ACERO_TOR
 62
30
100
AcDbCircle
 10
778.88
 20
609.0
 30
0.0
 40
0.9
  0
TEXT
  5
1DE
330
17
100
AcDbEntity
  8
TEXTO
 62
7
100
AcDbText
 10
768.08
 20
583.5
 30
0.0
 40
2.8
  1
CORTE B-B
 72
1
 11
768.08
 21
583.5
 31
0.0
100
AcDbText
 73
2
  0
TEXT
  5
1DF
330
17
100
AcDbEntity
  8
TEXTO
 62
7
100
AcDbText
 10
768.08
 20
579.0
 30
0.0
 40
2.7
  1
500x550
 72
1
 11
768.08
 21
579.0
 31
0.0
100
AcDbText
 73
2
  0
LWPOLYLINE
  5
1E0
330
17
100
AcDbEntity
  8
CORTE
 62
7
370
20
100
AcDbPolyline
 90
4
 70
1
 10
870.04
 20
589.0
 10
902.04
 20
589.0
 10
902.04
 20
629.0
 10
870.04
 20
629.0
  0
LWPOLYLINE
  5
1E1
330
17
100
AcDbEntity
  8
ESTRIBOS
 62
7
370
18
100
AcDbPolyline
 90
4
 70
1
 10
873.04
 20
592.0
 10
899.04
 20
592.0
 10
899.04
 20
626.0
 10
873.04
 20
626.0
  0
LINE
  5
1E2
330
17
100
AcDbEntity
  8
ESTRIBOS
 62
7
370
18
100
AcDbLine
 10
880.7066666666666
 20
592.0
 30
0.0
 11
880.7066666666666
 21
626.0
 31
0.0
  0
LINE
  5
1E3
330
17
100
AcDbEntity
  8
ESTRIBOS
 62
7
370
18
100
AcDbLine
 10
891.3733333333333
 20
592.0
 30
0.0
 11
891.3733333333333
 21
626.0
 31
0.0
  0
CIRCLE
  5
1E4
330
17
100
AcDbEntity
  8
ACERO_SUP
 62
5
100
AcDbCircle
 10
875.3399999999999
 20
623.7
 30
0.0
 40
1.0
  0
CIRCLE
  5
1E5
330
17
100
AcDbEntity
  8
ACERO_SUP
 62
5
100
AcDbCircle
 10
879.6199999999999
 20
623.7
 30
0.0
 40
1.0
  0
CIRCLE
  5
1E6
330
17
100
AcDbEntity
  8
ACERO_SUP
 62
5
100
AcDbCircle
 10
883.8999999999999
 20
623.7
 30
0.0
 40
1.0
  0
CIRCLE
  5
1E7
330
17
100
AcDbEntity
  8
ACERO_SUP
 62
5
100
AcDbCircle
 10
888.18
 20
623.7
 30
0.0
 40
1.0
  0
CIRCLE
  5
1E8
330
17
100
AcDbEntity
  8
ACERO_SUP
 62
5
100
AcDbCircle
 10
892.4599999999999
 20
623.7
 30
0.0
 40
1.0
  0
CIRCLE
  5
1E9
330
17
100
AcDbEntity
  8
ACERO_SUP
 62
5
100
AcDbCircle
 10
896.7399999999999
 20
623.7
 30
0.0
 40
1.0
  0
CIRCLE
  5
1EA
330
17
100
AcDbEntity
  8
ACERO_INF
 62
1
100
AcDbCircle
 10
875.3399999999999
 20
594.3
 30
0.0
 40
1.0
  0
CIRCLE
  5
1EB
330
17
100
AcDbEntity
  8
ACERO_INF
 62
1
100
AcDbCircle
 10
880.6899999999999
 20
594.3
 30
0.0
 40
1.0
  0
CIRCLE
  5
1EC
330
17
100
AcDbEntity
  8
ACERO_INF
 62
1
100
AcDbCircle
 10
886.04
 20
594.3
 30
0.0
 40
1.0
  0
CIRCLE
  5
1ED
330
17
100
AcDbEntity
  8
ACERO_INF
 62
1
100
AcDbCircle
 10
891.3899999999999
 20
594.3
 30
0.0
 40
1.0
  0
CIRCLE
  5
1EE
330
17
100
AcDbEntity
  8
ACERO_INF
 62
1
100
AcDbCircle
 10
896.7399999999999
 20
594.3
 30
0.0
 40
1.0
  0
CIRCLE
  5
1EF
330
17
100
AcDbEntity
  8
ACERO_TOR
 62
30
100
AcDbCircle
 10
875.24
 20
609.0
 30
0.0
 40
0.9
  0
CIRCLE
  5
1F0
330
17
100
AcDbEntity
  8
ACERO_TOR
 62
30
100
AcDbCircle
 10
896.8399999999999
 20
609.0
 30
0.0
 40
0.9
  0
TEXT
  5
1F1
330
17
100
AcDbEntity
  8
TEXTO
 62
7
100
AcDbText
 10
886.04
 20
583.5
 30
0.0
 40
2.8
  1
CORTE C-C
 72
1
 11
886.04
 21
583.5
 31
0.0
100
AcDbText
 73
2
  0
TEXT
  5
1F2
330
17
100
AcDbEntity
  8
TEXTO
 62
7
100
AcDbText
 10
886.04
 20
579.0
 30
0.0
 40
2.7
  1
500x550
 72
1
 11
886.04
 21
579.0
 31
0.0
100
AcDbText
 73
2
  0
TEXT
  5
1F3
330
17
100
AcDbEntity
  8
TEXTO
 62
7
100
AcDbText
 10
519.5
 20
576.0
 30
0.0
 40
2.8
  1
22 frames | variantes de longitud: 5
 11
519.5
 21
576.0
 31
0.0
100
AcDbText
  0
TEXT
  5
1F4
330
17
100
AcDbEntity
  8
TEXTO
 62
3
100
AcDbText
 10
997.0
 20
576.0
 30
0.0
 40
2.8
  1
Verificacion seccional: CUMPLE
 72
2
 11
997.0
 21
576.0
 31
0.0
100
AcDbText
  0
LWPOLYLINE
  5
1F5
330
17
100
AcDbEntity
  8
GUIA
 62
9
370
9
100
AcDbPolyline
 90
4
 70
1
 10
15.0
 20
300.0
 10
506.5
 20
300.0
 10
506.5
 20
560.0
 10
15.0
 20
560.0
  0
TEXT
  5
1F6
330
17
100
AcDbEntity
  8
TITULO
 62
6
100
AcDbText
 10
260.75
 20
550.0
 30
0.0
 40
4.8
  1
DESPIECE VIGA VR2
 72
1
 11
260.75
 21
550.0
 31
0.0
100
AcDbText
 73
2
  0
TEXT
  5
1F7
330
17
100
AcDbEntity
  8
TITULO
 62
6
100
AcDbText
 10
22.0
 20
537.0
 30
0.0
 40
3.6
  1
PISO TIPO
 11
22.0
 21
537.0
 31
0.0
100
AcDbText
  0
TEXT
  5
1F8
330
17
100
AcDbEntity
  8
TITULO
 62
6
100
AcDbText
 10
22.0
 20
529.0
 30
0.0
 40
3.6
  1
50x55 cm
 11
22.0
 21
529.0
 31
0.0
100
AcDbText
  0
LINE
  5
1F9
330
17
100
AcDbEntity
  8
APOYOS
 62
4
370
18
100
AcDbLine
 10
72.0
 20
478.0
 30
0.0
 11
72.0
 21
529.0
 31
0.0
  0
LINE
  5
1FA
330
17
100
AcDbEntity
  8
APOYOS
 62
4
370
18
100
AcDbLine
 10
80.0
 20
478.0
 30
0.0
 11
80.0
 21
529.0
 31
0.0
  0
LINE
  5
1FB
330
17
100
AcDbEntity
  8
EJES
 62
8
370
9
100
AcDbLine
 10
76.0
 20
474.0
 30
0.0
 11
76.0
 21
534.0
 31
0.0
  0
CIRCLE
  5
1FC
330
17
100
AcDbEntity
  8
EJES
 62
8
100
AcDbCircle
 10
76.0
 20
528.0
 30
0.0
 40
4.5
  0
TEXT
  5
1FD
330
17
100
AcDbEntity
  8
EJES
 62
8
100
AcDbText
 10
76.0
 20
526.85
 30
0.0
 40
2.6
  1
I
 72
1
 11
76.0
 21
526.85
 31
0.0
100
AcDbText
 73
2
  0
LINE
  5
1FE
330
17
100
AcDbEntity
  8
APOYOS
 62
4
370
18
100
AcDbLine
 10
483.5
 20
478.0
 30
0.0
 11
483.5
 21
529.0
 31
0.0
  0
LINE
  5
1FF
330
17
100
AcDbEntity
  8
APOYOS
 62
4
370
18
100
AcDbLine
 10
491.5
 20
478.0
 30
0.0
 11
491.5
 21
529.0
 31
0.0
  0
LINE
  5
200
330
17
100
AcDbEntity
  8
EJES
 62
8
370
9
100
AcDbLine
 10
487.5
 20
474.0
 30
0.0
 11
487.5
 21
534.0
 31
0.0
  0
CIRCLE
  5
201
330
17
100
AcDbEntity
  8
EJES
 62
8
100
AcDbCircle
 10
487.5
 20
528.0
 30
0.0
 40
4.5
  0
TEXT
  5
202
330
17
100
AcDbEntity
  8
EJES
 62
8
100
AcDbText
 10
487.5
 20
526.85
 30
0.0
 40
2.6
  1
J
 72
1
 11
487.5
 21
526.85
 31
0.0
100
AcDbText
 73
2
  0
LINE
  5
203
330
17
100
AcDbEntity
  8
EJES
 62
8
370
9
100
AcDbLine
 10
213.16666666666666
 20
480.0
 30
0.0
 11
213.16666666666666
 21
531.0
 31
0.0
  0
CIRCLE
  5
204
330
17
100
AcDbEntity
  8
EJES
 62
8
100
AcDbCircle
 10
213.16666666666666
 20
528.0
 30
0.0
 40
4.2
  0
TEXT
  5
205
330
17
100
AcDbEntity
  8
EJES
 62
8
100
AcDbText
 10
213.16666666666666
 20
526.85
 30
0.0
 40
2.6
  1
1
 72
1
 11
213.16666666666666
 21
526.85
 31
0.0
100
AcDbText
 73
2
  0
LINE
  5
206
330
17
100
AcDbEntity
  8
EJES
 62
8
370
9
100
AcDbLine
 10
350.3333333333333
 20
480.0
 30
0.0
 11
350.3333333333333
 21
531.0
 31
0.0
  0
CIRCLE
  5
207
330
17
100
AcDbEntity
  8
EJES
 62
8
100
AcDbCircle
 10
350.3333333333333
 20
528.0
 30
0.0
 40
4.2
  0
TEXT
  5
208
330
17
100
AcDbEntity
  8
EJES
 62
8
100
AcDbText
 10
350.3333333333333
 20
526.85
 30
0.0
 40
2.6
  1
2
 72
1
 11
350.3333333333333
 21
526.85
 31
0.0
100
AcDbText
 73
2
  0
LWPOLYLINE
  5
209
330
17
100
AcDbEntity
  8
CONTORNO
 62
7
370
18
100
AcDbPolyline
 90
4
 70
1
 10
76.0
 20
493.0
 10
487.5
 20
493.0
 10
487.5
 20
514.0
 10
76.0
 20
514.0
  0
LINE
  5
20A
330
17
100
AcDbEntity
  8
ACERO_SUP
 62
5
370
30
100
AcDbLine
 10
76.0
 20
510.5
 30
0.0
 11
487.5
 21
510.5
 31
0.0
  0
LINE
  5
20B
330
17
100
AcDbEntity
  8
ACERO_SUP
 62
5
370
30
100
AcDbLine
 10
76.0
 20
508.4
 30
0.0
 11
487.5
 21
508.4
 31
0.0
  0
LINE
  5
20C
330
17
100
AcDbEntity
  8
ACERO_SUP
 62
5
370
30
100
AcDbLine
 10
76.0
 20
506.3
 30
0.0
 11
487.5
 21
506.3
 31
0.0
  0
LINE
  5
20D
330
17
100
AcDbEntity
  8
ACERO_ADIC
 62
2
370
30
100
AcDbLine
 10
76.0
 20
504.0
 30
0.0
 11
224.14
 21
504.0
 31
0.0
  0
LINE
  5
20E
330
17
100
AcDbEntity
  8
ACERO_ADIC
 62
2
370
30
100
AcDbLine
 10
339.36
 20
504.0
 30
0.0
 11
487.5
 21
504.0
 31
0.0
  0
LINE
  5
20F
330
17
100
AcDbEntity
  8
ACERO_ADIC
 62
2
370
30
100
AcDbLine
 10
76.0
 20
502.5
 30
0.0
 11
224.14
 21
502.5
 31
0.0
  0
LINE
  5
210
330
17
100
AcDbEntity
  8
ACERO_ADIC
 62
2
370
30
100
AcDbLine
 10
339.36
 20
502.5
 30
0.0
 11
487.5
 21
502.5
 31
0.0
  0
LINE
  5
211
330
17
100
AcDbEntity
  8
ACERO_ADIC
 62
2
370
30
100
AcDbLine
 10
76.0
 20
501.0
 30
0.0
 11
224.14
 21
501.0
 31
0.0
  0
LINE
  5
212
330
17
100
AcDbEntity
  8
ACERO_ADIC
 62
2
370
30
100
AcDbLine
 10
339.36
 20
501.0
 30
0.0
 11
487.5
 21
501.0
 31
0.0
  0
LINE
  5
213
330
17
100
AcDbEntity
  8
ACERO_ADIC
 62
2
370
30
100
AcDbLine
 10
76.0
 20
499.5
 30
0.0
 11
224.14
 21
499.5
 31
0.0
  0
LINE
  5
214
330
17
100
AcDbEntity
  8
ACERO_ADIC
 62
2
370
30
100
AcDbLine
 10
339.36
 20
499.5
 30
0.0
 11
487.5
 21
499.5
 31
0.0
  0
LINE
  5
215
330
17
100
AcDbEntity
  8
ACERO_INF
 62
1
370
30
100
AcDbLine
 10
76.0
 20
496.5
 30
0.0
 11
487.5
 21
496.5
 31
0.0
  0
LINE
  5
216
330
17
100
AcDbEntity
  8
ACERO_INF
 62
1
370
30
100
AcDbLine
 10
76.0
 20
498.3
 30
0.0
 11
487.5
 21
498.3
 31
0.0
  0
LINE
  5
217
330
17
100
AcDbEntity
  8
ACERO_INF
 62
1
370
30
100
AcDbLine
 10
76.0
 20
500.1
 30
0.0
 11
487.5
 21
500.1
 31
0.0
  0
LINE
  5
218
330
17
100
AcDbEntity
  8
ACERO_INF
 62
1
370
30
100
AcDbLine
 10
76.0
 20
501.9
 30
0.0
 11
487.5
 21
501.9
 31
0.0
  0
LINE
  5
219
330
17
100
AcDbEntity
  8
ESTRIBOS
 62
7
370
9
100
AcDbLine
 10
79.0
 20
494.0
 30
0.0
 11
79.0
 21
513.0
 31
0.0
  0
LINE
  5
21A
330
17
100
AcDbEntity
  8
ESTRIBOS
 62
7
370
9
100
AcDbLine
 10
87.86827964713657
 20
494.0
 30
0.0
 11
87.86827964713657
 21
513.0
 31
0.0
  0
LINE
  5
21B
330
17
100
AcDbEntity
  8
ESTRIBOS
 62
7
370
9
100
AcDbLine
 10
96.73655929427315
 20
494.0
 30
0.0
 11
96.73655929427315
 21
513.0
 31
0.0
  0
LINE
  5
21C
330
17
100
AcDbEntity
  8
ESTRIBOS
 62
7
370
9
100
AcDbLine
 10
105.60483894140972
 20
494.0
 30
0.0
 11
105.60483894140972
 21
513.0
 31
0.0
  0
LINE
  5
21D
330
17
100
AcDbEntity
  8
ESTRIBOS
 62
7
370
9
100
AcDbLine
 10
114.4731185885463
 20
494.0
 30
0.0
 11
114.4731185885463
 21
513.0
 31
0.0
  0
LINE
  5
21E
330
17
100
AcDbEntity
  8
ESTRIBOS
 62
7
370
9
100
AcDbLine
 10
123.34139823568287
 20
494.0
 30
0.0
 11
123.34139823568287
 21
513.0
 31
0.0
  0
LINE
  5
21F
330
17
100
AcDbEntity
  8
ESTRIBOS
 62
7
370
9
100
AcDbLine
 10
132.20967788281945
 20
494.0
 30
0.0
 11
132.20967788281945
 21
513.0
 31
0.0
  0
LINE
  5
220
330
17
100
AcDbEntity
  8
ESTRIBOS
 62
7
370
9
100
AcDbLine
 10
141.07795752995602
 20
494.0
 30
0.0
 11
141.07795752995602
 21
513.0
 31
0.0
  0
LINE
  5
221
330
17
100
AcDbEntity
  8
ESTRIBOS
 62
7
370
9
100
AcDbLine
 10
149.9462371770926
 20
494.0
 30
0.0
 11
149.9462371770926
 21
513.0
 31
0.0
  0
LINE
  5
222
330
17
100
AcDbEntity
  8
ESTRIBOS
 62
7
370
9
100
AcDbLine
 10
158.81451682422917
 20
494.0
 30
0.0
 11
158.81451682422917
 21
513.0
 31
0.0
  0
LINE
  5
223
330
17
100
AcDbEntity
  8
ESTRIBOS
 62
7
370
9
100
AcDbLine
 10
167.68279647136575
 20
494.0
 30
0.0
 11
167.68279647136575
 21
513.0
 31
0.0
  0
LINE
  5
224
330
17
100
AcDbEntity
  8
ESTRIBOS
 62
7
370
9
100
AcDbLine
 10
176.55107611850232
 20
494.0
 30
0.0
 11
176.55107611850232
 21
513.0
 31
0.0
  0
LINE
  5
225
330
17
100
AcDbEntity
  8
ESTRIBOS
 62
7
370
9
100
AcDbLine
 10
184.39008457611374
 20
494.0
 30
0.0
 11
184.39008457611374
 21
513.0
 31
0.0
  0
LINE
  5
226
330
17
100
AcDbEntity
  8
ESTRIBOS
 62
7
370
9
100
AcDbLine
 10
193.2583642232503
 20
494.0
 30
0.0
 11
193.2583642232503
 21
513.0
 31
0.0
  0
LINE
  5
227
330
17
100
AcDbEntity
  8
ESTRIBOS
 62
7
370
9
100
AcDbLine
 10
202.12664387038689
 20
494.0
 30
0.0
 11
202.12664387038689
 21
513.0
 31
0.0
  0
LINE
  5
228
330
17
100
AcDbEntity
  8
ESTRIBOS
 62
7
370
9
100
AcDbLine
 10
210.99492351752346
 20
494.0
 30
0.0
 11
210.99492351752346
 21
513.0
 31
0.0
  0
LINE
  5
229
330
17
100
AcDbEntity
  8
ESTRIBOS
 62
7
370
9
100
AcDbLine
 10
219.86320316466004
 20
494.0
 30
0.0
 11
219.86320316466004
 21
513.0
 31
0.0
  0
LINE
  5
22A
330
17
100
AcDbEntity
  8
ESTRIBOS
 62
7
370
9
100
AcDbLine
 10
228.7314828117966
 20
494.0
 30
0.0
 11
228.7314828117966
 21
513.0
 31
0.0
  0
LINE
  5
22B
330
17
100
AcDbEntity
  8
ESTRIBOS
 62
7
370
9
100
AcDbLine
 10
237.59976245893318
 20
494.0
 30
0.0
 11
237.59976245893318
 21
513.0
 31
0.0
  0
LINE
  5
22C
330
17
100
AcDbEntity
  8
ESTRIBOS
 62
7
370
9
100
AcDbLine
 10
246.46804210606976
 20
494.0
 30
0.0
 11
246.46804210606976
 21
513.0
 31
0.0
  0
LINE
  5
22D
330
17
100
AcDbEntity
  8
ESTRIBOS
 62
7
370
9
100
AcDbLine
 10
255.33632175320633
 20
494.0
 30
0.0
 11
255.33632175320633
 21
513.0
 31
0.0
  0
LINE
  5
22E
330
17
100
AcDbEntity
  8
ESTRIBOS
 62
7
370
9
100
AcDbLine
 10
264.20460140034294
 20
494.0
 30
0.0
 11
264.20460140034294
 21
513.0
 31
0.0
  0
LINE
  5
22F
330
17
100
AcDbEntity
  8
ESTRIBOS
 62
7
370
9
100
AcDbLine
 10
273.07288104747954
 20
494.0
 30
0.0
 11
273.07288104747954
 21
513.0
 31
0.0
  0
LINE
  5
230
330
17
100
AcDbEntity
  8
ESTRIBOS
 62
7
370
9
100
AcDbLine
 10
281.94116069461614
 20
494.0
 30
0.0
 11
281.94116069461614
 21
513.0
 31
0.0
  0
LINE
  5
231
330
17
100
AcDbEntity
  8
ESTRIBOS
 62
7
370
9
100
AcDbLine
 10
290.80944034175275
 20
494.0
 30
0.0
 11
290.80944034175275
 21
513.0
 31
0.0
  0
LINE
  5
232
330
17
100
AcDbEntity
  8
ESTRIBOS
 62
7
370
9
100
AcDbLine
 10
299.67771998888935
 20
494.0
 30
0.0
 11
299.67771998888935
 21
513.0
 31
0.0
  0
LINE
  5
233
330
17
100
AcDbEntity
  8
ESTRIBOS
 62
7
370
9
100
AcDbLine
 10
308.54599963602595
 20
494.0
 30
0.0
 11
308.54599963602595
 21
513.0
 31
0.0
  0
LINE
  5
234
330
17
100
AcDbEntity
  8
ESTRIBOS
 62
7
370
9
100
AcDbLine
 10
317.41427928316256
 20
494.0
 30
0.0
 11
317.41427928316256
 21
513.0
 31
0.0
  0
LINE
  5
235
330
17
100
AcDbEntity
  8
ESTRIBOS
 62
7
370
9
100
AcDbLine
 10
326.28255893029916
 20
494.0
 30
0.0
 11
326.28255893029916
 21
513.0
 31
0.0
  0
LINE
  5
236
330
17
100
AcDbEntity
  8
ESTRIBOS
 62
7
370
9
100
AcDbLine
 10
335.15083857743576
 20
494.0
 30
0.0
 11
335.15083857743576
 21
513.0
 31
0.0
  0
LINE
  5
237
330
17
100
AcDbEntity
  8
ESTRIBOS
 62
7
370
9
100
AcDbLine
 10
344.01911822457237
 20
494.0
 30
0.0
 11
344.01911822457237
 21
513.0
 31
0.0
  0
LINE
  5
238
330
17
100
AcDbEntity
  8
ESTRIBOS
 62
7
370
9
100
AcDbLine
 10
352.88739787170897
 20
494.0
 30
0.0
 11
352.88739787170897
 21
513.0
 31
0.0
  0
LINE
  5
239
330
17
100
AcDbEntity
  8
ESTRIBOS
 62
7
370
9
100
AcDbLine
 10
361.7556775188456
 20
494.0
 30
0.0
 11
361.7556775188456
 21
513.0
 31
0.0
  0
LINE
  5
23A
330
17
100
AcDbEntity
  8
ESTRIBOS
 62
7
370
9
100
AcDbLine
 10
370.6239571659822
 20
494.0
 30
0.0
 11
370.6239571659822
 21
513.0
 31
0.0
  0
LINE
  5
23B
330
17
100
AcDbEntity
  8
ESTRIBOS
 62
7
370
9
100
AcDbLine
 10
379.10991542388626
 20
494.0
 30
0.0
 11
379.10991542388626
 21
513.0
 31
0.0
  0
LINE
  5
23C
330
17
100
AcDbEntity
  8
ESTRIBOS
 62
7
370
9
100
AcDbLine
 10
387.97819507102287
 20
494.0
 30
0.0
 11
387.97819507102287
 21
513.0
 31
0.0
  0
LINE
  5
23D
330
17
100
AcDbEntity
  8
ESTRIBOS
 62
7
370
9
100
AcDbLine
 10
396.84647471815947
 20
494.0
 30
0.0
 11
396.84647471815947
 21
513.0
 31
0.0
  0
LINE
  5
23E
330
17
100
AcDbEntity
  8
ESTRIBOS
 62
7
370
9
100
AcDbLine
 10
405.7147543652961
 20
494.0
 30
0.0
 11
405.7147543652961
 21
513.0
 31
0.0
  0
LINE
  5
23F
330
17
100
AcDbEntity
  8
ESTRIBOS
 62
7
370
9
100
AcDbLine
 10
414.5830340124327
 20
494.0
 30
0.0
 11
414.5830340124327
 21
513.0
 31
0.0
  0
LINE
  5
240
330
17
100
AcDbEntity
  8
ESTRIBOS
 62
7
370
9
100
AcDbLine
 10
423.4513136595693
 20
494.0
 30
0.0
 11
423.4513136595693
 21
513.0
 31
0.0
  0
LINE
  5
241
330
17
100
AcDbEntity
  8
ESTRIBOS
 62
7
370
9
100
AcDbLine
 10
432.3195933067059
 20
494.0
 30
0.0
 11
432.3195933067059
 21
513.0
 31
0.0
  0
LINE
  5
242
330
17
100
AcDbEntity
  8
ESTRIBOS
 62
7
370
9
100
AcDbLine
 10
441.1878729538425
 20
494.0
 30
0.0
 11
441.1878729538425
 21
513.0
 31
0.0
  0
LINE
  5
243
330
17
100
AcDbEntity
  8
ESTRIBOS
 62
7
370
9
100
AcDbLine
 10
450.0561526009791
 20
494.0
 30
0.0
 11
450.0561526009791
 21
513.0
 31
0.0
  0
LINE
  5
244
330
17
100
AcDbEntity
  8
ESTRIBOS
 62
7
370
9
100
AcDbLine
 10
458.9244322481157
 20
494.0
 30
0.0
 11
458.9244322481157
 21
513.0
 31
0.0
  0
LINE
  5
245
330
17
100
AcDbEntity
  8
ESTRIBOS
 62
7
370
9
100
AcDbLine
 10
467.7927118952523
 20
494.0
 30
0.0
 11
467.7927118952523
 21
513.0
 31
0.0
  0
LINE
  5
246
330
17
100
AcDbEntity
  8
ESTRIBOS
 62
7
370
9
100
AcDbLine
 10
476.6609915423889
 20
494.0
 30
0.0
 11
476.6609915423889
 21
513.0
 31
0.0
  0
LINE
  5
247
330
17
100
AcDbEntity
  8
COTAS
 62
3
370
18
100
AcDbLine
 10
76.0
 20
482.0
 30
0.0
 11
487.5
 21
482.0
 31
0.0
  0
LINE
  5
248
330
17
100
AcDbEntity
  8
COTAS
 62
3
370
18
100
AcDbLine
 10
76.0
 20
480.0
 30
0.0
 11
76.0
 21
484.0
 31
0.0
  0
LINE
  5
249
330
17
100
AcDbEntity
  8
COTAS
 62
3
370
18
100
AcDbLine
 10
487.5
 20
480.0
 30
0.0
 11
487.5
 21
484.0
 31
0.0
  0
TEXT
  5
24A
330
17
100
AcDbEntity
  8
COTAS
 62
3
100
AcDbText
 10
281.75
 20
484.5
 30
0.0
 40
3.0
  1
L SAP I-J = 1.500 a 4.176 m
 72
1
 11
281.75
 21
484.5
 31
0.0
100
AcDbText
 73
2
  0
TEXT
  5
24B
330
17
100
AcDbEntity
  8
TEXTO
 62
7
100
AcDbText
 10
281.75
 20
477.0
 30
0.0
 40
2.7
  1
Ln calculo = 0.900 a 3.576 m
 72
1
 11
281.75
 21
477.0
 31
0.0
100
AcDbText
 73
2
  0
TEXT
  5
24C
330
17
100
AcDbEntity
  8
TEXTO
 62
7
100
AcDbText
 10
76.0
 20
473.0
 30
0.0
 40
2.8
  1
SUP: 7#5 | INF: 5#5 | TOR: 16#5 adicionales
 11
76.0
 21
473.0
 31
0.0
100
AcDbText
  0
TEXT
  5
24D
330
17
100
AcDbEntity
  8
TEXTO
 62
7
100
AcDbText
 10
76.0
 20
467.0
 30
0.0
 40
2.8
  1
EST Nº4 4R: 1ro <=50; @90 en 2h; @90 centro
 11
76.0
 21
467.0
 31
0.0
100
AcDbText
  0
LWPOLYLINE
  5
24E
330
17
100
AcDbEntity
  8
CORTE
 62
7
370
20
100
AcDbPolyline
 90
4
 70
1
 10
136.62
 20
323.0
 10
168.62
 20
323.0
 10
168.62
 20
363.0
 10
136.62
 20
363.0
  0
LWPOLYLINE
  5
24F
330
17
100
AcDbEntity
  8
ESTRIBOS
 62
7
370
18
100
AcDbPolyline
 90
4
 70
1
 10
139.62
 20
326.0
 10
165.62
 20
326.0
 10
165.62
 20
360.0
 10
139.62
 20
360.0
  0
LINE
  5
250
330
17
100
AcDbEntity
  8
ESTRIBOS
 62
7
370
18
100
AcDbLine
 10
147.28666666666666
 20
326.0
 30
0.0
 11
147.28666666666666
 21
360.0
 31
0.0
  0
LINE
  5
251
330
17
100
AcDbEntity
  8
ESTRIBOS
 62
7
370
18
100
AcDbLine
 10
157.95333333333335
 20
326.0
 30
0.0
 11
157.95333333333335
 21
360.0
 31
0.0
  0
CIRCLE
  5
252
330
17
100
AcDbEntity
  8
ACERO_SUP
 62
5
100
AcDbCircle
 10
141.92000000000002
 20
357.7
 30
0.0
 40
1.0
  0
CIRCLE
  5
253
330
17
100
AcDbEntity
  8
ACERO_SUP
 62
5
100
AcDbCircle
 10
145.48666666666668
 20
357.7
 30
0.0
 40
1.0
  0
CIRCLE
  5
254
330
17
100
AcDbEntity
  8
ACERO_SUP
 62
5
100
AcDbCircle
 10
149.05333333333334
 20
357.7
 30
0.0
 40
1.0
  0
CIRCLE
  5
255
330
17
100
AcDbEntity
  8
ACERO_SUP
 62
5
100
AcDbCircle
 10
152.62
 20
357.7
 30
0.0
 40
1.0
  0
CIRCLE
  5
256
330
17
100
AcDbEntity
  8
ACERO_SUP
 62
5
100
AcDbCircle
 10
156.18666666666667
 20
357.7
 30
0.0
 40
1.0
  0
CIRCLE
  5
257
330
17
100
AcDbEntity
  8
ACERO_SUP
 62
5
100
AcDbCircle
 10
159.75333333333336
 20
357.7
 30
0.0
 40
1.0
  0
CIRCLE
  5
258
330
17
100
AcDbEntity
  8
ACERO_SUP
 62
5
100
AcDbCircle
 10
163.32000000000002
 20
357.7
 30
0.0
 40
1.0
  0
CIRCLE
  5
259
330
17
100
AcDbEntity
  8
ACERO_INF
 62
1
100
AcDbCircle
 10
141.92000000000002
 20
328.3
 30
0.0
 40
1.0
  0
CIRCLE
  5
25A
330
17
100
AcDbEntity
  8
ACERO_INF
 62
1
100
AcDbCircle
 10
147.27
 20
328.3
 30
0.0
 40
1.0
  0
CIRCLE
  5
25B
330
17
100
AcDbEntity
  8
ACERO_INF
 62
1
100
AcDbCircle
 10
152.62
 20
328.3
 30
0.0
 40
1.0
  0
CIRCLE
  5
25C
330
17
100
AcDbEntity
  8
ACERO_INF
 62
1
100
AcDbCircle
 10
157.97000000000003
 20
328.3
 30
0.0
 40
1.0
  0
CIRCLE
  5
25D
330
17
100
AcDbEntity
  8
ACERO_INF
 62
1
100
AcDbCircle
 10
163.32000000000002
 20
328.3
 30
0.0
 40
1.0
  0
CIRCLE
  5
25E
330
17
100
AcDbEntity
  8
ACERO_TOR
 62
30
100
AcDbCircle
 10
141.82
 20
343.0
 30
0.0
 40
0.9
  0
CIRCLE
  5
25F
330
17
100
AcDbEntity
  8
ACERO_TOR
 62
30
100
AcDbCircle
 10
163.42000000000002
 20
343.0
 30
0.0
 40
0.9
  0
TEXT
  5
260
330
17
100
AcDbEntity
  8
TEXTO
 62
7
100
AcDbText
 10
152.62
 20
317.5
 30
0.0
 40
2.8
  1
CORTE A-A
 72
1
 11
152.62
 21
317.5
 31
0.0
100
AcDbText
 73
2
  0
TEXT
  5
261
330
17
100
AcDbEntity
  8
TEXTO
 62
7
100
AcDbText
 10
152.62
 20
313.0
 30
0.0
 40
2.7
  1
500x550
 72
1
 11
152.62
 21
313.0
 31
0.0
100
AcDbText
 73
2
  0
LWPOLYLINE
  5
262
330
17
100
AcDbEntity
  8
CORTE
 62
7
370
20
100
AcDbPolyline
 90
4
 70
1
 10
254.58000000000004
 20
323.0
 10
286.58000000000004
 20
323.0
 10
286.58000000000004
 20
363.0
 10
254.58000000000004
 20
363.0
  0
LWPOLYLINE
  5
263
330
17
100
AcDbEntity
  8
ESTRIBOS
 62
7
370
18
100
AcDbPolyline
 90
4
 70
1
 10
257.58000000000004
 20
326.0
 10
283.58000000000004
 20
326.0
 10
283.58000000000004
 20
360.0
 10
257.58000000000004
 20
360.0
  0
LINE
  5
264
330
17
100
AcDbEntity
  8
ESTRIBOS
 62
7
370
18
100
AcDbLine
 10
265.2466666666667
 20
326.0
 30
0.0
 11
265.2466666666667
 21
360.0
 31
0.0
  0
LINE
  5
265
330
17
100
AcDbEntity
  8
ESTRIBOS
 62
7
370
18
100
AcDbLine
 10
275.91333333333336
 20
326.0
 30
0.0
 11
275.91333333333336
 21
360.0
 31
0.0
  0
CIRCLE
  5
266
330
17
100
AcDbEntity
  8
ACERO_SUP
 62
5
100
AcDbCircle
 10
259.88000000000005
 20
357.7
 30
0.0
 40
1.0
  0
CIRCLE
  5
267
330
17
100
AcDbEntity
  8
ACERO_SUP
 62
5
100
AcDbCircle
 10
263.4466666666667
 20
357.7
 30
0.0
 40
1.0
  0
CIRCLE
  5
268
330
17
100
AcDbEntity
  8
ACERO_SUP
 62
5
100
AcDbCircle
 10
267.0133333333334
 20
357.7
 30
0.0
 40
1.0
  0
CIRCLE
  5
269
330
17
100
AcDbEntity
  8
ACERO_SUP
 62
5
100
AcDbCircle
 10
270.58000000000004
 20
357.7
 30
0.0
 40
1.0
  0
CIRCLE
  5
26A
330
17
100
AcDbEntity
  8
ACERO_SUP
 62
5
100
AcDbCircle
 10
274.1466666666667
 20
357.7
 30
0.0
 40
1.0
  0
CIRCLE
  5
26B
330
17
100
AcDbEntity
  8
ACERO_SUP
 62
5
100
AcDbCircle
 10
277.71333333333337
 20
357.7
 30
0.0
 40
1.0
  0
CIRCLE
  5
26C
330
17
100
AcDbEntity
  8
ACERO_SUP
 62
5
100
AcDbCircle
 10
281.28000000000003
 20
357.7
 30
0.0
 40
1.0
  0
CIRCLE
  5
26D
330
17
100
AcDbEntity
  8
ACERO_INF
 62
1
100
AcDbCircle
 10
259.88000000000005
 20
328.3
 30
0.0
 40
1.0
  0
CIRCLE
  5
26E
330
17
100
AcDbEntity
  8
ACERO_INF
 62
1
100
AcDbCircle
 10
265.2300000000001
 20
328.3
 30
0.0
 40
1.0
  0
CIRCLE
  5
26F
330
17
100
AcDbEntity
  8
ACERO_INF
 62
1
100
AcDbCircle
 10
270.58000000000004
 20
328.3
 30
0.0
 40
1.0
  0
CIRCLE
  5
270
330
17
100
AcDbEntity
  8
ACERO_INF
 62
1
100
AcDbCircle
 10
275.93000000000006
 20
328.3
 30
0.0
 40
1.0
  0
CIRCLE
  5
271
330
17
100
AcDbEntity
  8
ACERO_INF
 62
1
100
AcDbCircle
 10
281.28000000000003
 20
328.3
 30
0.0
 40
1.0
  0
CIRCLE
  5
272
330
17
100
AcDbEntity
  8
ACERO_TOR
 62
30
100
AcDbCircle
 10
259.78000000000003
 20
343.0
 30
0.0
 40
0.9
  0
CIRCLE
  5
273
330
17
100
AcDbEntity
  8
ACERO_TOR
 62
30
100
AcDbCircle
 10
281.38000000000005
 20
343.0
 30
0.0
 40
0.9
  0
TEXT
  5
274
330
17
100
AcDbEntity
  8
TEXTO
 62
7
100
AcDbText
 10
270.58000000000004
 20
317.5
 30
0.0
 40
2.8
  1
CORTE B-B
 72
1
 11
270.58000000000004
 21
317.5
 31
0.0
100
AcDbText
 73
2
  0
TEXT
  5
275
330
17
100
AcDbEntity
  8
TEXTO
 62
7
100
AcDbText
 10
270.58000000000004
 20
313.0
 30
0.0
 40
2.7
  1
500x550
 72
1
 11
270.58000000000004
 21
313.0
 31
0.0
100
AcDbText
 73
2
  0
LWPOLYLINE
  5
276
330
17
100
AcDbEntity
  8
CORTE
 62
7
370
20
100
AcDbPolyline
 90
4
 70
1
 10
372.54
 20
323.0
 10
404.54
 20
323.0
 10
404.54
 20
363.0
 10
372.54
 20
363.0
  0
LWPOLYLINE
  5
277
330
17
100
AcDbEntity
  8
ESTRIBOS
 62
7
370
18
100
AcDbPolyline
 90
4
 70
1
 10
375.54
 20
326.0
 10
401.54
 20
326.0
 10
401.54
 20
360.0
 10
375.54
 20
360.0
  0
LINE
  5
278
330
17
100
AcDbEntity
  8
ESTRIBOS
 62
7
370
18
100
AcDbLine
 10
383.2066666666667
 20
326.0
 30
0.0
 11
383.2066666666667
 21
360.0
 31
0.0
  0
LINE
  5
279
330
17
100
AcDbEntity
  8
ESTRIBOS
 62
7
370
18
100
AcDbLine
 10
393.87333333333333
 20
326.0
 30
0.0
 11
393.87333333333333
 21
360.0
 31
0.0
  0
CIRCLE
  5
27A
330
17
100
AcDbEntity
  8
ACERO_SUP
 62
5
100
AcDbCircle
 10
377.84000000000003
 20
357.7
 30
0.0
 40
1.0
  0
CIRCLE
  5
27B
330
17
100
AcDbEntity
  8
ACERO_SUP
 62
5
100
AcDbCircle
 10
381.4066666666667
 20
357.7
 30
0.0
 40
1.0
  0
CIRCLE
  5
27C
330
17
100
AcDbEntity
  8
ACERO_SUP
 62
5
100
AcDbCircle
 10
384.97333333333336
 20
357.7
 30
0.0
 40
1.0
  0
CIRCLE
  5
27D
330
17
100
AcDbEntity
  8
ACERO_SUP
 62
5
100
AcDbCircle
 10
388.54
 20
357.7
 30
0.0
 40
1.0
  0
CIRCLE
  5
27E
330
17
100
AcDbEntity
  8
ACERO_SUP
 62
5
100
AcDbCircle
 10
392.1066666666667
 20
357.7
 30
0.0
 40
1.0
  0
CIRCLE
  5
27F
330
17
100
AcDbEntity
  8
ACERO_SUP
 62
5
100
AcDbCircle
 10
395.67333333333335
 20
357.7
 30
0.0
 40
1.0
  0
CIRCLE
  5
280
330
17
100
AcDbEntity
  8
ACERO_SUP
 62
5
100
AcDbCircle
 10
399.24
 20
357.7
 30
0.0
 40
1.0
  0
CIRCLE
  5
281
330
17
100
AcDbEntity
  8
ACERO_INF
 62
1
100
AcDbCircle
 10
377.84000000000003
 20
328.3
 30
0.0
 40
1.0
  0
CIRCLE
  5
282
330
17
100
AcDbEntity
  8
ACERO_INF
 62
1
100
AcDbCircle
 10
383.19000000000005
 20
328.3
 30
0.0
 40
1.0
  0
CIRCLE
  5
283
330
17
100
AcDbEntity
  8
ACERO_INF
 62
1
100
AcDbCircle
 10
388.54
 20
328.3
 30
0.0
 40
1.0
  0
CIRCLE
  5
284
330
17
100
AcDbEntity
  8
ACERO_INF
 62
1
100
AcDbCircle
 10
393.89000000000004
 20
328.3
 30
0.0
 40
1.0
  0
CIRCLE
  5
285
330
17
100
AcDbEntity
  8
ACERO_INF
 62
1
100
AcDbCircle
 10
399.24
 20
328.3
 30
0.0
 40
1.0
  0
CIRCLE
  5
286
330
17
100
AcDbEntity
  8
ACERO_TOR
 62
30
100
AcDbCircle
 10
377.74
 20
343.0
 30
0.0
 40
0.9
  0
CIRCLE
  5
287
330
17
100
AcDbEntity
  8
ACERO_TOR
 62
30
100
AcDbCircle
 10
399.34000000000003
 20
343.0
 30
0.0
 40
0.9
  0
TEXT
  5
288
330
17
100
AcDbEntity
  8
TEXTO
 62
7
100
AcDbText
 10
388.54
 20
317.5
 30
0.0
 40
2.8
  1
CORTE C-C
 72
1
 11
388.54
 21
317.5
 31
0.0
100
AcDbText
 73
2
  0
TEXT
  5
289
330
17
100
AcDbEntity
  8
TEXTO
 62
7
100
AcDbText
 10
388.54
 20
313.0
 30
0.0
 40
2.7
  1
500x550
 72
1
 11
388.54
 21
313.0
 31
0.0
100
AcDbText
 73
2
  0
TEXT
  5
28A
330
17
100
AcDbEntity
  8
TEXTO
 62
7
100
AcDbText
 10
22.0
 20
310.0
 30
0.0
 40
2.8
  1
140 frames | variantes de longitud: 7
 11
22.0
 21
310.0
 31
0.0
100
AcDbText
  0
TEXT
  5
28B
330
17
100
AcDbEntity
  8
ALERTA
 62
1
100
AcDbText
 10
499.5
 20
310.0
 30
0.0
 40
2.8
  1
NO CUMPLEN 16 frames - ver Excel
 72
2
 11
499.5
 21
310.0
 31
0.0
100
AcDbText
  0
LWPOLYLINE
  5
28C
330
17
100
AcDbEntity
  8
GUIA
 62
9
370
9
100
AcDbPolyline
 90
4
 70
1
 10
512.5
 20
300.0
 10
1004.0
 20
300.0
 10
1004.0
 20
560.0
 10
512.5
 20
560.0
  0
TEXT
  5
28D
330
17
100
AcDbEntity
  8
TITULO
 62
6
100
AcDbText
 10
758.25
 20
550.0
 30
0.0
 40
4.8
  1
DESPIECE VIGA VR3
 72
1
 11
758.25
 21
550.0
 31
0.0
100
AcDbText
 73
2
  0
TEXT
  5
28E
330
17
100
AcDbEntity
  8
TITULO
 62
6
100
AcDbText
 10
519.5
 20
537.0
 30
0.0
 40
3.6
  1
PISO TIPO
 11
519.5
 21
537.0
 31
0.0
100
AcDbText
  0
TEXT
  5
28F
330
17
100
AcDbEntity
  8
TITULO
 62
6
100
AcDbText
 10
519.5
 20
529.0
 30
0.0
 40
3.6
  1
50x55 cm
 11
519.5
 21
529.0
 31
0.0
100
AcDbText
  0
LINE
  5
290
330
17
100
AcDbEntity
  8
APOYOS
 62
4
370
18
100
AcDbLine
 10
569.5
 20
478.0
 30
0.0
 11
569.5
 21
529.0
 31
0.0
  0
LINE
  5
291
330
17
100
AcDbEntity
  8
APOYOS
 62
4
370
18
100
AcDbLine
 10
577.5
 20
478.0
 30
0.0
 11
577.5
 21
529.0
 31
0.0
  0
LINE
  5
292
330
17
100
AcDbEntity
  8
EJES
 62
8
370
9
100
AcDbLine
 10
573.5
 20
474.0
 30
0.0
 11
573.5
 21
534.0
 31
0.0
  0
CIRCLE
  5
293
330
17
100
AcDbEntity
  8
EJES
 62
8
100
AcDbCircle
 10
573.5
 20
528.0
 30
0.0
 40
4.5
  0
TEXT
  5
294
330
17
100
AcDbEntity
  8
EJES
 62
8
100
AcDbText
 10
573.5
 20
526.85
 30
0.0
 40
2.6
  1
I
 72
1
 11
573.5
 21
526.85
 31
0.0
100
AcDbText
 73
2
  0
LINE
  5
295
330
17
100
AcDbEntity
  8
APOYOS
 62
4
370
18
100
AcDbLine
 10
981.0
 20
478.0
 30
0.0
 11
981.0
 21
529.0
 31
0.0
  0
LINE
  5
296
330
17
100
AcDbEntity
  8
APOYOS
 62
4
370
18
100
AcDbLine
 10
989.0
 20
478.0
 30
0.0
 11
989.0
 21
529.0
 31
0.0
  0
LINE
  5
297
330
17
100
AcDbEntity
  8
EJES
 62
8
370
9
100
AcDbLine
 10
985.0
 20
474.0
 30
0.0
 11
985.0
 21
534.0
 31
0.0
  0
CIRCLE
  5
298
330
17
100
AcDbEntity
  8
EJES
 62
8
100
AcDbCircle
 10
985.0
 20
528.0
 30
0.0
 40
4.5
  0
TEXT
  5
299
330
17
100
AcDbEntity
  8
EJES
 62
8
100
AcDbText
 10
985.0
 20
526.85
 30
0.0
 40
2.6
  1
J
 72
1
 11
985.0
 21
526.85
 31
0.0
100
AcDbText
 73
2
  0
LINE
  5
29A
330
17
100
AcDbEntity
  8
EJES
 62
8
370
9
100
AcDbLine
 10
710.6666666666666
 20
480.0
 30
0.0
 11
710.6666666666666
 21
531.0
 31
0.0
  0
CIRCLE
  5
29B
330
17
100
AcDbEntity
  8
EJES
 62
8
100
AcDbCircle
 10
710.6666666666666
 20
528.0
 30
0.0
 40
4.2
  0
TEXT
  5
29C
330
17
100
AcDbEntity
  8
EJES
 62
8
100
AcDbText
 10
710.6666666666666
 20
526.85
 30
0.0
 40
2.6
  1
1
 72
1
 11
710.6666666666666
 21
526.85
 31
0.0
100
AcDbText
 73
2
  0
LINE
  5
29D
330
17
100
AcDbEntity
  8
EJES
 62
8
370
9
100
AcDbLine
 10
847.8333333333333
 20
480.0
 30
0.0
 11
847.8333333333333
 21
531.0
 31
0.0
  0
CIRCLE
  5
29E
330
17
100
AcDbEntity
  8
EJES
 62
8
100
AcDbCircle
 10
847.8333333333333
 20
528.0
 30
0.0
 40
4.2
  0
TEXT
  5
29F
330
17
100
AcDbEntity
  8
EJES
 62
8
100
AcDbText
 10
847.8333333333333
 20
526.85
 30
0.0
 40
2.6
  1
2
 72
1
 11
847.8333333333333
 21
526.85
 31
0.0
100
AcDbText
 73
2
  0
LWPOLYLINE
  5
2A0
330
17
100
AcDbEntity
  8
CONTORNO
 62
7
370
18
100
AcDbPolyline
 90
4
 70
1
 10
573.5
 20
493.0
 10
985.0
 20
493.0
 10
985.0
 20
514.0
 10
573.5
 20
514.0
  0
LINE
  5
2A1
330
17
100
AcDbEntity
  8
ACERO_SUP
 62
5
370
30
100
AcDbLine
 10
573.5
 20
510.5
 30
0.0
 11
985.0
 21
510.5
 31
0.0
  0
LINE
  5
2A2
330
17
100
AcDbEntity
  8
ACERO_SUP
 62
5
370
30
100
AcDbLine
 10
573.5
 20
508.4
 30
0.0
 11
985.0
 21
508.4
 31
0.0
  0
LINE
  5
2A3
330
17
100
AcDbEntity
  8
ACERO_SUP
 62
5
370
30
100
AcDbLine
 10
573.5
 20
506.3
 30
0.0
 11
985.0
 21
506.3
 31
0.0
  0
LINE
  5
2A4
330
17
100
AcDbEntity
  8
ACERO_ADIC
 62
2
370
30
100
AcDbLine
 10
573.5
 20
504.0
 30
0.0
 11
721.64
 21
504.0
 31
0.0
  0
LINE
  5
2A5
330
17
100
AcDbEntity
  8
ACERO_ADIC
 62
2
370
30
100
AcDbLine
 10
836.86
 20
504.0
 30
0.0
 11
985.0
 21
504.0
 31
0.0
  0
LINE
  5
2A6
330
17
100
AcDbEntity
  8
ACERO_ADIC
 62
2
370
30
100
AcDbLine
 10
573.5
 20
502.5
 30
0.0
 11
721.64
 21
502.5
 31
0.0
  0
LINE
  5
2A7
330
17
100
AcDbEntity
  8
ACERO_ADIC
 62
2
370
30
100
AcDbLine
 10
836.86
 20
502.5
 30
0.0
 11
985.0
 21
502.5
 31
0.0
  0
LINE
  5
2A8
330
17
100
AcDbEntity
  8
ACERO_ADIC
 62
2
370
30
100
AcDbLine
 10
573.5
 20
501.0
 30
0.0
 11
721.64
 21
501.0
 31
0.0
  0
LINE
  5
2A9
330
17
100
AcDbEntity
  8
ACERO_ADIC
 62
2
370
30
100
AcDbLine
 10
836.86
 20
501.0
 30
0.0
 11
985.0
 21
501.0
 31
0.0
  0
LINE
  5
2AA
330
17
100
AcDbEntity
  8
ACERO_ADIC
 62
2
370
30
100
AcDbLine
 10
573.5
 20
499.5
 30
0.0
 11
721.64
 21
499.5
 31
0.0
  0
LINE
  5
2AB
330
17
100
AcDbEntity
  8
ACERO_ADIC
 62
2
370
30
100
AcDbLine
 10
836.86
 20
499.5
 30
0.0
 11
985.0
 21
499.5
 31
0.0
  0
LINE
  5
2AC
330
17
100
AcDbEntity
  8
ACERO_INF
 62
1
370
30
100
AcDbLine
 10
573.5
 20
496.5
 30
0.0
 11
985.0
 21
496.5
 31
0.0
  0
LINE
  5
2AD
330
17
100
AcDbEntity
  8
ACERO_INF
 62
1
370
30
100
AcDbLine
 10
573.5
 20
498.3
 30
0.0
 11
985.0
 21
498.3
 31
0.0
  0
LINE
  5
2AE
330
17
100
AcDbEntity
  8
ACERO_INF
 62
1
370
30
100
AcDbLine
 10
573.5
 20
500.1
 30
0.0
 11
985.0
 21
500.1
 31
0.0
  0
LINE
  5
2AF
330
17
100
AcDbEntity
  8
ACERO_INF
 62
1
370
30
100
AcDbLine
 10
573.5
 20
501.9
 30
0.0
 11
985.0
 21
501.9
 31
0.0
  0
LINE
  5
2B0
330
17
100
AcDbEntity
  8
ESTRIBOS
 62
7
370
9
100
AcDbLine
 10
576.5
 20
494.0
 30
0.0
 11
576.5
 21
513.0
 31
0.0
  0
LINE
  5
2B1
330
17
100
AcDbEntity
  8
ESTRIBOS
 62
7
370
9
100
AcDbLine
 10
584.73
 20
494.0
 30
0.0
 11
584.73
 21
513.0
 31
0.0
  0
LINE
  5
2B2
330
17
100
AcDbEntity
  8
ESTRIBOS
 62
7
370
9
100
AcDbLine
 10
592.96
 20
494.0
 30
0.0
 11
592.96
 21
513.0
 31
0.0
  0
LINE
  5
2B3
330
17
100
AcDbEntity
  8
ESTRIBOS
 62
7
370
9
100
AcDbLine
 10
601.19
 20
494.0
 30
0.0
 11
601.19
 21
513.0
 31
0.0
  0
LINE
  5
2B4
330
17
100
AcDbEntity
  8
ESTRIBOS
 62
7
370
9
100
AcDbLine
 10
609.4200000000001
 20
494.0
 30
0.0
 11
609.4200000000001
 21
513.0
 31
0.0
  0
LINE
  5
2B5
330
17
100
AcDbEntity
  8
ESTRIBOS
 62
7
370
9
100
AcDbLine
 10
617.6500000000001
 20
494.0
 30
0.0
 11
617.6500000000001
 21
513.0
 31
0.0
  0
LINE
  5
2B6
330
17
100
AcDbEntity
  8
ESTRIBOS
 62
7
370
9
100
AcDbLine
 10
625.8800000000001
 20
494.0
 30
0.0
 11
625.8800000000001
 21
513.0
 31
0.0
  0
LINE
  5
2B7
330
17
100
AcDbEntity
  8
ESTRIBOS
 62
7
370
9
100
AcDbLine
 10
634.1100000000001
 20
494.0
 30
0.0
 11
634.1100000000001
 21
513.0
 31
0.0
  0
LINE
  5
2B8
330
17
100
AcDbEntity
  8
ESTRIBOS
 62
7
370
9
100
AcDbLine
 10
642.3400000000001
 20
494.0
 30
0.0
 11
642.3400000000001
 21
513.0
 31
0.0
  0
LINE
  5
2B9
330
17
100
AcDbEntity
  8
ESTRIBOS
 62
7
370
9
100
AcDbLine
 10
650.5700000000002
 20
494.0
 30
0.0
 11
650.5700000000002
 21
513.0
 31
0.0
  0
LINE
  5
2BA
330
17
100
AcDbEntity
  8
ESTRIBOS
 62
7
370
9
100
AcDbLine
 10
658.8000000000002
 20
494.0
 30
0.0
 11
658.8000000000002
 21
513.0
 31
0.0
  0
LINE
  5
2BB
330
17
100
AcDbEntity
  8
ESTRIBOS
 62
7
370
9
100
AcDbLine
 10
667.0300000000002
 20
494.0
 30
0.0
 11
667.0300000000002
 21
513.0
 31
0.0
  0
LINE
  5
2BC
330
17
100
AcDbEntity
  8
ESTRIBOS
 62
7
370
9
100
AcDbLine
 10
675.2600000000002
 20
494.0
 30
0.0
 11
675.2600000000002
 21
513.0
 31
0.0
  0
LINE
  5
2BD
330
17
100
AcDbEntity
  8
ESTRIBOS
 62
7
370
9
100
AcDbLine
 10
683.4900000000002
 20
494.0
 30
0.0
 11
683.4900000000002
 21
513.0
 31
0.0
  0
LINE
  5
2BE
330
17
100
AcDbEntity
  8
ESTRIBOS
 62
7
370
9
100
AcDbLine
 10
686.6625
 20
494.0
 30
0.0
 11
686.6625
 21
513.0
 31
0.0
  0
LINE
  5
2BF
330
17
100
AcDbEntity
  8
ESTRIBOS
 62
7
370
9
100
AcDbLine
 10
694.8925
 20
494.0
 30
0.0
 11
694.8925
 21
513.0
 31
0.0
  0
LINE
  5
2C0
330
17
100
AcDbEntity
  8
ESTRIBOS
 62
7
370
9
100
AcDbLine
 10
703.1225000000001
 20
494.0
 30
0.0
 11
703.1225000000001
 21
513.0
 31
0.0
  0
LINE
  5
2C1
330
17
100
AcDbEntity
  8
ESTRIBOS
 62
7
370
9
100
AcDbLine
 10
711.3525000000001
 20
494.0
 30
0.0
 11
711.3525000000001
 21
513.0
 31
0.0
  0
LINE
  5
2C2
330
17
100
AcDbEntity
  8
ESTRIBOS
 62
7
370
9
100
AcDbLine
 10
719.5825000000001
 20
494.0
 30
0.0
 11
719.5825000000001
 21
513.0
 31
0.0
  0
LINE
  5
2C3
330
17
100
AcDbEntity
  8
ESTRIBOS
 62
7
370
9
100
AcDbLine
 10
727.8125000000001
 20
494.0
 30
0.0
 11
727.8125000000001
 21
513.0
 31
0.0
  0
LINE
  5
2C4
330
17
100
AcDbEntity
  8
ESTRIBOS
 62
7
370
9
100
AcDbLine
 10
736.0425000000001
 20
494.0
 30
0.0
 11
736.0425000000001
 21
513.0
 31
0.0
  0
LINE
  5
2C5
330
17
100
AcDbEntity
  8
ESTRIBOS
 62
7
370
9
100
AcDbLine
 10
744.2725000000002
 20
494.0
 30
0.0
 11
744.2725000000002
 21
513.0
 31
0.0
  0
LINE
  5
2C6
330
17
100
AcDbEntity
  8
ESTRIBOS
 62
7
370
9
100
AcDbLine
 10
752.5025000000002
 20
494.0
 30
0.0
 11
752.5025000000002
 21
513.0
 31
0.0
  0
LINE
  5
2C7
330
17
100
AcDbEntity
  8
ESTRIBOS
 62
7
370
9
100
AcDbLine
 10
760.7325000000002
 20
494.0
 30
0.0
 11
760.7325000000002
 21
513.0
 31
0.0
  0
LINE
  5
2C8
330
17
100
AcDbEntity
  8
ESTRIBOS
 62
7
370
9
100
AcDbLine
 10
768.9625000000002
 20
494.0
 30
0.0
 11
768.9625000000002
 21
513.0
 31
0.0
  0
LINE
  5
2C9
330
17
100
AcDbEntity
  8
ESTRIBOS
 62
7
370
9
100
AcDbLine
 10
777.1925000000002
 20
494.0
 30
0.0
 11
777.1925000000002
 21
513.0
 31
0.0
  0
LINE
  5
2CA
330
17
100
AcDbEntity
  8
ESTRIBOS
 62
7
370
9
100
AcDbLine
 10
785.4225000000002
 20
494.0
 30
0.0
 11
785.4225000000002
 21
513.0
 31
0.0
  0
LINE
  5
2CB
330
17
100
AcDbEntity
  8
ESTRIBOS
 62
7
370
9
100
AcDbLine
 10
793.6525000000003
 20
494.0
 30
0.0
 11
793.6525000000003
 21
513.0
 31
0.0
  0
LINE
  5
2CC
330
17
100
AcDbEntity
  8
ESTRIBOS
 62
7
370
9
100
AcDbLine
 10
801.8825000000003
 20
494.0
 30
0.0
 11
801.8825000000003
 21
513.0
 31
0.0
  0
LINE
  5
2CD
330
17
100
AcDbEntity
  8
ESTRIBOS
 62
7
370
9
100
AcDbLine
 10
810.1125000000003
 20
494.0
 30
0.0
 11
810.1125000000003
 21
513.0
 31
0.0
  0
LINE
  5
2CE
330
17
100
AcDbEntity
  8
ESTRIBOS
 62
7
370
9
100
AcDbLine
 10
818.3425000000003
 20
494.0
 30
0.0
 11
818.3425000000003
 21
513.0
 31
0.0
  0
LINE
  5
2CF
330
17
100
AcDbEntity
  8
ESTRIBOS
 62
7
370
9
100
AcDbLine
 10
826.5725000000003
 20
494.0
 30
0.0
 11
826.5725000000003
 21
513.0
 31
0.0
  0
LINE
  5
2D0
330
17
100
AcDbEntity
  8
ESTRIBOS
 62
7
370
9
100
AcDbLine
 10
834.8025000000004
 20
494.0
 30
0.0
 11
834.8025000000004
 21
513.0
 31
0.0
  0
LINE
  5
2D1
330
17
100
AcDbEntity
  8
ESTRIBOS
 62
7
370
9
100
AcDbLine
 10
843.0325000000004
 20
494.0
 30
0.0
 11
843.0325000000004
 21
513.0
 31
0.0
  0
LINE
  5
2D2
330
17
100
AcDbEntity
  8
ESTRIBOS
 62
7
370
9
100
AcDbLine
 10
851.2625000000004
 20
494.0
 30
0.0
 11
851.2625000000004
 21
513.0
 31
0.0
  0
LINE
  5
2D3
330
17
100
AcDbEntity
  8
ESTRIBOS
 62
7
370
9
100
AcDbLine
 10
859.4925000000004
 20
494.0
 30
0.0
 11
859.4925000000004
 21
513.0
 31
0.0
  0
LINE
  5
2D4
330
17
100
AcDbEntity
  8
ESTRIBOS
 62
7
370
9
100
AcDbLine
 10
867.7225000000004
 20
494.0
 30
0.0
 11
867.7225000000004
 21
513.0
 31
0.0
  0
LINE
  5
2D5
330
17
100
AcDbEntity
  8
ESTRIBOS
 62
7
370
9
100
AcDbLine
 10
871.8375
 20
494.0
 30
0.0
 11
871.8375
 21
513.0
 31
0.0
  0
LINE
  5
2D6
330
17
100
AcDbEntity
  8
ESTRIBOS
 62
7
370
9
100
AcDbLine
 10
880.0675
 20
494.0
 30
0.0
 11
880.0675
 21
513.0
 31
0.0
  0
LINE
  5
2D7
330
17
100
AcDbEntity
  8
ESTRIBOS
 62
7
370
9
100
AcDbLine
 10
888.2975
 20
494.0
 30
0.0
 11
888.2975
 21
513.0
 31
0.0
  0
LINE
  5
2D8
330
17
100
AcDbEntity
  8
ESTRIBOS
 62
7
370
9
100
AcDbLine
 10
896.5275
 20
494.0
 30
0.0
 11
896.5275
 21
513.0
 31
0.0
  0
LINE
  5
2D9
330
17
100
AcDbEntity
  8
ESTRIBOS
 62
7
370
9
100
AcDbLine
 10
904.7575
 20
494.0
 30
0.0
 11
904.7575
 21
513.0
 31
0.0
  0
LINE
  5
2DA
330
17
100
AcDbEntity
  8
ESTRIBOS
 62
7
370
9
100
AcDbLine
 10
912.9875000000001
 20
494.0
 30
0.0
 11
912.9875000000001
 21
513.0
 31
0.0
  0
LINE
  5
2DB
330
17
100
AcDbEntity
  8
ESTRIBOS
 62
7
370
9
100
AcDbLine
 10
921.2175000000001
 20
494.0
 30
0.0
 11
921.2175000000001
 21
513.0
 31
0.0
  0
LINE
  5
2DC
330
17
100
AcDbEntity
  8
ESTRIBOS
 62
7
370
9
100
AcDbLine
 10
929.4475000000001
 20
494.0
 30
0.0
 11
929.4475000000001
 21
513.0
 31
0.0
  0
LINE
  5
2DD
330
17
100
AcDbEntity
  8
ESTRIBOS
 62
7
370
9
100
AcDbLine
 10
937.6775000000001
 20
494.0
 30
0.0
 11
937.6775000000001
 21
513.0
 31
0.0
  0
LINE
  5
2DE
330
17
100
AcDbEntity
  8
ESTRIBOS
 62
7
370
9
100
AcDbLine
 10
945.9075000000001
 20
494.0
 30
0.0
 11
945.9075000000001
 21
513.0
 31
0.0
  0
LINE
  5
2DF
330
17
100
AcDbEntity
  8
ESTRIBOS
 62
7
370
9
100
AcDbLine
 10
954.1375000000002
 20
494.0
 30
0.0
 11
954.1375000000002
 21
513.0
 31
0.0
  0
LINE
  5
2E0
330
17
100
AcDbEntity
  8
ESTRIBOS
 62
7
370
9
100
AcDbLine
 10
962.3675000000002
 20
494.0
 30
0.0
 11
962.3675000000002
 21
513.0
 31
0.0
  0
LINE
  5
2E1
330
17
100
AcDbEntity
  8
ESTRIBOS
 62
7
370
9
100
AcDbLine
 10
970.5975000000002
 20
494.0
 30
0.0
 11
970.5975000000002
 21
513.0
 31
0.0
  0
LINE
  5
2E2
330
17
100
AcDbEntity
  8
ESTRIBOS
 62
7
370
9
100
AcDbLine
 10
978.8275000000002
 20
494.0
 30
0.0
 11
978.8275000000002
 21
513.0
 31
0.0
  0
LINE
  5
2E3
330
17
100
AcDbEntity
  8
COTAS
 62
3
370
18
100
AcDbLine
 10
573.5
 20
482.0
 30
0.0
 11
985.0
 21
482.0
 31
0.0
  0
LINE
  5
2E4
330
17
100
AcDbEntity
  8
COTAS
 62
3
370
18
100
AcDbLine
 10
573.5
 20
480.0
 30
0.0
 11
573.5
 21
484.0
 31
0.0
  0
LINE
  5
2E5
330
17
100
AcDbEntity
  8
COTAS
 62
3
370
18
100
AcDbLine
 10
985.0
 20
480.0
 30
0.0
 11
985.0
 21
484.0
 31
0.0
  0
TEXT
  5
2E6
330
17
100
AcDbEntity
  8
COTAS
 62
3
100
AcDbText
 10
779.25
 20
484.5
 30
0.0
 40
3.0
  1
L SAP I-J = 1.500 a 4.000 m
 72
1
 11
779.25
 21
484.5
 31
0.0
100
AcDbText
 73
2
  0
TEXT
  5
2E7
330
17
100
AcDbEntity
  8
TEXTO
 62
7
100
AcDbText
 10
779.25
 20
477.0
 30
0.0
 40
2.7
  1
Ln calculo = 0.900 a 3.400 m
 72
1
 11
779.25
 21
477.0
 31
0.0
100
AcDbText
 73
2
  0
TEXT
  5
2E8
330
17
100
AcDbEntity
  8
TEXTO
 62
7
100
AcDbText
 10
573.5
 20
473.0
 30
0.0
 40
2.8
  1
SUP: 9#5 | INF: 5#5 | TOR: 16#5 adicionales
 11
573.5
 21
473.0
 31
0.0
100
AcDbText
  0
TEXT
  5
2E9
330
17
100
AcDbEntity
  8
TEXTO
 62
7
100
AcDbText
 10
573.5
 20
467.0
 30
0.0
 40
2.8
  1
EST Nº4 4R: 1ro <=50; @80 en 2h; @80 centro
 11
573.5
 21
467.0
 31
0.0
100
AcDbText
  0
LWPOLYLINE
  5
2EA
330
17
100
AcDbEntity
  8
CORTE
 62
7
370
20
100
AcDbPolyline
 90
4
 70
1
 10
634.12
 20
323.0
 10
666.12
 20
323.0
 10
666.12
 20
363.0
 10
634.12
 20
363.0
  0
LWPOLYLINE
  5
2EB
330
17
100
AcDbEntity
  8
ESTRIBOS
 62
7
370
18
100
AcDbPolyline
 90
4
 70
1
 10
637.12
 20
326.0
 10
663.12
 20
326.0
 10
663.12
 20
360.0
 10
637.12
 20
360.0
  0
LINE
  5
2EC
330
17
100
AcDbEntity
  8
ESTRIBOS
 62
7
370
18
100
AcDbLine
 10
644.7866666666666
 20
326.0
 30
0.0
 11
644.7866666666666
 21
360.0
 31
0.0
  0
LINE
  5
2ED
330
17
100
AcDbEntity
  8
ESTRIBOS
 62
7
370
18
100
AcDbLine
 10
655.4533333333334
 20
326.0
 30
0.0
 11
655.4533333333334
 21
360.0
 31
0.0
  0
CIRCLE
  5
2EE
330
17
100
AcDbEntity
  8
ACERO_SUP
 62
5
100
AcDbCircle
 10
639.42
 20
357.7
 30
0.0
 40
1.0
  0
CIRCLE
  5
2EF
330
17
100
AcDbEntity
  8
ACERO_SUP
 62
5
100
AcDbCircle
 10
642.9866666666667
 20
357.7
 30
0.0
 40
1.0
  0
CIRCLE
  5
2F0
330
17
100
AcDbEntity
  8
ACERO_SUP
 62
5
100
AcDbCircle
 10
646.5533333333333
 20
357.7
 30
0.0
 40
1.0
  0
CIRCLE
  5
2F1
330
17
100
AcDbEntity
  8
ACERO_SUP
 62
5
100
AcDbCircle
 10
650.12
 20
357.7
 30
0.0
 40
1.0
  0
CIRCLE
  5
2F2
330
17
100
AcDbEntity
  8
ACERO_SUP
 62
5
100
AcDbCircle
 10
653.6866666666666
 20
357.7
 30
0.0
 40
1.0
  0
CIRCLE
  5
2F3
330
17
100
AcDbEntity
  8
ACERO_SUP
 62
5
100
AcDbCircle
 10
657.2533333333333
 20
357.7
 30
0.0
 40
1.0
  0
CIRCLE
  5
2F4
330
17
100
AcDbEntity
  8
ACERO_SUP
 62
5
100
AcDbCircle
 10
660.8199999999999
 20
357.7
 30
0.0
 40
1.0
  0
CIRCLE
  5
2F5
330
17
100
AcDbEntity
  8
ACERO_INF
 62
1
100
AcDbCircle
 10
639.42
 20
328.3
 30
0.0
 40
1.0
  0
CIRCLE
  5
2F6
330
17
100
AcDbEntity
  8
ACERO_INF
 62
1
100
AcDbCircle
 10
644.77
 20
328.3
 30
0.0
 40
1.0
  0
CIRCLE
  5
2F7
330
17
100
AcDbEntity
  8
ACERO_INF
 62
1
100
AcDbCircle
 10
650.12
 20
328.3
 30
0.0
 40
1.0
  0
CIRCLE
  5
2F8
330
17
100
AcDbEntity
  8
ACERO_INF
 62
1
100
AcDbCircle
 10
655.4699999999999
 20
328.3
 30
0.0
 40
1.0
  0
CIRCLE
  5
2F9
330
17
100
AcDbEntity
  8
ACERO_INF
 62
1
100
AcDbCircle
 10
660.8199999999999
 20
328.3
 30
0.0
 40
1.0
  0
CIRCLE
  5
2FA
330
17
100
AcDbEntity
  8
ACERO_TOR
 62
30
100
AcDbCircle
 10
639.32
 20
343.0
 30
0.0
 40
0.9
  0
CIRCLE
  5
2FB
330
17
100
AcDbEntity
  8
ACERO_TOR
 62
30
100
AcDbCircle
 10
660.92
 20
343.0
 30
0.0
 40
0.9
  0
TEXT
  5
2FC
330
17
100
AcDbEntity
  8
TEXTO
 62
7
100
AcDbText
 10
650.12
 20
317.5
 30
0.0
 40
2.8
  1
CORTE A-A
 72
1
 11
650.12
 21
317.5
 31
0.0
100
AcDbText
 73
2
  0
TEXT
  5
2FD
330
17
100
AcDbEntity
  8
TEXTO
 62
7
100
AcDbText
 10
650.12
 20
313.0
 30
0.0
 40
2.7
  1
500x550
 72
1
 11
650.12
 21
313.0
 31
0.0
100
AcDbText
 73
2
  0
LWPOLYLINE
  5
2FE
330
17
100
AcDbEntity
  8
CORTE
 62
7
370
20
100
AcDbPolyline
 90
4
 70
1
 10
752.08
 20
323.0
 10
784.08
 20
323.0
 10
784.08
 20
363.0
 10
752.08
 20
363.0
  0
LWPOLYLINE
  5
2FF
330
17
100
AcDbEntity
  8
ESTRIBOS
 62
7
370
18
100
AcDbPolyline
 90
4
 70
1
 10
755.08
 20
326.0
 10
781.08
 20
326.0
 10
781.08
 20
360.0
 10
755.08
 20
360.0
  0
LINE
  5
300
330
17
100
AcDbEntity
  8
ESTRIBOS
 62
7
370
18
100
AcDbLine
 10
762.7466666666667
 20
326.0
 30
0.0
 11
762.7466666666667
 21
360.0
 31
0.0
  0
LINE
  5
301
330
17
100
AcDbEntity
  8
ESTRIBOS
 62
7
370
18
100
AcDbLine
 10
773.4133333333334
 20
326.0
 30
0.0
 11
773.4133333333334
 21
360.0
 31
0.0
  0
CIRCLE
  5
302
330
17
100
AcDbEntity
  8
ACERO_SUP
 62
5
100
AcDbCircle
 10
757.38
 20
357.7
 30
0.0
 40
1.0
  0
CIRCLE
  5
303
330
17
100
AcDbEntity
  8
ACERO_SUP
 62
5
100
AcDbCircle
 10
760.9466666666667
 20
357.7
 30
0.0
 40
1.0
  0
CIRCLE
  5
304
330
17
100
AcDbEntity
  8
ACERO_SUP
 62
5
100
AcDbCircle
 10
764.5133333333333
 20
357.7
 30
0.0
 40
1.0
  0
CIRCLE
  5
305
330
17
100
AcDbEntity
  8
ACERO_SUP
 62
5
100
AcDbCircle
 10
768.08
 20
357.7
 30
0.0
 40
1.0
  0
CIRCLE
  5
306
330
17
100
AcDbEntity
  8
ACERO_SUP
 62
5
100
AcDbCircle
 10
771.6466666666666
 20
357.7
 30
0.0
 40
1.0
  0
CIRCLE
  5
307
330
17
100
AcDbEntity
  8
ACERO_SUP
 62
5
100
AcDbCircle
 10
775.2133333333334
 20
357.7
 30
0.0
 40
1.0
  0
CIRCLE
  5
308
330
17
100
AcDbEntity
  8
ACERO_SUP
 62
5
100
AcDbCircle
 10
778.78
 20
357.7
 30
0.0
 40
1.0
  0
CIRCLE
  5
309
330
17
100
AcDbEntity
  8
ACERO_INF
 62
1
100
AcDbCircle
 10
757.38
 20
328.3
 30
0.0
 40
1.0
  0
CIRCLE
  5
30A
330
17
100
AcDbEntity
  8
ACERO_INF
 62
1
100
AcDbCircle
 10
762.73
 20
328.3
 30
0.0
 40
1.0
  0
CIRCLE
  5
30B
330
17
100
AcDbEntity
  8
ACERO_INF
 62
1
100
AcDbCircle
 10
768.08
 20
328.3
 30
0.0
 40
1.0
  0
CIRCLE
  5
30C
330
17
100
AcDbEntity
  8
ACERO_INF
 62
1
100
AcDbCircle
 10
773.43
 20
328.3
 30
0.0
 40
1.0
  0
CIRCLE
  5
30D
330
17
100
AcDbEntity
  8
ACERO_INF
 62
1
100
AcDbCircle
 10
778.78
 20
328.3
 30
0.0
 40
1.0
  0
CIRCLE
  5
30E
330
17
100
AcDbEntity
  8
ACERO_TOR
 62
30
100
AcDbCircle
 10
757.2800000000001
 20
343.0
 30
0.0
 40
0.9
  0
CIRCLE
  5
30F
330
17
100
AcDbEntity
  8
ACERO_TOR
 62
30
100
AcDbCircle
 10
778.88
 20
343.0
 30
0.0
 40
0.9
  0
TEXT
  5
310
330
17
100
AcDbEntity
  8
TEXTO
 62
7
100
AcDbText
 10
768.08
 20
317.5
 30
0.0
 40
2.8
  1
CORTE B-B
 72
1
 11
768.08
 21
317.5
 31
0.0
100
AcDbText
 73
2
  0
TEXT
  5
311
330
17
100
AcDbEntity
  8
TEXTO
 62
7
100
AcDbText
 10
768.08
 20
313.0
 30
0.0
 40
2.7
  1
500x550
 72
1
 11
768.08
 21
313.0
 31
0.0
100
AcDbText
 73
2
  0
LWPOLYLINE
  5
312
330
17
100
AcDbEntity
  8
CORTE
 62
7
370
20
100
AcDbPolyline
 90
4
 70
1
 10
870.04
 20
323.0
 10
902.04
 20
323.0
 10
902.04
 20
363.0
 10
870.04
 20
363.0
  0
LWPOLYLINE
  5
313
330
17
100
AcDbEntity
  8
ESTRIBOS
 62
7
370
18
100
AcDbPolyline
 90
4
 70
1
 10
873.04
 20
326.0
 10
899.04
 20
326.0
 10
899.04
 20
360.0
 10
873.04
 20
360.0
  0
LINE
  5
314
330
17
100
AcDbEntity
  8
ESTRIBOS
 62
7
370
18
100
AcDbLine
 10
880.7066666666666
 20
326.0
 30
0.0
 11
880.7066666666666
 21
360.0
 31
0.0
  0
LINE
  5
315
330
17
100
AcDbEntity
  8
ESTRIBOS
 62
7
370
18
100
AcDbLine
 10
891.3733333333333
 20
326.0
 30
0.0
 11
891.3733333333333
 21
360.0
 31
0.0
  0
CIRCLE
  5
316
330
17
100
AcDbEntity
  8
ACERO_SUP
 62
5
100
AcDbCircle
 10
875.3399999999999
 20
357.7
 30
0.0
 40
1.0
  0
CIRCLE
  5
317
330
17
100
AcDbEntity
  8
ACERO_SUP
 62
5
100
AcDbCircle
 10
878.9066666666666
 20
357.7
 30
0.0
 40
1.0
  0
CIRCLE
  5
318
330
17
100
AcDbEntity
  8
ACERO_SUP
 62
5
100
AcDbCircle
 10
882.4733333333332
 20
357.7
 30
0.0
 40
1.0
  0
CIRCLE
  5
319
330
17
100
AcDbEntity
  8
ACERO_SUP
 62
5
100
AcDbCircle
 10
886.04
 20
357.7
 30
0.0
 40
1.0
  0
CIRCLE
  5
31A
330
17
100
AcDbEntity
  8
ACERO_SUP
 62
5
100
AcDbCircle
 10
889.6066666666666
 20
357.7
 30
0.0
 40
1.0
  0
CIRCLE
  5
31B
330
17
100
AcDbEntity
  8
ACERO_SUP
 62
5
100
AcDbCircle
 10
893.1733333333333
 20
357.7
 30
0.0
 40
1.0
  0
CIRCLE
  5
31C
330
17
100
AcDbEntity
  8
ACERO_SUP
 62
5
100
AcDbCircle
 10
896.7399999999999
 20
357.7
 30
0.0
 40
1.0
  0
CIRCLE
  5
31D
330
17
100
AcDbEntity
  8
ACERO_INF
 62
1
100
AcDbCircle
 10
875.3399999999999
 20
328.3
 30
0.0
 40
1.0
  0
CIRCLE
  5
31E
330
17
100
AcDbEntity
  8
ACERO_INF
 62
1
100
AcDbCircle
 10
880.6899999999999
 20
328.3
 30
0.0
 40
1.0
  0
CIRCLE
  5
31F
330
17
100
AcDbEntity
  8
ACERO_INF
 62
1
100
AcDbCircle
 10
886.04
 20
328.3
 30
0.0
 40
1.0
  0
CIRCLE
  5
320
330
17
100
AcDbEntity
  8
ACERO_INF
 62
1
100
AcDbCircle
 10
891.3899999999999
 20
328.3
 30
0.0
 40
1.0
  0
CIRCLE
  5
321
330
17
100
AcDbEntity
  8
ACERO_INF
 62
1
100
AcDbCircle
 10
896.7399999999999
 20
328.3
 30
0.0
 40
1.0
  0
CIRCLE
  5
322
330
17
100
AcDbEntity
  8
ACERO_TOR
 62
30
100
AcDbCircle
 10
875.24
 20
343.0
 30
0.0
 40
0.9
  0
CIRCLE
  5
323
330
17
100
AcDbEntity
  8
ACERO_TOR
 62
30
100
AcDbCircle
 10
896.8399999999999
 20
343.0
 30
0.0
 40
0.9
  0
TEXT
  5
324
330
17
100
AcDbEntity
  8
TEXTO
 62
7
100
AcDbText
 10
886.04
 20
317.5
 30
0.0
 40
2.8
  1
CORTE C-C
 72
1
 11
886.04
 21
317.5
 31
0.0
100
AcDbText
 73
2
  0
TEXT
  5
325
330
17
100
AcDbEntity
  8
TEXTO
 62
7
100
AcDbText
 10
886.04
 20
313.0
 30
0.0
 40
2.7
  1
500x550
 72
1
 11
886.04
 21
313.0
 31
0.0
100
AcDbText
 73
2
  0
TEXT
  5
326
330
17
100
AcDbEntity
  8
TEXTO
 62
7
100
AcDbText
 10
519.5
 20
310.0
 30
0.0
 40
2.8
  1
70 frames | variantes de longitud: 8
 11
519.5
 21
310.0
 31
0.0
100
AcDbText
  0
TEXT
  5
327
330
17
100
AcDbEntity
  8
ALERTA
 62
1
100
AcDbText
 10
997.0
 20
310.0
 30
0.0
 40
2.8
  1
NO CUMPLEN 8 frames - ver Excel
 72
2
 11
997.0
 21
310.0
 31
0.0
100
AcDbText
  0
LWPOLYLINE
  5
328
330
17
100
AcDbEntity
  8
GUIA
 62
9
370
9
100
AcDbPolyline
 90
4
 70
1
 10
15.0
 20
34.0
 10
506.5
 20
34.0
 10
506.5
 20
294.0
 10
15.0
 20
294.0
  0
TEXT
  5
329
330
17
100
AcDbEntity
  8
TITULO
 62
6
100
AcDbText
 10
260.75
 20
284.0
 30
0.0
 40
4.8
  1
DESPIECE VIGA VRAUX
 72
1
 11
260.75
 21
284.0
 31
0.0
100
AcDbText
 73
2
  0
TEXT
  5
32A
330
17
100
AcDbEntity
  8
TITULO
 62
6
100
AcDbText
 10
22.0
 20
271.0
 30
0.0
 40
3.6
  1
PISO TIPO
 11
22.0
 21
271.0
 31
0.0
100
AcDbText
  0
TEXT
  5
32B
330
17
100
AcDbEntity
  8
TITULO
 62
6
100
AcDbText
 10
22.0
 20
263.0
 30
0.0
 40
3.6
  1
45x55 cm
 11
22.0
 21
263.0
 31
0.0
100
AcDbText
  0
LINE
  5
32C
330
17
100
AcDbEntity
  8
APOYOS
 62
4
370
18
100
AcDbLine
 10
72.0
 20
212.0
 30
0.0
 11
72.0
 21
263.0
 31
0.0
  0
LINE
  5
32D
330
17
100
AcDbEntity
  8
APOYOS
 62
4
370
18
100
AcDbLine
 10
80.0
 20
212.0
 30
0.0
 11
80.0
 21
263.0
 31
0.0
  0
LINE
  5
32E
330
17
100
AcDbEntity
  8
EJES
 62
8
370
9
100
AcDbLine
 10
76.0
 20
208.0
 30
0.0
 11
76.0
 21
268.0
 31
0.0
  0
CIRCLE
  5
32F
330
17
100
AcDbEntity
  8
EJES
 62
8
100
AcDbCircle
 10
76.0
 20
262.0
 30
0.0
 40
4.5
  0
TEXT
  5
330
330
17
100
AcDbEntity
  8
EJES
 62
8
100
AcDbText
 10
76.0
 20
260.85
 30
0.0
 40
2.6
  1
I
 72
1
 11
76.0
 21
260.85
 31
0.0
100
AcDbText
 73
2
  0
LINE
  5
331
330
17
100
AcDbEntity
  8
APOYOS
 62
4
370
18
100
AcDbLine
 10
483.5
 20
212.0
 30
0.0
 11
483.5
 21
263.0
 31
0.0
  0
LINE
  5
332
330
17
100
AcDbEntity
  8
APOYOS
 62
4
370
18
100
AcDbLine
 10
491.5
 20
212.0
 30
0.0
 11
491.5
 21
263.0
 31
0.0
  0
LINE
  5
333
330
17
100
AcDbEntity
  8
EJES
 62
8
370
9
100
AcDbLine
 10
487.5
 20
208.0
 30
0.0
 11
487.5
 21
268.0
 31
0.0
  0
CIRCLE
  5
334
330
17
100
AcDbEntity
  8
EJES
 62
8
100
AcDbCircle
 10
487.5
 20
262.0
 30
0.0
 40
4.5
  0
TEXT
  5
335
330
17
100
AcDbEntity
  8
EJES
 62
8
100
AcDbText
 10
487.5
 20
260.85
 30
0.0
 40
2.6
  1
J
 72
1
 11
487.5
 21
260.85
 31
0.0
100
AcDbText
 73
2
  0
LINE
  5
336
330
17
100
AcDbEntity
  8
EJES
 62
8
370
9
100
AcDbLine
 10
213.16666666666666
 20
214.0
 30
0.0
 11
213.16666666666666
 21
265.0
 31
0.0
  0
CIRCLE
  5
337
330
17
100
AcDbEntity
  8
EJES
 62
8
100
AcDbCircle
 10
213.16666666666666
 20
262.0
 30
0.0
 40
4.2
  0
TEXT
  5
338
330
17
100
AcDbEntity
  8
EJES
 62
8
100
AcDbText
 10
213.16666666666666
 20
260.85
 30
0.0
 40
2.6
  1
1
 72
1
 11
213.16666666666666
 21
260.85
 31
0.0
100
AcDbText
 73
2
  0
LINE
  5
339
330
17
100
AcDbEntity
  8
EJES
 62
8
370
9
100
AcDbLine
 10
350.3333333333333
 20
214.0
 30
0.0
 11
350.3333333333333
 21
265.0
 31
0.0
  0
CIRCLE
  5
33A
330
17
100
AcDbEntity
  8
EJES
 62
8
100
AcDbCircle
 10
350.3333333333333
 20
262.0
 30
0.0
 40
4.2
  0
TEXT
  5
33B
330
17
100
AcDbEntity
  8
EJES
 62
8
100
AcDbText
 10
350.3333333333333
 20
260.85
 30
0.0
 40
2.6
  1
2
 72
1
 11
350.3333333333333
 21
260.85
 31
0.0
100
AcDbText
 73
2
  0
LWPOLYLINE
  5
33C
330
17
100
AcDbEntity
  8
CONTORNO
 62
7
370
18
100
AcDbPolyline
 90
4
 70
1
 10
76.0
 20
227.0
 10
487.5
 20
227.0
 10
487.5
 20
248.0
 10
76.0
 20
248.0
  0
LINE
  5
33D
330
17
100
AcDbEntity
  8
ACERO_SUP
 62
5
370
30
100
AcDbLine
 10
76.0
 20
244.5
 30
0.0
 11
487.5
 21
244.5
 31
0.0
  0
LINE
  5
33E
330
17
100
AcDbEntity
  8
ACERO_SUP
 62
5
370
30
100
AcDbLine
 10
76.0
 20
242.4
 30
0.0
 11
487.5
 21
242.4
 31
0.0
  0
LINE
  5
33F
330
17
100
AcDbEntity
  8
ACERO_SUP
 62
5
370
30
100
AcDbLine
 10
76.0
 20
240.3
 30
0.0
 11
487.5
 21
240.3
 31
0.0
  0
LINE
  5
340
330
17
100
AcDbEntity
  8
ACERO_ADIC
 62
2
370
30
100
AcDbLine
 10
76.0
 20
238.0
 30
0.0
 11
224.14
 21
238.0
 31
0.0
  0
LINE
  5
341
330
17
100
AcDbEntity
  8
ACERO_ADIC
 62
2
370
30
100
AcDbLine
 10
339.36
 20
238.0
 30
0.0
 11
487.5
 21
238.0
 31
0.0
  0
LINE
  5
342
330
17
100
AcDbEntity
  8
ACERO_ADIC
 62
2
370
30
100
AcDbLine
 10
76.0
 20
236.5
 30
0.0
 11
224.14
 21
236.5
 31
0.0
  0
LINE
  5
343
330
17
100
AcDbEntity
  8
ACERO_ADIC
 62
2
370
30
100
AcDbLine
 10
339.36
 20
236.5
 30
0.0
 11
487.5
 21
236.5
 31
0.0
  0
LINE
  5
344
330
17
100
AcDbEntity
  8
ACERO_INF
 62
1
370
30
100
AcDbLine
 10
76.0
 20
230.5
 30
0.0
 11
487.5
 21
230.5
 31
0.0
  0
LINE
  5
345
330
17
100
AcDbEntity
  8
ACERO_INF
 62
1
370
30
100
AcDbLine
 10
76.0
 20
232.3
 30
0.0
 11
487.5
 21
232.3
 31
0.0
  0
LINE
  5
346
330
17
100
AcDbEntity
  8
ACERO_INF
 62
1
370
30
100
AcDbLine
 10
76.0
 20
234.1
 30
0.0
 11
487.5
 21
234.1
 31
0.0
  0
LINE
  5
347
330
17
100
AcDbEntity
  8
ACERO_INF
 62
1
370
30
100
AcDbLine
 10
76.0
 20
235.9
 30
0.0
 11
487.5
 21
235.9
 31
0.0
  0
LINE
  5
348
330
17
100
AcDbEntity
  8
ESTRIBOS
 62
7
370
9
100
AcDbLine
 10
79.0
 20
228.0
 30
0.0
 11
79.0
 21
247.0
 31
0.0
  0
LINE
  5
349
330
17
100
AcDbEntity
  8
ESTRIBOS
 62
7
370
9
100
AcDbLine
 10
97.99230769230769
 20
228.0
 30
0.0
 11
97.99230769230769
 21
247.0
 31
0.0
  0
LINE
  5
34A
330
17
100
AcDbEntity
  8
ESTRIBOS
 62
7
370
9
100
AcDbLine
 10
116.98461538461538
 20
228.0
 30
0.0
 11
116.98461538461538
 21
247.0
 31
0.0
  0
LINE
  5
34B
330
17
100
AcDbEntity
  8
ESTRIBOS
 62
7
370
9
100
AcDbLine
 10
135.97692307692307
 20
228.0
 30
0.0
 11
135.97692307692307
 21
247.0
 31
0.0
  0
LINE
  5
34C
330
17
100
AcDbEntity
  8
ESTRIBOS
 62
7
370
9
100
AcDbLine
 10
154.96923076923076
 20
228.0
 30
0.0
 11
154.96923076923076
 21
247.0
 31
0.0
  0
LINE
  5
34D
330
17
100
AcDbEntity
  8
ESTRIBOS
 62
7
370
9
100
AcDbLine
 10
173.96153846153845
 20
228.0
 30
0.0
 11
173.96153846153845
 21
247.0
 31
0.0
  0
LINE
  5
34E
330
17
100
AcDbEntity
  8
ESTRIBOS
 62
7
370
9
100
AcDbLine
 10
191.22000000000003
 20
228.0
 30
0.0
 11
191.22000000000003
 21
247.0
 31
0.0
  0
LINE
  5
34F
330
17
100
AcDbEntity
  8
ESTRIBOS
 62
7
370
9
100
AcDbLine
 10
211.79500000000002
 20
228.0
 30
0.0
 11
211.79500000000002
 21
247.0
 31
0.0
  0
LINE
  5
350
330
17
100
AcDbEntity
  8
ESTRIBOS
 62
7
370
9
100
AcDbLine
 10
232.37
 20
228.0
 30
0.0
 11
232.37
 21
247.0
 31
0.0
  0
LINE
  5
351
330
17
100
AcDbEntity
  8
ESTRIBOS
 62
7
370
9
100
AcDbLine
 10
252.945
 20
228.0
 30
0.0
 11
252.945
 21
247.0
 31
0.0
  0
LINE
  5
352
330
17
100
AcDbEntity
  8
ESTRIBOS
 62
7
370
9
100
AcDbLine
 10
273.52
 20
228.0
 30
0.0
 11
273.52
 21
247.0
 31
0.0
  0
LINE
  5
353
330
17
100
AcDbEntity
  8
ESTRIBOS
 62
7
370
9
100
AcDbLine
 10
294.09499999999997
 20
228.0
 30
0.0
 11
294.09499999999997
 21
247.0
 31
0.0
  0
LINE
  5
354
330
17
100
AcDbEntity
  8
ESTRIBOS
 62
7
370
9
100
AcDbLine
 10
314.66999999999996
 20
228.0
 30
0.0
 11
314.66999999999996
 21
247.0
 31
0.0
  0
LINE
  5
355
330
17
100
AcDbEntity
  8
ESTRIBOS
 62
7
370
9
100
AcDbLine
 10
335.24499999999995
 20
228.0
 30
0.0
 11
335.24499999999995
 21
247.0
 31
0.0
  0
LINE
  5
356
330
17
100
AcDbEntity
  8
ESTRIBOS
 62
7
370
9
100
AcDbLine
 10
355.81999999999994
 20
228.0
 30
0.0
 11
355.81999999999994
 21
247.0
 31
0.0
  0
LINE
  5
357
330
17
100
AcDbEntity
  8
ESTRIBOS
 62
7
370
9
100
AcDbLine
 10
372.28
 20
228.0
 30
0.0
 11
372.28
 21
247.0
 31
0.0
  0
LINE
  5
358
330
17
100
AcDbEntity
  8
ESTRIBOS
 62
7
370
9
100
AcDbLine
 10
391.27230769230766
 20
228.0
 30
0.0
 11
391.27230769230766
 21
247.0
 31
0.0
  0
LINE
  5
359
330
17
100
AcDbEntity
  8
ESTRIBOS
 62
7
370
9
100
AcDbLine
 10
410.26461538461535
 20
228.0
 30
0.0
 11
410.26461538461535
 21
247.0
 31
0.0
  0
LINE
  5
35A
330
17
100
AcDbEntity
  8
ESTRIBOS
 62
7
370
9
100
AcDbLine
 10
429.25692307692304
 20
228.0
 30
0.0
 11
429.25692307692304
 21
247.0
 31
0.0
  0
LINE
  5
35B
330
17
100
AcDbEntity
  8
ESTRIBOS
 62
7
370
9
100
AcDbLine
 10
448.24923076923073
 20
228.0
 30
0.0
 11
448.24923076923073
 21
247.0
 31
0.0
  0
LINE
  5
35C
330
17
100
AcDbEntity
  8
ESTRIBOS
 62
7
370
9
100
AcDbLine
 10
467.2415384615384
 20
228.0
 30
0.0
 11
467.2415384615384
 21
247.0
 31
0.0
  0
LINE
  5
35D
330
17
100
AcDbEntity
  8
COTAS
 62
3
370
18
100
AcDbLine
 10
76.0
 20
216.0
 30
0.0
 11
487.5
 21
216.0
 31
0.0
  0
LINE
  5
35E
330
17
100
AcDbEntity
  8
COTAS
 62
3
370
18
100
AcDbLine
 10
76.0
 20
214.0
 30
0.0
 11
76.0
 21
218.0
 31
0.0
  0
LINE
  5
35F
330
17
100
AcDbEntity
  8
COTAS
 62
3
370
18
100
AcDbLine
 10
487.5
 20
214.0
 30
0.0
 11
487.5
 21
218.0
 31
0.0
  0
TEXT
  5
360
330
17
100
AcDbEntity
  8
COTAS
 62
3
100
AcDbText
 10
281.75
 20
218.5
 30
0.0
 40
3.0
  1
L SAP I-J = 2.500 a 2.600 m
 72
1
 11
281.75
 21
218.5
 31
0.0
100
AcDbText
 73
2
  0
TEXT
  5
361
330
17
100
AcDbEntity
  8
TEXTO
 62
7
100
AcDbText
 10
281.75
 20
211.0
 30
0.0
 40
2.7
  1
Ln calculo = 1.900 a 2.000 m
 72
1
 11
281.75
 21
211.0
 31
0.0
100
AcDbText
 73
2
  0
TEXT
  5
362
330
17
100
AcDbEntity
  8
TEXTO
 62
7
100
AcDbText
 10
76.0
 20
207.0
 30
0.0
 40
2.8
  1
SUP: 4#5 | INF: 4#5 | TOR: 8#5 adicionales
 11
76.0
 21
207.0
 31
0.0
100
AcDbText
  0
TEXT
  5
363
330
17
100
AcDbEntity
  8
TEXTO
 62
7
100
AcDbText
 10
76.0
 20
201.0
 30
0.0
 40
2.8
  1
EST Nº3 2R: 1ro <=50; @120 en 2h; @130 centro
 11
76.0
 21
201.0
 31
0.0
100
AcDbText
  0
LWPOLYLINE
  5
364
330
17
100
AcDbEntity
  8
CORTE
 62
7
370
20
100
AcDbPolyline
 90
4
 70
1
 10
136.62
 20
57.0
 10
168.62
 20
57.0
 10
168.62
 20
97.0
 10
136.62
 20
97.0
  0
LWPOLYLINE
  5
365
330
17
100
AcDbEntity
  8
ESTRIBOS
 62
7
370
18
100
AcDbPolyline
 90
4
 70
1
 10
139.62
 20
60.0
 10
165.62
 20
60.0
 10
165.62
 20
94.0
 10
139.62
 20
94.0
  0
CIRCLE
  5
366
330
17
100
AcDbEntity
  8
ACERO_SUP
 62
5
100
AcDbCircle
 10
141.92000000000002
 20
91.7
 30
0.0
 40
1.0
  0
CIRCLE
  5
367
330
17
100
AcDbEntity
  8
ACERO_SUP
 62
5
100
AcDbCircle
 10
149.05333333333334
 20
91.7
 30
0.0
 40
1.0
  0
CIRCLE
  5
368
330
17
100
AcDbEntity
  8
ACERO_SUP
 62
5
100
AcDbCircle
 10
156.18666666666667
 20
91.7
 30
0.0
 40
1.0
  0
CIRCLE
  5
369
330
17
100
AcDbEntity
  8
ACERO_SUP
 62
5
100
AcDbCircle
 10
163.32000000000002
 20
91.7
 30
0.0
 40
1.0
  0
CIRCLE
  5
36A
330
17
100
AcDbEntity
  8
ACERO_INF
 62
1
100
AcDbCircle
 10
141.92000000000002
 20
62.3
 30
0.0
 40
1.0
  0
CIRCLE
  5
36B
330
17
100
AcDbEntity
  8
ACERO_INF
 62
1
100
AcDbCircle
 10
149.05333333333334
 20
62.3
 30
0.0
 40
1.0
  0
CIRCLE
  5
36C
330
17
100
AcDbEntity
  8
ACERO_INF
 62
1
100
AcDbCircle
 10
156.18666666666667
 20
62.3
 30
0.0
 40
1.0
  0
CIRCLE
  5
36D
330
17
100
AcDbEntity
  8
ACERO_INF
 62
1
100
AcDbCircle
 10
163.32000000000002
 20
62.3
 30
0.0
 40
1.0
  0
CIRCLE
  5
36E
330
17
100
AcDbEntity
  8
ACERO_TOR
 62
30
100
AcDbCircle
 10
141.82
 20
77.0
 30
0.0
 40
0.9
  0
CIRCLE
  5
36F
330
17
100
AcDbEntity
  8
ACERO_TOR
 62
30
100
AcDbCircle
 10
163.42000000000002
 20
77.0
 30
0.0
 40
0.9
  0
TEXT
  5
370
330
17
100
AcDbEntity
  8
TEXTO
 62
7
100
AcDbText
 10
152.62
 20
51.5
 30
0.0
 40
2.8
  1
CORTE A-A
 72
1
 11
152.62
 21
51.5
 31
0.0
100
AcDbText
 73
2
  0
TEXT
  5
371
330
17
100
AcDbEntity
  8
TEXTO
 62
7
100
AcDbText
 10
152.62
 20
47.0
 30
0.0
 40
2.7
  1
450x550
 72
1
 11
152.62
 21
47.0
 31
0.0
100
AcDbText
 73
2
  0
LWPOLYLINE
  5
372
330
17
100
AcDbEntity
  8
CORTE
 62
7
370
20
100
AcDbPolyline
 90
4
 70
1
 10
254.58000000000004
 20
57.0
 10
286.58000000000004
 20
57.0
 10
286.58000000000004
 20
97.0
 10
254.58000000000004
 20
97.0
  0
LWPOLYLINE
  5
373
330
17
100
AcDbEntity
  8
ESTRIBOS
 62
7
370
18
100
AcDbPolyline
 90
4
 70
1
 10
257.58000000000004
 20
60.0
 10
283.58000000000004
 20
60.0
 10
283.58000000000004
 20
94.0
 10
257.58000000000004
 20
94.0
  0
CIRCLE
  5
374
330
17
100
AcDbEntity
  8
ACERO_SUP
 62
5
100
AcDbCircle
 10
259.88000000000005
 20
91.7
 30
0.0
 40
1.0
  0
CIRCLE
  5
375
330
17
100
AcDbEntity
  8
ACERO_SUP
 62
5
100
AcDbCircle
 10
267.0133333333334
 20
91.7
 30
0.0
 40
1.0
  0
CIRCLE
  5
376
330
17
100
AcDbEntity
  8
ACERO_SUP
 62
5
100
AcDbCircle
 10
274.1466666666667
 20
91.7
 30
0.0
 40
1.0
  0
CIRCLE
  5
377
330
17
100
AcDbEntity
  8
ACERO_SUP
 62
5
100
AcDbCircle
 10
281.28000000000003
 20
91.7
 30
0.0
 40
1.0
  0
CIRCLE
  5
378
330
17
100
AcDbEntity
  8
ACERO_INF
 62
1
100
AcDbCircle
 10
259.88000000000005
 20
62.3
 30
0.0
 40
1.0
  0
CIRCLE
  5
379
330
17
100
AcDbEntity
  8
ACERO_INF
 62
1
100
AcDbCircle
 10
267.0133333333334
 20
62.3
 30
0.0
 40
1.0
  0
CIRCLE
  5
37A
330
17
100
AcDbEntity
  8
ACERO_INF
 62
1
100
AcDbCircle
 10
274.1466666666667
 20
62.3
 30
0.0
 40
1.0
  0
CIRCLE
  5
37B
330
17
100
AcDbEntity
  8
ACERO_INF
 62
1
100
AcDbCircle
 10
281.28000000000003
 20
62.3
 30
0.0
 40
1.0
  0
CIRCLE
  5
37C
330
17
100
AcDbEntity
  8
ACERO_TOR
 62
30
100
AcDbCircle
 10
259.78000000000003
 20
77.0
 30
0.0
 40
0.9
  0
CIRCLE
  5
37D
330
17
100
AcDbEntity
  8
ACERO_TOR
 62
30
100
AcDbCircle
 10
281.38000000000005
 20
77.0
 30
0.0
 40
0.9
  0
TEXT
  5
37E
330
17
100
AcDbEntity
  8
TEXTO
 62
7
100
AcDbText
 10
270.58000000000004
 20
51.5
 30
0.0
 40
2.8
  1
CORTE B-B
 72
1
 11
270.58000000000004
 21
51.5
 31
0.0
100
AcDbText
 73
2
  0
TEXT
  5
37F
330
17
100
AcDbEntity
  8
TEXTO
 62
7
100
AcDbText
 10
270.58000000000004
 20
47.0
 30
0.0
 40
2.7
  1
450x550
 72
1
 11
270.58000000000004
 21
47.0
 31
0.0
100
AcDbText
 73
2
  0
LWPOLYLINE
  5
380
330
17
100
AcDbEntity
  8
CORTE
 62
7
370
20
100
AcDbPolyline
 90
4
 70
1
 10
372.54
 20
57.0
 10
404.54
 20
57.0
 10
404.54
 20
97.0
 10
372.54
 20
97.0
  0
LWPOLYLINE
  5
381
330
17
100
AcDbEntity
  8
ESTRIBOS
 62
7
370
18
100
AcDbPolyline
 90
4
 70
1
 10
375.54
 20
60.0
 10
401.54
 20
60.0
 10
401.54
 20
94.0
 10
375.54
 20
94.0
  0
CIRCLE
  5
382
330
17
100
AcDbEntity
  8
ACERO_SUP
 62
5
100
AcDbCircle
 10
377.84000000000003
 20
91.7
 30
0.0
 40
1.0
  0
CIRCLE
  5
383
330
17
100
AcDbEntity
  8
ACERO_SUP
 62
5
100
AcDbCircle
 10
384.97333333333336
 20
91.7
 30
0.0
 40
1.0
  0
CIRCLE
  5
384
330
17
100
AcDbEntity
  8
ACERO_SUP
 62
5
100
AcDbCircle
 10
392.1066666666667
 20
91.7
 30
0.0
 40
1.0
  0
CIRCLE
  5
385
330
17
100
AcDbEntity
  8
ACERO_SUP
 62
5
100
AcDbCircle
 10
399.24
 20
91.7
 30
0.0
 40
1.0
  0
CIRCLE
  5
386
330
17
100
AcDbEntity
  8
ACERO_INF
 62
1
100
AcDbCircle
 10
377.84000000000003
 20
62.3
 30
0.0
 40
1.0
  0
CIRCLE
  5
387
330
17
100
AcDbEntity
  8
ACERO_INF
 62
1
100
AcDbCircle
 10
384.97333333333336
 20
62.3
 30
0.0
 40
1.0
  0
CIRCLE
  5
388
330
17
100
AcDbEntity
  8
ACERO_INF
 62
1
100
AcDbCircle
 10
392.1066666666667
 20
62.3
 30
0.0
 40
1.0
  0
CIRCLE
  5
389
330
17
100
AcDbEntity
  8
ACERO_INF
 62
1
100
AcDbCircle
 10
399.24
 20
62.3
 30
0.0
 40
1.0
  0
CIRCLE
  5
38A
330
17
100
AcDbEntity
  8
ACERO_TOR
 62
30
100
AcDbCircle
 10
377.74
 20
77.0
 30
0.0
 40
0.9
  0
CIRCLE
  5
38B
330
17
100
AcDbEntity
  8
ACERO_TOR
 62
30
100
AcDbCircle
 10
399.34000000000003
 20
77.0
 30
0.0
 40
0.9
  0
TEXT
  5
38C
330
17
100
AcDbEntity
  8
TEXTO
 62
7
100
AcDbText
 10
388.54
 20
51.5
 30
0.0
 40
2.8
  1
CORTE C-C
 72
1
 11
388.54
 21
51.5
 31
0.0
100
AcDbText
 73
2
  0
TEXT
  5
38D
330
17
100
AcDbEntity
  8
TEXTO
 62
7
100
AcDbText
 10
388.54
 20
47.0
 30
0.0
 40
2.7
  1
450x550
 72
1
 11
388.54
 21
47.0
 31
0.0
100
AcDbText
 73
2
  0
TEXT
  5
38E
330
17
100
AcDbEntity
  8
TEXTO
 62
7
100
AcDbText
 10
22.0
 20
44.0
 30
0.0
 40
2.8
  1
40 frames | variantes de longitud: 2
 11
22.0
 21
44.0
 31
0.0
100
AcDbText
  0
TEXT
  5
38F
330
17
100
AcDbEntity
  8
TEXTO
 62
3
100
AcDbText
 10
499.5
 20
44.0
 30
0.0
 40
2.8
  1
Verificacion seccional: CUMPLE
 72
2
 11
499.5
 21
44.0
 31
0.0
100
AcDbText
  0
TEXT
  5
390
330
17
100
AcDbEntity
  8
TITULO
 62
6
100
AcDbText
 10
14.0
 20
21.0
 30
0.0
 40
4.0
  1
DESPIECE VIGAS DE RIGIDEZ
 11
14.0
 21
21.0
 31
0.0
100
AcDbText
  0
TEXT
  5
391
330
17
100
AcDbEntity
  8
TEXTO
 62
7
100
AcDbText
 10
239.0
 20
21.0
 30
0.0
 40
3.0
  1
L SAP I-J corresponde a Connectivity - Frame. Ln calculo es una hipotesis de diseño y no una cota geometrica.
 11
239.0
 21
21.0
 31
0.0
100
AcDbText
  0
TEXT
  5
392
330
17
100
AcDbEntity
  8
TEXTO
 62
7
100
AcDbText
 10
239.0
 20
16.0
 30
0.0
 40
3.0
  1
Detalle por grupo; las longitudes exactas de cada frame se conservan en el Excel y en los DXF individuales.
 11
239.0
 21
16.0
 31
0.0
100
AcDbText
  0
TEXT
  5
393
330
17
100
AcDbEntity
  8
TEXTO
 62
7
100
AcDbText
 10
14.0
 20
16.0
 30
0.0
 40
3.0
  1
Grupos incluidos: VR1, VR N1, VR2, VR3, VRAUX
 11
14.0
 21
16.0
 31
0.0
100
AcDbText
  0
VIEWPORT
  5
398
330
394
100
AcDbEntity
 67
1
  8
VIEWPORTS
100
AcDbViewport
 10
594.5
 20
420.5
 30
0.0
 40
1307.9
 41
925.1
 68
1
 69
1
 12
594.5
 22
420.5
 13
0.0
 23
0.0
 14
10.0
 24
10.0
 15
10.0
 25
10.0
 16
0.0
 26
0.0
 36
1.0
 17
0.0
 27
0.0
 37
0.0
 42
50.0
 43
0.0
 44
0.0
 45
925.1
 50
0.0
 51
0.0
 72
100
 90
557088
  1

281
0
 71
0
 74
0
110
0.0
120
0.0
130
0.0
111
1.0
121
0.0
131
0.0
112
0.0
122
1.0
132
0.0
 79
0
146
0.0
282
0
  0
VIEWPORT
  5
399
330
394
100
AcDbEntity
 67
1
  8
VIEWPORTS
100
AcDbViewport
 10
594.5
 20
420.5
 30
0.0
 40
1189.0
 41
841.0
 68
2
 69
3
 12
594.5
 22
420.5
 13
0.0
 23
0.0
 14
10.0
 24
10.0
 15
10.0
 25
10.0
 16
0.0
 26
0.0
 36
1.0
 17
0.0
 27
0.0
 37
0.0
 42
50.0
 43
0.0
 44
0.0
 45
841.0
 50
0.0
 51
0.0
 72
100
 90
0
  1

281
0
 71
0
 74
0
110
0.0
120
0.0
130
0.0
111
1.0
121
0.0
131
0.0
112
0.0
122
1.0
132
0.0
 79
0
146
0.0
282
0
  0
ENDSEC
  0
SECTION
  2
OBJECTS
  0
DICTIONARY
  5
A
330
0
100
AcDbDictionary
281
1
  3
ACAD_COLOR
350
B
  3
ACAD_GROUP
350
C
  3
ACAD_LAYOUT
350
D
  3
ACAD_MATERIAL
350
E
  3
ACAD_MLEADERSTYLE
350
F
  3
ACAD_MLINESTYLE
350
10
  3
ACAD_PLOTSETTINGS
350
11
  3
ACAD_PLOTSTYLENAME
350
12
  3
ACAD_SCALELIST
350
14
  3
ACAD_TABLESTYLE
350
15
  3
ACAD_VISUALSTYLE
350
16
  3
EZDXF_META
350
2D
  0
DICTIONARY
  5
B
330
A
100
AcDbDictionary
281
1
  0
DICTIONARY
  5
C
330
A
100
AcDbDictionary
281
1
  0
DICTIONARY
  5
D
330
A
100
AcDbDictionary
281
1
  3
Model
350
1A
  3
A0_HORIZONTAL
350
397
  0
DICTIONARY
  5
E
330
A
100
AcDbDictionary
281
1
  3
ByBlock
350
1F
  3
ByLayer
350
20
  3
Global
350
21
  0
DICTIONARY
  5
F
330
A
100
AcDbDictionary
281
1
  3
Standard
350
2C
  0
DICTIONARY
  5
10
330
A
100
AcDbDictionary
281
1
  3
Standard
350
22
  0
DICTIONARY
  5
11
330
A
100
AcDbDictionary
281
1
  0
ACDBDICTIONARYWDFLT
  5
12
330
A
100
AcDbDictionary
281
1
  3
Normal
350
13
100
AcDbDictionaryWithDefault
340
13
  0
ACDBPLACEHOLDER
  5
13
330
12
  0
DICTIONARY
  5
14
330
A
100
AcDbDictionary
281
1
  0
DICTIONARY
  5
15
330
A
100
AcDbDictionary
281
1
  0
DICTIONARY
  5
16
330
A
100
AcDbDictionary
281
1
  3
2dWireframe
350
5A
  3
Basic
350
5B
  3
Brighten
350
5C
  3
ColorChange
350
5D
  3
Conceptual
350
5E
  3
Dim
350
5F
  3
EdgeColorOff
350
60
  3
Facepattern
350
61
  3
Flat
350
62
  3
FlatWithEdges
350
63
  3
Gouraud
350
64
  3
GouraudWithEdges
350
65
  3
Hidden
350
66
  3
JitterOff
350
67
  3
Linepattern
350
68
  3
Modeling
350
69
  3
OverhangOff
350
6A
  3
Realistic
350
6B
  3
Shaded
350
6C
  3
Shaded with edges
350
6D
  3
Shades of Gray
350
6E
  3
Sketchy
350
6F
  3
Thicken
350
70
  3
Wireframe
350
71
  3
X-Ray
350
72
  0
LAYOUT
  5
1A
330
D
100
AcDbPlotSettings
  1

  4
A3
  6

 40
7.5
 41
20.0
 42
7.5
 43
20.0
 44
420.0
 45
297.0
 46
0.0
 47
0.0
 48
0.0
 49
0.0
140
0.0
141
0.0
142
1.0
143
1.0
 70
1024
 72
1
 73
0
 74
5
  7

 75
16
 76
0
 77
2
 78
300
147
1.0
148
0.0
149
0.0
100
AcDbLayout
  1
Model
 70
1
 71
0
 10
0.0
 20
0.0
 11
420.0
 21
297.0
 12
0.0
 22
0.0
 32
0.0
 14
1e+20
 24
1e+20
 34
1e+20
 15
-1e+20
 25
-1e+20
 35
-1e+20
146
0.0
 13
0.0
 23
0.0
 33
0.0
 16
1.0
 26
0.0
 36
0.0
 17
0.0
 27
1.0
 37
0.0
 76
1
330
17
  0
MATERIAL
  5
1F
102
{ACAD_REACTORS
330
E
102
}
330
E
100
AcDbMaterial
  1
ByBlock
  2

 70
0
 40
1.0
 71
1
 41
1.0
 91
-1023410177
 42
1.0
 72
1
  3

 73
1
 74
1
 75
1
 44
0.5
 73
0
 45
1.0
 46
1.0
 77
1
  4

 78
1
 79
1
170
1
 48
1.0
171
1
  6

172
1
173
1
174
1
140
1.0
141
1.0
175
1
  7

176
1
177
1
178
1
143
1.0
179
1
  8

270
1
271
1
272
1
145
1.0
146
1.0
273
1
  9

274
1
275
1
276
1
 42
1.0
 72
1
  3

 73
1
 74
1
 75
1
 94
63
  0
MATERIAL
  5
20
102
{ACAD_REACTORS
330
E
102
}
330
E
100
AcDbMaterial
  1
ByLayer
  2

 70
0
 40
1.0
 71
1
 41
1.0
 91
-1023410177
 42
1.0
 72
1
  3

 73
1
 74
1
 75
1
 44
0.5
 73
0
 45
1.0
 46
1.0
 77
1
  4

 78
1
 79
1
170
1
 48
1.0
171
1
  6

172
1
173
1
174
1
140
1.0
141
1.0
175
1
  7

176
1
177
1
178
1
143
1.0
179
1
  8

270
1
271
1
272
1
145
1.0
146
1.0
273
1
  9

274
1
275
1
276
1
 42
1.0
 72
1
  3

 73
1
 74
1
 75
1
 94
63
  0
MATERIAL
  5
21
102
{ACAD_REACTORS
330
E
102
}
330
E
100
AcDbMaterial
  1
Global
  2

 70
0
 40
1.0
 71
1
 41
1.0
 91
-1023410177
 42
1.0
 72
1
  3

 73
1
 74
1
 75
1
 44
0.5
 73
0
 45
1.0
 46
1.0
 77
1
  4

 78
1
 79
1
170
1
 48
1.0
171
1
  6

172
1
173
1
174
1
140
1.0
141
1.0
175
1
  7

176
1
177
1
178
1
143
1.0
179
1
  8

270
1
271
1
272
1
145
1.0
146
1.0
273
1
  9

274
1
275
1
276
1
 42
1.0
 72
1
  3

 73
1
 74
1
 75
1
 94
63
  0
MLINESTYLE
  5
22
102
{ACAD_REACTORS
330
10
102
}
330
10
100
AcDbMlineStyle
  2
Standard
 70
0
  3

 62
256
 51
90.0
 52
90.0
 71
2
 49
0.5
 62
256
  6
BYLAYER
 49
-0.5
 62
256
  6
BYLAYER
  0
MLEADERSTYLE
  5
2C
102
{ACAD_REACTORS
330
F
102
}
330
F
100
AcDbMLeaderStyle
179
2
170
2
171
1
172
0
 90
2
 40
0.0
 41
0.0
173
1
 91
-1056964608
 92
-2
290
1
 42
2.0
291
1
 43
8.0
  3
Standard
 44
4.0
300

342
29
174
1
175
1
176
0
178
1
 93
-1056964608
 45
4.0
292
0
297
0
 46
4.0
 94
-1056964608
 47
1.0
 49
1.0
140
1.0
294
1
141
0.0
177
0
142
1.0
295
0
296
0
143
3.75
271
0
272
9
273
9
  0
DICTIONARY
  5
2D
330
A
100
AcDbDictionary
280
1
281
1
  3
CREATED_BY_EZDXF
350
2E
  3
WRITTEN_BY_EZDXF
350
39C
  0
DICTIONARYVAR
  5
2E
330
2D
100
DictionaryVariables
280
0
  1
1.4.4 @ 2026-07-18T01:35:08.046054+00:00
  0
VISUALSTYLE
  5
5A
102
{ACAD_REACTORS
330
16
102
}
330
16
100
AcDbVisualStyle
  2
2dWireframe
 70
4
177
3
291
0
 70
58
 90
2
176
1
 90
2
176
1
 90
0
176
1
 90
0
176
1
 40
0.6
176
1
 40
30.0
176
1
 62
7
420
16777215
176
1
 90
1
176
1
 90
4
176
1
 62
7
176
1
 62
257
176
1
 90
1
176
1
 90
1
176
1
 40
1.0
176
1
 90
8
176
1
 62
7
176
1
 40
1.0
176
1
 90
1
176
1
 90
6
176
1
 90
2
176
1
 62
7
176
1
 90
5
176
1
 90
0
176
1
 90
0
176
1
290
0
176
1
 90
1
176
1
 40
0.0
176
1
 90
0
176
1
290
1
176
1
290
1
176
1
290
0
176
1
290
0
176
1
290
0
176
1
290
0
176
1
290
0
176
1
290
0
176
1
290
0
176
1
 90
50
176
1
 40
0.0
176
1
 40
1.0
176
1
 90
0
176
1
 62
18
420
0
176
1
 90
50
176
1
 90
3
176
1
 62
5
420
255
176
1
290
0
176
1
 90
50
176
1
 90
50
176
1
 90
50
176
1
290
0
176
1
 90
50
176
1
 62
256
176
0
 40
1.0
176
0
 90
2
176
1
  1
strokes_ogs.tif
176
1
290
0
176
1
 40
1.0
176
1
 40
1.0
176
1
  0
VISUALSTYLE
  5
5B
102
{ACAD_REACTORS
330
16
102
}
330
16
100
AcDbVisualStyle
  2
Basic
 70
7
177
3
291
1
 70
58
 90
2
176
1
 90
2
176
1
 90
0
176
1
 90
1
176
1
 40
0.6
176
1
 40
30.0
176
1
 62
7
420
16777215
176
1
 90
1
176
1
 90
4
176
1
 62
7
176
1
 62
257
176
1
 90
1
176
1
 90
1
176
1
 40
1.0
176
1
 90
8
176
1
 62
7
176
1
 40
1.0
176
1
 90
1
176
1
 90
6
176
1
 90
2
176
1
 62
7
176
1
 90
5
176
1
 90
0
176
1
 90
0
176
1
290
0
176
1
 90
1
176
1
 40
0.0
176
1
 90
0
176
1
290
0
176
1
290
1
176
1
290
1
176
1
290
0
176
1
290
0
176
1
290
0
176
1
290
0
176
1
290
0
176
1
290
0
176
1
 90
50
176
1
 40
0.0
176
1
 40
1.0
176
1
 90
0
176
1
 62
18
420
0
176
1
 90
50
176
1
 90
3
176
1
 62
5
420
255
176
1
290
0
176
1
 90
50
176
1
 90
50
176
1
 90
50
176
1
290
0
176
1
 90
50
176
1
 62
256
176
0
 40
1.0
176
0
 90
2
176
1
  1
strokes_ogs.tif
176
1
290
0
176
1
 40
1.0
176
1
 40
1.0
176
1
  0
VISUALSTYLE
  5
5C
102
{ACAD_REACTORS
330
16
102
}
330
16
100
AcDbVisualStyle
  2
Brighten
 70
12
177
3
291
1
 70
58
 90
2
176
1
 90
2
176
1
 90
0
176
1
 90
2
176
1
 40
0.6
176
1
 40
30.0
176
1
 62
7
420
16777215
176
1
 90
1
176
1
 90
4
176
1
 62
7
176
1
 62
257
176
1
 90
1
176
1
 90
1
176
1
 40
1.0
176
1
 90
8
176
1
 62
7
176
1
 40
1.0
176
1
 90
1
176
1
 90
6
176
1
 90
2
176
1
 62
7
176
1
 90
5
176
1
 90
0
176
1
 90
0
176
1
290
0
176
1
 90
1
176
1
 40
0.0
176
1
 90
0
176
1
290
0
176
1
290
1
176
1
290
1
176
1
290
0
176
1
290
0
176
1
290
0
176
1
290
0
176
1
290
0
176
1
290
0
176
1
 90
50
176
1
 40
0.0
176
1
 40
1.0
176
1
 90
0
176
1
 62
18
420
0
176
1
 90
50
176
1
 90
3
176
1
 62
5
420
255
176
1
290
0
176
1
 90
50
176
1
 90
50
176
1
 90
50
176
1
290
0
176
1
 90
50
176
1
 62
256
176
0
 40
1.0
176
0
 90
2
176
1
  1
strokes_ogs.tif
176
1
290
0
176
1
 40
1.0
176
1
 40
1.0
176
1
  0
VISUALSTYLE
  5
5D
102
{ACAD_REACTORS
330
16
102
}
330
16
100
AcDbVisualStyle
  2
ColorChange
 70
16
177
3
291
1
 70
58
 90
2
176
1
 90
2
176
1
 90
0
176
1
 90
2
176
1
 40
0.6
176
1
 40
30.0
176
1
 62
7
420
16777215
176
1
 90
1
176
1
 90
4
176
1
 62
7
176
1
 62
257
176
1
 90
1
176
1
 90
1
176
1
 40
1.0
176
1
 90
8
176
1
 62
7
176
1
 40
1.0
176
1
 90
1
176
1
 90
6
176
1
 90
2
176
1
 62
7
176
1
 90
5
176
1
 90
0
176
1
 90
0
176
1
290
0
176
1
 90
1
176
1
 40
0.0
176
1
 90
0
176
1
290
0
176
1
290
1
176
1
290
1
176
1
290
0
176
1
290
0
176
1
290
0
176
1
290
0
176
1
290
0
176
1
290
0
176
1
 90
50
176
1
 40
0.0
176
1
 40
1.0
176
1
 90
0
176
1
 62
18
420
0
176
1
 90
50
176
1
 90
3
176
1
 62
5
420
255
176
1
290
0
176
1
 90
50
176
1
 90
50
176
1
 90
50
176
1
290
0
176
1
 90
50
176
1
 62
256
176
0
 40
1.0
176
0
 90
2
176
1
  1
strokes_ogs.tif
176
1
290
0
176
1
 40
1.0
176
1
 40
1.0
176
1
  0
VISUALSTYLE
  5
5E
102
{ACAD_REACTORS
330
16
102
}
330
16
100
AcDbVisualStyle
  2
Conceptual
 70
9
177
3
291
0
 70
58
 90
2
176
1
 90
2
176
1
 90
0
176
1
 90
3
176
1
 40
0.6
176
1
 40
30.0
176
1
 62
7
420
16777215
176
1
 90
1
176
1
 90
4
176
1
 62
7
176
1
 62
257
176
1
 90
1
176
1
 90
1
176
1
 40
1.0
176
1
 90
8
176
1
 62
7
176
1
 40
1.0
176
1
 90
1
176
1
 90
6
176
1
 90
2
176
1
 62
7
176
1
 90
5
176
1
 90
0
176
1
 90
0
176
1
290
0
176
1
 90
1
176
1
 40
0.0
176
1
 90
0
176
1
290
0
176
1
290
1
176
1
290
1
176
1
290
0
176
1
290
0
176
1
290
0
176
1
290
0
176
1
290
0
176
1
290
0
176
1
 90
50
176
1
 40
0.0
176
1
 40
1.0
176
1
 90
0
176
1
 62
18
420
0
176
1
 90
50
176
1
 90
3
176
1
 62
5
420
255
176
1
290
0
176
1
 90
50
176
1
 90
50
176
1
 90
50
176
1
290
0
176
1
 90
50
176
1
 62
256
176
0
 40
1.0
176
0
 90
2
176
1
  1
strokes_ogs.tif
176
1
290
0
176
1
 40
1.0
176
1
 40
1.0
176
1
  0
VISUALSTYLE
  5
5F
102
{ACAD_REACTORS
330
16
102
}
330
16
100
AcDbVisualStyle
  2
Dim
 70
11
177
3
291
1
 70
58
 90
2
176
1
 90
2
176
1
 90
0
176
1
 90
2
176
1
 40
0.6
176
1
 40
30.0
176
1
 62
7
420
16777215
176
1
 90
1
176
1
 90
4
176
1
 62
7
176
1
 62
257
176
1
 90
1
176
1
 90
1
176
1
 40
1.0
176
1
 90
8
176
1
 62
7
176
1
 40
1.0
176
1
 90
1
176
1
 90
6
176
1
 90
2
176
1
 62
7
176
1
 90
5
176
1
 90
0
176
1
 90
0
176
1
290
0
176
1
 90
1
176
1
 40
0.0
176
1
 90
0
176
1
290
0
176
1
290
1
176
1
290
1
176
1
290
0
176
1
290
0
176
1
290
0
176
1
290
0
176
1
290
0
176
1
290
0
176
1
 90
50
176
1
 40
0.0
176
1
 40
1.0
176
1
 90
0
176
1
 62
18
420
0
176
1
 90
50
176
1
 90
3
176
1
 62
5
420
255
176
1
290
0
176
1
 90
50
176
1
 90
50
176
1
 90
50
176
1
290
0
176
1
 90
50
176
1
 62
256
176
0
 40
1.0
176
0
 90
2
176
1
  1
strokes_ogs.tif
176
1
290
0
176
1
 40
1.0
176
1
 40
1.0
176
1
  0
VISUALSTYLE
  5
60
102
{ACAD_REACTORS
330
16
102
}
330
16
100
AcDbVisualStyle
  2
EdgeColorOff
 70
22
177
3
291
1
 70
58
 90
2
176
1
 90
2
176
1
 90
0
176
1
 90
2
176
1
 40
0.6
176
1
 40
30.0
176
1
 62
7
420
16777215
176
1
 90
1
176
1
 90
4
176
1
 62
7
176
1
 62
257
176
1
 90
1
176
1
 90
1
176
1
 40
1.0
176
1
 90
8
176
1
 62
7
176
1
 40
1.0
176
1
 90
1
176
1
 90
6
176
1
 90
2
176
1
 62
7
176
1
 90
5
176
1
 90
0
176
1
 90
0
176
1
290
0
176
1
 90
1
176
1
 40
0.0
176
1
 90
0
176
1
290
0
176
1
290
1
176
1
290
1
176
1
290
0
176
1
290
0
176
1
290
0
176
1
290
0
176
1
290
0
176
1
290
0
176
1
 90
50
176
1
 40
0.0
176
1
 40
1.0
176
1
 90
0
176
1
 62
18
420
0
176
1
 90
50
176
1
 90
3
176
1
 62
5
420
255
176
1
290
0
176
1
 90
50
176
1
 90
50
176
1
 90
50
176
1
290
0
176
1
 90
50
176
1
 62
256
176
0
 40
1.0
176
0
 90
2
176
1
  1
strokes_ogs.tif
176
1
290
0
176
1
 40
1.0
176
1
 40
1.0
176
1
  0
VISUALSTYLE
  5
61
102
{ACAD_REACTORS
330
16
102
}
330
16
100
AcDbVisualStyle
  2
Facepattern
 70
15
177
3
291
1
 70
58
 90
2
176
1
 90
2
176
1
 90
0
176
1
 90
2
176
1
 40
0.6
176
1
 40
30.0
176
1
 62
7
420
16777215
176
1
 90
1
176
1
 90
4
176
1
 62
7
176
1
 62
257
176
1
 90
1
176
1
 90
1
176
1
 40
1.0
176
1
 90
8
176
1
 62
7
176
1
 40
1.0
176
1
 90
1
176
1
 90
6
176
1
 90
2
176
1
 62
7
176
1
 90
5
176
1
 90
0
176
1
 90
0
176
1
290
0
176
1
 90
1
176
1
 40
0.0
176
1
 90
0
176
1
290
0
176
1
290
1
176
1
290
1
176
1
290
0
176
1
290
0
176
1
290
0
176
1
290
0
176
1
290
0
176
1
290
0
176
1
 90
50
176
1
 40
0.0
176
1
 40
1.0
176
1
 90
0
176
1
 62
18
420
0
176
1
 90
50
176
1
 90
3
176
1
 62
5
420
255
176
1
290
0
176
1
 90
50
176
1
 90
50
176
1
 90
50
176
1
290
0
176
1
 90
50
176
1
 62
256
176
0
 40
1.0
176
0
 90
2
176
1
  1
strokes_ogs.tif
176
1
290
0
176
1
 40
1.0
176
1
 40
1.0
176
1
  0
VISUALSTYLE
  5
62
102
{ACAD_REACTORS
330
16
102
}
330
16
100
AcDbVisualStyle
  2
Flat
 70
0
177
3
291
1
 70
58
 90
2
176
1
 90
2
176
1
 90
0
176
1
 90
2
176
1
 40
0.6
176
1
 40
30.0
176
1
 62
7
420
16777215
176
1
 90
1
176
1
 90
4
176
1
 62
7
176
1
 62
257
176
1
 90
1
176
1
 90
1
176
1
 40
1.0
176
1
 90
8
176
1
 62
7
176
1
 40
1.0
176
1
 90
1
176
1
 90
6
176
1
 90
2
176
1
 62
7
176
1
 90
5
176
1
 90
0
176
1
 90
0
176
1
290
0
176
1
 90
1
176
1
 40
0.0
176
1
 90
0
176
1
290
0
176
1
290
1
176
1
290
1
176
1
290
0
176
1
290
0
176
1
290
0
176
1
290
0
176
1
290
0
176
1
290
0
176
1
 90
50
176
1
 40
0.0
176
1
 40
1.0
176
1
 90
0
176
1
 62
18
420
0
176
1
 90
50
176
1
 90
3
176
1
 62
5
420
255
176
1
290
0
176
1
 90
50
176
1
 90
50
176
1
 90
50
176
1
290
0
176
1
 90
50
176
1
 62
256
176
0
 40
1.0
176
0
 90
2
176
1
  1
strokes_ogs.tif
176
1
290
0
176
1
 40
1.0
176
1
 40
1.0
176
1
  0
VISUALSTYLE
  5
63
102
{ACAD_REACTORS
330
16
102
}
330
16
100
AcDbVisualStyle
  2
FlatWithEdges
 70
1
177
3
291
1
 70
58
 90
2
176
1
 90
2
176
1
 90
0
176
1
 90
2
176
1
 40
0.6
176
1
 40
30.0
176
1
 62
7
420
16777215
176
1
 90
1
176
1
 90
4
176
1
 62
7
176
1
 62
257
176
1
 90
1
176
1
 90
1
176
1
 40
1.0
176
1
 90
8
176
1
 62
7
176
1
 40
1.0
176
1
 90
1
176
1
 90
6
176
1
 90
2
176
1
 62
7
176
1
 90
5
176
1
 90
0
176
1
 90
0
176
1
290
0
176
1
 90
1
176
1
 40
0.0
176
1
 90
0
176
1
290
0
176
1
290
1
176
1
290
1
176
1
290
0
176
1
290
0
176
1
290
0
176
1
290
0
176
1
290
0
176
1
290
0
176
1
 90
50
176
1
 40
0.0
176
1
 40
1.0
176
1
 90
0
176
1
 62
18
420
0
176
1
 90
50
176
1
 90
3
176
1
 62
5
420
255
176
1
290
0
176
1
 90
50
176
1
 90
50
176
1
 90
50
176
1
290
0
176
1
 90
50
176
1
 62
256
176
0
 40
1.0
176
0
 90
2
176
1
  1
strokes_ogs.tif
176
1
290
0
176
1
 40
1.0
176
1
 40
1.0
176
1
  0
VISUALSTYLE
  5
64
102
{ACAD_REACTORS
330
16
102
}
330
16
100
AcDbVisualStyle
  2
Gouraud
 70
2
177
3
291
1
 70
58
 90
2
176
1
 90
2
176
1
 90
0
176
1
 90
2
176
1
 40
0.6
176
1
 40
30.0
176
1
 62
7
420
16777215
176
1
 90
1
176
1
 90
4
176
1
 62
7
176
1
 62
257
176
1
 90
1
176
1
 90
1
176
1
 40
1.0
176
1
 90
8
176
1
 62
7
176
1
 40
1.0
176
1
 90
1
176
1
 90
6
176
1
 90
2
176
1
 62
7
176
1
 90
5
176
1
 90
0
176
1
 90
0
176
1
290
0
176
1
 90
1
176
1
 40
0.0
176
1
 90
0
176
1
290
0
176
1
290
1
176
1
290
1
176
1
290
0
176
1
290
0
176
1
290
0
176
1
290
0
176
1
290
0
176
1
290
0
176
1
 90
50
176
1
 40
0.0
176
1
 40
1.0
176
1
 90
0
176
1
 62
18
420
0
176
1
 90
50
176
1
 90
3
176
1
 62
5
420
255
176
1
290
0
176
1
 90
50
176
1
 90
50
176
1
 90
50
176
1
290
0
176
1
 90
50
176
1
 62
256
176
0
 40
1.0
176
0
 90
2
176
1
  1
strokes_ogs.tif
176
1
290
0
176
1
 40
1.0
176
1
 40
1.0
176
1
  0
VISUALSTYLE
  5
65
102
{ACAD_REACTORS
330
16
102
}
330
16
100
AcDbVisualStyle
  2
GouraudWithEdges
 70
3
177
3
291
1
 70
58
 90
2
176
1
 90
2
176
1
 90
0
176
1
 90
2
176
1
 40
0.6
176
1
 40
30.0
176
1
 62
7
420
16777215
176
1
 90
1
176
1
 90
4
176
1
 62
7
176
1
 62
257
176
1
 90
1
176
1
 90
1
176
1
 40
1.0
176
1
 90
8
176
1
 62
7
176
1
 40
1.0
176
1
 90
1
176
1
 90
6
176
1
 90
2
176
1
 62
7
176
1
 90
5
176
1
 90
0
176
1
 90
0
176
1
290
0
176
1
 90
1
176
1
 40
0.0
176
1
 90
0
176
1
290
0
176
1
290
1
176
1
290
1
176
1
290
0
176
1
290
0
176
1
290
0
176
1
290
0
176
1
290
0
176
1
290
0
176
1
 90
50
176
1
 40
0.0
176
1
 40
1.0
176
1
 90
0
176
1
 62
18
420
0
176
1
 90
50
176
1
 90
3
176
1
 62
5
420
255
176
1
290
0
176
1
 90
50
176
1
 90
50
176
1
 90
50
176
1
290
0
176
1
 90
50
176
1
 62
256
176
0
 40
1.0
176
0
 90
2
176
1
  1
strokes_ogs.tif
176
1
290
0
176
1
 40
1.0
176
1
 40
1.0
176
1
  0
VISUALSTYLE
  5
66
102
{ACAD_REACTORS
330
16
102
}
330
16
100
AcDbVisualStyle
  2
Hidden
 70
6
177
3
291
0
 70
58
 90
2
176
1
 90
2
176
1
 90
0
176
1
 90
1
176
1
 40
0.6
176
1
 40
30.0
176
1
 62
7
420
16777215
176
1
 90
1
176
1
 90
4
176
1
 62
7
176
1
 62
257
176
1
 90
1
176
1
 90
1
176
1
 40
1.0
176
1
 90
8
176
1
 62
7
176
1
 40
1.0
176
1
 90
1
176
1
 90
6
176
1
 90
2
176
1
 62
7
176
1
 90
5
176
1
 90
0
176
1
 90
0
176
1
290
0
176
1
 90
1
176
1
 40
0.0
176
1
 90
0
176
1
290
0
176
1
290
1
176
1
290
1
176
1
290
0
176
1
290
0
176
1
290
0
176
1
290
0
176
1
290
0
176
1
290
0
176
1
 90
50
176
1
 40
0.0
176
1
 40
1.0
176
1
 90
0
176
1
 62
18
420
0
176
1
 90
50
176
1
 90
3
176
1
 62
5
420
255
176
1
290
0
176
1
 90
50
176
1
 90
50
176
1
 90
50
176
1
290
0
176
1
 90
50
176
1
 62
256
176
0
 40
1.0
176
0
 90
2
176
1
  1
strokes_ogs.tif
176
1
290
0
176
1
 40
1.0
176
1
 40
1.0
176
1
  0
VISUALSTYLE
  5
67
102
{ACAD_REACTORS
330
16
102
}
330
16
100
AcDbVisualStyle
  2
JitterOff
 70
20
177
3
291
1
 70
58
 90
2
176
1
 90
2
176
1
 90
0
176
1
 90
2
176
1
 40
0.6
176
1
 40
30.0
176
1
 62
7
420
16777215
176
1
 90
1
176
1
 90
4
176
1
 62
7
176
1
 62
257
176
1
 90
1
176
1
 90
1
176
1
 40
1.0
176
1
 90
8
176
1
 62
7
176
1
 40
1.0
176
1
 90
1
176
1
 90
6
176
1
 90
2
176
1
 62
7
176
1
 90
5
176
1
 90
0
176
1
 90
0
176
1
290
0
176
1
 90
1
176
1
 40
0.0
176
1
 90
0
176
1
290
0
176
1
290
1
176
1
290
1
176
1
290
0
176
1
290
0
176
1
290
0
176
1
290
0
176
1
290
0
176
1
290
0
176
1
 90
50
176
1
 40
0.0
176
1
 40
1.0
176
1
 90
0
176
1
 62
18
420
0
176
1
 90
50
176
1
 90
3
176
1
 62
5
420
255
176
1
290
0
176
1
 90
50
176
1
 90
50
176
1
 90
50
176
1
290
0
176
1
 90
50
176
1
 62
256
176
0
 40
1.0
176
0
 90
2
176
1
  1
strokes_ogs.tif
176
1
290
0
176
1
 40
1.0
176
1
 40
1.0
176
1
  0
VISUALSTYLE
  5
68
102
{ACAD_REACTORS
330
16
102
}
330
16
100
AcDbVisualStyle
  2
Linepattern
 70
14
177
3
291
1
 70
58
 90
2
176
1
 90
2
176
1
 90
0
176
1
 90
2
176
1
 40
0.6
176
1
 40
30.0
176
1
 62
7
420
16777215
176
1
 90
1
176
1
 90
4
176
1
 62
7
176
1
 62
257
176
1
 90
1
176
1
 90
1
176
1
 40
1.0
176
1
 90
8
176
1
 62
7
176
1
 40
1.0
176
1
 90
1
176
1
 90
6
176
1
 90
2
176
1
 62
7
176
1
 90
5
176
1
 90
0
176
1
 90
0
176
1
290
0
176
1
 90
1
176
1
 40
0.0
176
1
 90
0
176
1
290
0
176
1
290
1
176
1
290
1
176
1
290
0
176
1
290
0
176
1
290
0
176
1
290
0
176
1
290
0
176
1
290
0
176
1
 90
50
176
1
 40
0.0
176
1
 40
1.0
176
1
 90
0
176
1
 62
18
420
0
176
1
 90
50
176
1
 90
3
176
1
 62
5
420
255
176
1
290
0
176
1
 90
50
176
1
 90
50
176
1
 90
50
176
1
290
0
176
1
 90
50
176
1
 62
256
176
0
 40
1.0
176
0
 90
2
176
1
  1
strokes_ogs.tif
176
1
290
0
176
1
 40
1.0
176
1
 40
1.0
176
1
  0
VISUALSTYLE
  5
69
102
{ACAD_REACTORS
330
16
102
}
330
16
100
AcDbVisualStyle
  2
Modeling
 70
10
177
3
291
0
 70
58
 90
2
176
1
 90
2
176
1
 90
0
176
1
 90
2
176
1
 40
0.6
176
1
 40
30.0
176
1
 62
7
420
16777215
176
1
 90
1
176
1
 90
4
176
1
 62
7
176
1
 62
257
176
1
 90
1
176
1
 90
1
176
1
 40
1.0
176
1
 90
8
176
1
 62
7
176
1
 40
1.0
176
1
 90
1
176
1
 90
6
176
1
 90
2
176
1
 62
7
176
1
 90
5
176
1
 90
0
176
1
 90
0
176
1
290
0
176
1
 90
1
176
1
 40
0.0
176
1
 90
0
176
1
290
0
176
1
290
1
176
1
290
1
176
1
290
0
176
1
290
0
176
1
290
0
176
1
290
0
176
1
290
0
176
1
290
0
176
1
 90
50
176
1
 40
0.0
176
1
 40
1.0
176
1
 90
0
176
1
 62
18
420
0
176
1
 90
50
176
1
 90
3
176
1
 62
5
420
255
176
1
290
0
176
1
 90
50
176
1
 90
50
176
1
 90
50
176
1
290
0
176
1
 90
50
176
1
 62
256
176
0
 40
1.0
176
0
 90
2
176
1
  1
strokes_ogs.tif
176
1
290
0
176
1
 40
1.0
176
1
 40
1.0
176
1
  0
VISUALSTYLE
  5
6A
102
{ACAD_REACTORS
330
16
102
}
330
16
100
AcDbVisualStyle
  2
OverhangOff
 70
21
177
3
291
1
 70
58
 90
2
176
1
 90
2
176
1
 90
0
176
1
 90
2
176
1
 40
0.6
176
1
 40
30.0
176
1
 62
7
420
16777215
176
1
 90
1
176
1
 90
4
176
1
 62
7
176
1
 62
257
176
1
 90
1
176
1
 90
1
176
1
 40
1.0
176
1
 90
8
176
1
 62
7
176
1
 40
1.0
176
1
 90
1
176
1
 90
6
176
1
 90
2
176
1
 62
7
176
1
 90
5
176
1
 90
0
176
1
 90
0
176
1
290
0
176
1
 90
1
176
1
 40
0.0
176
1
 90
0
176
1
290
0
176
1
290
1
176
1
290
1
176
1
290
0
176
1
290
0
176
1
290
0
176
1
290
0
176
1
290
0
176
1
290
0
176
1
 90
50
176
1
 40
0.0
176
1
 40
1.0
176
1
 90
0
176
1
 62
18
420
0
176
1
 90
50
176
1
 90
3
176
1
 62
5
420
255
176
1
290
0
176
1
 90
50
176
1
 90
50
176
1
 90
50
176
1
290
0
176
1
 90
50
176
1
 62
256
176
0
 40
1.0
176
0
 90
2
176
1
  1
strokes_ogs.tif
176
1
290
0
176
1
 40
1.0
176
1
 40
1.0
176
1
  0
VISUALSTYLE
  5
6B
102
{ACAD_REACTORS
330
16
102
}
330
16
100
AcDbVisualStyle
  2
Realistic
 70
8
177
3
291
0
 70
58
 90
2
176
1
 90
2
176
1
 90
0
176
1
 90
2
176
1
 40
0.6
176
1
 40
30.0
176
1
 62
7
420
16777215
176
1
 90
1
176
1
 90
4
176
1
 62
7
176
1
 62
257
176
1
 90
1
176
1
 90
1
176
1
 40
1.0
176
1
 90
8
176
1
 62
7
176
1
 40
1.0
176
1
 90
1
176
1
 90
6
176
1
 90
2
176
1
 62
7
176
1
 90
5
176
1
 90
0
176
1
 90
0
176
1
290
0
176
1
 90
1
176
1
 40
0.0
176
1
 90
0
176
1
290
0
176
1
290
1
176
1
290
1
176
1
290
0
176
1
290
0
176
1
290
0
176
1
290
0
176
1
290
0
176
1
290
0
176
1
 90
50
176
1
 40
0.0
176
1
 40
1.0
176
1
 90
0
176
1
 62
18
420
0
176
1
 90
50
176
1
 90
3
176
1
 62
5
420
255
176
1
290
0
176
1
 90
50
176
1
 90
50
176
1
 90
50
176
1
290
0
176
1
 90
50
176
1
 62
256
176
0
 40
1.0
176
0
 90
2
176
1
  1
strokes_ogs.tif
176
1
290
0
176
1
 40
1.0
176
1
 40
1.0
176
1
  0
VISUALSTYLE
  5
6C
102
{ACAD_REACTORS
330
16
102
}
330
16
100
AcDbVisualStyle
  2
Shaded
 70
27
177
3
291
0
 70
58
 90
2
176
1
 90
2
176
1
 90
0
176
1
 90
2
176
1
 40
0.6
176
1
 40
30.0
176
1
 62
7
420
16777215
176
1
 90
1
176
1
 90
4
176
1
 62
7
176
1
 62
257
176
1
 90
1
176
1
 90
1
176
1
 40
1.0
176
1
 90
8
176
1
 62
7
176
1
 40
1.0
176
1
 90
1
176
1
 90
6
176
1
 90
2
176
1
 62
7
176
1
 90
5
176
1
 90
0
176
1
 90
0
176
1
290
0
176
1
 90
1
176
1
 40
0.0
176
1
 90
0
176
1
290
0
176
1
290
1
176
1
290
1
176
1
290
0
176
1
290
0
176
1
290
0
176
1
290
0
176
1
290
0
176
1
290
0
176
1
 90
50
176
1
 40
0.0
176
1
 40
1.0
176
1
 90
0
176
1
 62
18
420
0
176
1
 90
50
176
1
 90
3
176
1
 62
5
420
255
176
1
290
0
176
1
 90
50
176
1
 90
50
176
1
 90
50
176
1
290
0
176
1
 90
50
176
1
 62
256
176
0
 40
1.0
176
0
 90
2
176
1
  1
strokes_ogs.tif
176
1
290
0
176
1
 40
1.0
176
1
 40
1.0
176
1
  0
VISUALSTYLE
  5
6D
102
{ACAD_REACTORS
330
16
102
}
330
16
100
AcDbVisualStyle
  2
Shaded with edges
 70
26
177
3
291
0
 70
58
 90
2
176
1
 90
2
176
1
 90
0
176
1
 90
2
176
1
 40
0.6
176
1
 40
30.0
176
1
 62
7
420
16777215
176
1
 90
1
176
1
 90
4
176
1
 62
7
176
1
 62
257
176
1
 90
1
176
1
 90
1
176
1
 40
1.0
176
1
 90
8
176
1
 62
7
176
1
 40
1.0
176
1
 90
1
176
1
 90
6
176
1
 90
2
176
1
 62
7
176
1
 90
5
176
1
 90
0
176
1
 90
0
176
1
290
0
176
1
 90
1
176
1
 40
0.0
176
1
 90
0
176
1
290
0
176
1
290
1
176
1
290
1
176
1
290
0
176
1
290
0
176
1
290
0
176
1
290
0
176
1
290
0
176
1
290
0
176
1
 90
50
176
1
 40
0.0
176
1
 40
1.0
176
1
 90
0
176
1
 62
18
420
0
176
1
 90
50
176
1
 90
3
176
1
 62
5
420
255
176
1
290
0
176
1
 90
50
176
1
 90
50
176
1
 90
50
176
1
290
0
176
1
 90
50
176
1
 62
256
176
0
 40
1.0
176
0
 90
2
176
1
  1
strokes_ogs.tif
176
1
290
0
176
1
 40
1.0
176
1
 40
1.0
176
1
  0
VISUALSTYLE
  5
6E
102
{ACAD_REACTORS
330
16
102
}
330
16
100
AcDbVisualStyle
  2
Shades of Gray
 70
23
177
3
291
0
 70
58
 90
2
176
1
 90
2
176
1
 90
0
176
1
 90
2
176
1
 40
0.6
176
1
 40
30.0
176
1
 62
7
420
16777215
176
1
 90
1
176
1
 90
4
176
1
 62
7
176
1
 62
257
176
1
 90
1
176
1
 90
1
176
1
 40
1.0
176
1
 90
8
176
1
 62
7
176
1
 40
1.0
176
1
 90
1
176
1
 90
6
176
1
 90
2
176
1
 62
7
176
1
 90
5
176
1
 90
0
176
1
 90
0
176
1
290
0
176
1
 90
1
176
1
 40
0.0
176
1
 90
0
176
1
290
0
176
1
290
1
176
1
290
1
176
1
290
0
176
1
290
0
176
1
290
0
176
1
290
0
176
1
290
0
176
1
290
0
176
1
 90
50
176
1
 40
0.0
176
1
 40
1.0
176
1
 90
0
176
1
 62
18
420
0
176
1
 90
50
176
1
 90
3
176
1
 62
5
420
255
176
1
290
0
176
1
 90
50
176
1
 90
50
176
1
 90
50
176
1
290
0
176
1
 90
50
176
1
 62
256
176
0
 40
1.0
176
0
 90
2
176
1
  1
strokes_ogs.tif
176
1
290
0
176
1
 40
1.0
176
1
 40
1.0
176
1
  0
VISUALSTYLE
  5
6F
102
{ACAD_REACTORS
330
16
102
}
330
16
100
AcDbVisualStyle
  2
Sketchy
 70
24
177
3
291
0
 70
58
 90
2
176
1
 90
2
176
1
 90
0
176
1
 90
1
176
1
 40
0.6
176
1
 40
30.0
176
1
 62
7
420
16777215
176
1
 90
1
176
1
 90
4
176
1
 62
7
176
1
 62
257
176
1
 90
1
176
1
 90
1
176
1
 40
1.0
176
1
 90
8
176
1
 62
7
176
1
 40
1.0
176
1
 90
1
176
1
 90
6
176
1
 90
2
176
1
 62
7
176
1
 90
5
176
1
 90
0
176
1
 90
0
176
1
290
0
176
1
 90
1
176
1
 40
0.0
176
1
 90
0
176
1
290
0
176
1
290
1
176
1
290
1
176
1
290
0
176
1
290
0
176
1
290
0
176
1
290
0
176
1
290
0
176
1
290
0
176
1
 90
50
176
1
 40
0.0
176
1
 40
1.0
176
1
 90
0
176
1
 62
18
420
0
176
1
 90
50
176
1
 90
3
176
1
 62
5
420
255
176
1
290
0
176
1
 90
50
176
1
 90
50
176
1
 90
50
176
1
290
0
176
1
 90
50
176
1
 62
256
176
0
 40
1.0
176
0
 90
2
176
1
  1
strokes_ogs.tif
176
1
290
0
176
1
 40
1.0
176
1
 40
1.0
176
1
  0
VISUALSTYLE
  5
70
102
{ACAD_REACTORS
330
16
102
}
330
16
100
AcDbVisualStyle
  2
Thicken
 70
13
177
3
291
1
 70
58
 90
2
176
1
 90
2
176
1
 90
0
176
1
 90
2
176
1
 40
0.6
176
1
 40
30.0
176
1
 62
7
420
16777215
176
1
 90
1
176
1
 90
4
176
1
 62
7
176
1
 62
257
176
1
 90
1
176
1
 90
1
176
1
 40
1.0
176
1
 90
8
176
1
 62
7
176
1
 40
1.0
176
1
 90
1
176
1
 90
6
176
1
 90
2
176
1
 62
7
176
1
 90
5
176
1
 90
0
176
1
 90
0
176
1
290
0
176
1
 90
1
176
1
 40
0.0
176
1
 90
0
176
1
290
0
176
1
290
1
176
1
290
1
176
1
290
0
176
1
290
0
176
1
290
0
176
1
290
0
176
1
290
0
176
1
290
0
176
1
 90
50
176
1
 40
0.0
176
1
 40
1.0
176
1
 90
0
176
1
 62
18
420
0
176
1
 90
50
176
1
 90
3
176
1
 62
5
420
255
176
1
290
0
176
1
 90
50
176
1
 90
50
176
1
 90
50
176
1
290
0
176
1
 90
50
176
1
 62
256
176
0
 40
1.0
176
0
 90
2
176
1
  1
strokes_ogs.tif
176
1
290
0
176
1
 40
1.0
176
1
 40
1.0
176
1
  0
VISUALSTYLE
  5
71
102
{ACAD_REACTORS
330
16
102
}
330
16
100
AcDbVisualStyle
  2
Wireframe
 70
5
177
3
291
0
 70
58
 90
2
176
1
 90
2
176
1
 90
0
176
1
 90
0
176
1
 40
0.6
176
1
 40
30.0
176
1
 62
7
420
16777215
176
1
 90
1
176
1
 90
4
176
1
 62
7
176
1
 62
257
176
1
 90
1
176
1
 90
1
176
1
 40
1.0
176
1
 90
8
176
1
 62
7
176
1
 40
1.0
176
1
 90
1
176
1
 90
6
176
1
 90
2
176
1
 62
7
176
1
 90
5
176
1
 90
0
176
1
 90
0
176
1
290
0
176
1
 90
1
176
1
 40
0.0
176
1
 90
0
176
1
290
0
176
1
290
1
176
1
290
1
176
1
290
0
176
1
290
0
176
1
290
0
176
1
290
0
176
1
290
0
176
1
290
0
176
1
 90
50
176
1
 40
0.0
176
1
 40
1.0
176
1
 90
0
176
1
 62
18
420
0
176
1
 90
50
176
1
 90
3
176
1
 62
5
420
255
176
1
290
0
176
1
 90
50
176
1
 90
50
176
1
 90
50
176
1
290
0
176
1
 90
50
176
1
 62
256
176
0
 40
1.0
176
0
 90
2
176
1
  1
strokes_ogs.tif
176
1
290
0
176
1
 40
1.0
176
1
 40
1.0
176
1
  0
VISUALSTYLE
  5
72
102
{ACAD_REACTORS
330
16
102
}
330
16
100
AcDbVisualStyle
  2
X-Ray
 70
25
177
3
291
0
 70
58
 90
2
176
1
 90
2
176
1
 90
0
176
1
 90
2
176
1
 40
0.5
176
1
 40
30.0
176
1
 62
7
420
16777215
176
1
 90
1
176
1
 90
4
176
1
 62
7
176
1
 62
257
176
1
 90
1
176
1
 90
1
176
1
 40
1.0
176
1
 90
8
176
1
 62
7
176
1
 40
1.0
176
1
 90
1
176
1
 90
6
176
1
 90
2
176
1
 62
7
176
1
 90
5
176
1
 90
0
176
1
 90
0
176
1
290
0
176
1
 90
1
176
1
 40
0.0
176
1
 90
0
176
1
290
0
176
1
290
1
176
1
290
1
176
1
290
0
176
1
290
0
176
1
290
0
176
1
290
0
176
1
290
0
176
1
290
0
176
1
 90
50
176
1
 40
0.0
176
1
 40
1.0
176
1
 90
0
176
1
 62
18
420
0
176
1
 90
50
176
1
 90
3
176
1
 62
5
420
255
176
1
290
0
176
1
 90
50
176
1
 90
50
176
1
 90
50
176
1
290
0
176
1
 90
50
176
1
 62
256
176
0
 40
1.0
176
0
 90
2
176
1
  1
strokes_ogs.tif
176
1
290
0
176
1
 40
1.0
176
1
 40
1.0
176
1
  0
LAYOUT
  5
397
330
D
100
AcDbPlotSettings
  1

  2
DWG To PDF.pc3
  4
A0 horizontal 1:1_(1189.00_x_841.00_MM)
  6

 40
0.0
 41
0.0
 42
0.0
 43
0.0
 44
1189.0
 45
841.0
 46
0.0
 47
0.0
 48
0.0
 49
0.0
140
0.0
141
0.0
142
1.0
143
1.0
 70
0
 72
1
 73
0
 74
5
  7

 75
16
 76
0
 77
2
 78
300
147
1.0
148
0.0
149
0.0
100
AcDbLayout
  1
A0_HORIZONTAL
 70
1
 71
3
 10
-0.0
 20
-0.0
 11
1189.0
 21
841.0
 12
0.0
 22
0.0
 32
0.0
 14
1e+20
 24
1e+20
 34
1e+20
 15
-1e+20
 25
-1e+20
 35
-1e+20
146
0.0
 13
0.0
 23
0.0
 33
0.0
 16
1.0
 26
0.0
 36
0.0
 17
0.0
 27
1.0
 37
0.0
 76
1
330
394
331
398
  0
DICTIONARYVAR
  5
39C
330
2D
100
DictionaryVariables
280
0
  1
1.4.4 @ 2026-07-18T01:35:08.065912+00:00
  0
ENDSEC
  0
EOF
